<?xml version="1.0" encoding="utf-8" standalone="no"?>
<!DOCTYPE svg PUBLIC "-//W3C//DTD SVG 1.1//EN"
  "http://www.w3.org/Graphics/SVG/1.1/DTD/svg11.dtd">
<svg xmlns:xlink="http://www.w3.org/1999/xlink" width="694.843785pt" height="191.069531pt" viewBox="0 0 694.843785 191.069531" xmlns="http://www.w3.org/2000/svg" version="1.1">
 <metadata>
  <rdf:RDF xmlns:dc="http://purl.org/dc/elements/1.1/" xmlns:cc="http://creativecommons.org/ns#" xmlns:rdf="http://www.w3.org/1999/02/22-rdf-syntax-ns#">
   <cc:Work>
    <dc:type rdf:resource="http://purl.org/dc/dcmitype/StillImage"/>
    <dc:date>2024-11-28T10:59:39.630431</dc:date>
    <dc:format>image/svg+xml</dc:format>
    <dc:creator>
     <cc:Agent>
      <dc:title>Matplotlib v3.9.2, https://matplotlib.org/</dc:title>
     </cc:Agent>
    </dc:creator>
   </cc:Work>
  </rdf:RDF>
 </metadata>
 <defs>
  <style type="text/css">*{stroke-linejoin: round; stroke-linecap: butt}</style>
 </defs>
 <g id="figure_1">
  <g id="patch_1">
   <path d="M 0 191.069531 
L 694.843785 191.069531 
L 694.843785 0 
L 0 0 
L 0 191.069531 
z
" style="fill: none"/>
  </g>
  <g id="axes_1">
   <g id="patch_2">
    <path d="M 179.140625 130.98 
L 673.123785 130.98 
L 673.123785 7.2 
L 179.140625 7.2 
z
" style="fill: #ffffff"/>
   </g>
   <g id="matplotlib.axis_1">
    <g id="xtick_1">
     <g id="line2d_1">
      <path d="M 179.140625 130.98 
L 179.140625 7.2 
" clip-path="url(#p0503fbe0aa)" style="fill: none; stroke: #cccccc; stroke-width: 2; stroke-linecap: round"/>
     </g>
     <g id="text_1">
      <!-- $\mathdefault{10^{-1}}$ -->
      <g style="fill: #262626" transform="translate(159.753125 159.017422) scale(0.165 -0.165)">
       <defs>
        <path id="DejaVuSans-31" d="M 794 531 
L 1825 531 
L 1825 4091 
L 703 3866 
L 703 4441 
L 1819 4666 
L 2450 4666 
L 2450 531 
L 3481 531 
L 3481 0 
L 794 0 
L 794 531 
z
" transform="scale(0.015625)"/>
        <path id="DejaVuSans-30" d="M 2034 4250 
Q 1547 4250 1301 3770 
Q 1056 3291 1056 2328 
Q 1056 1369 1301 889 
Q 1547 409 2034 409 
Q 2525 409 2770 889 
Q 3016 1369 3016 2328 
Q 3016 3291 2770 3770 
Q 2525 4250 2034 4250 
z
M 2034 4750 
Q 2819 4750 3233 4129 
Q 3647 3509 3647 2328 
Q 3647 1150 3233 529 
Q 2819 -91 2034 -91 
Q 1250 -91 836 529 
Q 422 1150 422 2328 
Q 422 3509 836 4129 
Q 1250 4750 2034 4750 
z
" transform="scale(0.015625)"/>
        <path id="DejaVuSans-2212" d="M 678 2272 
L 4684 2272 
L 4684 1741 
L 678 1741 
L 678 2272 
z
" transform="scale(0.015625)"/>
       </defs>
       <use xlink:href="#DejaVuSans-31" transform="translate(0 0.684375)"/>
       <use xlink:href="#DejaVuSans-30" transform="translate(63.623047 0.684375)"/>
       <use xlink:href="#DejaVuSans-2212" transform="translate(128.203125 38.965625) scale(0.7)"/>
       <use xlink:href="#DejaVuSans-31" transform="translate(186.855469 38.965625) scale(0.7)"/>
      </g>
     </g>
    </g>
    <g id="xtick_2">
     <g id="line2d_2">
      <path d="M 277.937257 130.98 
L 277.937257 7.2 
" clip-path="url(#p0503fbe0aa)" style="fill: none; stroke: #cccccc; stroke-width: 2; stroke-linecap: round"/>
     </g>
     <g id="text_2">
      <!-- $\mathdefault{10^{0}}$ -->
      <g style="fill: #262626" transform="translate(263.417257 159.017422) scale(0.165 -0.165)">
       <use xlink:href="#DejaVuSans-31" transform="translate(0 0.765625)"/>
       <use xlink:href="#DejaVuSans-30" transform="translate(63.623047 0.765625)"/>
       <use xlink:href="#DejaVuSans-30" transform="translate(128.203125 39.046875) scale(0.7)"/>
      </g>
     </g>
    </g>
    <g id="xtick_3">
     <g id="line2d_3">
      <path d="M 376.733889 130.98 
L 376.733889 7.2 
" clip-path="url(#p0503fbe0aa)" style="fill: none; stroke: #cccccc; stroke-width: 2; stroke-linecap: round"/>
     </g>
     <g id="text_3">
      <!-- $\mathdefault{10^{1}}$ -->
      <g style="fill: #262626" transform="translate(362.213889 159.017422) scale(0.165 -0.165)">
       <use xlink:href="#DejaVuSans-31" transform="translate(0 0.684375)"/>
       <use xlink:href="#DejaVuSans-30" transform="translate(63.623047 0.684375)"/>
       <use xlink:href="#DejaVuSans-31" transform="translate(128.203125 38.965625) scale(0.7)"/>
      </g>
     </g>
    </g>
    <g id="xtick_4">
     <g id="line2d_4">
      <path d="M 475.530521 130.98 
L 475.530521 7.2 
" clip-path="url(#p0503fbe0aa)" style="fill: none; stroke: #cccccc; stroke-width: 2; stroke-linecap: round"/>
     </g>
     <g id="text_4">
      <!-- $\mathdefault{10^{2}}$ -->
      <g style="fill: #262626" transform="translate(461.010521 159.017422) scale(0.165 -0.165)">
       <defs>
        <path id="DejaVuSans-32" d="M 1228 531 
L 3431 531 
L 3431 0 
L 469 0 
L 469 531 
Q 828 903 1448 1529 
Q 2069 2156 2228 2338 
Q 2531 2678 2651 2914 
Q 2772 3150 2772 3378 
Q 2772 3750 2511 3984 
Q 2250 4219 1831 4219 
Q 1534 4219 1204 4116 
Q 875 4013 500 3803 
L 500 4441 
Q 881 4594 1212 4672 
Q 1544 4750 1819 4750 
Q 2544 4750 2975 4387 
Q 3406 4025 3406 3419 
Q 3406 3131 3298 2873 
Q 3191 2616 2906 2266 
Q 2828 2175 2409 1742 
Q 1991 1309 1228 531 
z
" transform="scale(0.015625)"/>
       </defs>
       <use xlink:href="#DejaVuSans-31" transform="translate(0 0.765625)"/>
       <use xlink:href="#DejaVuSans-30" transform="translate(63.623047 0.765625)"/>
       <use xlink:href="#DejaVuSans-32" transform="translate(128.203125 39.046875) scale(0.7)"/>
      </g>
     </g>
    </g>
    <g id="xtick_5">
     <g id="line2d_5">
      <path d="M 574.327153 130.98 
L 574.327153 7.2 
" clip-path="url(#p0503fbe0aa)" style="fill: none; stroke: #cccccc; stroke-width: 2; stroke-linecap: round"/>
     </g>
     <g id="text_5">
      <!-- $\mathdefault{10^{3}}$ -->
      <g style="fill: #262626" transform="translate(559.807153 159.017422) scale(0.165 -0.165)">
       <defs>
        <path id="DejaVuSans-33" d="M 2597 2516 
Q 3050 2419 3304 2112 
Q 3559 1806 3559 1356 
Q 3559 666 3084 287 
Q 2609 -91 1734 -91 
Q 1441 -91 1130 -33 
Q 819 25 488 141 
L 488 750 
Q 750 597 1062 519 
Q 1375 441 1716 441 
Q 2309 441 2620 675 
Q 2931 909 2931 1356 
Q 2931 1769 2642 2001 
Q 2353 2234 1838 2234 
L 1294 2234 
L 1294 2753 
L 1863 2753 
Q 2328 2753 2575 2939 
Q 2822 3125 2822 3475 
Q 2822 3834 2567 4026 
Q 2313 4219 1838 4219 
Q 1578 4219 1281 4162 
Q 984 4106 628 3988 
L 628 4550 
Q 988 4650 1302 4700 
Q 1616 4750 1894 4750 
Q 2613 4750 3031 4423 
Q 3450 4097 3450 3541 
Q 3450 3153 3228 2886 
Q 3006 2619 2597 2516 
z
" transform="scale(0.015625)"/>
       </defs>
       <use xlink:href="#DejaVuSans-31" transform="translate(0 0.765625)"/>
       <use xlink:href="#DejaVuSans-30" transform="translate(63.623047 0.765625)"/>
       <use xlink:href="#DejaVuSans-33" transform="translate(128.203125 39.046875) scale(0.7)"/>
      </g>
     </g>
    </g>
    <g id="xtick_6">
     <g id="line2d_6">
      <path d="M 673.123785 130.98 
L 673.123785 7.2 
" clip-path="url(#p0503fbe0aa)" style="fill: none; stroke: #cccccc; stroke-width: 2; stroke-linecap: round"/>
     </g>
     <g id="text_6">
      <!-- $\mathdefault{10^{4}}$ -->
      <g style="fill: #262626" transform="translate(658.603785 159.017422) scale(0.165 -0.165)">
       <defs>
        <path id="DejaVuSans-34" d="M 2419 4116 
L 825 1625 
L 2419 1625 
L 2419 4116 
z
M 2253 4666 
L 3047 4666 
L 3047 1625 
L 3713 1625 
L 3713 1100 
L 3047 1100 
L 3047 0 
L 2419 0 
L 2419 1100 
L 313 1100 
L 313 1709 
L 2253 4666 
z
" transform="scale(0.015625)"/>
       </defs>
       <use xlink:href="#DejaVuSans-31" transform="translate(0 0.684375)"/>
       <use xlink:href="#DejaVuSans-30" transform="translate(63.623047 0.684375)"/>
       <use xlink:href="#DejaVuSans-34" transform="translate(128.203125 38.965625) scale(0.7)"/>
      </g>
     </g>
    </g>
    <g id="xtick_7">
     <g id="line2d_7">
      <path d="M 208.881375 130.98 
L 208.881375 7.2 
" clip-path="url(#p0503fbe0aa)" style="fill: none; stroke: #cccccc; stroke-linecap: round"/>
     </g>
    </g>
    <g id="xtick_8">
     <g id="line2d_8">
      <path d="M 226.278598 130.98 
L 226.278598 7.2 
" clip-path="url(#p0503fbe0aa)" style="fill: none; stroke: #cccccc; stroke-linecap: round"/>
     </g>
    </g>
    <g id="xtick_9">
     <g id="line2d_9">
      <path d="M 238.622124 130.98 
L 238.622124 7.2 
" clip-path="url(#p0503fbe0aa)" style="fill: none; stroke: #cccccc; stroke-linecap: round"/>
     </g>
    </g>
    <g id="xtick_10">
     <g id="line2d_10">
      <path d="M 248.196507 130.98 
L 248.196507 7.2 
" clip-path="url(#p0503fbe0aa)" style="fill: none; stroke: #cccccc; stroke-linecap: round"/>
     </g>
    </g>
    <g id="xtick_11">
     <g id="line2d_11">
      <path d="M 256.019348 130.98 
L 256.019348 7.2 
" clip-path="url(#p0503fbe0aa)" style="fill: none; stroke: #cccccc; stroke-linecap: round"/>
     </g>
    </g>
    <g id="xtick_12">
     <g id="line2d_12">
      <path d="M 262.633465 130.98 
L 262.633465 7.2 
" clip-path="url(#p0503fbe0aa)" style="fill: none; stroke: #cccccc; stroke-linecap: round"/>
     </g>
    </g>
    <g id="xtick_13">
     <g id="line2d_13">
      <path d="M 268.362874 130.98 
L 268.362874 7.2 
" clip-path="url(#p0503fbe0aa)" style="fill: none; stroke: #cccccc; stroke-linecap: round"/>
     </g>
    </g>
    <g id="xtick_14">
     <g id="line2d_14">
      <path d="M 273.416571 130.98 
L 273.416571 7.2 
" clip-path="url(#p0503fbe0aa)" style="fill: none; stroke: #cccccc; stroke-linecap: round"/>
     </g>
    </g>
    <g id="xtick_15">
     <g id="line2d_15">
      <path d="M 307.678007 130.98 
L 307.678007 7.2 
" clip-path="url(#p0503fbe0aa)" style="fill: none; stroke: #cccccc; stroke-linecap: round"/>
     </g>
    </g>
    <g id="xtick_16">
     <g id="line2d_16">
      <path d="M 325.07523 130.98 
L 325.07523 7.2 
" clip-path="url(#p0503fbe0aa)" style="fill: none; stroke: #cccccc; stroke-linecap: round"/>
     </g>
    </g>
    <g id="xtick_17">
     <g id="line2d_17">
      <path d="M 337.418756 130.98 
L 337.418756 7.2 
" clip-path="url(#p0503fbe0aa)" style="fill: none; stroke: #cccccc; stroke-linecap: round"/>
     </g>
    </g>
    <g id="xtick_18">
     <g id="line2d_18">
      <path d="M 346.993139 130.98 
L 346.993139 7.2 
" clip-path="url(#p0503fbe0aa)" style="fill: none; stroke: #cccccc; stroke-linecap: round"/>
     </g>
    </g>
    <g id="xtick_19">
     <g id="line2d_19">
      <path d="M 354.81598 130.98 
L 354.81598 7.2 
" clip-path="url(#p0503fbe0aa)" style="fill: none; stroke: #cccccc; stroke-linecap: round"/>
     </g>
    </g>
    <g id="xtick_20">
     <g id="line2d_20">
      <path d="M 361.430097 130.98 
L 361.430097 7.2 
" clip-path="url(#p0503fbe0aa)" style="fill: none; stroke: #cccccc; stroke-linecap: round"/>
     </g>
    </g>
    <g id="xtick_21">
     <g id="line2d_21">
      <path d="M 367.159506 130.98 
L 367.159506 7.2 
" clip-path="url(#p0503fbe0aa)" style="fill: none; stroke: #cccccc; stroke-linecap: round"/>
     </g>
    </g>
    <g id="xtick_22">
     <g id="line2d_22">
      <path d="M 372.213203 130.98 
L 372.213203 7.2 
" clip-path="url(#p0503fbe0aa)" style="fill: none; stroke: #cccccc; stroke-linecap: round"/>
     </g>
    </g>
    <g id="xtick_23">
     <g id="line2d_23">
      <path d="M 406.474639 130.98 
L 406.474639 7.2 
" clip-path="url(#p0503fbe0aa)" style="fill: none; stroke: #cccccc; stroke-linecap: round"/>
     </g>
    </g>
    <g id="xtick_24">
     <g id="line2d_24">
      <path d="M 423.871862 130.98 
L 423.871862 7.2 
" clip-path="url(#p0503fbe0aa)" style="fill: none; stroke: #cccccc; stroke-linecap: round"/>
     </g>
    </g>
    <g id="xtick_25">
     <g id="line2d_25">
      <path d="M 436.215388 130.98 
L 436.215388 7.2 
" clip-path="url(#p0503fbe0aa)" style="fill: none; stroke: #cccccc; stroke-linecap: round"/>
     </g>
    </g>
    <g id="xtick_26">
     <g id="line2d_26">
      <path d="M 445.789771 130.98 
L 445.789771 7.2 
" clip-path="url(#p0503fbe0aa)" style="fill: none; stroke: #cccccc; stroke-linecap: round"/>
     </g>
    </g>
    <g id="xtick_27">
     <g id="line2d_27">
      <path d="M 453.612612 130.98 
L 453.612612 7.2 
" clip-path="url(#p0503fbe0aa)" style="fill: none; stroke: #cccccc; stroke-linecap: round"/>
     </g>
    </g>
    <g id="xtick_28">
     <g id="line2d_28">
      <path d="M 460.226729 130.98 
L 460.226729 7.2 
" clip-path="url(#p0503fbe0aa)" style="fill: none; stroke: #cccccc; stroke-linecap: round"/>
     </g>
    </g>
    <g id="xtick_29">
     <g id="line2d_29">
      <path d="M 465.956138 130.98 
L 465.956138 7.2 
" clip-path="url(#p0503fbe0aa)" style="fill: none; stroke: #cccccc; stroke-linecap: round"/>
     </g>
    </g>
    <g id="xtick_30">
     <g id="line2d_30">
      <path d="M 471.009835 130.98 
L 471.009835 7.2 
" clip-path="url(#p0503fbe0aa)" style="fill: none; stroke: #cccccc; stroke-linecap: round"/>
     </g>
    </g>
    <g id="xtick_31">
     <g id="line2d_31">
      <path d="M 505.271271 130.98 
L 505.271271 7.2 
" clip-path="url(#p0503fbe0aa)" style="fill: none; stroke: #cccccc; stroke-linecap: round"/>
     </g>
    </g>
    <g id="xtick_32">
     <g id="line2d_32">
      <path d="M 522.668494 130.98 
L 522.668494 7.2 
" clip-path="url(#p0503fbe0aa)" style="fill: none; stroke: #cccccc; stroke-linecap: round"/>
     </g>
    </g>
    <g id="xtick_33">
     <g id="line2d_33">
      <path d="M 535.01202 130.98 
L 535.01202 7.2 
" clip-path="url(#p0503fbe0aa)" style="fill: none; stroke: #cccccc; stroke-linecap: round"/>
     </g>
    </g>
    <g id="xtick_34">
     <g id="line2d_34">
      <path d="M 544.586403 130.98 
L 544.586403 7.2 
" clip-path="url(#p0503fbe0aa)" style="fill: none; stroke: #cccccc; stroke-linecap: round"/>
     </g>
    </g>
    <g id="xtick_35">
     <g id="line2d_35">
      <path d="M 552.409244 130.98 
L 552.409244 7.2 
" clip-path="url(#p0503fbe0aa)" style="fill: none; stroke: #cccccc; stroke-linecap: round"/>
     </g>
    </g>
    <g id="xtick_36">
     <g id="line2d_36">
      <path d="M 559.023361 130.98 
L 559.023361 7.2 
" clip-path="url(#p0503fbe0aa)" style="fill: none; stroke: #cccccc; stroke-linecap: round"/>
     </g>
    </g>
    <g id="xtick_37">
     <g id="line2d_37">
      <path d="M 564.75277 130.98 
L 564.75277 7.2 
" clip-path="url(#p0503fbe0aa)" style="fill: none; stroke: #cccccc; stroke-linecap: round"/>
     </g>
    </g>
    <g id="xtick_38">
     <g id="line2d_38">
      <path d="M 569.806467 130.98 
L 569.806467 7.2 
" clip-path="url(#p0503fbe0aa)" style="fill: none; stroke: #cccccc; stroke-linecap: round"/>
     </g>
    </g>
    <g id="xtick_39">
     <g id="line2d_39">
      <path d="M 604.067903 130.98 
L 604.067903 7.2 
" clip-path="url(#p0503fbe0aa)" style="fill: none; stroke: #cccccc; stroke-linecap: round"/>
     </g>
    </g>
    <g id="xtick_40">
     <g id="line2d_40">
      <path d="M 621.465126 130.98 
L 621.465126 7.2 
" clip-path="url(#p0503fbe0aa)" style="fill: none; stroke: #cccccc; stroke-linecap: round"/>
     </g>
    </g>
    <g id="xtick_41">
     <g id="line2d_41">
      <path d="M 633.808652 130.98 
L 633.808652 7.2 
" clip-path="url(#p0503fbe0aa)" style="fill: none; stroke: #cccccc; stroke-linecap: round"/>
     </g>
    </g>
    <g id="xtick_42">
     <g id="line2d_42">
      <path d="M 643.383035 130.98 
L 643.383035 7.2 
" clip-path="url(#p0503fbe0aa)" style="fill: none; stroke: #cccccc; stroke-linecap: round"/>
     </g>
    </g>
    <g id="xtick_43">
     <g id="line2d_43">
      <path d="M 651.205876 130.98 
L 651.205876 7.2 
" clip-path="url(#p0503fbe0aa)" style="fill: none; stroke: #cccccc; stroke-linecap: round"/>
     </g>
    </g>
    <g id="xtick_44">
     <g id="line2d_44">
      <path d="M 657.819993 130.98 
L 657.819993 7.2 
" clip-path="url(#p0503fbe0aa)" style="fill: none; stroke: #cccccc; stroke-linecap: round"/>
     </g>
    </g>
    <g id="xtick_45">
     <g id="line2d_45">
      <path d="M 663.549402 130.98 
L 663.549402 7.2 
" clip-path="url(#p0503fbe0aa)" style="fill: none; stroke: #cccccc; stroke-linecap: round"/>
     </g>
    </g>
    <g id="xtick_46">
     <g id="line2d_46">
      <path d="M 668.603099 130.98 
L 668.603099 7.2 
" clip-path="url(#p0503fbe0aa)" style="fill: none; stroke: #cccccc; stroke-linecap: round"/>
     </g>
    </g>
    <g id="text_7">
     <!-- Speed [GiB/s] - logarithmic -->
     <g style="fill: #262626" transform="translate(304.812205 180.126094) scale(0.18 -0.18)">
      <defs>
       <path id="DejaVuSans-53" d="M 3425 4513 
L 3425 3897 
Q 3066 4069 2747 4153 
Q 2428 4238 2131 4238 
Q 1616 4238 1336 4038 
Q 1056 3838 1056 3469 
Q 1056 3159 1242 3001 
Q 1428 2844 1947 2747 
L 2328 2669 
Q 3034 2534 3370 2195 
Q 3706 1856 3706 1288 
Q 3706 609 3251 259 
Q 2797 -91 1919 -91 
Q 1588 -91 1214 -16 
Q 841 59 441 206 
L 441 856 
Q 825 641 1194 531 
Q 1563 422 1919 422 
Q 2459 422 2753 634 
Q 3047 847 3047 1241 
Q 3047 1584 2836 1778 
Q 2625 1972 2144 2069 
L 1759 2144 
Q 1053 2284 737 2584 
Q 422 2884 422 3419 
Q 422 4038 858 4394 
Q 1294 4750 2059 4750 
Q 2388 4750 2728 4690 
Q 3069 4631 3425 4513 
z
" transform="scale(0.015625)"/>
       <path id="DejaVuSans-70" d="M 1159 525 
L 1159 -1331 
L 581 -1331 
L 581 3500 
L 1159 3500 
L 1159 2969 
Q 1341 3281 1617 3432 
Q 1894 3584 2278 3584 
Q 2916 3584 3314 3078 
Q 3713 2572 3713 1747 
Q 3713 922 3314 415 
Q 2916 -91 2278 -91 
Q 1894 -91 1617 61 
Q 1341 213 1159 525 
z
M 3116 1747 
Q 3116 2381 2855 2742 
Q 2594 3103 2138 3103 
Q 1681 3103 1420 2742 
Q 1159 2381 1159 1747 
Q 1159 1113 1420 752 
Q 1681 391 2138 391 
Q 2594 391 2855 752 
Q 3116 1113 3116 1747 
z
" transform="scale(0.015625)"/>
       <path id="DejaVuSans-65" d="M 3597 1894 
L 3597 1613 
L 953 1613 
Q 991 1019 1311 708 
Q 1631 397 2203 397 
Q 2534 397 2845 478 
Q 3156 559 3463 722 
L 3463 178 
Q 3153 47 2828 -22 
Q 2503 -91 2169 -91 
Q 1331 -91 842 396 
Q 353 884 353 1716 
Q 353 2575 817 3079 
Q 1281 3584 2069 3584 
Q 2775 3584 3186 3129 
Q 3597 2675 3597 1894 
z
M 3022 2063 
Q 3016 2534 2758 2815 
Q 2500 3097 2075 3097 
Q 1594 3097 1305 2825 
Q 1016 2553 972 2059 
L 3022 2063 
z
" transform="scale(0.015625)"/>
       <path id="DejaVuSans-64" d="M 2906 2969 
L 2906 4863 
L 3481 4863 
L 3481 0 
L 2906 0 
L 2906 525 
Q 2725 213 2448 61 
Q 2172 -91 1784 -91 
Q 1150 -91 751 415 
Q 353 922 353 1747 
Q 353 2572 751 3078 
Q 1150 3584 1784 3584 
Q 2172 3584 2448 3432 
Q 2725 3281 2906 2969 
z
M 947 1747 
Q 947 1113 1208 752 
Q 1469 391 1925 391 
Q 2381 391 2643 752 
Q 2906 1113 2906 1747 
Q 2906 2381 2643 2742 
Q 2381 3103 1925 3103 
Q 1469 3103 1208 2742 
Q 947 2381 947 1747 
z
" transform="scale(0.015625)"/>
       <path id="DejaVuSans-20" transform="scale(0.015625)"/>
       <path id="DejaVuSans-5b" d="M 550 4863 
L 1875 4863 
L 1875 4416 
L 1125 4416 
L 1125 -397 
L 1875 -397 
L 1875 -844 
L 550 -844 
L 550 4863 
z
" transform="scale(0.015625)"/>
       <path id="DejaVuSans-47" d="M 3809 666 
L 3809 1919 
L 2778 1919 
L 2778 2438 
L 4434 2438 
L 4434 434 
Q 4069 175 3628 42 
Q 3188 -91 2688 -91 
Q 1594 -91 976 548 
Q 359 1188 359 2328 
Q 359 3472 976 4111 
Q 1594 4750 2688 4750 
Q 3144 4750 3555 4637 
Q 3966 4525 4313 4306 
L 4313 3634 
Q 3963 3931 3569 4081 
Q 3175 4231 2741 4231 
Q 1884 4231 1454 3753 
Q 1025 3275 1025 2328 
Q 1025 1384 1454 906 
Q 1884 428 2741 428 
Q 3075 428 3337 486 
Q 3600 544 3809 666 
z
" transform="scale(0.015625)"/>
       <path id="DejaVuSans-69" d="M 603 3500 
L 1178 3500 
L 1178 0 
L 603 0 
L 603 3500 
z
M 603 4863 
L 1178 4863 
L 1178 4134 
L 603 4134 
L 603 4863 
z
" transform="scale(0.015625)"/>
       <path id="DejaVuSans-42" d="M 1259 2228 
L 1259 519 
L 2272 519 
Q 2781 519 3026 730 
Q 3272 941 3272 1375 
Q 3272 1813 3026 2020 
Q 2781 2228 2272 2228 
L 1259 2228 
z
M 1259 4147 
L 1259 2741 
L 2194 2741 
Q 2656 2741 2882 2914 
Q 3109 3088 3109 3444 
Q 3109 3797 2882 3972 
Q 2656 4147 2194 4147 
L 1259 4147 
z
M 628 4666 
L 2241 4666 
Q 2963 4666 3353 4366 
Q 3744 4066 3744 3513 
Q 3744 3084 3544 2831 
Q 3344 2578 2956 2516 
Q 3422 2416 3680 2098 
Q 3938 1781 3938 1306 
Q 3938 681 3513 340 
Q 3088 0 2303 0 
L 628 0 
L 628 4666 
z
" transform="scale(0.015625)"/>
       <path id="DejaVuSans-2f" d="M 1625 4666 
L 2156 4666 
L 531 -594 
L 0 -594 
L 1625 4666 
z
" transform="scale(0.015625)"/>
       <path id="DejaVuSans-73" d="M 2834 3397 
L 2834 2853 
Q 2591 2978 2328 3040 
Q 2066 3103 1784 3103 
Q 1356 3103 1142 2972 
Q 928 2841 928 2578 
Q 928 2378 1081 2264 
Q 1234 2150 1697 2047 
L 1894 2003 
Q 2506 1872 2764 1633 
Q 3022 1394 3022 966 
Q 3022 478 2636 193 
Q 2250 -91 1575 -91 
Q 1294 -91 989 -36 
Q 684 19 347 128 
L 347 722 
Q 666 556 975 473 
Q 1284 391 1588 391 
Q 1994 391 2212 530 
Q 2431 669 2431 922 
Q 2431 1156 2273 1281 
Q 2116 1406 1581 1522 
L 1381 1569 
Q 847 1681 609 1914 
Q 372 2147 372 2553 
Q 372 3047 722 3315 
Q 1072 3584 1716 3584 
Q 2034 3584 2315 3537 
Q 2597 3491 2834 3397 
z
" transform="scale(0.015625)"/>
       <path id="DejaVuSans-5d" d="M 1947 4863 
L 1947 -844 
L 622 -844 
L 622 -397 
L 1369 -397 
L 1369 4416 
L 622 4416 
L 622 4863 
L 1947 4863 
z
" transform="scale(0.015625)"/>
       <path id="DejaVuSans-2d" d="M 313 2009 
L 1997 2009 
L 1997 1497 
L 313 1497 
L 313 2009 
z
" transform="scale(0.015625)"/>
       <path id="DejaVuSans-6c" d="M 603 4863 
L 1178 4863 
L 1178 0 
L 603 0 
L 603 4863 
z
" transform="scale(0.015625)"/>
       <path id="DejaVuSans-6f" d="M 1959 3097 
Q 1497 3097 1228 2736 
Q 959 2375 959 1747 
Q 959 1119 1226 758 
Q 1494 397 1959 397 
Q 2419 397 2687 759 
Q 2956 1122 2956 1747 
Q 2956 2369 2687 2733 
Q 2419 3097 1959 3097 
z
M 1959 3584 
Q 2709 3584 3137 3096 
Q 3566 2609 3566 1747 
Q 3566 888 3137 398 
Q 2709 -91 1959 -91 
Q 1206 -91 779 398 
Q 353 888 353 1747 
Q 353 2609 779 3096 
Q 1206 3584 1959 3584 
z
" transform="scale(0.015625)"/>
       <path id="DejaVuSans-67" d="M 2906 1791 
Q 2906 2416 2648 2759 
Q 2391 3103 1925 3103 
Q 1463 3103 1205 2759 
Q 947 2416 947 1791 
Q 947 1169 1205 825 
Q 1463 481 1925 481 
Q 2391 481 2648 825 
Q 2906 1169 2906 1791 
z
M 3481 434 
Q 3481 -459 3084 -895 
Q 2688 -1331 1869 -1331 
Q 1566 -1331 1297 -1286 
Q 1028 -1241 775 -1147 
L 775 -588 
Q 1028 -725 1275 -790 
Q 1522 -856 1778 -856 
Q 2344 -856 2625 -561 
Q 2906 -266 2906 331 
L 2906 616 
Q 2728 306 2450 153 
Q 2172 0 1784 0 
Q 1141 0 747 490 
Q 353 981 353 1791 
Q 353 2603 747 3093 
Q 1141 3584 1784 3584 
Q 2172 3584 2450 3431 
Q 2728 3278 2906 2969 
L 2906 3500 
L 3481 3500 
L 3481 434 
z
" transform="scale(0.015625)"/>
       <path id="DejaVuSans-61" d="M 2194 1759 
Q 1497 1759 1228 1600 
Q 959 1441 959 1056 
Q 959 750 1161 570 
Q 1363 391 1709 391 
Q 2188 391 2477 730 
Q 2766 1069 2766 1631 
L 2766 1759 
L 2194 1759 
z
M 3341 1997 
L 3341 0 
L 2766 0 
L 2766 531 
Q 2569 213 2275 61 
Q 1981 -91 1556 -91 
Q 1019 -91 701 211 
Q 384 513 384 1019 
Q 384 1609 779 1909 
Q 1175 2209 1959 2209 
L 2766 2209 
L 2766 2266 
Q 2766 2663 2505 2880 
Q 2244 3097 1772 3097 
Q 1472 3097 1187 3025 
Q 903 2953 641 2809 
L 641 3341 
Q 956 3463 1253 3523 
Q 1550 3584 1831 3584 
Q 2591 3584 2966 3190 
Q 3341 2797 3341 1997 
z
" transform="scale(0.015625)"/>
       <path id="DejaVuSans-72" d="M 2631 2963 
Q 2534 3019 2420 3045 
Q 2306 3072 2169 3072 
Q 1681 3072 1420 2755 
Q 1159 2438 1159 1844 
L 1159 0 
L 581 0 
L 581 3500 
L 1159 3500 
L 1159 2956 
Q 1341 3275 1631 3429 
Q 1922 3584 2338 3584 
Q 2397 3584 2469 3576 
Q 2541 3569 2628 3553 
L 2631 2963 
z
" transform="scale(0.015625)"/>
       <path id="DejaVuSans-74" d="M 1172 4494 
L 1172 3500 
L 2356 3500 
L 2356 3053 
L 1172 3053 
L 1172 1153 
Q 1172 725 1289 603 
Q 1406 481 1766 481 
L 2356 481 
L 2356 0 
L 1766 0 
Q 1100 0 847 248 
Q 594 497 594 1153 
L 594 3053 
L 172 3053 
L 172 3500 
L 594 3500 
L 594 4494 
L 1172 4494 
z
" transform="scale(0.015625)"/>
       <path id="DejaVuSans-68" d="M 3513 2113 
L 3513 0 
L 2938 0 
L 2938 2094 
Q 2938 2591 2744 2837 
Q 2550 3084 2163 3084 
Q 1697 3084 1428 2787 
Q 1159 2491 1159 1978 
L 1159 0 
L 581 0 
L 581 4863 
L 1159 4863 
L 1159 2956 
Q 1366 3272 1645 3428 
Q 1925 3584 2291 3584 
Q 2894 3584 3203 3211 
Q 3513 2838 3513 2113 
z
" transform="scale(0.015625)"/>
       <path id="DejaVuSans-6d" d="M 3328 2828 
Q 3544 3216 3844 3400 
Q 4144 3584 4550 3584 
Q 5097 3584 5394 3201 
Q 5691 2819 5691 2113 
L 5691 0 
L 5113 0 
L 5113 2094 
Q 5113 2597 4934 2840 
Q 4756 3084 4391 3084 
Q 3944 3084 3684 2787 
Q 3425 2491 3425 1978 
L 3425 0 
L 2847 0 
L 2847 2094 
Q 2847 2600 2669 2842 
Q 2491 3084 2119 3084 
Q 1678 3084 1418 2786 
Q 1159 2488 1159 1978 
L 1159 0 
L 581 0 
L 581 3500 
L 1159 3500 
L 1159 2956 
Q 1356 3278 1631 3431 
Q 1906 3584 2284 3584 
Q 2666 3584 2933 3390 
Q 3200 3197 3328 2828 
z
" transform="scale(0.015625)"/>
       <path id="DejaVuSans-63" d="M 3122 3366 
L 3122 2828 
Q 2878 2963 2633 3030 
Q 2388 3097 2138 3097 
Q 1578 3097 1268 2742 
Q 959 2388 959 1747 
Q 959 1106 1268 751 
Q 1578 397 2138 397 
Q 2388 397 2633 464 
Q 2878 531 3122 666 
L 3122 134 
Q 2881 22 2623 -34 
Q 2366 -91 2075 -91 
Q 1284 -91 818 406 
Q 353 903 353 1747 
Q 353 2603 823 3093 
Q 1294 3584 2113 3584 
Q 2378 3584 2631 3529 
Q 2884 3475 3122 3366 
z
" transform="scale(0.015625)"/>
      </defs>
      <use xlink:href="#DejaVuSans-53"/>
      <use xlink:href="#DejaVuSans-70" x="63.476562"/>
      <use xlink:href="#DejaVuSans-65" x="126.953125"/>
      <use xlink:href="#DejaVuSans-65" x="188.476562"/>
      <use xlink:href="#DejaVuSans-64" x="250"/>
      <use xlink:href="#DejaVuSans-20" x="313.476562"/>
      <use xlink:href="#DejaVuSans-5b" x="345.263672"/>
      <use xlink:href="#DejaVuSans-47" x="384.277344"/>
      <use xlink:href="#DejaVuSans-69" x="461.767578"/>
      <use xlink:href="#DejaVuSans-42" x="489.550781"/>
      <use xlink:href="#DejaVuSans-2f" x="558.154297"/>
      <use xlink:href="#DejaVuSans-73" x="591.845703"/>
      <use xlink:href="#DejaVuSans-5d" x="643.945312"/>
      <use xlink:href="#DejaVuSans-20" x="682.958984"/>
      <use xlink:href="#DejaVuSans-2d" x="714.746094"/>
      <use xlink:href="#DejaVuSans-20" x="750.830078"/>
      <use xlink:href="#DejaVuSans-6c" x="782.617188"/>
      <use xlink:href="#DejaVuSans-6f" x="810.400391"/>
      <use xlink:href="#DejaVuSans-67" x="871.582031"/>
      <use xlink:href="#DejaVuSans-61" x="935.058594"/>
      <use xlink:href="#DejaVuSans-72" x="996.337891"/>
      <use xlink:href="#DejaVuSans-69" x="1037.451172"/>
      <use xlink:href="#DejaVuSans-74" x="1065.234375"/>
      <use xlink:href="#DejaVuSans-68" x="1104.443359"/>
      <use xlink:href="#DejaVuSans-6d" x="1167.822266"/>
      <use xlink:href="#DejaVuSans-69" x="1265.234375"/>
      <use xlink:href="#DejaVuSans-63" x="1293.017578"/>
     </g>
    </g>
   </g>
   <g id="matplotlib.axis_2">
    <g id="ytick_1">
     <g id="text_8">
      <!-- virtio-balloon -->
      <g style="fill: #262626" transform="translate(54.694219 28.941211) scale(0.165 -0.165)">
       <defs>
        <path id="DejaVuSans-76" d="M 191 3500 
L 800 3500 
L 1894 563 
L 2988 3500 
L 3597 3500 
L 2284 0 
L 1503 0 
L 191 3500 
z
" transform="scale(0.015625)"/>
        <path id="DejaVuSans-62" d="M 3116 1747 
Q 3116 2381 2855 2742 
Q 2594 3103 2138 3103 
Q 1681 3103 1420 2742 
Q 1159 2381 1159 1747 
Q 1159 1113 1420 752 
Q 1681 391 2138 391 
Q 2594 391 2855 752 
Q 3116 1113 3116 1747 
z
M 1159 2969 
Q 1341 3281 1617 3432 
Q 1894 3584 2278 3584 
Q 2916 3584 3314 3078 
Q 3713 2572 3713 1747 
Q 3713 922 3314 415 
Q 2916 -91 2278 -91 
Q 1894 -91 1617 61 
Q 1341 213 1159 525 
L 1159 0 
L 581 0 
L 581 4863 
L 1159 4863 
L 1159 2969 
z
" transform="scale(0.015625)"/>
        <path id="DejaVuSans-6e" d="M 3513 2113 
L 3513 0 
L 2938 0 
L 2938 2094 
Q 2938 2591 2744 2837 
Q 2550 3084 2163 3084 
Q 1697 3084 1428 2787 
Q 1159 2491 1159 1978 
L 1159 0 
L 581 0 
L 581 3500 
L 1159 3500 
L 1159 2956 
Q 1366 3272 1645 3428 
Q 1925 3584 2291 3584 
Q 2894 3584 3203 3211 
Q 3513 2838 3513 2113 
z
" transform="scale(0.015625)"/>
       </defs>
       <use xlink:href="#DejaVuSans-76"/>
       <use xlink:href="#DejaVuSans-69" x="59.179688"/>
       <use xlink:href="#DejaVuSans-72" x="86.962891"/>
       <use xlink:href="#DejaVuSans-74" x="128.076172"/>
       <use xlink:href="#DejaVuSans-69" x="167.285156"/>
       <use xlink:href="#DejaVuSans-6f" x="195.068359"/>
       <use xlink:href="#DejaVuSans-2d" x="258.125"/>
       <use xlink:href="#DejaVuSans-62" x="294.208984"/>
       <use xlink:href="#DejaVuSans-61" x="357.685547"/>
       <use xlink:href="#DejaVuSans-6c" x="418.964844"/>
       <use xlink:href="#DejaVuSans-6c" x="446.748047"/>
       <use xlink:href="#DejaVuSans-6f" x="474.53125"/>
       <use xlink:href="#DejaVuSans-6f" x="535.712891"/>
       <use xlink:href="#DejaVuSans-6e" x="596.894531"/>
      </g>
     </g>
    </g>
    <g id="ytick_2">
     <g id="text_9">
      <!-- virtio-balloon-huge -->
      <g style="fill: #262626" transform="translate(7.2 59.886211) scale(0.165 -0.165)">
       <defs>
        <path id="DejaVuSans-75" d="M 544 1381 
L 544 3500 
L 1119 3500 
L 1119 1403 
Q 1119 906 1312 657 
Q 1506 409 1894 409 
Q 2359 409 2629 706 
Q 2900 1003 2900 1516 
L 2900 3500 
L 3475 3500 
L 3475 0 
L 2900 0 
L 2900 538 
Q 2691 219 2414 64 
Q 2138 -91 1772 -91 
Q 1169 -91 856 284 
Q 544 659 544 1381 
z
M 1991 3584 
L 1991 3584 
z
" transform="scale(0.015625)"/>
       </defs>
       <use xlink:href="#DejaVuSans-76"/>
       <use xlink:href="#DejaVuSans-69" x="59.179688"/>
       <use xlink:href="#DejaVuSans-72" x="86.962891"/>
       <use xlink:href="#DejaVuSans-74" x="128.076172"/>
       <use xlink:href="#DejaVuSans-69" x="167.285156"/>
       <use xlink:href="#DejaVuSans-6f" x="195.068359"/>
       <use xlink:href="#DejaVuSans-2d" x="258.125"/>
       <use xlink:href="#DejaVuSans-62" x="294.208984"/>
       <use xlink:href="#DejaVuSans-61" x="357.685547"/>
       <use xlink:href="#DejaVuSans-6c" x="418.964844"/>
       <use xlink:href="#DejaVuSans-6c" x="446.748047"/>
       <use xlink:href="#DejaVuSans-6f" x="474.53125"/>
       <use xlink:href="#DejaVuSans-6f" x="535.712891"/>
       <use xlink:href="#DejaVuSans-6e" x="596.894531"/>
       <use xlink:href="#DejaVuSans-2d" x="660.273438"/>
       <use xlink:href="#DejaVuSans-68" x="696.357422"/>
       <use xlink:href="#DejaVuSans-75" x="759.736328"/>
       <use xlink:href="#DejaVuSans-67" x="823.115234"/>
       <use xlink:href="#DejaVuSans-65" x="886.591797"/>
      </g>
     </g>
    </g>
    <g id="ytick_3">
     <g id="text_10">
      <!-- virtio-mem -->
      <g style="fill: #262626" transform="translate(72.800391 90.831211) scale(0.165 -0.165)">
       <use xlink:href="#DejaVuSans-76"/>
       <use xlink:href="#DejaVuSans-69" x="59.179688"/>
       <use xlink:href="#DejaVuSans-72" x="86.962891"/>
       <use xlink:href="#DejaVuSans-74" x="128.076172"/>
       <use xlink:href="#DejaVuSans-69" x="167.285156"/>
       <use xlink:href="#DejaVuSans-6f" x="195.068359"/>
       <use xlink:href="#DejaVuSans-2d" x="258.125"/>
       <use xlink:href="#DejaVuSans-6d" x="294.208984"/>
       <use xlink:href="#DejaVuSans-65" x="391.621094"/>
       <use xlink:href="#DejaVuSans-6d" x="453.144531"/>
      </g>
     </g>
    </g>
    <g id="ytick_4">
     <g id="text_11">
      <!-- HyperAlloc -->
      <g style="fill: #262626" transform="translate(74.432344 121.776211) scale(0.165 -0.165)">
       <defs>
        <path id="DejaVuSans-48" d="M 628 4666 
L 1259 4666 
L 1259 2753 
L 3553 2753 
L 3553 4666 
L 4184 4666 
L 4184 0 
L 3553 0 
L 3553 2222 
L 1259 2222 
L 1259 0 
L 628 0 
L 628 4666 
z
" transform="scale(0.015625)"/>
        <path id="DejaVuSans-79" d="M 2059 -325 
Q 1816 -950 1584 -1140 
Q 1353 -1331 966 -1331 
L 506 -1331 
L 506 -850 
L 844 -850 
Q 1081 -850 1212 -737 
Q 1344 -625 1503 -206 
L 1606 56 
L 191 3500 
L 800 3500 
L 1894 763 
L 2988 3500 
L 3597 3500 
L 2059 -325 
z
" transform="scale(0.015625)"/>
        <path id="DejaVuSans-41" d="M 2188 4044 
L 1331 1722 
L 3047 1722 
L 2188 4044 
z
M 1831 4666 
L 2547 4666 
L 4325 0 
L 3669 0 
L 3244 1197 
L 1141 1197 
L 716 0 
L 50 0 
L 1831 4666 
z
" transform="scale(0.015625)"/>
       </defs>
       <use xlink:href="#DejaVuSans-48"/>
       <use xlink:href="#DejaVuSans-79" x="75.195312"/>
       <use xlink:href="#DejaVuSans-70" x="134.375"/>
       <use xlink:href="#DejaVuSans-65" x="197.851562"/>
       <use xlink:href="#DejaVuSans-72" x="259.375"/>
       <use xlink:href="#DejaVuSans-41" x="300.488281"/>
       <use xlink:href="#DejaVuSans-6c" x="368.896484"/>
       <use xlink:href="#DejaVuSans-6c" x="396.679688"/>
       <use xlink:href="#DejaVuSans-6f" x="424.462891"/>
       <use xlink:href="#DejaVuSans-63" x="485.644531"/>
      </g>
     </g>
    </g>
   </g>
   <g id="patch_3">
    <path d="M -98518.694743 10.2945 
L 275.802321 10.2945 
L 275.802321 35.0505 
L -98518.694743 35.0505 
z
" clip-path="url(#p0503fbe0aa)" style="fill: #176d9c; stroke: #ffffff; stroke-width: 2; stroke-linejoin: miter"/>
   </g>
   <g id="patch_4">
    <path d="M -98518.694743 41.2395 
L 488.798151 41.2395 
L 488.798151 65.9955 
L -98518.694743 65.9955 
z
" clip-path="url(#p0503fbe0aa)" style="fill: #158b6a; stroke: #ffffff; stroke-width: 2; stroke-linejoin: miter"/>
   </g>
   <g id="patch_5">
    <path d="M -98518.694743 72.1845 
L 429.868482 72.1845 
L 429.868482 96.9405 
L -98518.694743 96.9405 
z
" clip-path="url(#p0503fbe0aa)" style="fill: #ba611b; stroke: #ffffff; stroke-width: 2; stroke-linejoin: miter"/>
   </g>
   <g id="patch_6">
    <path d="M -98518.694743 103.1295 
L 528.646261 103.1295 
L 528.646261 127.8855 
L -98518.694743 127.8855 
z
" clip-path="url(#p0503fbe0aa)" style="fill: #c282b5; stroke: #ffffff; stroke-width: 2; stroke-linejoin: miter"/>
   </g>
   <g id="line2d_47">
    <path d="M 275.603943 22.6725 
L 276.023964 22.6725 
" clip-path="url(#p0503fbe0aa)" style="fill: none; stroke: #424242; stroke-width: 4.5; stroke-linecap: round"/>
   </g>
   <g id="line2d_48">
    <path d="M 488.162936 53.6175 
L 489.476375 53.6175 
" clip-path="url(#p0503fbe0aa)" style="fill: none; stroke: #424242; stroke-width: 4.5; stroke-linecap: round"/>
   </g>
   <g id="line2d_49">
    <path d="M 429.686014 84.5625 
L 430.061873 84.5625 
" clip-path="url(#p0503fbe0aa)" style="fill: none; stroke: #424242; stroke-width: 4.5; stroke-linecap: round"/>
   </g>
   <g id="line2d_50">
    <path d="M 526.945139 115.5075 
L 530.33699 115.5075 
" clip-path="url(#p0503fbe0aa)" style="fill: none; stroke: #424242; stroke-width: 4.5; stroke-linecap: round"/>
   </g>
   <g id="patch_7">
    <path d="M 179.140625 130.98 
L 179.140625 7.2 
" style="fill: none; stroke: #cccccc; stroke-width: 2.5; stroke-linejoin: miter; stroke-linecap: square"/>
   </g>
   <g id="patch_8">
    <path d="M 179.140625 130.98 
L 673.123785 130.98 
" style="fill: none; stroke: #cccccc; stroke-width: 2.5; stroke-linejoin: miter; stroke-linecap: square"/>
   </g>
   <g id="text_12">
    <path d="M 287.120446 25.801875 
L 287.120446 24.72375 
Q 287.566696 24.935625 288.022321 25.04625 
Q 288.479821 25.156875 288.920446 25.156875 
Q 290.092321 25.156875 290.709196 24.369375 
Q 291.327946 23.581875 291.416071 21.975 
Q 291.076696 22.479375 290.553571 22.749375 
Q 290.032321 23.019375 289.400446 23.019375 
Q 288.087946 23.019375 287.322946 22.22625 
Q 286.557946 21.43125 286.557946 20.053125 
Q 286.557946 18.706875 287.354821 17.893125 
Q 288.151696 17.0775 289.475446 17.0775 
Q 290.994196 17.0775 291.792946 18.241875 
Q 292.593571 19.404375 292.593571 21.61875 
Q 292.593571 23.686875 291.611071 24.920625 
Q 290.630446 26.154375 288.972946 26.154375 
Q 288.526696 26.154375 288.069196 26.06625 
Q 287.613571 25.978125 287.120446 25.801875 
z
M 289.475446 22.093125 
Q 290.272321 22.093125 290.737321 21.549375 
Q 291.204196 21.00375 291.204196 20.053125 
Q 291.204196 19.11 290.737321 18.5625 
Q 290.272321 18.015 289.475446 18.015 
Q 288.678571 18.015 288.213571 18.5625 
Q 287.748571 19.11 287.748571 20.053125 
Q 287.748571 21.00375 288.213571 21.549375 
Q 288.678571 22.093125 289.475446 22.093125 
z
M 294.421462 17.235 
L 300.046462 17.235 
L 300.046462 17.739375 
L 296.870212 25.98375 
L 295.634587 25.98375 
L 298.623337 18.2325 
L 294.421462 18.2325 
L 294.421462 17.235 
z
M 305.607477 18.26625 
L 302.618727 22.936875 
L 305.607477 22.936875 
L 305.607477 18.26625 
z
M 305.296227 17.235 
L 306.784977 17.235 
L 306.784977 22.936875 
L 308.033727 22.936875 
L 308.033727 23.92125 
L 306.784977 23.92125 
L 306.784977 25.98375 
L 305.607477 25.98375 
L 305.607477 23.92125 
L 301.658727 23.92125 
L 301.658727 22.779375 
L 305.296227 17.235 
z
M 309.989118 24.495 
L 311.226618 24.495 
L 311.226618 25.98375 
L 309.989118 25.98375 
L 309.989118 24.495 
z
M 317.390446 21.26625 
Q 318.239821 21.448125 318.716071 22.02375 
Q 319.194196 22.5975 319.194196 23.44125 
Q 319.194196 24.735 318.303571 25.445625 
Q 317.412946 26.154375 315.772321 26.154375 
Q 315.222946 26.154375 314.639821 26.045625 
Q 314.056696 25.936875 313.436071 25.719375 
L 313.436071 24.5775 
Q 313.927321 24.864375 314.512321 25.010625 
Q 315.099196 25.156875 315.738571 25.156875 
Q 316.850446 25.156875 317.433571 24.718125 
Q 318.016696 24.279375 318.016696 23.44125 
Q 318.016696 22.666875 317.474821 22.231875 
Q 316.932946 21.795 315.967321 21.795 
L 314.947321 21.795 
L 314.947321 20.821875 
L 316.014196 20.821875 
Q 316.886071 20.821875 317.349196 20.473125 
Q 317.812321 20.124375 317.812321 19.468125 
Q 317.812321 18.795 317.334196 18.435 
Q 316.857946 18.073125 315.967321 18.073125 
Q 315.479821 18.073125 314.922946 18.18 
Q 314.366071 18.285 313.698571 18.50625 
L 313.698571 17.4525 
Q 314.373571 17.265 314.962321 17.17125 
Q 315.551071 17.0775 316.072321 17.0775 
Q 317.420446 17.0775 318.204196 17.690625 
Q 318.989821 18.301875 318.989821 19.344375 
Q 318.989821 20.071875 318.573571 20.5725 
Q 318.157321 21.073125 317.390446 21.26625 
z
M 325.14779 17.235 
L 326.912165 17.235 
L 329.143415 23.188125 
L 331.38779 17.235 
L 333.152165 17.235 
L 333.152165 25.98375 
L 331.997165 25.98375 
L 331.997165 18.301875 
L 329.74154 24.301875 
L 328.55279 24.301875 
L 326.297165 18.301875 
L 326.297165 25.98375 
L 325.14779 25.98375 
L 325.14779 17.235 
z
M 335.454431 19.42125 
L 336.532556 19.42125 
L 336.532556 25.98375 
L 335.454431 25.98375 
L 335.454431 19.42125 
z
M 335.454431 16.865625 
L 336.532556 16.865625 
L 336.532556 18.2325 
L 335.454431 18.2325 
L 335.454431 16.865625 
z
M 340.018415 21.80625 
L 340.018415 25.010625 
L 341.91779 25.010625 
Q 342.872165 25.010625 343.33154 24.615 
Q 343.79279 24.219375 343.79279 23.405625 
Q 343.79279 22.584375 343.33154 22.19625 
Q 342.872165 21.80625 341.91779 21.80625 
L 340.018415 21.80625 
z
M 340.018415 18.208125 
L 340.018415 20.844375 
L 341.77154 20.844375 
Q 342.63779 20.844375 343.06154 20.52 
Q 343.487165 20.19375 343.487165 19.52625 
Q 343.487165 18.864375 343.06154 18.53625 
Q 342.63779 18.208125 341.77154 18.208125 
L 340.018415 18.208125 
z
M 338.83529 17.235 
L 341.859665 17.235 
Q 343.213415 17.235 343.944665 17.7975 
Q 344.67779 18.36 344.67779 19.396875 
Q 344.67779 20.20125 344.30279 20.675625 
Q 343.92779 21.15 343.20029 21.26625 
Q 344.07404 21.45375 344.55779 22.05 
Q 345.04154 22.644375 345.04154 23.535 
Q 345.04154 24.706875 344.244665 25.34625 
Q 343.44779 25.98375 341.975915 25.98375 
L 338.83529 25.98375 
L 338.83529 17.235 
z
M 348.937087 17.235 
L 349.932712 17.235 
L 346.885837 27.0975 
L 345.890212 27.0975 
L 348.937087 17.235 
z
M 355.246931 19.614375 
L 355.246931 20.634375 
Q 354.791306 20.4 354.298181 20.28375 
Q 353.806931 20.165625 353.278181 20.165625 
Q 352.475681 20.165625 352.074431 20.41125 
Q 351.673181 20.656875 351.673181 21.15 
Q 351.673181 21.525 351.960056 21.73875 
Q 352.246931 21.9525 353.115056 22.145625 
L 353.484431 22.228125 
Q 354.631931 22.47375 355.115681 22.921875 
Q 355.599431 23.37 355.599431 24.1725 
Q 355.599431 25.0875 354.875681 25.621875 
Q 354.151931 26.154375 352.886306 26.154375 
Q 352.359431 26.154375 351.787556 26.05125 
Q 351.215681 25.948125 350.583806 25.74375 
L 350.583806 24.63 
Q 351.181931 24.94125 351.761306 25.096875 
Q 352.340681 25.250625 352.910681 25.250625 
Q 353.671931 25.250625 354.080681 24.99 
Q 354.491306 24.729375 354.491306 24.255 
Q 354.491306 23.81625 354.195056 23.581875 
Q 353.900681 23.3475 352.897556 23.13 
L 352.522556 23.041875 
Q 351.521306 22.831875 351.075056 22.395 
Q 350.630681 21.958125 350.630681 21.196875 
Q 350.630681 20.270625 351.286931 19.768125 
Q 351.943181 19.26375 353.150681 19.26375 
Q 353.746931 19.26375 354.273806 19.351875 
Q 354.802556 19.438125 355.246931 19.614375 
z
" style="fill: #262626; stroke: #ffffff; stroke-width: 5"/>
    <path d="M 287.120446 25.801875 
L 287.120446 24.72375 
Q 287.566696 24.935625 288.022321 25.04625 
Q 288.479821 25.156875 288.920446 25.156875 
Q 290.092321 25.156875 290.709196 24.369375 
Q 291.327946 23.581875 291.416071 21.975 
Q 291.076696 22.479375 290.553571 22.749375 
Q 290.032321 23.019375 289.400446 23.019375 
Q 288.087946 23.019375 287.322946 22.22625 
Q 286.557946 21.43125 286.557946 20.053125 
Q 286.557946 18.706875 287.354821 17.893125 
Q 288.151696 17.0775 289.475446 17.0775 
Q 290.994196 17.0775 291.792946 18.241875 
Q 292.593571 19.404375 292.593571 21.61875 
Q 292.593571 23.686875 291.611071 24.920625 
Q 290.630446 26.154375 288.972946 26.154375 
Q 288.526696 26.154375 288.069196 26.06625 
Q 287.613571 25.978125 287.120446 25.801875 
z
M 289.475446 22.093125 
Q 290.272321 22.093125 290.737321 21.549375 
Q 291.204196 21.00375 291.204196 20.053125 
Q 291.204196 19.11 290.737321 18.5625 
Q 290.272321 18.015 289.475446 18.015 
Q 288.678571 18.015 288.213571 18.5625 
Q 287.748571 19.11 287.748571 20.053125 
Q 287.748571 21.00375 288.213571 21.549375 
Q 288.678571 22.093125 289.475446 22.093125 
z
M 294.421462 17.235 
L 300.046462 17.235 
L 300.046462 17.739375 
L 296.870212 25.98375 
L 295.634587 25.98375 
L 298.623337 18.2325 
L 294.421462 18.2325 
L 294.421462 17.235 
z
M 305.607477 18.26625 
L 302.618727 22.936875 
L 305.607477 22.936875 
L 305.607477 18.26625 
z
M 305.296227 17.235 
L 306.784977 17.235 
L 306.784977 22.936875 
L 308.033727 22.936875 
L 308.033727 23.92125 
L 306.784977 23.92125 
L 306.784977 25.98375 
L 305.607477 25.98375 
L 305.607477 23.92125 
L 301.658727 23.92125 
L 301.658727 22.779375 
L 305.296227 17.235 
z
M 309.989118 24.495 
L 311.226618 24.495 
L 311.226618 25.98375 
L 309.989118 25.98375 
L 309.989118 24.495 
z
M 317.390446 21.26625 
Q 318.239821 21.448125 318.716071 22.02375 
Q 319.194196 22.5975 319.194196 23.44125 
Q 319.194196 24.735 318.303571 25.445625 
Q 317.412946 26.154375 315.772321 26.154375 
Q 315.222946 26.154375 314.639821 26.045625 
Q 314.056696 25.936875 313.436071 25.719375 
L 313.436071 24.5775 
Q 313.927321 24.864375 314.512321 25.010625 
Q 315.099196 25.156875 315.738571 25.156875 
Q 316.850446 25.156875 317.433571 24.718125 
Q 318.016696 24.279375 318.016696 23.44125 
Q 318.016696 22.666875 317.474821 22.231875 
Q 316.932946 21.795 315.967321 21.795 
L 314.947321 21.795 
L 314.947321 20.821875 
L 316.014196 20.821875 
Q 316.886071 20.821875 317.349196 20.473125 
Q 317.812321 20.124375 317.812321 19.468125 
Q 317.812321 18.795 317.334196 18.435 
Q 316.857946 18.073125 315.967321 18.073125 
Q 315.479821 18.073125 314.922946 18.18 
Q 314.366071 18.285 313.698571 18.50625 
L 313.698571 17.4525 
Q 314.373571 17.265 314.962321 17.17125 
Q 315.551071 17.0775 316.072321 17.0775 
Q 317.420446 17.0775 318.204196 17.690625 
Q 318.989821 18.301875 318.989821 19.344375 
Q 318.989821 20.071875 318.573571 20.5725 
Q 318.157321 21.073125 317.390446 21.26625 
z
M 325.14779 17.235 
L 326.912165 17.235 
L 329.143415 23.188125 
L 331.38779 17.235 
L 333.152165 17.235 
L 333.152165 25.98375 
L 331.997165 25.98375 
L 331.997165 18.301875 
L 329.74154 24.301875 
L 328.55279 24.301875 
L 326.297165 18.301875 
L 326.297165 25.98375 
L 325.14779 25.98375 
L 325.14779 17.235 
z
M 335.454431 19.42125 
L 336.532556 19.42125 
L 336.532556 25.98375 
L 335.454431 25.98375 
L 335.454431 19.42125 
z
M 335.454431 16.865625 
L 336.532556 16.865625 
L 336.532556 18.2325 
L 335.454431 18.2325 
L 335.454431 16.865625 
z
M 340.018415 21.80625 
L 340.018415 25.010625 
L 341.91779 25.010625 
Q 342.872165 25.010625 343.33154 24.615 
Q 343.79279 24.219375 343.79279 23.405625 
Q 343.79279 22.584375 343.33154 22.19625 
Q 342.872165 21.80625 341.91779 21.80625 
L 340.018415 21.80625 
z
M 340.018415 18.208125 
L 340.018415 20.844375 
L 341.77154 20.844375 
Q 342.63779 20.844375 343.06154 20.52 
Q 343.487165 20.19375 343.487165 19.52625 
Q 343.487165 18.864375 343.06154 18.53625 
Q 342.63779 18.208125 341.77154 18.208125 
L 340.018415 18.208125 
z
M 338.83529 17.235 
L 341.859665 17.235 
Q 343.213415 17.235 343.944665 17.7975 
Q 344.67779 18.36 344.67779 19.396875 
Q 344.67779 20.20125 344.30279 20.675625 
Q 343.92779 21.15 343.20029 21.26625 
Q 344.07404 21.45375 344.55779 22.05 
Q 345.04154 22.644375 345.04154 23.535 
Q 345.04154 24.706875 344.244665 25.34625 
Q 343.44779 25.98375 341.975915 25.98375 
L 338.83529 25.98375 
L 338.83529 17.235 
z
M 348.937087 17.235 
L 349.932712 17.235 
L 346.885837 27.0975 
L 345.890212 27.0975 
L 348.937087 17.235 
z
M 355.246931 19.614375 
L 355.246931 20.634375 
Q 354.791306 20.4 354.298181 20.28375 
Q 353.806931 20.165625 353.278181 20.165625 
Q 352.475681 20.165625 352.074431 20.41125 
Q 351.673181 20.656875 351.673181 21.15 
Q 351.673181 21.525 351.960056 21.73875 
Q 352.246931 21.9525 353.115056 22.145625 
L 353.484431 22.228125 
Q 354.631931 22.47375 355.115681 22.921875 
Q 355.599431 23.37 355.599431 24.1725 
Q 355.599431 25.0875 354.875681 25.621875 
Q 354.151931 26.154375 352.886306 26.154375 
Q 352.359431 26.154375 351.787556 26.05125 
Q 351.215681 25.948125 350.583806 25.74375 
L 350.583806 24.63 
Q 351.181931 24.94125 351.761306 25.096875 
Q 352.340681 25.250625 352.910681 25.250625 
Q 353.671931 25.250625 354.080681 24.99 
Q 354.491306 24.729375 354.491306 24.255 
Q 354.491306 23.81625 354.195056 23.581875 
Q 353.900681 23.3475 352.897556 23.13 
L 352.522556 23.041875 
Q 351.521306 22.831875 351.075056 22.395 
Q 350.630681 21.958125 350.630681 21.196875 
Q 350.630681 20.270625 351.286931 19.768125 
Q 351.943181 19.26375 353.150681 19.26375 
Q 353.746931 19.26375 354.273806 19.351875 
Q 354.802556 19.438125 355.246931 19.614375 
z
" style="fill: #262626"/>
   </g>
   <g id="text_13">
    <path d="M 500.286901 55.933125 
L 502.220026 55.933125 
L 502.220026 49.258125 
L 500.116276 49.68 
L 500.116276 48.601875 
L 502.208776 48.18 
L 503.391901 48.18 
L 503.391901 55.933125 
L 505.325026 55.933125 
L 505.325026 56.92875 
L 500.286901 56.92875 
L 500.286901 55.933125 
z
M 511.302291 52.21125 
Q 512.151666 52.393125 512.627916 52.96875 
Q 513.106041 53.5425 513.106041 54.38625 
Q 513.106041 55.68 512.215416 56.390625 
Q 511.324791 57.099375 509.684166 57.099375 
Q 509.134791 57.099375 508.551666 56.990625 
Q 507.968541 56.881875 507.347916 56.664375 
L 507.347916 55.5225 
Q 507.839166 55.809375 508.424166 55.955625 
Q 509.011041 56.101875 509.650416 56.101875 
Q 510.762291 56.101875 511.345416 55.663125 
Q 511.928541 55.224375 511.928541 54.38625 
Q 511.928541 53.611875 511.386666 53.176875 
Q 510.844791 52.74 509.879166 52.74 
L 508.859166 52.74 
L 508.859166 51.766875 
L 509.926041 51.766875 
Q 510.797916 51.766875 511.261041 51.418125 
Q 511.724166 51.069375 511.724166 50.413125 
Q 511.724166 49.74 511.246041 49.38 
Q 510.769791 49.018125 509.879166 49.018125 
Q 509.391666 49.018125 508.834791 49.125 
Q 508.277916 49.23 507.610416 49.45125 
L 507.610416 48.3975 
Q 508.285416 48.21 508.874166 48.11625 
Q 509.462916 48.0225 509.984166 48.0225 
Q 511.332291 48.0225 512.116041 48.635625 
Q 512.901666 49.246875 512.901666 50.289375 
Q 512.901666 51.016875 512.485416 51.5175 
Q 512.069166 52.018125 511.302291 52.21125 
z
M 518.029557 52.08375 
Q 517.232682 52.08375 516.765807 52.629375 
Q 516.300807 53.173125 516.300807 54.121875 
Q 516.300807 55.065 516.765807 55.614375 
Q 517.232682 56.161875 518.029557 56.161875 
Q 518.826432 56.161875 519.291432 55.614375 
Q 519.756432 55.065 519.756432 54.121875 
Q 519.756432 53.173125 519.291432 52.629375 
Q 518.826432 52.08375 518.029557 52.08375 
z
M 520.378932 48.373125 
L 520.378932 49.45125 
Q 519.932682 49.24125 519.478932 49.130625 
Q 519.025182 49.018125 518.578932 49.018125 
Q 517.407057 49.018125 516.788307 49.809375 
Q 516.171432 50.600625 516.083307 52.2 
Q 516.428307 51.69 516.949557 51.418125 
Q 517.472682 51.14625 518.098932 51.14625 
Q 519.417057 51.14625 520.182057 51.946875 
Q 520.947057 52.745625 520.947057 54.121875 
Q 520.947057 55.47 520.150182 56.285625 
Q 519.353307 57.099375 518.029557 57.099375 
Q 516.510807 57.099375 515.708307 55.936875 
Q 514.905807 54.7725 514.905807 52.56375 
Q 514.905807 50.49 515.890182 49.25625 
Q 516.874557 48.0225 518.532057 48.0225 
Q 518.978307 48.0225 519.432057 48.110625 
Q 519.885807 48.19875 520.378932 48.373125 
z
M 522.984948 55.44 
L 524.222448 55.44 
L 524.222448 56.92875 
L 522.984948 56.92875 
L 522.984948 55.44 
z
M 527.819401 55.933125 
L 531.950026 55.933125 
L 531.950026 56.92875 
L 526.396276 56.92875 
L 526.396276 55.933125 
Q 527.069401 55.235625 528.231901 54.061875 
Q 529.396276 52.88625 529.694401 52.545 
Q 530.262526 51.9075 530.487526 51.465 
Q 530.714401 51.0225 530.714401 50.595 
Q 530.714401 49.8975 530.225026 49.45875 
Q 529.735651 49.018125 528.950026 49.018125 
Q 528.393151 49.018125 527.774401 49.21125 
Q 527.157526 49.404375 526.454401 49.798125 
L 526.454401 48.601875 
Q 527.168776 48.315 527.789401 48.16875 
Q 528.411901 48.0225 528.927526 48.0225 
Q 530.286901 48.0225 531.095026 48.703125 
Q 531.903151 49.381875 531.903151 50.518125 
Q 531.903151 51.058125 531.700651 51.541875 
Q 531.500026 52.02375 530.965651 52.68 
Q 530.819401 52.850625 530.033776 53.6625 
Q 529.250026 54.474375 527.819401 55.933125 
z
M 544.107995 55.68 
L 544.107995 53.330625 
L 542.17487 53.330625 
L 542.17487 52.3575 
L 545.27987 52.3575 
L 545.27987 56.115 
Q 544.595495 56.600625 543.76862 56.85 
Q 542.94362 57.099375 542.00612 57.099375 
Q 539.95487 57.099375 538.79612 55.90125 
Q 537.639245 54.70125 537.639245 52.56375 
Q 537.639245 50.41875 538.79612 49.220625 
Q 539.95487 48.0225 542.00612 48.0225 
Q 542.86112 48.0225 543.631745 48.234375 
Q 544.40237 48.444375 545.052995 48.855 
L 545.052995 50.115 
Q 544.396745 49.558125 543.657995 49.276875 
Q 542.919245 48.995625 542.105495 48.995625 
Q 540.49862 48.995625 539.69237 49.891875 
Q 538.887995 50.788125 538.887995 52.56375 
Q 538.887995 54.33375 539.69237 55.23 
Q 540.49862 56.12625 542.105495 56.12625 
Q 542.731745 56.12625 543.222995 56.0175 
Q 543.71612 55.90875 544.107995 55.68 
z
M 547.395573 50.36625 
L 548.473698 50.36625 
L 548.473698 56.92875 
L 547.395573 56.92875 
L 547.395573 50.36625 
z
M 547.395573 47.810625 
L 548.473698 47.810625 
L 548.473698 49.1775 
L 547.395573 49.1775 
L 547.395573 47.810625 
z
M 551.959557 52.75125 
L 551.959557 55.955625 
L 553.858932 55.955625 
Q 554.813307 55.955625 555.272682 55.56 
Q 555.733932 55.164375 555.733932 54.350625 
Q 555.733932 53.529375 555.272682 53.14125 
Q 554.813307 52.75125 553.858932 52.75125 
L 551.959557 52.75125 
z
M 551.959557 49.153125 
L 551.959557 51.789375 
L 553.712682 51.789375 
Q 554.578932 51.789375 555.002682 51.465 
Q 555.428307 51.13875 555.428307 50.47125 
Q 555.428307 49.809375 555.002682 49.48125 
Q 554.578932 49.153125 553.712682 49.153125 
L 551.959557 49.153125 
z
M 550.776432 48.18 
L 553.800807 48.18 
Q 555.154557 48.18 555.885807 48.7425 
Q 556.618932 49.305 556.618932 50.341875 
Q 556.618932 51.14625 556.243932 51.620625 
Q 555.868932 52.095 555.141432 52.21125 
Q 556.015182 52.39875 556.498932 52.995 
Q 556.982682 53.589375 556.982682 54.48 
Q 556.982682 55.651875 556.185807 56.29125 
Q 555.388932 56.92875 553.917057 56.92875 
L 550.776432 56.92875 
L 550.776432 48.18 
z
M 560.878229 48.18 
L 561.873854 48.18 
L 558.826979 58.0425 
L 557.831354 58.0425 
L 560.878229 48.18 
z
M 567.188073 50.559375 
L 567.188073 51.579375 
Q 566.732448 51.345 566.239323 51.22875 
Q 565.748073 51.110625 565.219323 51.110625 
Q 564.416823 51.110625 564.015573 51.35625 
Q 563.614323 51.601875 563.614323 52.095 
Q 563.614323 52.47 563.901198 52.68375 
Q 564.188073 52.8975 565.056198 53.090625 
L 565.425573 53.173125 
Q 566.573073 53.41875 567.056823 53.866875 
Q 567.540573 54.315 567.540573 55.1175 
Q 567.540573 56.0325 566.816823 56.566875 
Q 566.093073 57.099375 564.827448 57.099375 
Q 564.300573 57.099375 563.728698 56.99625 
Q 563.156823 56.893125 562.524948 56.68875 
L 562.524948 55.575 
Q 563.123073 55.88625 563.702448 56.041875 
Q 564.281823 56.195625 564.851823 56.195625 
Q 565.613073 56.195625 566.021823 55.935 
Q 566.432448 55.674375 566.432448 55.2 
Q 566.432448 54.76125 566.136198 54.526875 
Q 565.841823 54.2925 564.838698 54.075 
L 564.463698 53.986875 
Q 563.462448 53.776875 563.016198 53.34 
Q 562.571823 52.903125 562.571823 52.141875 
Q 562.571823 51.215625 563.228073 50.713125 
Q 563.884323 50.20875 565.091823 50.20875 
Q 565.688073 50.20875 566.214948 50.296875 
Q 566.743698 50.383125 567.188073 50.559375 
z
" style="fill: #262626; stroke: #ffffff; stroke-width: 5"/>
    <path d="M 500.286901 55.933125 
L 502.220026 55.933125 
L 502.220026 49.258125 
L 500.116276 49.68 
L 500.116276 48.601875 
L 502.208776 48.18 
L 503.391901 48.18 
L 503.391901 55.933125 
L 505.325026 55.933125 
L 505.325026 56.92875 
L 500.286901 56.92875 
L 500.286901 55.933125 
z
M 511.302291 52.21125 
Q 512.151666 52.393125 512.627916 52.96875 
Q 513.106041 53.5425 513.106041 54.38625 
Q 513.106041 55.68 512.215416 56.390625 
Q 511.324791 57.099375 509.684166 57.099375 
Q 509.134791 57.099375 508.551666 56.990625 
Q 507.968541 56.881875 507.347916 56.664375 
L 507.347916 55.5225 
Q 507.839166 55.809375 508.424166 55.955625 
Q 509.011041 56.101875 509.650416 56.101875 
Q 510.762291 56.101875 511.345416 55.663125 
Q 511.928541 55.224375 511.928541 54.38625 
Q 511.928541 53.611875 511.386666 53.176875 
Q 510.844791 52.74 509.879166 52.74 
L 508.859166 52.74 
L 508.859166 51.766875 
L 509.926041 51.766875 
Q 510.797916 51.766875 511.261041 51.418125 
Q 511.724166 51.069375 511.724166 50.413125 
Q 511.724166 49.74 511.246041 49.38 
Q 510.769791 49.018125 509.879166 49.018125 
Q 509.391666 49.018125 508.834791 49.125 
Q 508.277916 49.23 507.610416 49.45125 
L 507.610416 48.3975 
Q 508.285416 48.21 508.874166 48.11625 
Q 509.462916 48.0225 509.984166 48.0225 
Q 511.332291 48.0225 512.116041 48.635625 
Q 512.901666 49.246875 512.901666 50.289375 
Q 512.901666 51.016875 512.485416 51.5175 
Q 512.069166 52.018125 511.302291 52.21125 
z
M 518.029557 52.08375 
Q 517.232682 52.08375 516.765807 52.629375 
Q 516.300807 53.173125 516.300807 54.121875 
Q 516.300807 55.065 516.765807 55.614375 
Q 517.232682 56.161875 518.029557 56.161875 
Q 518.826432 56.161875 519.291432 55.614375 
Q 519.756432 55.065 519.756432 54.121875 
Q 519.756432 53.173125 519.291432 52.629375 
Q 518.826432 52.08375 518.029557 52.08375 
z
M 520.378932 48.373125 
L 520.378932 49.45125 
Q 519.932682 49.24125 519.478932 49.130625 
Q 519.025182 49.018125 518.578932 49.018125 
Q 517.407057 49.018125 516.788307 49.809375 
Q 516.171432 50.600625 516.083307 52.2 
Q 516.428307 51.69 516.949557 51.418125 
Q 517.472682 51.14625 518.098932 51.14625 
Q 519.417057 51.14625 520.182057 51.946875 
Q 520.947057 52.745625 520.947057 54.121875 
Q 520.947057 55.47 520.150182 56.285625 
Q 519.353307 57.099375 518.029557 57.099375 
Q 516.510807 57.099375 515.708307 55.936875 
Q 514.905807 54.7725 514.905807 52.56375 
Q 514.905807 50.49 515.890182 49.25625 
Q 516.874557 48.0225 518.532057 48.0225 
Q 518.978307 48.0225 519.432057 48.110625 
Q 519.885807 48.19875 520.378932 48.373125 
z
M 522.984948 55.44 
L 524.222448 55.44 
L 524.222448 56.92875 
L 522.984948 56.92875 
L 522.984948 55.44 
z
M 527.819401 55.933125 
L 531.950026 55.933125 
L 531.950026 56.92875 
L 526.396276 56.92875 
L 526.396276 55.933125 
Q 527.069401 55.235625 528.231901 54.061875 
Q 529.396276 52.88625 529.694401 52.545 
Q 530.262526 51.9075 530.487526 51.465 
Q 530.714401 51.0225 530.714401 50.595 
Q 530.714401 49.8975 530.225026 49.45875 
Q 529.735651 49.018125 528.950026 49.018125 
Q 528.393151 49.018125 527.774401 49.21125 
Q 527.157526 49.404375 526.454401 49.798125 
L 526.454401 48.601875 
Q 527.168776 48.315 527.789401 48.16875 
Q 528.411901 48.0225 528.927526 48.0225 
Q 530.286901 48.0225 531.095026 48.703125 
Q 531.903151 49.381875 531.903151 50.518125 
Q 531.903151 51.058125 531.700651 51.541875 
Q 531.500026 52.02375 530.965651 52.68 
Q 530.819401 52.850625 530.033776 53.6625 
Q 529.250026 54.474375 527.819401 55.933125 
z
M 544.107995 55.68 
L 544.107995 53.330625 
L 542.17487 53.330625 
L 542.17487 52.3575 
L 545.27987 52.3575 
L 545.27987 56.115 
Q 544.595495 56.600625 543.76862 56.85 
Q 542.94362 57.099375 542.00612 57.099375 
Q 539.95487 57.099375 538.79612 55.90125 
Q 537.639245 54.70125 537.639245 52.56375 
Q 537.639245 50.41875 538.79612 49.220625 
Q 539.95487 48.0225 542.00612 48.0225 
Q 542.86112 48.0225 543.631745 48.234375 
Q 544.40237 48.444375 545.052995 48.855 
L 545.052995 50.115 
Q 544.396745 49.558125 543.657995 49.276875 
Q 542.919245 48.995625 542.105495 48.995625 
Q 540.49862 48.995625 539.69237 49.891875 
Q 538.887995 50.788125 538.887995 52.56375 
Q 538.887995 54.33375 539.69237 55.23 
Q 540.49862 56.12625 542.105495 56.12625 
Q 542.731745 56.12625 543.222995 56.0175 
Q 543.71612 55.90875 544.107995 55.68 
z
M 547.395573 50.36625 
L 548.473698 50.36625 
L 548.473698 56.92875 
L 547.395573 56.92875 
L 547.395573 50.36625 
z
M 547.395573 47.810625 
L 548.473698 47.810625 
L 548.473698 49.1775 
L 547.395573 49.1775 
L 547.395573 47.810625 
z
M 551.959557 52.75125 
L 551.959557 55.955625 
L 553.858932 55.955625 
Q 554.813307 55.955625 555.272682 55.56 
Q 555.733932 55.164375 555.733932 54.350625 
Q 555.733932 53.529375 555.272682 53.14125 
Q 554.813307 52.75125 553.858932 52.75125 
L 551.959557 52.75125 
z
M 551.959557 49.153125 
L 551.959557 51.789375 
L 553.712682 51.789375 
Q 554.578932 51.789375 555.002682 51.465 
Q 555.428307 51.13875 555.428307 50.47125 
Q 555.428307 49.809375 555.002682 49.48125 
Q 554.578932 49.153125 553.712682 49.153125 
L 551.959557 49.153125 
z
M 550.776432 48.18 
L 553.800807 48.18 
Q 555.154557 48.18 555.885807 48.7425 
Q 556.618932 49.305 556.618932 50.341875 
Q 556.618932 51.14625 556.243932 51.620625 
Q 555.868932 52.095 555.141432 52.21125 
Q 556.015182 52.39875 556.498932 52.995 
Q 556.982682 53.589375 556.982682 54.48 
Q 556.982682 55.651875 556.185807 56.29125 
Q 555.388932 56.92875 553.917057 56.92875 
L 550.776432 56.92875 
L 550.776432 48.18 
z
M 560.878229 48.18 
L 561.873854 48.18 
L 558.826979 58.0425 
L 557.831354 58.0425 
L 560.878229 48.18 
z
M 567.188073 50.559375 
L 567.188073 51.579375 
Q 566.732448 51.345 566.239323 51.22875 
Q 565.748073 51.110625 565.219323 51.110625 
Q 564.416823 51.110625 564.015573 51.35625 
Q 563.614323 51.601875 563.614323 52.095 
Q 563.614323 52.47 563.901198 52.68375 
Q 564.188073 52.8975 565.056198 53.090625 
L 565.425573 53.173125 
Q 566.573073 53.41875 567.056823 53.866875 
Q 567.540573 54.315 567.540573 55.1175 
Q 567.540573 56.0325 566.816823 56.566875 
Q 566.093073 57.099375 564.827448 57.099375 
Q 564.300573 57.099375 563.728698 56.99625 
Q 563.156823 56.893125 562.524948 56.68875 
L 562.524948 55.575 
Q 563.123073 55.88625 563.702448 56.041875 
Q 564.281823 56.195625 564.851823 56.195625 
Q 565.613073 56.195625 566.021823 55.935 
Q 566.432448 55.674375 566.432448 55.2 
Q 566.432448 54.76125 566.136198 54.526875 
Q 565.841823 54.2925 564.838698 54.075 
L 564.463698 53.986875 
Q 563.462448 53.776875 563.016198 53.34 
Q 562.571823 52.903125 562.571823 52.141875 
Q 562.571823 51.215625 563.228073 50.713125 
Q 563.884323 50.20875 565.091823 50.20875 
Q 565.688073 50.20875 566.214948 50.296875 
Q 566.743698 50.383125 567.188073 50.559375 
z
" style="fill: #262626"/>
   </g>
   <g id="text_14">
    <path d="M 444.737857 83.15625 
Q 445.587232 83.338125 446.063482 83.91375 
Q 446.541607 84.4875 446.541607 85.33125 
Q 446.541607 86.625 445.650982 87.335625 
Q 444.760357 88.044375 443.119732 88.044375 
Q 442.570357 88.044375 441.987232 87.935625 
Q 441.404107 87.826875 440.783482 87.609375 
L 440.783482 86.4675 
Q 441.274732 86.754375 441.859732 86.900625 
Q 442.446607 87.046875 443.085982 87.046875 
Q 444.197857 87.046875 444.780982 86.608125 
Q 445.364107 86.169375 445.364107 85.33125 
Q 445.364107 84.556875 444.822232 84.121875 
Q 444.280357 83.685 443.314732 83.685 
L 442.294732 83.685 
L 442.294732 82.711875 
L 443.361607 82.711875 
Q 444.233482 82.711875 444.696607 82.363125 
Q 445.159732 82.014375 445.159732 81.358125 
Q 445.159732 80.685 444.681607 80.325 
Q 444.205357 79.963125 443.314732 79.963125 
Q 442.827232 79.963125 442.270357 80.07 
Q 441.713482 80.175 441.045982 80.39625 
L 441.045982 79.3425 
Q 441.720982 79.155 442.309732 79.06125 
Q 442.898482 78.9675 443.419732 78.9675 
Q 444.767857 78.9675 445.551607 79.580625 
Q 446.337232 80.191875 446.337232 81.234375 
Q 446.337232 81.961875 445.920982 82.4625 
Q 445.504732 82.963125 444.737857 83.15625 
z
M 452.038872 80.15625 
L 449.050122 84.826875 
L 452.038872 84.826875 
L 452.038872 80.15625 
z
M 451.727622 79.125 
L 453.216372 79.125 
L 453.216372 84.826875 
L 454.465122 84.826875 
L 454.465122 85.81125 
L 453.216372 85.81125 
L 453.216372 87.87375 
L 452.038872 87.87375 
L 452.038872 85.81125 
L 448.090122 85.81125 
L 448.090122 84.669375 
L 451.727622 79.125 
z
M 456.420513 86.385 
L 457.658013 86.385 
L 457.658013 87.87375 
L 456.420513 87.87375 
L 456.420513 86.385 
z
M 460.248091 79.125 
L 464.894341 79.125 
L 464.894341 80.1225 
L 461.331841 80.1225 
L 461.331841 82.265625 
Q 461.588716 82.1775 461.845591 82.134375 
Q 462.104341 82.09125 462.363091 82.09125 
Q 463.827466 82.09125 464.682466 82.89375 
Q 465.539341 83.69625 465.539341 85.066875 
Q 465.539341 86.47875 464.659966 87.2625 
Q 463.780591 88.044375 462.181216 88.044375 
Q 461.629966 88.044375 461.058091 87.950625 
Q 460.488091 87.856875 459.878716 87.669375 
L 459.878716 86.47875 
Q 460.405591 86.765625 460.968091 86.90625 
Q 461.530591 87.046875 462.156841 87.046875 
Q 463.171216 87.046875 463.761841 86.514375 
Q 464.354341 85.981875 464.354341 85.066875 
Q 464.354341 84.15375 463.761841 83.62125 
Q 463.171216 83.086875 462.156841 83.086875 
Q 461.682466 83.086875 461.209966 83.191875 
Q 460.739341 83.296875 460.248091 83.52 
L 460.248091 79.125 
z
M 477.54356 86.625 
L 477.54356 84.275625 
L 475.610435 84.275625 
L 475.610435 83.3025 
L 478.715435 83.3025 
L 478.715435 87.06 
Q 478.03106 87.545625 477.204185 87.795 
Q 476.379185 88.044375 475.441685 88.044375 
Q 473.390435 88.044375 472.231685 86.84625 
Q 471.07481 85.64625 471.07481 83.50875 
Q 471.07481 81.36375 472.231685 80.165625 
Q 473.390435 78.9675 475.441685 78.9675 
Q 476.296685 78.9675 477.06731 79.179375 
Q 477.837935 79.389375 478.48856 79.8 
L 478.48856 81.06 
Q 477.83231 80.503125 477.09356 80.221875 
Q 476.35481 79.940625 475.54106 79.940625 
Q 473.934185 79.940625 473.127935 80.836875 
Q 472.32356 81.733125 472.32356 83.50875 
Q 472.32356 85.27875 473.127935 86.175 
Q 473.934185 87.07125 475.54106 87.07125 
Q 476.16731 87.07125 476.65856 86.9625 
Q 477.151685 86.85375 477.54356 86.625 
z
M 480.831138 81.31125 
L 481.909263 81.31125 
L 481.909263 87.87375 
L 480.831138 87.87375 
L 480.831138 81.31125 
z
M 480.831138 78.755625 
L 481.909263 78.755625 
L 481.909263 80.1225 
L 480.831138 80.1225 
L 480.831138 78.755625 
z
M 485.395122 83.69625 
L 485.395122 86.900625 
L 487.294497 86.900625 
Q 488.248872 86.900625 488.708247 86.505 
Q 489.169497 86.109375 489.169497 85.295625 
Q 489.169497 84.474375 488.708247 84.08625 
Q 488.248872 83.69625 487.294497 83.69625 
L 485.395122 83.69625 
z
M 485.395122 80.098125 
L 485.395122 82.734375 
L 487.148247 82.734375 
Q 488.014497 82.734375 488.438247 82.41 
Q 488.863872 82.08375 488.863872 81.41625 
Q 488.863872 80.754375 488.438247 80.42625 
Q 488.014497 80.098125 487.148247 80.098125 
L 485.395122 80.098125 
z
M 484.211997 79.125 
L 487.236372 79.125 
Q 488.590122 79.125 489.321372 79.6875 
Q 490.054497 80.25 490.054497 81.286875 
Q 490.054497 82.09125 489.679497 82.565625 
Q 489.304497 83.04 488.576997 83.15625 
Q 489.450747 83.34375 489.934497 83.94 
Q 490.418247 84.534375 490.418247 85.425 
Q 490.418247 86.596875 489.621372 87.23625 
Q 488.824497 87.87375 487.352622 87.87375 
L 484.211997 87.87375 
L 484.211997 79.125 
z
M 494.313794 79.125 
L 495.309419 79.125 
L 492.262544 88.9875 
L 491.266919 88.9875 
L 494.313794 79.125 
z
M 500.623638 81.504375 
L 500.623638 82.524375 
Q 500.168013 82.29 499.674888 82.17375 
Q 499.183638 82.055625 498.654888 82.055625 
Q 497.852388 82.055625 497.451138 82.30125 
Q 497.049888 82.546875 497.049888 83.04 
Q 497.049888 83.415 497.336763 83.62875 
Q 497.623638 83.8425 498.491763 84.035625 
L 498.861138 84.118125 
Q 500.008638 84.36375 500.492388 84.811875 
Q 500.976138 85.26 500.976138 86.0625 
Q 500.976138 86.9775 500.252388 87.511875 
Q 499.528638 88.044375 498.263013 88.044375 
Q 497.736138 88.044375 497.164263 87.94125 
Q 496.592388 87.838125 495.960513 87.63375 
L 495.960513 86.52 
Q 496.558638 86.83125 497.138013 86.986875 
Q 497.717388 87.140625 498.287388 87.140625 
Q 499.048638 87.140625 499.457388 86.88 
Q 499.868013 86.619375 499.868013 86.145 
Q 499.868013 85.70625 499.571763 85.471875 
Q 499.277388 85.2375 498.274263 85.02 
L 497.899263 84.931875 
Q 496.898013 84.721875 496.451763 84.285 
Q 496.007388 83.848125 496.007388 83.086875 
Q 496.007388 82.160625 496.663638 81.658125 
Q 497.319888 81.15375 498.527388 81.15375 
Q 499.123638 81.15375 499.650513 81.241875 
Q 500.179263 81.328125 500.623638 81.504375 
z
" style="fill: #262626; stroke: #ffffff; stroke-width: 5"/>
    <path d="M 444.737857 83.15625 
Q 445.587232 83.338125 446.063482 83.91375 
Q 446.541607 84.4875 446.541607 85.33125 
Q 446.541607 86.625 445.650982 87.335625 
Q 444.760357 88.044375 443.119732 88.044375 
Q 442.570357 88.044375 441.987232 87.935625 
Q 441.404107 87.826875 440.783482 87.609375 
L 440.783482 86.4675 
Q 441.274732 86.754375 441.859732 86.900625 
Q 442.446607 87.046875 443.085982 87.046875 
Q 444.197857 87.046875 444.780982 86.608125 
Q 445.364107 86.169375 445.364107 85.33125 
Q 445.364107 84.556875 444.822232 84.121875 
Q 444.280357 83.685 443.314732 83.685 
L 442.294732 83.685 
L 442.294732 82.711875 
L 443.361607 82.711875 
Q 444.233482 82.711875 444.696607 82.363125 
Q 445.159732 82.014375 445.159732 81.358125 
Q 445.159732 80.685 444.681607 80.325 
Q 444.205357 79.963125 443.314732 79.963125 
Q 442.827232 79.963125 442.270357 80.07 
Q 441.713482 80.175 441.045982 80.39625 
L 441.045982 79.3425 
Q 441.720982 79.155 442.309732 79.06125 
Q 442.898482 78.9675 443.419732 78.9675 
Q 444.767857 78.9675 445.551607 79.580625 
Q 446.337232 80.191875 446.337232 81.234375 
Q 446.337232 81.961875 445.920982 82.4625 
Q 445.504732 82.963125 444.737857 83.15625 
z
M 452.038872 80.15625 
L 449.050122 84.826875 
L 452.038872 84.826875 
L 452.038872 80.15625 
z
M 451.727622 79.125 
L 453.216372 79.125 
L 453.216372 84.826875 
L 454.465122 84.826875 
L 454.465122 85.81125 
L 453.216372 85.81125 
L 453.216372 87.87375 
L 452.038872 87.87375 
L 452.038872 85.81125 
L 448.090122 85.81125 
L 448.090122 84.669375 
L 451.727622 79.125 
z
M 456.420513 86.385 
L 457.658013 86.385 
L 457.658013 87.87375 
L 456.420513 87.87375 
L 456.420513 86.385 
z
M 460.248091 79.125 
L 464.894341 79.125 
L 464.894341 80.1225 
L 461.331841 80.1225 
L 461.331841 82.265625 
Q 461.588716 82.1775 461.845591 82.134375 
Q 462.104341 82.09125 462.363091 82.09125 
Q 463.827466 82.09125 464.682466 82.89375 
Q 465.539341 83.69625 465.539341 85.066875 
Q 465.539341 86.47875 464.659966 87.2625 
Q 463.780591 88.044375 462.181216 88.044375 
Q 461.629966 88.044375 461.058091 87.950625 
Q 460.488091 87.856875 459.878716 87.669375 
L 459.878716 86.47875 
Q 460.405591 86.765625 460.968091 86.90625 
Q 461.530591 87.046875 462.156841 87.046875 
Q 463.171216 87.046875 463.761841 86.514375 
Q 464.354341 85.981875 464.354341 85.066875 
Q 464.354341 84.15375 463.761841 83.62125 
Q 463.171216 83.086875 462.156841 83.086875 
Q 461.682466 83.086875 461.209966 83.191875 
Q 460.739341 83.296875 460.248091 83.52 
L 460.248091 79.125 
z
M 477.54356 86.625 
L 477.54356 84.275625 
L 475.610435 84.275625 
L 475.610435 83.3025 
L 478.715435 83.3025 
L 478.715435 87.06 
Q 478.03106 87.545625 477.204185 87.795 
Q 476.379185 88.044375 475.441685 88.044375 
Q 473.390435 88.044375 472.231685 86.84625 
Q 471.07481 85.64625 471.07481 83.50875 
Q 471.07481 81.36375 472.231685 80.165625 
Q 473.390435 78.9675 475.441685 78.9675 
Q 476.296685 78.9675 477.06731 79.179375 
Q 477.837935 79.389375 478.48856 79.8 
L 478.48856 81.06 
Q 477.83231 80.503125 477.09356 80.221875 
Q 476.35481 79.940625 475.54106 79.940625 
Q 473.934185 79.940625 473.127935 80.836875 
Q 472.32356 81.733125 472.32356 83.50875 
Q 472.32356 85.27875 473.127935 86.175 
Q 473.934185 87.07125 475.54106 87.07125 
Q 476.16731 87.07125 476.65856 86.9625 
Q 477.151685 86.85375 477.54356 86.625 
z
M 480.831138 81.31125 
L 481.909263 81.31125 
L 481.909263 87.87375 
L 480.831138 87.87375 
L 480.831138 81.31125 
z
M 480.831138 78.755625 
L 481.909263 78.755625 
L 481.909263 80.1225 
L 480.831138 80.1225 
L 480.831138 78.755625 
z
M 485.395122 83.69625 
L 485.395122 86.900625 
L 487.294497 86.900625 
Q 488.248872 86.900625 488.708247 86.505 
Q 489.169497 86.109375 489.169497 85.295625 
Q 489.169497 84.474375 488.708247 84.08625 
Q 488.248872 83.69625 487.294497 83.69625 
L 485.395122 83.69625 
z
M 485.395122 80.098125 
L 485.395122 82.734375 
L 487.148247 82.734375 
Q 488.014497 82.734375 488.438247 82.41 
Q 488.863872 82.08375 488.863872 81.41625 
Q 488.863872 80.754375 488.438247 80.42625 
Q 488.014497 80.098125 487.148247 80.098125 
L 485.395122 80.098125 
z
M 484.211997 79.125 
L 487.236372 79.125 
Q 488.590122 79.125 489.321372 79.6875 
Q 490.054497 80.25 490.054497 81.286875 
Q 490.054497 82.09125 489.679497 82.565625 
Q 489.304497 83.04 488.576997 83.15625 
Q 489.450747 83.34375 489.934497 83.94 
Q 490.418247 84.534375 490.418247 85.425 
Q 490.418247 86.596875 489.621372 87.23625 
Q 488.824497 87.87375 487.352622 87.87375 
L 484.211997 87.87375 
L 484.211997 79.125 
z
M 494.313794 79.125 
L 495.309419 79.125 
L 492.262544 88.9875 
L 491.266919 88.9875 
L 494.313794 79.125 
z
M 500.623638 81.504375 
L 500.623638 82.524375 
Q 500.168013 82.29 499.674888 82.17375 
Q 499.183638 82.055625 498.654888 82.055625 
Q 497.852388 82.055625 497.451138 82.30125 
Q 497.049888 82.546875 497.049888 83.04 
Q 497.049888 83.415 497.336763 83.62875 
Q 497.623638 83.8425 498.491763 84.035625 
L 498.861138 84.118125 
Q 500.008638 84.36375 500.492388 84.811875 
Q 500.976138 85.26 500.976138 86.0625 
Q 500.976138 86.9775 500.252388 87.511875 
Q 499.528638 88.044375 498.263013 88.044375 
Q 497.736138 88.044375 497.164263 87.94125 
Q 496.592388 87.838125 495.960513 87.63375 
L 495.960513 86.52 
Q 496.558638 86.83125 497.138013 86.986875 
Q 497.717388 87.140625 498.287388 87.140625 
Q 499.048638 87.140625 499.457388 86.88 
Q 499.868013 86.619375 499.868013 86.145 
Q 499.868013 85.70625 499.571763 85.471875 
Q 499.277388 85.2375 498.274263 85.02 
L 497.899263 84.931875 
Q 496.898013 84.721875 496.451763 84.285 
Q 496.007388 83.848125 496.007388 83.086875 
Q 496.007388 82.160625 496.663638 81.658125 
Q 497.319888 81.15375 498.527388 81.15375 
Q 499.123638 81.15375 499.650513 81.241875 
Q 500.179263 81.328125 500.623638 81.504375 
z
" style="fill: #262626"/>
   </g>
   <g id="text_15">
    <path d="M 543.515636 114.10125 
Q 544.365011 114.283125 544.841261 114.85875 
Q 545.319386 115.4325 545.319386 116.27625 
Q 545.319386 117.57 544.428761 118.280625 
Q 543.538136 118.989375 541.897511 118.989375 
Q 541.348136 118.989375 540.765011 118.880625 
Q 540.181886 118.771875 539.561261 118.554375 
L 539.561261 117.4125 
Q 540.052511 117.699375 540.637511 117.845625 
Q 541.224386 117.991875 541.863761 117.991875 
Q 542.975636 117.991875 543.558761 117.553125 
Q 544.141886 117.114375 544.141886 116.27625 
Q 544.141886 115.501875 543.600011 115.066875 
Q 543.058136 114.63 542.092511 114.63 
L 541.072511 114.63 
L 541.072511 113.656875 
L 542.139386 113.656875 
Q 543.011261 113.656875 543.474386 113.308125 
Q 543.937511 112.959375 543.937511 112.303125 
Q 543.937511 111.63 543.459386 111.27 
Q 542.983136 110.908125 542.092511 110.908125 
Q 541.605011 110.908125 541.048136 111.015 
Q 540.491261 111.12 539.823761 111.34125 
L 539.823761 110.2875 
Q 540.498761 110.1 541.087511 110.00625 
Q 541.676261 109.9125 542.197511 109.9125 
Q 543.545636 109.9125 544.329386 110.525625 
Q 545.115011 111.136875 545.115011 112.179375 
Q 545.115011 112.906875 544.698761 113.4075 
Q 544.282511 113.908125 543.515636 114.10125 
z
M 550.816651 111.10125 
L 547.827901 115.771875 
L 550.816651 115.771875 
L 550.816651 111.10125 
z
M 550.505401 110.07 
L 551.994151 110.07 
L 551.994151 115.771875 
L 553.242901 115.771875 
L 553.242901 116.75625 
L 551.994151 116.75625 
L 551.994151 118.81875 
L 550.816651 118.81875 
L 550.816651 116.75625 
L 546.867901 116.75625 
L 546.867901 115.614375 
L 550.505401 110.07 
z
M 558.451417 111.10125 
L 555.462667 115.771875 
L 558.451417 115.771875 
L 558.451417 111.10125 
z
M 558.140167 110.07 
L 559.628917 110.07 
L 559.628917 115.771875 
L 560.877667 115.771875 
L 560.877667 116.75625 
L 559.628917 116.75625 
L 559.628917 118.81875 
L 558.451417 118.81875 
L 558.451417 116.75625 
L 554.502667 116.75625 
L 554.502667 115.614375 
L 558.140167 110.07 
z
M 562.833058 117.33 
L 564.070558 117.33 
L 564.070558 118.81875 
L 562.833058 118.81875 
L 562.833058 117.33 
z
M 569.178761 114.66375 
Q 568.335011 114.66375 567.851261 115.115625 
Q 567.369386 115.5675 567.369386 116.356875 
Q 567.369386 117.148125 567.851261 117.6 
Q 568.335011 118.051875 569.178761 118.051875 
Q 570.022511 118.051875 570.508136 117.598125 
Q 570.995636 117.1425 570.995636 116.356875 
Q 570.995636 115.5675 570.511886 115.115625 
Q 570.030011 114.66375 569.178761 114.66375 
z
M 567.995636 114.16125 
Q 567.234386 113.97375 566.808761 113.4525 
Q 566.385011 112.929375 566.385011 112.179375 
Q 566.385011 111.13125 567.131261 110.521875 
Q 567.879386 109.9125 569.178761 109.9125 
Q 570.485636 109.9125 571.230011 110.521875 
Q 571.974386 111.13125 571.974386 112.179375 
Q 571.974386 112.929375 571.548761 113.4525 
Q 571.125011 113.97375 570.369386 114.16125 
Q 571.224386 114.36 571.700636 114.94125 
Q 572.178761 115.520625 572.178761 116.356875 
Q 572.178761 117.63 571.402511 118.310625 
Q 570.626261 118.989375 569.178761 118.989375 
Q 567.733136 118.989375 566.955011 118.310625 
Q 566.178761 117.63 566.178761 116.356875 
Q 566.178761 115.520625 566.658761 114.94125 
Q 567.140636 114.36 567.995636 114.16125 
z
M 567.562511 112.291875 
Q 567.562511 112.970625 567.986261 113.35125 
Q 568.411886 113.731875 569.178761 113.731875 
Q 569.941886 113.731875 570.371261 113.35125 
Q 570.802511 112.970625 570.802511 112.291875 
Q 570.802511 111.61125 570.371261 111.230625 
Q 569.941886 110.85 569.178761 110.85 
Q 568.411886 110.85 567.986261 111.230625 
Q 567.562511 111.61125 567.562511 112.291875 
z
M 583.956104 117.57 
L 583.956104 115.220625 
L 582.022979 115.220625 
L 582.022979 114.2475 
L 585.127979 114.2475 
L 585.127979 118.005 
Q 584.443604 118.490625 583.616729 118.74 
Q 582.791729 118.989375 581.854229 118.989375 
Q 579.802979 118.989375 578.644229 117.79125 
Q 577.487354 116.59125 577.487354 114.45375 
Q 577.487354 112.30875 578.644229 111.110625 
Q 579.802979 109.9125 581.854229 109.9125 
Q 582.709229 109.9125 583.479854 110.124375 
Q 584.250479 110.334375 584.901104 110.745 
L 584.901104 112.005 
Q 584.244854 111.448125 583.506104 111.166875 
Q 582.767354 110.885625 581.953604 110.885625 
Q 580.346729 110.885625 579.540479 111.781875 
Q 578.736104 112.678125 578.736104 114.45375 
Q 578.736104 116.22375 579.540479 117.12 
Q 580.346729 118.01625 581.953604 118.01625 
Q 582.579854 118.01625 583.071104 117.9075 
Q 583.564229 117.79875 583.956104 117.57 
z
M 587.243683 112.25625 
L 588.321808 112.25625 
L 588.321808 118.81875 
L 587.243683 118.81875 
L 587.243683 112.25625 
z
M 587.243683 109.700625 
L 588.321808 109.700625 
L 588.321808 111.0675 
L 587.243683 111.0675 
L 587.243683 109.700625 
z
M 591.807667 114.64125 
L 591.807667 117.845625 
L 593.707042 117.845625 
Q 594.661417 117.845625 595.120792 117.45 
Q 595.582042 117.054375 595.582042 116.240625 
Q 595.582042 115.419375 595.120792 115.03125 
Q 594.661417 114.64125 593.707042 114.64125 
L 591.807667 114.64125 
z
M 591.807667 111.043125 
L 591.807667 113.679375 
L 593.560792 113.679375 
Q 594.427042 113.679375 594.850792 113.355 
Q 595.276417 113.02875 595.276417 112.36125 
Q 595.276417 111.699375 594.850792 111.37125 
Q 594.427042 111.043125 593.560792 111.043125 
L 591.807667 111.043125 
z
M 590.624542 110.07 
L 593.648917 110.07 
Q 595.002667 110.07 595.733917 110.6325 
Q 596.467042 111.195 596.467042 112.231875 
Q 596.467042 113.03625 596.092042 113.510625 
Q 595.717042 113.985 594.989542 114.10125 
Q 595.863292 114.28875 596.347042 114.885 
Q 596.830792 115.479375 596.830792 116.37 
Q 596.830792 117.541875 596.033917 118.18125 
Q 595.237042 118.81875 593.765167 118.81875 
L 590.624542 118.81875 
L 590.624542 110.07 
z
M 600.726339 110.07 
L 601.721964 110.07 
L 598.675089 119.9325 
L 597.679464 119.9325 
L 600.726339 110.07 
z
M 607.036183 112.449375 
L 607.036183 113.469375 
Q 606.580558 113.235 606.087433 113.11875 
Q 605.596183 113.000625 605.067433 113.000625 
Q 604.264933 113.000625 603.863683 113.24625 
Q 603.462433 113.491875 603.462433 113.985 
Q 603.462433 114.36 603.749308 114.57375 
Q 604.036183 114.7875 604.904308 114.980625 
L 605.273683 115.063125 
Q 606.421183 115.30875 606.904933 115.756875 
Q 607.388683 116.205 607.388683 117.0075 
Q 607.388683 117.9225 606.664933 118.456875 
Q 605.941183 118.989375 604.675558 118.989375 
Q 604.148683 118.989375 603.576808 118.88625 
Q 603.004933 118.783125 602.373058 118.57875 
L 602.373058 117.465 
Q 602.971183 117.77625 603.550558 117.931875 
Q 604.129933 118.085625 604.699933 118.085625 
Q 605.461183 118.085625 605.869933 117.825 
Q 606.280558 117.564375 606.280558 117.09 
Q 606.280558 116.65125 605.984308 116.416875 
Q 605.689933 116.1825 604.686808 115.965 
L 604.311808 115.876875 
Q 603.310558 115.666875 602.864308 115.23 
Q 602.419933 114.793125 602.419933 114.031875 
Q 602.419933 113.105625 603.076183 112.603125 
Q 603.732433 112.09875 604.939933 112.09875 
Q 605.536183 112.09875 606.063058 112.186875 
Q 606.591808 112.273125 607.036183 112.449375 
z
" style="fill: #262626; stroke: #ffffff; stroke-width: 5"/>
    <path d="M 543.515636 114.10125 
Q 544.365011 114.283125 544.841261 114.85875 
Q 545.319386 115.4325 545.319386 116.27625 
Q 545.319386 117.57 544.428761 118.280625 
Q 543.538136 118.989375 541.897511 118.989375 
Q 541.348136 118.989375 540.765011 118.880625 
Q 540.181886 118.771875 539.561261 118.554375 
L 539.561261 117.4125 
Q 540.052511 117.699375 540.637511 117.845625 
Q 541.224386 117.991875 541.863761 117.991875 
Q 542.975636 117.991875 543.558761 117.553125 
Q 544.141886 117.114375 544.141886 116.27625 
Q 544.141886 115.501875 543.600011 115.066875 
Q 543.058136 114.63 542.092511 114.63 
L 541.072511 114.63 
L 541.072511 113.656875 
L 542.139386 113.656875 
Q 543.011261 113.656875 543.474386 113.308125 
Q 543.937511 112.959375 543.937511 112.303125 
Q 543.937511 111.63 543.459386 111.27 
Q 542.983136 110.908125 542.092511 110.908125 
Q 541.605011 110.908125 541.048136 111.015 
Q 540.491261 111.12 539.823761 111.34125 
L 539.823761 110.2875 
Q 540.498761 110.1 541.087511 110.00625 
Q 541.676261 109.9125 542.197511 109.9125 
Q 543.545636 109.9125 544.329386 110.525625 
Q 545.115011 111.136875 545.115011 112.179375 
Q 545.115011 112.906875 544.698761 113.4075 
Q 544.282511 113.908125 543.515636 114.10125 
z
M 550.816651 111.10125 
L 547.827901 115.771875 
L 550.816651 115.771875 
L 550.816651 111.10125 
z
M 550.505401 110.07 
L 551.994151 110.07 
L 551.994151 115.771875 
L 553.242901 115.771875 
L 553.242901 116.75625 
L 551.994151 116.75625 
L 551.994151 118.81875 
L 550.816651 118.81875 
L 550.816651 116.75625 
L 546.867901 116.75625 
L 546.867901 115.614375 
L 550.505401 110.07 
z
M 558.451417 111.10125 
L 555.462667 115.771875 
L 558.451417 115.771875 
L 558.451417 111.10125 
z
M 558.140167 110.07 
L 559.628917 110.07 
L 559.628917 115.771875 
L 560.877667 115.771875 
L 560.877667 116.75625 
L 559.628917 116.75625 
L 559.628917 118.81875 
L 558.451417 118.81875 
L 558.451417 116.75625 
L 554.502667 116.75625 
L 554.502667 115.614375 
L 558.140167 110.07 
z
M 562.833058 117.33 
L 564.070558 117.33 
L 564.070558 118.81875 
L 562.833058 118.81875 
L 562.833058 117.33 
z
M 569.178761 114.66375 
Q 568.335011 114.66375 567.851261 115.115625 
Q 567.369386 115.5675 567.369386 116.356875 
Q 567.369386 117.148125 567.851261 117.6 
Q 568.335011 118.051875 569.178761 118.051875 
Q 570.022511 118.051875 570.508136 117.598125 
Q 570.995636 117.1425 570.995636 116.356875 
Q 570.995636 115.5675 570.511886 115.115625 
Q 570.030011 114.66375 569.178761 114.66375 
z
M 567.995636 114.16125 
Q 567.234386 113.97375 566.808761 113.4525 
Q 566.385011 112.929375 566.385011 112.179375 
Q 566.385011 111.13125 567.131261 110.521875 
Q 567.879386 109.9125 569.178761 109.9125 
Q 570.485636 109.9125 571.230011 110.521875 
Q 571.974386 111.13125 571.974386 112.179375 
Q 571.974386 112.929375 571.548761 113.4525 
Q 571.125011 113.97375 570.369386 114.16125 
Q 571.224386 114.36 571.700636 114.94125 
Q 572.178761 115.520625 572.178761 116.356875 
Q 572.178761 117.63 571.402511 118.310625 
Q 570.626261 118.989375 569.178761 118.989375 
Q 567.733136 118.989375 566.955011 118.310625 
Q 566.178761 117.63 566.178761 116.356875 
Q 566.178761 115.520625 566.658761 114.94125 
Q 567.140636 114.36 567.995636 114.16125 
z
M 567.562511 112.291875 
Q 567.562511 112.970625 567.986261 113.35125 
Q 568.411886 113.731875 569.178761 113.731875 
Q 569.941886 113.731875 570.371261 113.35125 
Q 570.802511 112.970625 570.802511 112.291875 
Q 570.802511 111.61125 570.371261 111.230625 
Q 569.941886 110.85 569.178761 110.85 
Q 568.411886 110.85 567.986261 111.230625 
Q 567.562511 111.61125 567.562511 112.291875 
z
M 583.956104 117.57 
L 583.956104 115.220625 
L 582.022979 115.220625 
L 582.022979 114.2475 
L 585.127979 114.2475 
L 585.127979 118.005 
Q 584.443604 118.490625 583.616729 118.74 
Q 582.791729 118.989375 581.854229 118.989375 
Q 579.802979 118.989375 578.644229 117.79125 
Q 577.487354 116.59125 577.487354 114.45375 
Q 577.487354 112.30875 578.644229 111.110625 
Q 579.802979 109.9125 581.854229 109.9125 
Q 582.709229 109.9125 583.479854 110.124375 
Q 584.250479 110.334375 584.901104 110.745 
L 584.901104 112.005 
Q 584.244854 111.448125 583.506104 111.166875 
Q 582.767354 110.885625 581.953604 110.885625 
Q 580.346729 110.885625 579.540479 111.781875 
Q 578.736104 112.678125 578.736104 114.45375 
Q 578.736104 116.22375 579.540479 117.12 
Q 580.346729 118.01625 581.953604 118.01625 
Q 582.579854 118.01625 583.071104 117.9075 
Q 583.564229 117.79875 583.956104 117.57 
z
M 587.243683 112.25625 
L 588.321808 112.25625 
L 588.321808 118.81875 
L 587.243683 118.81875 
L 587.243683 112.25625 
z
M 587.243683 109.700625 
L 588.321808 109.700625 
L 588.321808 111.0675 
L 587.243683 111.0675 
L 587.243683 109.700625 
z
M 591.807667 114.64125 
L 591.807667 117.845625 
L 593.707042 117.845625 
Q 594.661417 117.845625 595.120792 117.45 
Q 595.582042 117.054375 595.582042 116.240625 
Q 595.582042 115.419375 595.120792 115.03125 
Q 594.661417 114.64125 593.707042 114.64125 
L 591.807667 114.64125 
z
M 591.807667 111.043125 
L 591.807667 113.679375 
L 593.560792 113.679375 
Q 594.427042 113.679375 594.850792 113.355 
Q 595.276417 113.02875 595.276417 112.36125 
Q 595.276417 111.699375 594.850792 111.37125 
Q 594.427042 111.043125 593.560792 111.043125 
L 591.807667 111.043125 
z
M 590.624542 110.07 
L 593.648917 110.07 
Q 595.002667 110.07 595.733917 110.6325 
Q 596.467042 111.195 596.467042 112.231875 
Q 596.467042 113.03625 596.092042 113.510625 
Q 595.717042 113.985 594.989542 114.10125 
Q 595.863292 114.28875 596.347042 114.885 
Q 596.830792 115.479375 596.830792 116.37 
Q 596.830792 117.541875 596.033917 118.18125 
Q 595.237042 118.81875 593.765167 118.81875 
L 590.624542 118.81875 
L 590.624542 110.07 
z
M 600.726339 110.07 
L 601.721964 110.07 
L 598.675089 119.9325 
L 597.679464 119.9325 
L 600.726339 110.07 
z
M 607.036183 112.449375 
L 607.036183 113.469375 
Q 606.580558 113.235 606.087433 113.11875 
Q 605.596183 113.000625 605.067433 113.000625 
Q 604.264933 113.000625 603.863683 113.24625 
Q 603.462433 113.491875 603.462433 113.985 
Q 603.462433 114.36 603.749308 114.57375 
Q 604.036183 114.7875 604.904308 114.980625 
L 605.273683 115.063125 
Q 606.421183 115.30875 606.904933 115.756875 
Q 607.388683 116.205 607.388683 117.0075 
Q 607.388683 117.9225 606.664933 118.456875 
Q 605.941183 118.989375 604.675558 118.989375 
Q 604.148683 118.989375 603.576808 118.88625 
Q 603.004933 118.783125 602.373058 118.57875 
L 602.373058 117.465 
Q 602.971183 117.77625 603.550558 117.931875 
Q 604.129933 118.085625 604.699933 118.085625 
Q 605.461183 118.085625 605.869933 117.825 
Q 606.280558 117.564375 606.280558 117.09 
Q 606.280558 116.65125 605.984308 116.416875 
Q 605.689933 116.1825 604.686808 115.965 
L 604.311808 115.876875 
Q 603.310558 115.666875 602.864308 115.23 
Q 602.419933 114.793125 602.419933 114.031875 
Q 602.419933 113.105625 603.076183 112.603125 
Q 603.732433 112.09875 604.939933 112.09875 
Q 605.536183 112.09875 606.063058 112.186875 
Q 606.591808 112.273125 607.036183 112.449375 
z
" style="fill: #262626"/>
   </g>
  </g>
 </g>
 <defs>
  <clipPath id="p0503fbe0aa">
   <rect x="179.140625" y="7.2" width="493.98316" height="123.78"/>
  </clipPath>
 </defs>
</svg>
