<?xml version="1.0" encoding="utf-8" standalone="no"?>
<!DOCTYPE svg PUBLIC "-//W3C//DTD SVG 1.1//EN"
  "http://www.w3.org/Graphics/SVG/1.1/DTD/svg11.dtd">
<svg xmlns:xlink="http://www.w3.org/1999/xlink" width="499.756875pt" height="315.389531pt" viewBox="0 0 499.756875 315.389531" xmlns="http://www.w3.org/2000/svg" version="1.1">
 <metadata>
  <rdf:RDF xmlns:dc="http://purl.org/dc/elements/1.1/" xmlns:cc="http://creativecommons.org/ns#" xmlns:rdf="http://www.w3.org/1999/02/22-rdf-syntax-ns#">
   <cc:Work>
    <dc:type rdf:resource="http://purl.org/dc/dcmitype/StillImage"/>
    <dc:date>1980-01-01T00:00:00+00:00</dc:date>
    <dc:format>image/svg+xml</dc:format>
    <dc:creator>
     <cc:Agent>
      <dc:title>Matplotlib v3.10.0, https://matplotlib.org/</dc:title>
     </cc:Agent>
    </dc:creator>
   </cc:Work>
  </rdf:RDF>
 </metadata>
 <defs>
  <style type="text/css">*{stroke-linejoin: round; stroke-linecap: butt}</style>
 </defs>
 <g id="figure_1">
  <g id="patch_1">
   <path d="M 0 315.389531 
L 499.756875 315.389531 
L 499.756875 0 
L 0 0 
L 0 315.389531 
z
" style="fill: none"/>
  </g>
  <g id="axes_1">
   <g id="patch_2">
    <path d="M 65.116875 255.3 
L 492.556875 255.3 
L 492.556875 7.2 
L 65.116875 7.2 
z
" style="fill: #ffffff"/>
   </g>
   <g id="matplotlib.axis_1">
    <g id="xtick_1">
     <g id="line2d_1">
      <path d="M 84.545966 255.3 
L 84.545966 7.2 
" clip-path="url(#pbadd671e48)" style="fill: none; stroke: #cccccc; stroke-width: 2; stroke-linecap: round"/>
     </g>
     <g id="text_1">
      <!-- 0 -->
      <g style="fill: #262626" transform="translate(79.296903 283.337422) scale(0.165 -0.165)">
       <defs>
        <path id="DejaVuSans-30" d="M 2034 4250 
Q 1547 4250 1301 3770 
Q 1056 3291 1056 2328 
Q 1056 1369 1301 889 
Q 1547 409 2034 409 
Q 2525 409 2770 889 
Q 3016 1369 3016 2328 
Q 3016 3291 2770 3770 
Q 2525 4250 2034 4250 
z
M 2034 4750 
Q 2819 4750 3233 4129 
Q 3647 3509 3647 2328 
Q 3647 1150 3233 529 
Q 2819 -91 2034 -91 
Q 1250 -91 836 529 
Q 422 1150 422 2328 
Q 422 3509 836 4129 
Q 1250 4750 2034 4750 
z
" transform="scale(0.015625)"/>
       </defs>
       <use xlink:href="#DejaVuSans-30"/>
      </g>
     </g>
    </g>
    <g id="xtick_2">
     <g id="line2d_2">
      <path d="M 160.381359 255.3 
L 160.381359 7.2 
" clip-path="url(#pbadd671e48)" style="fill: none; stroke: #cccccc; stroke-width: 2; stroke-linecap: round"/>
     </g>
     <g id="text_2">
      <!-- 10 -->
      <g style="fill: #262626" transform="translate(149.883234 283.337422) scale(0.165 -0.165)">
       <defs>
        <path id="DejaVuSans-31" d="M 794 531 
L 1825 531 
L 1825 4091 
L 703 3866 
L 703 4441 
L 1819 4666 
L 2450 4666 
L 2450 531 
L 3481 531 
L 3481 0 
L 794 0 
L 794 531 
z
" transform="scale(0.015625)"/>
       </defs>
       <use xlink:href="#DejaVuSans-31"/>
       <use xlink:href="#DejaVuSans-30" transform="translate(63.623047 0)"/>
      </g>
     </g>
    </g>
    <g id="xtick_3">
     <g id="line2d_3">
      <path d="M 236.216752 255.3 
L 236.216752 7.2 
" clip-path="url(#pbadd671e48)" style="fill: none; stroke: #cccccc; stroke-width: 2; stroke-linecap: round"/>
     </g>
     <g id="text_3">
      <!-- 20 -->
      <g style="fill: #262626" transform="translate(225.718627 283.337422) scale(0.165 -0.165)">
       <defs>
        <path id="DejaVuSans-32" d="M 1228 531 
L 3431 531 
L 3431 0 
L 469 0 
L 469 531 
Q 828 903 1448 1529 
Q 2069 2156 2228 2338 
Q 2531 2678 2651 2914 
Q 2772 3150 2772 3378 
Q 2772 3750 2511 3984 
Q 2250 4219 1831 4219 
Q 1534 4219 1204 4116 
Q 875 4013 500 3803 
L 500 4441 
Q 881 4594 1212 4672 
Q 1544 4750 1819 4750 
Q 2544 4750 2975 4387 
Q 3406 4025 3406 3419 
Q 3406 3131 3298 2873 
Q 3191 2616 2906 2266 
Q 2828 2175 2409 1742 
Q 1991 1309 1228 531 
z
" transform="scale(0.015625)"/>
       </defs>
       <use xlink:href="#DejaVuSans-32"/>
       <use xlink:href="#DejaVuSans-30" transform="translate(63.623047 0)"/>
      </g>
     </g>
    </g>
    <g id="xtick_4">
     <g id="line2d_4">
      <path d="M 312.052145 255.3 
L 312.052145 7.2 
" clip-path="url(#pbadd671e48)" style="fill: none; stroke: #cccccc; stroke-width: 2; stroke-linecap: round"/>
     </g>
     <g id="text_4">
      <!-- 30 -->
      <g style="fill: #262626" transform="translate(301.55402 283.337422) scale(0.165 -0.165)">
       <defs>
        <path id="DejaVuSans-33" d="M 2597 2516 
Q 3050 2419 3304 2112 
Q 3559 1806 3559 1356 
Q 3559 666 3084 287 
Q 2609 -91 1734 -91 
Q 1441 -91 1130 -33 
Q 819 25 488 141 
L 488 750 
Q 750 597 1062 519 
Q 1375 441 1716 441 
Q 2309 441 2620 675 
Q 2931 909 2931 1356 
Q 2931 1769 2642 2001 
Q 2353 2234 1838 2234 
L 1294 2234 
L 1294 2753 
L 1863 2753 
Q 2328 2753 2575 2939 
Q 2822 3125 2822 3475 
Q 2822 3834 2567 4026 
Q 2313 4219 1838 4219 
Q 1578 4219 1281 4162 
Q 984 4106 628 3988 
L 628 4550 
Q 988 4650 1302 4700 
Q 1616 4750 1894 4750 
Q 2613 4750 3031 4423 
Q 3450 4097 3450 3541 
Q 3450 3153 3228 2886 
Q 3006 2619 2597 2516 
z
" transform="scale(0.015625)"/>
       </defs>
       <use xlink:href="#DejaVuSans-33"/>
       <use xlink:href="#DejaVuSans-30" transform="translate(63.623047 0)"/>
      </g>
     </g>
    </g>
    <g id="xtick_5">
     <g id="line2d_5">
      <path d="M 387.887538 255.3 
L 387.887538 7.2 
" clip-path="url(#pbadd671e48)" style="fill: none; stroke: #cccccc; stroke-width: 2; stroke-linecap: round"/>
     </g>
     <g id="text_5">
      <!-- 40 -->
      <g style="fill: #262626" transform="translate(377.389413 283.337422) scale(0.165 -0.165)">
       <defs>
        <path id="DejaVuSans-34" d="M 2419 4116 
L 825 1625 
L 2419 1625 
L 2419 4116 
z
M 2253 4666 
L 3047 4666 
L 3047 1625 
L 3713 1625 
L 3713 1100 
L 3047 1100 
L 3047 0 
L 2419 0 
L 2419 1100 
L 313 1100 
L 313 1709 
L 2253 4666 
z
" transform="scale(0.015625)"/>
       </defs>
       <use xlink:href="#DejaVuSans-34"/>
       <use xlink:href="#DejaVuSans-30" transform="translate(63.623047 0)"/>
      </g>
     </g>
    </g>
    <g id="xtick_6">
     <g id="line2d_6">
      <path d="M 463.722931 255.3 
L 463.722931 7.2 
" clip-path="url(#pbadd671e48)" style="fill: none; stroke: #cccccc; stroke-width: 2; stroke-linecap: round"/>
     </g>
     <g id="text_6">
      <!-- 50 -->
      <g style="fill: #262626" transform="translate(453.224806 283.337422) scale(0.165 -0.165)">
       <defs>
        <path id="DejaVuSans-35" d="M 691 4666 
L 3169 4666 
L 3169 4134 
L 1269 4134 
L 1269 2991 
Q 1406 3038 1543 3061 
Q 1681 3084 1819 3084 
Q 2600 3084 3056 2656 
Q 3513 2228 3513 1497 
Q 3513 744 3044 326 
Q 2575 -91 1722 -91 
Q 1428 -91 1123 -41 
Q 819 9 494 109 
L 494 744 
Q 775 591 1075 516 
Q 1375 441 1709 441 
Q 2250 441 2565 725 
Q 2881 1009 2881 1497 
Q 2881 1984 2565 2268 
Q 2250 2553 1709 2553 
Q 1456 2553 1204 2497 
Q 953 2441 691 2322 
L 691 4666 
z
" transform="scale(0.015625)"/>
       </defs>
       <use xlink:href="#DejaVuSans-35"/>
       <use xlink:href="#DejaVuSans-30" transform="translate(63.623047 0)"/>
      </g>
     </g>
    </g>
    <g id="text_7">
     <!-- Time [min] -->
     <g style="fill: #262626" transform="translate(229.962656 304.446094) scale(0.18 -0.18)">
      <defs>
       <path id="DejaVuSans-54" d="M -19 4666 
L 3928 4666 
L 3928 4134 
L 2272 4134 
L 2272 0 
L 1638 0 
L 1638 4134 
L -19 4134 
L -19 4666 
z
" transform="scale(0.015625)"/>
       <path id="DejaVuSans-69" d="M 603 3500 
L 1178 3500 
L 1178 0 
L 603 0 
L 603 3500 
z
M 603 4863 
L 1178 4863 
L 1178 4134 
L 603 4134 
L 603 4863 
z
" transform="scale(0.015625)"/>
       <path id="DejaVuSans-6d" d="M 3328 2828 
Q 3544 3216 3844 3400 
Q 4144 3584 4550 3584 
Q 5097 3584 5394 3201 
Q 5691 2819 5691 2113 
L 5691 0 
L 5113 0 
L 5113 2094 
Q 5113 2597 4934 2840 
Q 4756 3084 4391 3084 
Q 3944 3084 3684 2787 
Q 3425 2491 3425 1978 
L 3425 0 
L 2847 0 
L 2847 2094 
Q 2847 2600 2669 2842 
Q 2491 3084 2119 3084 
Q 1678 3084 1418 2786 
Q 1159 2488 1159 1978 
L 1159 0 
L 581 0 
L 581 3500 
L 1159 3500 
L 1159 2956 
Q 1356 3278 1631 3431 
Q 1906 3584 2284 3584 
Q 2666 3584 2933 3390 
Q 3200 3197 3328 2828 
z
" transform="scale(0.015625)"/>
       <path id="DejaVuSans-65" d="M 3597 1894 
L 3597 1613 
L 953 1613 
Q 991 1019 1311 708 
Q 1631 397 2203 397 
Q 2534 397 2845 478 
Q 3156 559 3463 722 
L 3463 178 
Q 3153 47 2828 -22 
Q 2503 -91 2169 -91 
Q 1331 -91 842 396 
Q 353 884 353 1716 
Q 353 2575 817 3079 
Q 1281 3584 2069 3584 
Q 2775 3584 3186 3129 
Q 3597 2675 3597 1894 
z
M 3022 2063 
Q 3016 2534 2758 2815 
Q 2500 3097 2075 3097 
Q 1594 3097 1305 2825 
Q 1016 2553 972 2059 
L 3022 2063 
z
" transform="scale(0.015625)"/>
       <path id="DejaVuSans-20" transform="scale(0.015625)"/>
       <path id="DejaVuSans-5b" d="M 550 4863 
L 1875 4863 
L 1875 4416 
L 1125 4416 
L 1125 -397 
L 1875 -397 
L 1875 -844 
L 550 -844 
L 550 4863 
z
" transform="scale(0.015625)"/>
       <path id="DejaVuSans-6e" d="M 3513 2113 
L 3513 0 
L 2938 0 
L 2938 2094 
Q 2938 2591 2744 2837 
Q 2550 3084 2163 3084 
Q 1697 3084 1428 2787 
Q 1159 2491 1159 1978 
L 1159 0 
L 581 0 
L 581 3500 
L 1159 3500 
L 1159 2956 
Q 1366 3272 1645 3428 
Q 1925 3584 2291 3584 
Q 2894 3584 3203 3211 
Q 3513 2838 3513 2113 
z
" transform="scale(0.015625)"/>
       <path id="DejaVuSans-5d" d="M 1947 4863 
L 1947 -844 
L 622 -844 
L 622 -397 
L 1369 -397 
L 1369 4416 
L 622 4416 
L 622 4863 
L 1947 4863 
z
" transform="scale(0.015625)"/>
      </defs>
      <use xlink:href="#DejaVuSans-54"/>
      <use xlink:href="#DejaVuSans-69" transform="translate(57.958984 0)"/>
      <use xlink:href="#DejaVuSans-6d" transform="translate(85.742188 0)"/>
      <use xlink:href="#DejaVuSans-65" transform="translate(183.154297 0)"/>
      <use xlink:href="#DejaVuSans-20" transform="translate(244.677734 0)"/>
      <use xlink:href="#DejaVuSans-5b" transform="translate(276.464844 0)"/>
      <use xlink:href="#DejaVuSans-6d" transform="translate(315.478516 0)"/>
      <use xlink:href="#DejaVuSans-69" transform="translate(412.890625 0)"/>
      <use xlink:href="#DejaVuSans-6e" transform="translate(440.673828 0)"/>
      <use xlink:href="#DejaVuSans-5d" transform="translate(504.052734 0)"/>
     </g>
    </g>
   </g>
   <g id="matplotlib.axis_2">
    <g id="ytick_1">
     <g id="line2d_7">
      <path d="M 65.116875 255.3 
L 492.556875 255.3 
" clip-path="url(#pbadd671e48)" style="fill: none; stroke: #cccccc; stroke-width: 2; stroke-linecap: round"/>
     </g>
     <g id="text_8">
      <!-- 0 -->
      <g style="fill: #262626" transform="translate(39.11875 261.568711) scale(0.165 -0.165)">
       <use xlink:href="#DejaVuSans-30"/>
      </g>
     </g>
    </g>
    <g id="ytick_2">
     <g id="line2d_8">
      <path d="M 65.116875 227.106818 
L 492.556875 227.106818 
" clip-path="url(#pbadd671e48)" style="fill: none; stroke: #cccccc; stroke-width: 2; stroke-linecap: round"/>
     </g>
     <g id="text_9">
      <!-- 2 -->
      <g style="fill: #262626" transform="translate(39.11875 233.375529) scale(0.165 -0.165)">
       <use xlink:href="#DejaVuSans-32"/>
      </g>
     </g>
    </g>
    <g id="ytick_3">
     <g id="line2d_9">
      <path d="M 65.116875 198.913636 
L 492.556875 198.913636 
" clip-path="url(#pbadd671e48)" style="fill: none; stroke: #cccccc; stroke-width: 2; stroke-linecap: round"/>
     </g>
     <g id="text_10">
      <!-- 4 -->
      <g style="fill: #262626" transform="translate(39.11875 205.182347) scale(0.165 -0.165)">
       <use xlink:href="#DejaVuSans-34"/>
      </g>
     </g>
    </g>
    <g id="ytick_4">
     <g id="line2d_10">
      <path d="M 65.116875 170.720455 
L 492.556875 170.720455 
" clip-path="url(#pbadd671e48)" style="fill: none; stroke: #cccccc; stroke-width: 2; stroke-linecap: round"/>
     </g>
     <g id="text_11">
      <!-- 6 -->
      <g style="fill: #262626" transform="translate(39.11875 176.989165) scale(0.165 -0.165)">
       <defs>
        <path id="DejaVuSans-36" d="M 2113 2584 
Q 1688 2584 1439 2293 
Q 1191 2003 1191 1497 
Q 1191 994 1439 701 
Q 1688 409 2113 409 
Q 2538 409 2786 701 
Q 3034 994 3034 1497 
Q 3034 2003 2786 2293 
Q 2538 2584 2113 2584 
z
M 3366 4563 
L 3366 3988 
Q 3128 4100 2886 4159 
Q 2644 4219 2406 4219 
Q 1781 4219 1451 3797 
Q 1122 3375 1075 2522 
Q 1259 2794 1537 2939 
Q 1816 3084 2150 3084 
Q 2853 3084 3261 2657 
Q 3669 2231 3669 1497 
Q 3669 778 3244 343 
Q 2819 -91 2113 -91 
Q 1303 -91 875 529 
Q 447 1150 447 2328 
Q 447 3434 972 4092 
Q 1497 4750 2381 4750 
Q 2619 4750 2861 4703 
Q 3103 4656 3366 4563 
z
" transform="scale(0.015625)"/>
       </defs>
       <use xlink:href="#DejaVuSans-36"/>
      </g>
     </g>
    </g>
    <g id="ytick_5">
     <g id="line2d_11">
      <path d="M 65.116875 142.527273 
L 492.556875 142.527273 
" clip-path="url(#pbadd671e48)" style="fill: none; stroke: #cccccc; stroke-width: 2; stroke-linecap: round"/>
     </g>
     <g id="text_12">
      <!-- 8 -->
      <g style="fill: #262626" transform="translate(39.11875 148.795984) scale(0.165 -0.165)">
       <defs>
        <path id="DejaVuSans-38" d="M 2034 2216 
Q 1584 2216 1326 1975 
Q 1069 1734 1069 1313 
Q 1069 891 1326 650 
Q 1584 409 2034 409 
Q 2484 409 2743 651 
Q 3003 894 3003 1313 
Q 3003 1734 2745 1975 
Q 2488 2216 2034 2216 
z
M 1403 2484 
Q 997 2584 770 2862 
Q 544 3141 544 3541 
Q 544 4100 942 4425 
Q 1341 4750 2034 4750 
Q 2731 4750 3128 4425 
Q 3525 4100 3525 3541 
Q 3525 3141 3298 2862 
Q 3072 2584 2669 2484 
Q 3125 2378 3379 2068 
Q 3634 1759 3634 1313 
Q 3634 634 3220 271 
Q 2806 -91 2034 -91 
Q 1263 -91 848 271 
Q 434 634 434 1313 
Q 434 1759 690 2068 
Q 947 2378 1403 2484 
z
M 1172 3481 
Q 1172 3119 1398 2916 
Q 1625 2713 2034 2713 
Q 2441 2713 2670 2916 
Q 2900 3119 2900 3481 
Q 2900 3844 2670 4047 
Q 2441 4250 2034 4250 
Q 1625 4250 1398 4047 
Q 1172 3844 1172 3481 
z
" transform="scale(0.015625)"/>
       </defs>
       <use xlink:href="#DejaVuSans-38"/>
      </g>
     </g>
    </g>
    <g id="ytick_6">
     <g id="line2d_12">
      <path d="M 65.116875 114.334091 
L 492.556875 114.334091 
" clip-path="url(#pbadd671e48)" style="fill: none; stroke: #cccccc; stroke-width: 2; stroke-linecap: round"/>
     </g>
     <g id="text_13">
      <!-- 10 -->
      <g style="fill: #262626" transform="translate(28.620625 120.602802) scale(0.165 -0.165)">
       <use xlink:href="#DejaVuSans-31"/>
       <use xlink:href="#DejaVuSans-30" transform="translate(63.623047 0)"/>
      </g>
     </g>
    </g>
    <g id="ytick_7">
     <g id="line2d_13">
      <path d="M 65.116875 86.140909 
L 492.556875 86.140909 
" clip-path="url(#pbadd671e48)" style="fill: none; stroke: #cccccc; stroke-width: 2; stroke-linecap: round"/>
     </g>
     <g id="text_14">
      <!-- 12 -->
      <g style="fill: #262626" transform="translate(28.620625 92.40962) scale(0.165 -0.165)">
       <use xlink:href="#DejaVuSans-31"/>
       <use xlink:href="#DejaVuSans-32" transform="translate(63.623047 0)"/>
      </g>
     </g>
    </g>
    <g id="ytick_8">
     <g id="line2d_14">
      <path d="M 65.116875 57.947727 
L 492.556875 57.947727 
" clip-path="url(#pbadd671e48)" style="fill: none; stroke: #cccccc; stroke-width: 2; stroke-linecap: round"/>
     </g>
     <g id="text_15">
      <!-- 14 -->
      <g style="fill: #262626" transform="translate(28.620625 64.216438) scale(0.165 -0.165)">
       <use xlink:href="#DejaVuSans-31"/>
       <use xlink:href="#DejaVuSans-34" transform="translate(63.623047 0)"/>
      </g>
     </g>
    </g>
    <g id="ytick_9">
     <g id="line2d_15">
      <path d="M 65.116875 29.754545 
L 492.556875 29.754545 
" clip-path="url(#pbadd671e48)" style="fill: none; stroke: #cccccc; stroke-width: 2; stroke-linecap: round"/>
     </g>
     <g id="text_16">
      <!-- 16 -->
      <g style="fill: #262626" transform="translate(28.620625 36.023256) scale(0.165 -0.165)">
       <use xlink:href="#DejaVuSans-31"/>
       <use xlink:href="#DejaVuSans-36" transform="translate(63.623047 0)"/>
      </g>
     </g>
    </g>
    <g id="text_17">
     <!-- Memory consumption [GiB] -->
     <g style="fill: #262626" transform="translate(20.877188 254.51625) rotate(-90) scale(0.18 -0.18)">
      <defs>
       <path id="DejaVuSans-4d" d="M 628 4666 
L 1569 4666 
L 2759 1491 
L 3956 4666 
L 4897 4666 
L 4897 0 
L 4281 0 
L 4281 4097 
L 3078 897 
L 2444 897 
L 1241 4097 
L 1241 0 
L 628 0 
L 628 4666 
z
" transform="scale(0.015625)"/>
       <path id="DejaVuSans-6f" d="M 1959 3097 
Q 1497 3097 1228 2736 
Q 959 2375 959 1747 
Q 959 1119 1226 758 
Q 1494 397 1959 397 
Q 2419 397 2687 759 
Q 2956 1122 2956 1747 
Q 2956 2369 2687 2733 
Q 2419 3097 1959 3097 
z
M 1959 3584 
Q 2709 3584 3137 3096 
Q 3566 2609 3566 1747 
Q 3566 888 3137 398 
Q 2709 -91 1959 -91 
Q 1206 -91 779 398 
Q 353 888 353 1747 
Q 353 2609 779 3096 
Q 1206 3584 1959 3584 
z
" transform="scale(0.015625)"/>
       <path id="DejaVuSans-72" d="M 2631 2963 
Q 2534 3019 2420 3045 
Q 2306 3072 2169 3072 
Q 1681 3072 1420 2755 
Q 1159 2438 1159 1844 
L 1159 0 
L 581 0 
L 581 3500 
L 1159 3500 
L 1159 2956 
Q 1341 3275 1631 3429 
Q 1922 3584 2338 3584 
Q 2397 3584 2469 3576 
Q 2541 3569 2628 3553 
L 2631 2963 
z
" transform="scale(0.015625)"/>
       <path id="DejaVuSans-79" d="M 2059 -325 
Q 1816 -950 1584 -1140 
Q 1353 -1331 966 -1331 
L 506 -1331 
L 506 -850 
L 844 -850 
Q 1081 -850 1212 -737 
Q 1344 -625 1503 -206 
L 1606 56 
L 191 3500 
L 800 3500 
L 1894 763 
L 2988 3500 
L 3597 3500 
L 2059 -325 
z
" transform="scale(0.015625)"/>
       <path id="DejaVuSans-63" d="M 3122 3366 
L 3122 2828 
Q 2878 2963 2633 3030 
Q 2388 3097 2138 3097 
Q 1578 3097 1268 2742 
Q 959 2388 959 1747 
Q 959 1106 1268 751 
Q 1578 397 2138 397 
Q 2388 397 2633 464 
Q 2878 531 3122 666 
L 3122 134 
Q 2881 22 2623 -34 
Q 2366 -91 2075 -91 
Q 1284 -91 818 406 
Q 353 903 353 1747 
Q 353 2603 823 3093 
Q 1294 3584 2113 3584 
Q 2378 3584 2631 3529 
Q 2884 3475 3122 3366 
z
" transform="scale(0.015625)"/>
       <path id="DejaVuSans-73" d="M 2834 3397 
L 2834 2853 
Q 2591 2978 2328 3040 
Q 2066 3103 1784 3103 
Q 1356 3103 1142 2972 
Q 928 2841 928 2578 
Q 928 2378 1081 2264 
Q 1234 2150 1697 2047 
L 1894 2003 
Q 2506 1872 2764 1633 
Q 3022 1394 3022 966 
Q 3022 478 2636 193 
Q 2250 -91 1575 -91 
Q 1294 -91 989 -36 
Q 684 19 347 128 
L 347 722 
Q 666 556 975 473 
Q 1284 391 1588 391 
Q 1994 391 2212 530 
Q 2431 669 2431 922 
Q 2431 1156 2273 1281 
Q 2116 1406 1581 1522 
L 1381 1569 
Q 847 1681 609 1914 
Q 372 2147 372 2553 
Q 372 3047 722 3315 
Q 1072 3584 1716 3584 
Q 2034 3584 2315 3537 
Q 2597 3491 2834 3397 
z
" transform="scale(0.015625)"/>
       <path id="DejaVuSans-75" d="M 544 1381 
L 544 3500 
L 1119 3500 
L 1119 1403 
Q 1119 906 1312 657 
Q 1506 409 1894 409 
Q 2359 409 2629 706 
Q 2900 1003 2900 1516 
L 2900 3500 
L 3475 3500 
L 3475 0 
L 2900 0 
L 2900 538 
Q 2691 219 2414 64 
Q 2138 -91 1772 -91 
Q 1169 -91 856 284 
Q 544 659 544 1381 
z
M 1991 3584 
L 1991 3584 
z
" transform="scale(0.015625)"/>
       <path id="DejaVuSans-70" d="M 1159 525 
L 1159 -1331 
L 581 -1331 
L 581 3500 
L 1159 3500 
L 1159 2969 
Q 1341 3281 1617 3432 
Q 1894 3584 2278 3584 
Q 2916 3584 3314 3078 
Q 3713 2572 3713 1747 
Q 3713 922 3314 415 
Q 2916 -91 2278 -91 
Q 1894 -91 1617 61 
Q 1341 213 1159 525 
z
M 3116 1747 
Q 3116 2381 2855 2742 
Q 2594 3103 2138 3103 
Q 1681 3103 1420 2742 
Q 1159 2381 1159 1747 
Q 1159 1113 1420 752 
Q 1681 391 2138 391 
Q 2594 391 2855 752 
Q 3116 1113 3116 1747 
z
" transform="scale(0.015625)"/>
       <path id="DejaVuSans-74" d="M 1172 4494 
L 1172 3500 
L 2356 3500 
L 2356 3053 
L 1172 3053 
L 1172 1153 
Q 1172 725 1289 603 
Q 1406 481 1766 481 
L 2356 481 
L 2356 0 
L 1766 0 
Q 1100 0 847 248 
Q 594 497 594 1153 
L 594 3053 
L 172 3053 
L 172 3500 
L 594 3500 
L 594 4494 
L 1172 4494 
z
" transform="scale(0.015625)"/>
       <path id="DejaVuSans-47" d="M 3809 666 
L 3809 1919 
L 2778 1919 
L 2778 2438 
L 4434 2438 
L 4434 434 
Q 4069 175 3628 42 
Q 3188 -91 2688 -91 
Q 1594 -91 976 548 
Q 359 1188 359 2328 
Q 359 3472 976 4111 
Q 1594 4750 2688 4750 
Q 3144 4750 3555 4637 
Q 3966 4525 4313 4306 
L 4313 3634 
Q 3963 3931 3569 4081 
Q 3175 4231 2741 4231 
Q 1884 4231 1454 3753 
Q 1025 3275 1025 2328 
Q 1025 1384 1454 906 
Q 1884 428 2741 428 
Q 3075 428 3337 486 
Q 3600 544 3809 666 
z
" transform="scale(0.015625)"/>
       <path id="DejaVuSans-42" d="M 1259 2228 
L 1259 519 
L 2272 519 
Q 2781 519 3026 730 
Q 3272 941 3272 1375 
Q 3272 1813 3026 2020 
Q 2781 2228 2272 2228 
L 1259 2228 
z
M 1259 4147 
L 1259 2741 
L 2194 2741 
Q 2656 2741 2882 2914 
Q 3109 3088 3109 3444 
Q 3109 3797 2882 3972 
Q 2656 4147 2194 4147 
L 1259 4147 
z
M 628 4666 
L 2241 4666 
Q 2963 4666 3353 4366 
Q 3744 4066 3744 3513 
Q 3744 3084 3544 2831 
Q 3344 2578 2956 2516 
Q 3422 2416 3680 2098 
Q 3938 1781 3938 1306 
Q 3938 681 3513 340 
Q 3088 0 2303 0 
L 628 0 
L 628 4666 
z
" transform="scale(0.015625)"/>
      </defs>
      <use xlink:href="#DejaVuSans-4d"/>
      <use xlink:href="#DejaVuSans-65" transform="translate(86.279297 0)"/>
      <use xlink:href="#DejaVuSans-6d" transform="translate(147.802734 0)"/>
      <use xlink:href="#DejaVuSans-6f" transform="translate(245.214844 0)"/>
      <use xlink:href="#DejaVuSans-72" transform="translate(306.396484 0)"/>
      <use xlink:href="#DejaVuSans-79" transform="translate(347.509766 0)"/>
      <use xlink:href="#DejaVuSans-20" transform="translate(406.689453 0)"/>
      <use xlink:href="#DejaVuSans-63" transform="translate(438.476562 0)"/>
      <use xlink:href="#DejaVuSans-6f" transform="translate(493.457031 0)"/>
      <use xlink:href="#DejaVuSans-6e" transform="translate(554.638672 0)"/>
      <use xlink:href="#DejaVuSans-73" transform="translate(618.017578 0)"/>
      <use xlink:href="#DejaVuSans-75" transform="translate(670.117188 0)"/>
      <use xlink:href="#DejaVuSans-6d" transform="translate(733.496094 0)"/>
      <use xlink:href="#DejaVuSans-70" transform="translate(830.908203 0)"/>
      <use xlink:href="#DejaVuSans-74" transform="translate(894.384766 0)"/>
      <use xlink:href="#DejaVuSans-69" transform="translate(933.59375 0)"/>
      <use xlink:href="#DejaVuSans-6f" transform="translate(961.376953 0)"/>
      <use xlink:href="#DejaVuSans-6e" transform="translate(1022.558594 0)"/>
      <use xlink:href="#DejaVuSans-20" transform="translate(1085.9375 0)"/>
      <use xlink:href="#DejaVuSans-5b" transform="translate(1117.724609 0)"/>
      <use xlink:href="#DejaVuSans-47" transform="translate(1156.738281 0)"/>
      <use xlink:href="#DejaVuSans-69" transform="translate(1234.228516 0)"/>
      <use xlink:href="#DejaVuSans-42" transform="translate(1262.011719 0)"/>
      <use xlink:href="#DejaVuSans-5d" transform="translate(1330.615234 0)"/>
     </g>
    </g>
   </g>
   <g id="FillBetweenPolyCollection_1"/>
   <g id="FillBetweenPolyCollection_2"/>
   <g id="line2d_16">
    <path d="M 84.545966 29.754545 
L 473.127784 29.754545 
L 473.127784 29.754545 
" clip-path="url(#pbadd671e48)" style="fill: none; stroke: #0173b2; stroke-width: 3; stroke-linecap: round"/>
   </g>
   <g id="line2d_17">
    <path d="M 84.545966 246.350732 
L 84.630649 246.311262 
L 85.062911 229.681743 
L 85.287889 229.749553 
L 85.72647 226.797132 
L 85.964088 226.992602 
L 86.185274 228.467306 
L 86.405197 226.193786 
L 86.621328 228.695309 
L 86.84125 224.174456 
L 87.097827 229.850971 
L 87.531353 223.024171 
L 87.963614 220.850456 
L 88.179745 212.119296 
L 88.404723 209.409397 
L 88.71944 208.239485 
L 88.936835 201.741085 
L 89.15423 199.51252 
L 89.436085 192.191966 
L 89.65348 205.911384 
L 89.870874 194.734787 
L 90.089533 204.571492 
L 90.306928 194.771784 
L 90.524323 206.923307 
L 90.741718 211.329191 
L 90.956584 211.319834 
L 91.39011 206.418851 
L 91.607505 212.338856 
L 91.8249 209.316745 
L 92.043558 208.801103 
L 92.259689 209.253183 
L 92.477084 217.345505 
L 93.125477 212.097571 
L 93.342872 212.153443 
L 93.560266 219.656453 
L 93.778925 219.955061 
L 93.997584 216.918807 
L 94.216242 218.217723 
L 94.499361 212.674246 
L 94.716756 198.306956 
L 94.934151 194.794423 
L 95.151546 189.077954 
L 95.366413 195.985522 
L 95.583807 195.378089 
L 95.799938 192.364688 
L 96.018597 198.235651 
L 96.457178 185.76971 
L 96.894496 204.168992 
L 97.113154 199.525157 
L 97.329285 201.488777 
L 97.547944 205.178603 
L 97.762811 206.902228 
L 97.978942 203.738852 
L 98.196337 206.828772 
L 98.414995 199.356736 
L 98.63239 204.90871 
L 98.851049 199.06813 
L 99.065916 188.1696 
L 99.283311 190.912247 
L 99.500705 184.064421 
L 99.7181 198.984081 
L 99.934231 189.674149 
L 100.168057 195.733859 
L 100.385452 194.747801 
L 100.601583 188.545589 
L 100.820241 195.46687 
L 101.035108 195.689818 
L 101.252503 184.767896 
L 101.469898 198.552865 
L 101.687293 199.506121 
L 101.903423 206.883568 
L 102.262378 191.693694 
L 102.513898 187.232369 
L 102.732557 187.189672 
L 102.949952 194.840185 
L 103.168611 184.317967 
L 103.386005 186.514698 
L 103.602136 183.903152 
L 103.825851 191.563237 
L 104.043245 203.990676 
L 104.26064 209.186772 
L 104.479299 198.689183 
L 104.696694 198.718974 
L 104.915352 185.083873 
L 105.132747 186.348804 
L 105.348878 184.718639 
L 105.566273 185.330589 
L 105.783668 198.482206 
L 106.001063 193.570791 
L 106.217193 192.228693 
L 106.433324 196.873711 
L 106.650719 191.775215 
L 106.870642 182.572886 
L 107.086773 195.408794 
L 107.302903 200.05693 
L 107.735165 180.217521 
L 107.953824 184.954062 
L 108.169955 181.336939 
L 108.38735 182.459745 
L 108.604744 181.657971 
L 108.820875 185.749706 
L 109.03827 193.442216 
L 109.256929 186.521904 
L 109.474324 187.618575 
L 109.691718 196.41136 
L 109.909113 192.467182 
L 110.125244 197.609719 
L 110.342639 183.821147 
L 110.777428 194.09966 
L 110.999879 186.115317 
L 111.435932 201.776361 
L 111.654591 194.754791 
L 111.869458 200.772343 
L 112.085589 211.116837 
L 112.516587 186.432101 
L 112.735245 192.905012 
L 112.95264 186.253678 
L 113.170035 188.431211 
L 113.41018 192.818543 
L 113.65159 185.795037 
L 113.868985 194.783883 
L 114.086379 194.639446 
L 114.305038 195.192352 
L 114.522433 192.497081 
L 114.741092 184.314902 
L 114.95975 198.359117 
L 115.175881 199.85033 
L 115.826802 180.545006 
L 116.04546 177.637648 
L 116.262855 167.651129 
L 116.48025 164.721724 
L 116.91504 174.83784 
L 117.132434 184.317268 
L 117.349829 177.301613 
L 117.568488 166.096516 
L 117.787147 170.710076 
L 118.004541 166.106357 
L 118.2232 179.034972 
L 118.659254 157.591692 
L 118.877912 172.35874 
L 119.095307 169.290437 
L 119.312702 159.702922 
L 119.530097 162.037638 
L 119.968678 160.816909 
L 120.186073 168.730324 
L 120.624654 157.42967 
L 120.842049 161.071637 
L 121.060708 156.113008 
L 121.278102 166.219229 
L 121.494233 190.231895 
L 121.714156 197.674033 
L 121.931551 191.591684 
L 122.147682 178.930757 
L 122.36634 181.42045 
L 122.583735 174.754436 
L 122.802394 180.261132 
L 123.019789 174.880106 
L 123.238447 181.050806 
L 123.460898 181.662864 
L 123.678293 178.574933 
L 123.895687 173.593235 
L 124.113082 177.426101 
L 124.330477 193.469265 
L 124.547872 189.587411 
L 124.796865 201.641657 
L 125.011732 199.396798 
L 125.250613 195.538873 
L 125.466744 184.04759 
L 125.902798 179.171397 
L 126.121456 188.903833 
L 126.337587 184.483108 
L 126.556246 191.286085 
L 126.773641 192.111896 
L 126.997355 195.220046 
L 127.430881 182.268631 
L 127.664707 183.897829 
L 127.897268 199.190197 
L 128.115927 203.460785 
L 128.332058 187.629276 
L 128.551981 189.561492 
L 128.985506 174.966951 
L 129.204165 176.100673 
L 129.420296 175.770123 
L 129.637691 180.373305 
L 129.858877 191.713698 
L 130.076272 221.166003 
L 130.294931 198.6823 
L 130.514853 193.652474 
L 130.732248 195.8299 
L 130.950907 194.532543 
L 131.168302 191.659278 
L 131.388224 199.088134 
L 131.608147 186.089505 
L 131.825542 186.427153 
L 132.041673 194.736562 
L 132.257803 188.056351 
L 132.476462 175.99576 
L 132.692593 181.228476 
L 133.126119 178.583591 
L 133.34225 190.954836 
L 133.55838 190.060893 
L 133.777039 189.979586 
L 133.994434 188.952983 
L 134.210565 185.304401 
L 134.426696 184.24193 
L 134.645354 184.139544 
L 134.860221 174.14313 
L 135.077616 172.251245 
L 135.292483 178.714854 
L 135.509878 174.043756 
L 135.727273 194.34358 
L 135.94214 189.916509 
L 136.159534 188.933785 
L 136.595588 183.887504 
L 136.812983 177.364906 
L 137.030378 197.571109 
L 137.246508 190.662411 
L 137.462639 190.013733 
L 137.680034 193.672693 
L 137.898693 179.800125 
L 138.114824 183.489198 
L 138.333482 176.013613 
L 138.550877 178.657369 
L 138.767008 192.767135 
L 138.985667 178.760239 
L 139.201798 195.334639 
L 139.852718 169.939922 
L 140.072641 203.673677 
L 140.288772 186.995816 
L 140.50743 199.416049 
L 140.726089 191.266995 
L 141.374482 182.210447 
L 141.59314 185.952112 
L 141.811799 172.320184 
L 142.029194 169.165196 
L 142.460192 201.29734 
L 142.677586 194.244528 
L 142.893717 179.853899 
L 143.111112 184.747677 
L 143.328507 193.705656 
L 143.547166 197.10252 
L 143.984483 177.573066 
L 144.201878 181.496272 
L 144.420537 179.049652 
L 144.639195 180.995634 
L 144.857854 175.93564 
L 145.076513 183.716341 
L 145.293908 171.428285 
L 145.510038 171.660804 
L 145.94862 177.332372 
L 146.164751 166.69739 
L 146.382145 180.019578 
L 147.250461 150.530814 
L 147.464064 160.723772 
L 147.68525 150.294422 
L 147.902645 146.591636 
L 148.121304 160.462913 
L 148.345018 191.489782 
L 148.778544 182.444365 
L 148.997203 190.582933 
L 149.215861 185.761267 
L 149.433256 185.626348 
L 149.649387 185.29128 
L 149.868046 176.363361 
L 150.081649 178.756959 
L 150.299043 172.87465 
L 150.51391 174.993032 
L 150.732569 182.069344 
L 150.949964 178.915378 
L 151.167359 201.834222 
L 151.384754 200.077687 
L 151.602148 189.619138 
L 152.039466 186.559761 
L 152.260652 186.089182 
L 152.480575 187.680093 
L 152.69797 191.46354 
L 152.915365 184.056194 
L 153.132759 181.178412 
L 153.565021 194.22533 
L 153.782416 188.959005 
L 153.999811 188.524133 
L 154.651995 197.112791 
L 154.868126 186.758833 
L 155.084257 188.501064 
L 155.318083 203.211219 
L 155.757928 188.170729 
L 155.977851 200.26907 
L 156.199037 204.921293 
L 156.416432 189.880696 
L 156.632563 203.027472 
L 156.849958 200.682378 
L 157.072408 196.097426 
L 157.288539 199.936637 
L 157.52742 186.453073 
L 157.744815 180.92605 
L 157.96221 180.705199 
L 158.180869 175.873477 
L 158.398263 179.178119 
L 158.615658 173.682124 
L 159.050448 158.144491 
L 159.486501 181.455672 
L 159.732966 203.374961 
L 159.951625 202.407402 
L 160.170284 214.277041 
L 160.387679 215.747389 
L 160.605073 209.495866 
L 160.822468 214.232139 
L 161.037335 208.521316 
L 161.255994 212.288362 
L 161.474653 218.655822 
L 161.91197 217.420682 
L 162.130629 210.714928 
L 162.349287 209.340244 
L 162.564154 203.162822 
L 162.777757 209.763608 
L 162.993888 203.321886 
L 163.211283 216.317557 
L 163.428678 200.068599 
L 163.865995 206.850981 
L 164.082126 204.410653 
L 164.519444 194.121761 
L 164.736838 198.756185 
L 164.954233 194.039164 
L 165.387759 197.946937 
L 165.610209 203.062587 
L 165.82634 201.388111 
L 166.044999 209.084601 
L 166.26113 208.285677 
L 166.479789 198.707627 
L 166.915842 212.264002 
L 167.131973 217.549579 
L 167.565499 209.940526 
L 167.782893 201.592184 
L 168.224003 197.142744 
L 168.442661 203.198797 
L 168.658792 212.780558 
L 168.877451 206.02517 
L 169.09611 206.605125 
L 169.530899 221.262474 
L 169.749558 217.741768 
L 169.966953 216.355737 
L 170.184347 218.108185 
L 170.403006 227.51405 
L 170.620401 214.290538 
L 171.056455 207.979057 
L 171.271321 197.319715 
L 171.488716 203.9041 
L 171.706111 193.312083 
L 171.92477 204.455286 
L 172.140901 207.922433 
L 172.358295 197.423122 
L 172.576954 203.361787 
L 172.793085 202.929334 
L 173.01048 198.323733 
L 173.229139 200.748521 
L 173.446533 192.772136 
L 173.663928 194.354765 
L 173.881323 194.045724 
L 174.098718 184.321086 
L 174.316112 181.658509 
L 174.533507 196.655119 
L 174.761013 185.098392 
L 174.996103 182.665108 
L 175.430893 195.759079 
L 175.650815 184.566189 
L 175.870738 184.616844 
L 176.089397 183.535014 
L 176.309319 203.054897 
L 176.52545 201.763832 
L 176.745373 198.436336 
L 176.962768 202.858406 
L 177.206705 195.796022 
L 177.45949 207.5786 
L 177.893015 145.387793 
L 178.11041 134.047454 
L 178.326541 131.981286 
L 178.543936 123.525182 
L 178.76133 141.733619 
L 178.977461 125.690831 
L 179.194856 128.639487 
L 179.410987 118.42233 
L 179.632174 119.274222 
L 179.898861 110.588662 
L 180.120048 117.253063 
L 180.334915 113.912985 
L 180.551046 159.800791 
L 180.772232 143.326465 
L 180.989627 153.872989 
L 181.20955 153.311264 
L 181.428208 145.675969 
L 181.861734 121.623187 
L 182.311691 160.791689 
L 182.527822 168.046262 
L 182.745216 158.954277 
L 182.962611 158.77607 
L 183.178742 148.1947 
L 183.396137 157.992418 
L 183.613532 161.211397 
L 183.83219 154.929008 
L 184.049585 157.479573 
L 184.268244 149.991189 
L 184.705561 127.304273 
L 184.92422 125.381791 
L 185.141615 144.372428 
L 185.356482 148.122857 
L 185.572613 140.173951 
L 185.788744 137.937858 
L 186.006138 156.673443 
L 186.223533 157.585401 
L 186.439664 156.855308 
L 186.657059 158.519782 
L 186.874454 152.467546 
L 187.091848 152.109947 
L 187.310507 185.606451 
L 187.549389 165.413369 
L 187.982914 157.697627 
L 188.200309 159.181151 
L 188.417704 156.497817 
L 189.066096 181.539721 
L 189.284755 161.250598 
L 189.503414 157.256033 
L 189.719545 167.011162 
L 189.93694 158.009625 
L 190.160654 169.770963 
L 190.380577 155.086136 
L 190.596707 175.310192 
L 190.815366 168.747478 
L 191.032761 168.562549 
L 191.25142 158.564898 
L 191.467551 157.978759 
L 191.684945 147.542849 
L 191.903604 150.613518 
L 192.120999 145.536909 
L 192.339658 157.989944 
L 192.558316 149.649777 
L 192.774447 149.783298 
L 193.426632 179.160051 
L 193.644026 163.344674 
L 193.861421 161.2029 
L 194.08008 157.769685 
L 194.300003 161.156708 
L 194.736056 146.057604 
L 194.953451 165.223976 
L 195.17211 153.829432 
L 195.390768 163.397857 
L 195.608163 166.170779 
L 196.261611 143.037267 
L 196.48027 175.346974 
L 196.697665 166.796711 
L 196.916324 190.217752 
L 197.351113 164.317181 
L 197.56598 166.188094 
L 197.782111 157.674182 
L 197.998242 171.677582 
L 198.215637 177.427284 
L 198.650426 160.895688 
L 198.867821 149.738235 
L 199.08648 149.340844 
L 199.302611 144.086026 
L 199.952267 158.16229 
L 200.168398 144.551711 
L 200.601924 152.334025 
L 201.032921 144.238046 
L 201.250316 156.197058 
L 201.467711 157.699187 
L 201.685106 152.846869 
L 201.901237 163.505298 
L 202.119895 157.940687 
L 202.557213 179.671443 
L 202.992002 163.691303 
L 203.209397 167.235616 
L 203.425528 175.081114 
L 203.642923 168.701394 
L 204.078976 143.173639 
L 204.30901 152.565361 
L 204.526405 147.555862 
L 204.7438 159.496268 
L 205.17859 144.423997 
L 205.397248 158.93836 
L 205.620963 156.382901 
L 205.839621 143.232199 
L 206.057016 141.599076 
L 206.275675 146.271895 
L 206.494334 144.959373 
L 206.710465 144.491376 
L 206.929123 152.313322 
L 207.147782 153.854061 
L 207.363913 141.974151 
L 207.581308 167.418018 
L 208.017361 153.458551 
L 208.450887 164.466458 
L 208.668282 148.197765 
L 208.885676 145.667903 
L 209.322994 152.874079 
L 209.539125 140.720943 
L 209.757783 148.284341 
L 209.975178 161.051311 
L 210.191309 154.16208 
L 210.638738 162.665398 
L 210.856133 178.158344 
L 211.077319 171.258788 
L 211.294714 188.092971 
L 211.975969 157.039431 
L 212.194627 157.936869 
L 212.410758 170.470243 
L 212.626889 170.890758 
L 213.27781 189.410655 
L 213.495204 200.628174 
L 213.959064 176.229839 
L 214.176459 164.863151 
L 214.395118 160.300569 
L 214.611249 169.41643 
L 214.829907 187.433861 
L 215.048566 182.612679 
L 215.265961 186.982103 
L 215.504842 184.883833 
L 215.940896 169.236985 
L 216.157027 157.671278 
L 216.373158 153.097242 
L 216.589288 169.864692 
L 216.807947 163.341609 
L 217.261696 184.219184 
L 217.477826 170.881401 
L 217.696485 179.513401 
L 217.912616 172.986931 
L 218.34867 182.109567 
L 218.811265 168.074709 
L 219.246055 157.425046 
L 219.464714 164.145964 
L 219.679581 163.672589 
L 219.898239 167.741201 
L 220.11437 182.274439 
L 220.333029 187.702624 
L 220.551688 177.455999 
L 220.770346 186.984308 
L 220.987741 178.544121 
L 221.205136 174.71018 
L 221.421267 161.604863 
L 221.639926 174.840098 
L 221.858584 179.427739 
L 222.074715 180.633142 
L 222.29211 200.16421 
L 222.509505 193.07639 
L 222.729427 196.865 
L 222.946822 196.955287 
L 223.162953 188.229289 
L 223.380348 191.006136 
L 223.597743 187.437947 
L 224.032532 163.88774 
L 224.46985 207.928885 
L 224.908431 209.914391 
L 225.344485 184.969495 
L 225.561879 170.627049 
L 225.780538 165.520487 
L 225.996669 177.339901 
L 226.43525 171.923492 
L 226.652645 185.12415 
L 226.871304 168.5355 
L 227.088699 167.641396 
L 227.307357 169.802528 
L 227.526016 170.211374 
L 227.744675 179.795985 
L 228.61299 159.339086 
L 229.04778 168.195271 
L 229.481305 200.76347 
L 229.6987 187.315665 
L 229.916095 189.603113 
L 230.13349 201.98721 
L 230.352148 187.696709 
L 230.568279 189.963347 
L 230.786938 189.506319 
L 231.005597 189.688668 
L 231.224255 189.632205 
L 231.44165 192.67916 
L 231.660309 176.339377 
L 231.875176 181.429323 
L 232.090043 167.149953 
L 232.307438 176.25834 
L 232.526096 172.680955 
L 232.744755 182.673497 
L 232.96215 200.766965 
L 233.178281 180.175738 
L 233.396939 183.579378 
L 233.832993 152.152806 
L 234.049124 142.650039 
L 234.266519 149.497004 
L 234.483913 164.803999 
L 234.702572 171.575411 
L 234.921231 142.687466 
L 235.138626 139.589479 
L 235.363604 165.687778 
L 236.015788 142.277276 
L 236.670501 168.996076 
L 237.101498 152.60908 
L 237.318893 155.658079 
L 237.535024 143.811778 
L 237.753683 146.656058 
L 237.969814 164.753451 
L 238.620734 187.645677 
L 238.836865 187.404823 
L 239.052996 198.063681 
L 239.269127 192.081782 
L 239.487785 176.69832 
L 239.70518 174.277297 
L 239.921311 169.117714 
L 240.13997 186.601489 
L 240.357365 186.798034 
L 240.79089 171.464797 
L 241.226944 141.941779 
L 241.445602 141.880154 
L 241.664261 142.319919 
L 241.881656 149.29847 
L 242.097787 148.408775 
L 242.315182 153.024432 
L 242.532576 148.133451 
L 242.748707 137.126243 
L 242.96863 142.884495 
L 243.184761 135.617876 
L 243.40342 136.769397 
L 243.61955 154.36583 
L 243.836945 143.620718 
L 244.05434 140.752885 
L 244.270471 172.80512 
L 244.487866 170.729166 
L 244.707788 186.297289 
L 244.925183 168.08213 
L 245.14005 194.563785 
L 245.576104 165.290118 
L 245.793498 156.438343 
L 246.009629 173.999876 
L 246.228288 171.543577 
L 246.444419 179.616701 
L 246.661814 181.722876 
L 246.879208 170.331613 
L 247.097867 182.566379 
L 247.532657 176.103147 
L 247.750051 175.707638 
L 247.966182 172.834965 
L 248.182313 167.281754 
L 248.400972 187.597926 
L 248.622159 185.904145 
L 248.840817 179.220439 
L 249.058212 194.439352 
L 249.275607 180.129439 
L 249.707869 171.41796 
L 249.926527 158.432775 
L 250.142658 177.897378 
L 250.360053 170.618122 
L 250.576184 179.225386 
L 250.793579 183.222747 
L 251.009709 173.45525 
L 251.224576 174.482715 
L 251.443235 164.714142 
L 251.66063 175.322991 
L 251.879289 179.867397 
L 252.096683 180.508708 
L 252.314078 176.398905 
L 252.531473 176.22957 
L 252.748868 176.925678 
L 252.967527 179.070785 
L 253.183657 168.992474 
L 253.401052 170.131143 
L 253.617183 163.666136 
L 253.834578 181.761809 
L 254.051973 170.851126 
L 254.269367 180.574151 
L 254.485498 181.526117 
L 254.704157 180.920189 
L 254.922816 186.719147 
L 255.142738 186.795077 
L 255.578792 176.022056 
L 255.797451 164.466136 
L 256.013581 165.52296 
L 256.230976 164.160053 
L 256.448371 150.747524 
L 256.665766 157.348955 
L 256.883161 156.805782 
L 257.31795 175.822015 
L 257.751476 154.56501 
L 257.967607 154.113253 
L 258.186265 148.546007 
L 258.402396 156.611872 
L 258.621055 177.607804 
L 258.837186 171.206305 
L 259.273239 142.804694 
L 259.491898 140.425346 
L 259.709293 134.462591 
L 259.927952 147.902975 
L 260.149138 147.72966 
L 260.367797 142.563624 
L 260.585192 146.012811 
L 260.801323 133.575101 
L 261.01619 134.234427 
L 261.233584 148.879999 
L 261.452243 144.741158 
L 261.885769 167.380968 
L 262.31803 147.14008 
L 262.535425 153.750492 
L 262.967687 154.972081 
L 263.18761 168.441019 
L 263.406268 158.013497 
L 263.626191 162.584091 
L 263.843586 169.77747 
L 264.059717 169.020329 
L 264.275848 178.21997 
L 264.49577 170.167655 
L 264.711901 173.400401 
L 264.93056 174.82246 
L 265.147955 168.166394 
L 265.366613 174.809608 
L 265.584008 174.416734 
L 265.797611 175.571266 
L 266.015006 174.66345 
L 266.231137 178.814874 
L 266.449795 180.06948 
L 266.887113 160.686453 
L 267.103244 161.701764 
L 267.319375 156.330095 
L 267.535506 153.773561 
L 267.751636 154.308023 
L 267.970295 152.708455 
L 268.188954 155.419267 
L 268.401293 164.510284 
L 268.614896 165.498063 
L 269.052213 150.530383 
L 269.269608 157.797163 
L 269.700606 159.53434 
L 269.919265 155.711691 
L 270.13666 146.47941 
L 270.354054 155.81397 
L 270.571449 154.499459 
L 270.790108 157.358742 
L 271.01003 177.974221 
L 271.442292 167.34994 
L 271.659687 178.181198 
L 271.877082 183.340244 
L 272.309344 179.790553 
L 272.526738 187.072659 
L 272.742869 179.243078 
L 272.960264 166.416258 
L 273.177659 171.156671 
L 273.395054 182.686941 
L 273.613712 179.921225 
L 274.040918 171.052618 
L 274.259577 186.46458 
L 274.476972 182.427265 
L 274.913025 151.106628 
L 275.569002 111.743518 
L 275.78766 116.308412 
L 276.006319 111.735882 
L 276.439845 114.369958 
L 276.657239 154.553663 
L 276.875898 160.76292 
L 277.093293 179.915094 
L 277.311952 167.192328 
L 277.529346 167.787554 
L 277.745477 159.425555 
L 277.964136 159.0002 
L 278.180267 154.807101 
L 278.40019 155.024457 
L 278.834979 141.821325 
L 279.271033 156.51696 
L 279.489691 155.163356 
L 279.707086 149.967851 
L 279.923217 147.920021 
L 280.359271 157.125093 
L 280.575401 149.729578 
L 281.227586 144.448626 
L 281.446244 148.704318 
L 281.662375 145.155703 
L 282.318352 174.191151 
L 282.535746 172.804905 
L 282.970536 153.174839 
L 283.186667 157.979942 
L 283.402798 158.109646 
L 283.618928 151.730678 
L 283.835059 148.824826 
L 284.047398 152.712703 
L 284.703375 178.17937 
L 284.922033 177.480735 
L 285.138164 170.494872 
L 285.355559 158.150353 
L 285.570426 153.97516 
L 285.787821 165.25495 
L 286.003952 168.068095 
L 286.220082 158.778382 
L 286.438741 154.430413 
L 286.654872 153.890358 
L 287.307056 125.725516 
L 287.526979 123.421774 
L 287.744374 112.131767 
L 287.960505 114.05183 
L 288.176636 132.855225 
L 288.39403 120.567976 
L 288.611425 141.240402 
L 288.830084 143.656531 
L 289.047479 137.227715 
L 289.26361 126.664898 
L 289.482268 122.330426 
L 290.134453 101.082508 
L 290.351847 104.476469 
L 290.569242 101.660527 
L 290.787901 115.778036 
L 291.00656 111.788419 
L 291.223955 103.209709 
L 291.65748 97.940157 
L 291.874875 99.687013 
L 292.091006 89.571436 
L 292.308401 87.425145 
L 292.525795 93.91064 
L 292.966905 73.212079 
L 293.184299 74.259924 
L 294.281385 35.296625 
L 294.49878 31.904977 
L 294.736397 63.290896 
L 294.958848 70.198088 
L 295.176242 73.115124 
L 295.61356 69.631092 
L 295.834746 69.690405 
L 296.050877 76.61545 
L 296.481875 56.92806 
L 296.915401 45.571912 
L 297.131532 58.373081 
L 297.348926 50.335286 
L 297.567585 60.087995 
L 297.788772 53.703059 
L 298.00743 59.210292 
L 298.226089 52.923171 
L 298.443484 56.127523 
L 298.659615 56.704844 
L 298.875746 74.309988 
L 299.094404 81.211802 
L 299.53425 64.492104 
L 299.751644 69.56737 
L 299.969039 69.963148 
L 300.186434 70.805575 
L 300.405093 83.058786 
L 300.622488 70.082473 
L 300.841146 72.289421 
L 301.057277 77.730405 
L 301.2772 64.007437 
L 301.494595 81.02327 
L 302.150571 57.338412 
L 302.365438 64.665903 
L 302.802755 51.133995 
L 303.02015 56.012823 
L 303.237545 49.465166 
L 303.456203 67.176353 
L 303.889729 49.872183 
L 304.10586 77.047311 
L 304.324519 77.534237 
L 304.541913 68.048355 
L 304.760572 72.810224 
L 305.013357 90.795821 
L 305.245919 90.201831 
L 305.463313 77.378291 
L 305.681972 77.880274 
L 306.334157 53.80765 
L 306.552815 54.513114 
L 306.77021 45.921928 
L 306.987605 70.994807 
L 307.203736 69.484611 
L 307.421131 82.411451 
L 307.858448 60.26943 
L 308.074579 54.684223 
L 308.509368 99.479714 
L 308.725499 89.481956 
L 308.942894 104.925322 
L 309.162817 104.256263 
L 309.391587 92.641138 
L 309.608982 96.566979 
L 309.82764 116.407249 
L 310.046299 113.56399 
L 310.482353 97.071919 
L 310.707331 91.823662 
L 310.923462 81.677971 
L 311.142121 81.685123 
L 311.358251 111.978887 
L 311.57691 98.250973 
L 311.796833 97.927897 
L 312.014228 87.548772 
L 312.231622 92.354521 
L 312.449017 92.326881 
L 312.667676 101.380955 
L 312.883807 116.565452 
L 313.318596 96.668827 
L 313.535991 100.023263 
L 313.757178 88.84016 
L 313.972045 88.15669 
L 314.190703 85.180501 
L 314.625493 67.674517 
L 315.071658 102.642015 
L 315.289053 90.793186 
L 315.506447 90.022494 
L 315.725106 83.481612 
L 315.941237 73.207616 
L 316.159896 106.727135 
L 316.376027 102.440415 
L 316.592157 108.339071 
L 316.810816 110.926203 
L 317.028211 109.530708 
L 317.245606 98.690684 
L 317.466792 110.068343 
L 317.899054 100.275034 
L 318.331316 133.893928 
L 318.549974 123.699948 
L 318.767369 133.538696 
L 318.986028 154.500642 
L 319.420818 140.613878 
L 319.638212 141.584234 
L 319.856871 156.763246 
L 320.073002 143.316248 
L 320.289133 139.098252 
L 320.507792 162.011772 
L 320.72645 163.130384 
L 320.946373 186.152528 
L 321.162504 184.484506 
L 321.81216 153.805503 
L 322.029555 160.05966 
L 322.245686 145.088916 
L 322.464345 149.694893 
L 322.683003 143.77548 
L 322.899134 132.859258 
L 323.115265 128.722192 
L 323.33266 119.668548 
L 323.550055 124.594052 
L 323.766186 123.82379 
L 323.98358 124.031789 
L 324.199711 120.460427 
L 324.417106 111.496264 
L 324.634501 113.765106 
L 324.850632 122.347956 
L 325.066763 121.881411 
L 325.284157 133.383342 
L 325.501552 128.801025 
L 325.717683 130.325417 
L 326.153737 118.73535 
L 326.371131 115.988455 
L 326.588526 131.572656 
L 326.807185 138.014647 
L 327.025844 152.100268 
L 327.24703 174.237343 
L 327.465689 183.583626 
L 327.68182 170.761484 
L 328.117873 176.916697 
L 328.334004 175.326002 
L 328.565302 167.129627 
L 328.781433 174.083656 
L 328.998828 169.794839 
L 329.213695 169.816187 
L 329.431089 170.219601 
L 329.648484 173.470522 
L 329.869671 181.28908 
L 330.094649 178.121401 
L 330.530703 162.555107 
L 330.748097 171.947905 
L 331.407865 134.498727 
L 331.626524 135.889812 
L 332.06005 110.652062 
L 332.494839 103.372053 
L 332.71097 104.460444 
L 332.928365 98.473275 
L 333.14576 109.047493 
L 333.361891 101.256199 
L 333.578022 112.652248 
L 333.797944 109.282217 
L 334.017867 101.918536 
L 334.232734 129.263967 
L 334.45392 115.003795 
L 334.671315 112.570511 
L 334.889974 123.312451 
L 335.108633 115.532181 
L 335.326027 121.080713 
L 335.55227 143.829523 
L 335.769664 133.842681 
L 335.988323 138.186456 
L 336.205718 138.248888 
L 336.423113 138.768024 
L 336.86043 145.502923 
L 337.081617 155.943082 
L 337.301539 146.645249 
L 337.518934 142.545341 
L 337.956252 147.762678 
L 338.610964 158.520749 
L 338.827095 158.940404 
L 339.044489 155.683245 
L 339.264412 147.492731 
L 339.696674 122.466636 
L 339.914069 119.725656 
L 340.347594 102.743325 
L 340.597851 105.429079 
L 341.030113 125.128245 
L 341.248772 128.845174 
L 341.686089 159.329837 
L 341.899692 156.975977 
L 342.118351 165.733164 
L 342.55314 152.130167 
L 342.770535 148.60048 
L 342.98793 152.801108 
L 343.206589 163.87634 
L 343.427775 146.693001 
L 343.642642 153.089929 
L 343.860037 151.16336 
L 344.076168 162.745253 
L 344.293563 164.941177 
L 344.510957 174.811168 
L 345.164406 148.289719 
L 345.383064 148.103445 
L 345.599195 152.915539 
L 345.814062 150.991766 
L 346.032721 153.533674 
L 346.682377 138.927841 
L 346.899772 144.610432 
L 347.117167 157.828191 
L 347.334562 142.15123 
L 347.770615 133.152543 
L 347.989274 150.501829 
L 348.206669 141.643816 
L 348.426592 147.691911 
L 348.650306 150.431493 
L 349.30249 141.661615 
L 349.519885 144.911461 
L 349.95973 160.47996 
L 350.178389 156.896714 
L 350.39452 155.544615 
L 350.614443 148.495352 
L 350.831837 135.127939 
L 351.050496 137.966627 
L 351.267891 159.232774 
L 351.485286 160.195978 
L 351.702681 142.991129 
L 351.921339 149.419677 
L 352.13747 159.187604 
L 352.574788 132.194878 
L 352.793446 141.002827 
L 353.226972 146.299911 
L 353.445631 148.064889 
L 353.661761 154.033398 
L 353.879156 143.541562 
L 354.097815 143.170359 
L 354.313946 145.284815 
L 354.532605 138.118001 
L 354.749999 148.968027 
L 354.968658 149.385207 
L 355.187317 136.243916 
L 355.418615 135.753011 
L 355.853404 141.481095 
L 356.28693 131.491349 
L 356.504325 121.303822 
L 356.72172 129.27483 
L 356.940378 151.237246 
L 357.159037 136.474392 
L 357.376432 132.810377 
L 357.811221 145.666881 
L 358.248539 134.960755 
L 358.465934 142.729464 
L 358.683328 154.707942 
L 358.900723 139.423102 
L 359.118118 140.226704 
L 359.552908 132.183585 
L 359.770302 135.202094 
L 359.986433 147.894156 
L 360.422487 136.545589 
L 360.641146 123.861002 
L 360.857276 161.013024 
L 361.074671 144.808322 
L 361.729383 131.89428 
L 361.945514 136.584307 
L 362.164173 130.920213 
L 362.381568 117.274197 
L 362.600226 120.393425 
L 363.035016 128.977404 
L 363.469806 126.894298 
L 363.6872 153.276902 
L 363.904595 154.31539 
L 364.123254 154.242741 
L 364.559307 139.664548 
L 364.777966 137.439317 
L 364.994097 133.786541 
L 365.210228 144.874249 
L 365.427623 146.734514 
L 365.869996 136.844466 
L 366.086127 152.637311 
L 366.302258 155.325808 
L 366.519652 150.039532 
L 366.737047 150.494462 
L 366.955706 156.752653 
L 367.387968 145.763244 
L 367.605362 153.896112 
L 367.822757 155.781114 
L 368.257547 127.723766 
L 368.476206 130.216847 
L 368.6936 130.751846 
L 368.909731 143.673094 
L 369.133446 128.401751 
L 369.352104 131.798831 
L 369.568235 141.58859 
L 369.78563 127.95607 
L 370.221683 155.936898 
L 370.439078 146.095946 
L 370.667848 145.75249 
L 370.883979 172.24006 
L 371.102638 174.093658 
L 371.322561 170.208416 
L 371.546275 177.100551 
L 371.978537 151.379909 
L 372.415854 155.729921 
L 372.633249 153.841047 
L 372.850644 161.086909 
L 373.721487 123.778189 
L 373.940146 123.790719 
L 374.15754 117.536185 
L 374.599914 149.246362 
L 374.819836 136.427232 
L 375.038495 147.035596 
L 375.25589 129.04602 
L 375.473284 136.1404 
L 375.691943 138.172958 
L 376.130525 144.589568 
L 376.349183 133.091455 
L 376.572898 132.975249 
L 376.791556 140.089203 
L 377.017799 134.053046 
L 377.235193 147.362167 
L 377.467755 153.772969 
L 377.68515 139.754889 
L 377.903809 136.436159 
L 378.126259 135.3354 
L 378.343654 140.398459 
L 378.5838 159.543266 
L 378.802458 144.723412 
L 379.018589 157.038302 
L 379.235984 150.381751 
L 379.453379 153.36208 
L 379.690996 149.676072 
L 379.909655 158.706593 
L 380.130842 145.781958 
L 380.348236 145.948497 
L 380.569423 136.174439 
L 380.786818 143.712726 
L 381.00674 131.620569 
L 381.225399 146.762746 
L 381.444058 146.011681 
L 381.661453 144.292465 
L 381.880111 144.189111 
L 382.096242 137.083062 
L 382.313637 145.765933 
L 382.531032 146.967411 
L 382.74969 141.376934 
L 382.965821 140.874737 
L 383.401875 125.066674 
L 383.61927 135.830338 
L 383.837928 140.217508 
L 384.057851 147.737619 
L 384.273982 147.332376 
L 384.708771 131.334598 
L 384.926166 131.026848 
L 385.144825 144.114096 
L 385.579615 122.713621 
L 385.795745 123.380153 
L 386.01314 130.93855 
L 386.230535 133.273427 
L 386.449194 133.469273 
L 386.883983 113.026947 
L 387.100114 122.168727 
L 387.320037 117.865552 
L 387.537432 124.11686 
L 387.75609 114.546607 
L 387.973485 126.811325 
L 388.19088 124.813074 
L 388.408275 120.966335 
L 388.626933 132.274302 
L 388.845592 135.667402 
L 389.064251 129.093234 
L 389.281646 128.536832 
L 389.49904 126.625911 
L 389.729074 132.80457 
L 389.943941 120.883738 
L 390.1626 117.344372 
L 390.382523 123.351115 
L 390.818576 140.621998 
L 391.257158 125.494394 
L 391.693211 138.798783 
L 391.91187 131.586906 
L 392.128001 130.111126 
L 392.346659 121.732134 
L 392.782713 131.409989 
L 393.001372 118.775358 
L 393.656084 99.776547 
L 393.874743 90.852607 
L 394.092137 111.817242 
L 394.309532 118.212181 
L 394.74053 136.769935 
L 394.952869 144.70572 
L 395.377547 139.35013 
L 395.59115 147.018066 
L 395.803489 147.024465 
L 396.015829 156.988829 
L 396.650318 156.965169 
L 396.862657 169.029524 
L 397.073732 171.153122 
L 397.709486 171.093271 
L 416.755545 170.99067 
L 418.87388 170.96502 
L 419.084955 171.086872 
L 422.469741 171.01917 
L 422.682081 169.47257 
L 422.896948 242.007172 
L 425.016547 241.95001 
L 447.657203 241.948774 
L 447.93653 246.706825 
L 448.99949 246.649609 
L 453.02003 246.622507 
L 453.44218 246.67413 
L 462.119013 246.632401 
L 462.75603 246.659288 
L 470.167676 246.557386 
L 472.06988 246.574379 
L 473.127784 246.622292 
L 473.127784 246.622292 
" clip-path="url(#pbadd671e48)" style="fill: none; stroke: #029e73; stroke-width: 3; stroke-linecap: round"/>
   </g>
   <g id="patch_3">
    <path d="M 65.116875 255.3 
L 65.116875 7.2 
" style="fill: none; stroke: #cccccc; stroke-width: 2.5; stroke-linejoin: miter; stroke-linecap: square"/>
   </g>
   <g id="patch_4">
    <path d="M 65.116875 255.3 
L 492.556875 255.3 
" style="fill: none; stroke: #cccccc; stroke-width: 2.5; stroke-linejoin: miter; stroke-linecap: square"/>
   </g>
  </g>
 </g>
 <defs>
  <clipPath id="pbadd671e48">
   <rect x="65.116875" y="7.2" width="427.44" height="248.1"/>
  </clipPath>
 </defs>
</svg>
