<?xml version="1.0" encoding="utf-8" standalone="no"?>
<!DOCTYPE svg PUBLIC "-//W3C//DTD SVG 1.1//EN"
  "http://www.w3.org/Graphics/SVG/1.1/DTD/svg11.dtd">
<svg xmlns:xlink="http://www.w3.org/1999/xlink" width="502.072969pt" height="317.151328pt" viewBox="0 0 502.072969 317.151328" xmlns="http://www.w3.org/2000/svg" version="1.1">
 <metadata>
  <rdf:RDF xmlns:dc="http://purl.org/dc/elements/1.1/" xmlns:cc="http://creativecommons.org/ns#" xmlns:rdf="http://www.w3.org/1999/02/22-rdf-syntax-ns#">
   <cc:Work>
    <dc:type rdf:resource="http://purl.org/dc/dcmitype/StillImage"/>
    <dc:date>2025-03-13T11:12:40.591557</dc:date>
    <dc:format>image/svg+xml</dc:format>
    <dc:creator>
     <cc:Agent>
      <dc:title>Matplotlib v3.10.1, https://matplotlib.org/</dc:title>
     </cc:Agent>
    </dc:creator>
   </cc:Work>
  </rdf:RDF>
 </metadata>
 <defs>
  <style type="text/css">*{stroke-linejoin: round; stroke-linecap: butt}</style>
 </defs>
 <g id="figure_1">
  <g id="patch_1">
   <path d="M 0 317.151328 
L 502.072969 317.151328 
L 502.072969 0 
L 0 0 
L 0 317.151328 
z
" style="fill: none"/>
  </g>
  <g id="axes_1">
   <g id="patch_2">
    <path d="M 61.942969 258.9 
L 494.872969 258.9 
L 494.872969 7.2 
L 61.942969 7.2 
z
" style="fill: #ffffff"/>
   </g>
   <g id="matplotlib.axis_1">
    <g id="xtick_1">
     <g id="line2d_1">
      <path d="M 81.621605 258.9 
L 81.621605 7.2 
" clip-path="url(#pa5140d43dd)" style="fill: none; stroke: #cccccc; stroke-width: 2; stroke-linecap: round"/>
     </g>
     <g id="text_1">
      <!-- 0 -->
      <g style="fill: #262626" transform="translate(77.033832 286.210391) scale(0.165 -0.165)">
       <defs>
        <path id="ArialMT-30" d="M 266 2259 
Q 266 3072 433 3567 
Q 600 4063 929 4331 
Q 1259 4600 1759 4600 
Q 2128 4600 2406 4451 
Q 2684 4303 2865 4023 
Q 3047 3744 3150 3342 
Q 3253 2941 3253 2259 
Q 3253 1453 3087 958 
Q 2922 463 2592 192 
Q 2263 -78 1759 -78 
Q 1097 -78 719 397 
Q 266 969 266 2259 
z
M 844 2259 
Q 844 1131 1108 757 
Q 1372 384 1759 384 
Q 2147 384 2411 759 
Q 2675 1134 2675 2259 
Q 2675 3391 2411 3762 
Q 2147 4134 1753 4134 
Q 1366 4134 1134 3806 
Q 844 3388 844 2259 
z
" transform="scale(0.015625)"/>
       </defs>
       <use xlink:href="#ArialMT-30"/>
      </g>
     </g>
    </g>
    <g id="xtick_2">
     <g id="line2d_2">
      <path d="M 158.431021 258.9 
L 158.431021 7.2 
" clip-path="url(#pa5140d43dd)" style="fill: none; stroke: #cccccc; stroke-width: 2; stroke-linecap: round"/>
     </g>
     <g id="text_2">
      <!-- 10 -->
      <g style="fill: #262626" transform="translate(149.255474 286.210391) scale(0.165 -0.165)">
       <defs>
        <path id="ArialMT-31" d="M 2384 0 
L 1822 0 
L 1822 3584 
Q 1619 3391 1289 3197 
Q 959 3003 697 2906 
L 697 3450 
Q 1169 3672 1522 3987 
Q 1875 4303 2022 4600 
L 2384 4600 
L 2384 0 
z
" transform="scale(0.015625)"/>
       </defs>
       <use xlink:href="#ArialMT-31"/>
       <use xlink:href="#ArialMT-30" transform="translate(55.615234 0)"/>
      </g>
     </g>
    </g>
    <g id="xtick_3">
     <g id="line2d_3">
      <path d="M 235.240437 258.9 
L 235.240437 7.2 
" clip-path="url(#pa5140d43dd)" style="fill: none; stroke: #cccccc; stroke-width: 2; stroke-linecap: round"/>
     </g>
     <g id="text_3">
      <!-- 20 -->
      <g style="fill: #262626" transform="translate(226.06489 286.210391) scale(0.165 -0.165)">
       <defs>
        <path id="ArialMT-32" d="M 3222 541 
L 3222 0 
L 194 0 
Q 188 203 259 391 
Q 375 700 629 1000 
Q 884 1300 1366 1694 
Q 2113 2306 2375 2664 
Q 2638 3022 2638 3341 
Q 2638 3675 2398 3904 
Q 2159 4134 1775 4134 
Q 1369 4134 1125 3890 
Q 881 3647 878 3216 
L 300 3275 
Q 359 3922 746 4261 
Q 1134 4600 1788 4600 
Q 2447 4600 2831 4234 
Q 3216 3869 3216 3328 
Q 3216 3053 3103 2787 
Q 2991 2522 2730 2228 
Q 2469 1934 1863 1422 
Q 1356 997 1212 845 
Q 1069 694 975 541 
L 3222 541 
z
" transform="scale(0.015625)"/>
       </defs>
       <use xlink:href="#ArialMT-32"/>
       <use xlink:href="#ArialMT-30" transform="translate(55.615234 0)"/>
      </g>
     </g>
    </g>
    <g id="xtick_4">
     <g id="line2d_4">
      <path d="M 312.049853 258.9 
L 312.049853 7.2 
" clip-path="url(#pa5140d43dd)" style="fill: none; stroke: #cccccc; stroke-width: 2; stroke-linecap: round"/>
     </g>
     <g id="text_4">
      <!-- 30 -->
      <g style="fill: #262626" transform="translate(302.874306 286.210391) scale(0.165 -0.165)">
       <defs>
        <path id="ArialMT-33" d="M 269 1209 
L 831 1284 
Q 928 806 1161 595 
Q 1394 384 1728 384 
Q 2125 384 2398 659 
Q 2672 934 2672 1341 
Q 2672 1728 2419 1979 
Q 2166 2231 1775 2231 
Q 1616 2231 1378 2169 
L 1441 2663 
Q 1497 2656 1531 2656 
Q 1891 2656 2178 2843 
Q 2466 3031 2466 3422 
Q 2466 3731 2256 3934 
Q 2047 4138 1716 4138 
Q 1388 4138 1169 3931 
Q 950 3725 888 3313 
L 325 3413 
Q 428 3978 793 4289 
Q 1159 4600 1703 4600 
Q 2078 4600 2393 4439 
Q 2709 4278 2876 4000 
Q 3044 3722 3044 3409 
Q 3044 3113 2884 2869 
Q 2725 2625 2413 2481 
Q 2819 2388 3044 2092 
Q 3269 1797 3269 1353 
Q 3269 753 2831 336 
Q 2394 -81 1725 -81 
Q 1122 -81 723 278 
Q 325 638 269 1209 
z
" transform="scale(0.015625)"/>
       </defs>
       <use xlink:href="#ArialMT-33"/>
       <use xlink:href="#ArialMT-30" transform="translate(55.615234 0)"/>
      </g>
     </g>
    </g>
    <g id="xtick_5">
     <g id="line2d_5">
      <path d="M 388.859269 258.9 
L 388.859269 7.2 
" clip-path="url(#pa5140d43dd)" style="fill: none; stroke: #cccccc; stroke-width: 2; stroke-linecap: round"/>
     </g>
     <g id="text_5">
      <!-- 40 -->
      <g style="fill: #262626" transform="translate(379.683722 286.210391) scale(0.165 -0.165)">
       <defs>
        <path id="ArialMT-34" d="M 2069 0 
L 2069 1097 
L 81 1097 
L 81 1613 
L 2172 4581 
L 2631 4581 
L 2631 1613 
L 3250 1613 
L 3250 1097 
L 2631 1097 
L 2631 0 
L 2069 0 
z
M 2069 1613 
L 2069 3678 
L 634 1613 
L 2069 1613 
z
" transform="scale(0.015625)"/>
       </defs>
       <use xlink:href="#ArialMT-34"/>
       <use xlink:href="#ArialMT-30" transform="translate(55.615234 0)"/>
      </g>
     </g>
    </g>
    <g id="xtick_6">
     <g id="line2d_6">
      <path d="M 465.668685 258.9 
L 465.668685 7.2 
" clip-path="url(#pa5140d43dd)" style="fill: none; stroke: #cccccc; stroke-width: 2; stroke-linecap: round"/>
     </g>
     <g id="text_6">
      <!-- 50 -->
      <g style="fill: #262626" transform="translate(456.493138 286.210391) scale(0.165 -0.165)">
       <defs>
        <path id="ArialMT-35" d="M 266 1200 
L 856 1250 
Q 922 819 1161 601 
Q 1400 384 1738 384 
Q 2144 384 2425 690 
Q 2706 997 2706 1503 
Q 2706 1984 2436 2262 
Q 2166 2541 1728 2541 
Q 1456 2541 1237 2417 
Q 1019 2294 894 2097 
L 366 2166 
L 809 4519 
L 3088 4519 
L 3088 3981 
L 1259 3981 
L 1013 2750 
Q 1425 3038 1878 3038 
Q 2478 3038 2890 2622 
Q 3303 2206 3303 1553 
Q 3303 931 2941 478 
Q 2500 -78 1738 -78 
Q 1113 -78 717 272 
Q 322 622 266 1200 
z
" transform="scale(0.015625)"/>
       </defs>
       <use xlink:href="#ArialMT-35"/>
       <use xlink:href="#ArialMT-30" transform="translate(55.615234 0)"/>
      </g>
     </g>
    </g>
    <g id="text_7">
     <!-- Time [min] -->
     <g style="fill: #262626" transform="translate(236.745 306.373828) scale(0.18 -0.18)">
      <defs>
       <path id="ArialMT-54" d="M 1659 0 
L 1659 4041 
L 150 4041 
L 150 4581 
L 3781 4581 
L 3781 4041 
L 2266 4041 
L 2266 0 
L 1659 0 
z
" transform="scale(0.015625)"/>
       <path id="ArialMT-69" d="M 425 3934 
L 425 4581 
L 988 4581 
L 988 3934 
L 425 3934 
z
M 425 0 
L 425 3319 
L 988 3319 
L 988 0 
L 425 0 
z
" transform="scale(0.015625)"/>
       <path id="ArialMT-6d" d="M 422 0 
L 422 3319 
L 925 3319 
L 925 2853 
Q 1081 3097 1340 3245 
Q 1600 3394 1931 3394 
Q 2300 3394 2536 3241 
Q 2772 3088 2869 2813 
Q 3263 3394 3894 3394 
Q 4388 3394 4653 3120 
Q 4919 2847 4919 2278 
L 4919 0 
L 4359 0 
L 4359 2091 
Q 4359 2428 4304 2576 
Q 4250 2725 4106 2815 
Q 3963 2906 3769 2906 
Q 3419 2906 3187 2673 
Q 2956 2441 2956 1928 
L 2956 0 
L 2394 0 
L 2394 2156 
Q 2394 2531 2256 2718 
Q 2119 2906 1806 2906 
Q 1569 2906 1367 2781 
Q 1166 2656 1075 2415 
Q 984 2175 984 1722 
L 984 0 
L 422 0 
z
" transform="scale(0.015625)"/>
       <path id="ArialMT-65" d="M 2694 1069 
L 3275 997 
Q 3138 488 2766 206 
Q 2394 -75 1816 -75 
Q 1088 -75 661 373 
Q 234 822 234 1631 
Q 234 2469 665 2931 
Q 1097 3394 1784 3394 
Q 2450 3394 2872 2941 
Q 3294 2488 3294 1666 
Q 3294 1616 3291 1516 
L 816 1516 
Q 847 969 1125 678 
Q 1403 388 1819 388 
Q 2128 388 2347 550 
Q 2566 713 2694 1069 
z
M 847 1978 
L 2700 1978 
Q 2663 2397 2488 2606 
Q 2219 2931 1791 2931 
Q 1403 2931 1139 2672 
Q 875 2413 847 1978 
z
" transform="scale(0.015625)"/>
       <path id="ArialMT-20" transform="scale(0.015625)"/>
       <path id="ArialMT-5b" d="M 434 -1272 
L 434 4581 
L 1675 4581 
L 1675 4116 
L 997 4116 
L 997 -806 
L 1675 -806 
L 1675 -1272 
L 434 -1272 
z
" transform="scale(0.015625)"/>
       <path id="ArialMT-6e" d="M 422 0 
L 422 3319 
L 928 3319 
L 928 2847 
Q 1294 3394 1984 3394 
Q 2284 3394 2536 3286 
Q 2788 3178 2913 3003 
Q 3038 2828 3088 2588 
Q 3119 2431 3119 2041 
L 3119 0 
L 2556 0 
L 2556 2019 
Q 2556 2363 2490 2533 
Q 2425 2703 2258 2804 
Q 2091 2906 1866 2906 
Q 1506 2906 1245 2678 
Q 984 2450 984 1813 
L 984 0 
L 422 0 
z
" transform="scale(0.015625)"/>
       <path id="ArialMT-5d" d="M 1363 -1272 
L 122 -1272 
L 122 -806 
L 800 -806 
L 800 4116 
L 122 4116 
L 122 4581 
L 1363 4581 
L 1363 -1272 
z
" transform="scale(0.015625)"/>
      </defs>
      <use xlink:href="#ArialMT-54"/>
      <use xlink:href="#ArialMT-69" transform="translate(57.333984 0)"/>
      <use xlink:href="#ArialMT-6d" transform="translate(79.550781 0)"/>
      <use xlink:href="#ArialMT-65" transform="translate(162.851562 0)"/>
      <use xlink:href="#ArialMT-20" transform="translate(218.466797 0)"/>
      <use xlink:href="#ArialMT-5b" transform="translate(246.25 0)"/>
      <use xlink:href="#ArialMT-6d" transform="translate(274.033203 0)"/>
      <use xlink:href="#ArialMT-69" transform="translate(357.333984 0)"/>
      <use xlink:href="#ArialMT-6e" transform="translate(379.550781 0)"/>
      <use xlink:href="#ArialMT-5d" transform="translate(435.166016 0)"/>
     </g>
    </g>
   </g>
   <g id="matplotlib.axis_2">
    <g id="ytick_1">
     <g id="line2d_7">
      <path d="M 61.942969 258.9 
L 494.872969 258.9 
" clip-path="url(#pa5140d43dd)" style="fill: none; stroke: #cccccc; stroke-width: 2; stroke-linecap: round"/>
     </g>
     <g id="text_8">
      <!-- 0 -->
      <g style="fill: #262626" transform="translate(37.267422 264.805195) scale(0.165 -0.165)">
       <use xlink:href="#ArialMT-30"/>
      </g>
     </g>
    </g>
    <g id="ytick_2">
     <g id="line2d_8">
      <path d="M 61.942969 230.297727 
L 494.872969 230.297727 
" clip-path="url(#pa5140d43dd)" style="fill: none; stroke: #cccccc; stroke-width: 2; stroke-linecap: round"/>
     </g>
     <g id="text_9">
      <!-- 2 -->
      <g style="fill: #262626" transform="translate(37.267422 236.202923) scale(0.165 -0.165)">
       <use xlink:href="#ArialMT-32"/>
      </g>
     </g>
    </g>
    <g id="ytick_3">
     <g id="line2d_9">
      <path d="M 61.942969 201.695455 
L 494.872969 201.695455 
" clip-path="url(#pa5140d43dd)" style="fill: none; stroke: #cccccc; stroke-width: 2; stroke-linecap: round"/>
     </g>
     <g id="text_10">
      <!-- 4 -->
      <g style="fill: #262626" transform="translate(37.267422 207.60065) scale(0.165 -0.165)">
       <use xlink:href="#ArialMT-34"/>
      </g>
     </g>
    </g>
    <g id="ytick_4">
     <g id="line2d_10">
      <path d="M 61.942969 173.093182 
L 494.872969 173.093182 
" clip-path="url(#pa5140d43dd)" style="fill: none; stroke: #cccccc; stroke-width: 2; stroke-linecap: round"/>
     </g>
     <g id="text_11">
      <!-- 6 -->
      <g style="fill: #262626" transform="translate(37.267422 178.998377) scale(0.165 -0.165)">
       <defs>
        <path id="ArialMT-36" d="M 3184 3459 
L 2625 3416 
Q 2550 3747 2413 3897 
Q 2184 4138 1850 4138 
Q 1581 4138 1378 3988 
Q 1113 3794 959 3422 
Q 806 3050 800 2363 
Q 1003 2672 1297 2822 
Q 1591 2972 1913 2972 
Q 2475 2972 2870 2558 
Q 3266 2144 3266 1488 
Q 3266 1056 3080 686 
Q 2894 316 2569 119 
Q 2244 -78 1831 -78 
Q 1128 -78 684 439 
Q 241 956 241 2144 
Q 241 3472 731 4075 
Q 1159 4600 1884 4600 
Q 2425 4600 2770 4297 
Q 3116 3994 3184 3459 
z
M 888 1484 
Q 888 1194 1011 928 
Q 1134 663 1356 523 
Q 1578 384 1822 384 
Q 2178 384 2434 671 
Q 2691 959 2691 1453 
Q 2691 1928 2437 2201 
Q 2184 2475 1800 2475 
Q 1419 2475 1153 2201 
Q 888 1928 888 1484 
z
" transform="scale(0.015625)"/>
       </defs>
       <use xlink:href="#ArialMT-36"/>
      </g>
     </g>
    </g>
    <g id="ytick_5">
     <g id="line2d_11">
      <path d="M 61.942969 144.490909 
L 494.872969 144.490909 
" clip-path="url(#pa5140d43dd)" style="fill: none; stroke: #cccccc; stroke-width: 2; stroke-linecap: round"/>
     </g>
     <g id="text_12">
      <!-- 8 -->
      <g style="fill: #262626" transform="translate(37.267422 150.396104) scale(0.165 -0.165)">
       <defs>
        <path id="ArialMT-38" d="M 1131 2484 
Q 781 2613 612 2850 
Q 444 3088 444 3419 
Q 444 3919 803 4259 
Q 1163 4600 1759 4600 
Q 2359 4600 2725 4251 
Q 3091 3903 3091 3403 
Q 3091 3084 2923 2848 
Q 2756 2613 2416 2484 
Q 2838 2347 3058 2040 
Q 3278 1734 3278 1309 
Q 3278 722 2862 322 
Q 2447 -78 1769 -78 
Q 1091 -78 675 323 
Q 259 725 259 1325 
Q 259 1772 486 2073 
Q 713 2375 1131 2484 
z
M 1019 3438 
Q 1019 3113 1228 2906 
Q 1438 2700 1772 2700 
Q 2097 2700 2305 2904 
Q 2513 3109 2513 3406 
Q 2513 3716 2298 3927 
Q 2084 4138 1766 4138 
Q 1444 4138 1231 3931 
Q 1019 3725 1019 3438 
z
M 838 1322 
Q 838 1081 952 856 
Q 1066 631 1291 507 
Q 1516 384 1775 384 
Q 2178 384 2440 643 
Q 2703 903 2703 1303 
Q 2703 1709 2433 1975 
Q 2163 2241 1756 2241 
Q 1359 2241 1098 1978 
Q 838 1716 838 1322 
z
" transform="scale(0.015625)"/>
       </defs>
       <use xlink:href="#ArialMT-38"/>
      </g>
     </g>
    </g>
    <g id="ytick_6">
     <g id="line2d_12">
      <path d="M 61.942969 115.888636 
L 494.872969 115.888636 
" clip-path="url(#pa5140d43dd)" style="fill: none; stroke: #cccccc; stroke-width: 2; stroke-linecap: round"/>
     </g>
     <g id="text_13">
      <!-- 10 -->
      <g style="fill: #262626" transform="translate(28.091875 121.793832) scale(0.165 -0.165)">
       <use xlink:href="#ArialMT-31"/>
       <use xlink:href="#ArialMT-30" transform="translate(55.615234 0)"/>
      </g>
     </g>
    </g>
    <g id="ytick_7">
     <g id="line2d_13">
      <path d="M 61.942969 87.286364 
L 494.872969 87.286364 
" clip-path="url(#pa5140d43dd)" style="fill: none; stroke: #cccccc; stroke-width: 2; stroke-linecap: round"/>
     </g>
     <g id="text_14">
      <!-- 12 -->
      <g style="fill: #262626" transform="translate(28.091875 93.191559) scale(0.165 -0.165)">
       <use xlink:href="#ArialMT-31"/>
       <use xlink:href="#ArialMT-32" transform="translate(55.615234 0)"/>
      </g>
     </g>
    </g>
    <g id="ytick_8">
     <g id="line2d_14">
      <path d="M 61.942969 58.684091 
L 494.872969 58.684091 
" clip-path="url(#pa5140d43dd)" style="fill: none; stroke: #cccccc; stroke-width: 2; stroke-linecap: round"/>
     </g>
     <g id="text_15">
      <!-- 14 -->
      <g style="fill: #262626" transform="translate(28.091875 64.589286) scale(0.165 -0.165)">
       <use xlink:href="#ArialMT-31"/>
       <use xlink:href="#ArialMT-34" transform="translate(55.615234 0)"/>
      </g>
     </g>
    </g>
    <g id="ytick_9">
     <g id="line2d_15">
      <path d="M 61.942969 30.081818 
L 494.872969 30.081818 
" clip-path="url(#pa5140d43dd)" style="fill: none; stroke: #cccccc; stroke-width: 2; stroke-linecap: round"/>
     </g>
     <g id="text_16">
      <!-- 16 -->
      <g style="fill: #262626" transform="translate(28.091875 35.987013) scale(0.165 -0.165)">
       <use xlink:href="#ArialMT-31"/>
       <use xlink:href="#ArialMT-36" transform="translate(55.615234 0)"/>
      </g>
     </g>
    </g>
    <g id="text_17">
     <!-- Memory consumption [GiB] -->
     <g style="fill: #262626" transform="translate(20.303438 241.580156) rotate(-90) scale(0.18 -0.18)">
      <defs>
       <path id="ArialMT-4d" d="M 475 0 
L 475 4581 
L 1388 4581 
L 2472 1338 
Q 2622 884 2691 659 
Q 2769 909 2934 1394 
L 4031 4581 
L 4847 4581 
L 4847 0 
L 4263 0 
L 4263 3834 
L 2931 0 
L 2384 0 
L 1059 3900 
L 1059 0 
L 475 0 
z
" transform="scale(0.015625)"/>
       <path id="ArialMT-6f" d="M 213 1659 
Q 213 2581 725 3025 
Q 1153 3394 1769 3394 
Q 2453 3394 2887 2945 
Q 3322 2497 3322 1706 
Q 3322 1066 3130 698 
Q 2938 331 2570 128 
Q 2203 -75 1769 -75 
Q 1072 -75 642 372 
Q 213 819 213 1659 
z
M 791 1659 
Q 791 1022 1069 705 
Q 1347 388 1769 388 
Q 2188 388 2466 706 
Q 2744 1025 2744 1678 
Q 2744 2294 2464 2611 
Q 2184 2928 1769 2928 
Q 1347 2928 1069 2612 
Q 791 2297 791 1659 
z
" transform="scale(0.015625)"/>
       <path id="ArialMT-72" d="M 416 0 
L 416 3319 
L 922 3319 
L 922 2816 
Q 1116 3169 1280 3281 
Q 1444 3394 1641 3394 
Q 1925 3394 2219 3213 
L 2025 2691 
Q 1819 2813 1613 2813 
Q 1428 2813 1281 2702 
Q 1134 2591 1072 2394 
Q 978 2094 978 1738 
L 978 0 
L 416 0 
z
" transform="scale(0.015625)"/>
       <path id="ArialMT-79" d="M 397 -1278 
L 334 -750 
Q 519 -800 656 -800 
Q 844 -800 956 -737 
Q 1069 -675 1141 -563 
Q 1194 -478 1313 -144 
Q 1328 -97 1363 -6 
L 103 3319 
L 709 3319 
L 1400 1397 
Q 1534 1031 1641 628 
Q 1738 1016 1872 1384 
L 2581 3319 
L 3144 3319 
L 1881 -56 
Q 1678 -603 1566 -809 
Q 1416 -1088 1222 -1217 
Q 1028 -1347 759 -1347 
Q 597 -1347 397 -1278 
z
" transform="scale(0.015625)"/>
       <path id="ArialMT-63" d="M 2588 1216 
L 3141 1144 
Q 3050 572 2676 248 
Q 2303 -75 1759 -75 
Q 1078 -75 664 370 
Q 250 816 250 1647 
Q 250 2184 428 2587 
Q 606 2991 970 3192 
Q 1334 3394 1763 3394 
Q 2303 3394 2647 3120 
Q 2991 2847 3088 2344 
L 2541 2259 
Q 2463 2594 2264 2762 
Q 2066 2931 1784 2931 
Q 1359 2931 1093 2626 
Q 828 2322 828 1663 
Q 828 994 1084 691 
Q 1341 388 1753 388 
Q 2084 388 2306 591 
Q 2528 794 2588 1216 
z
" transform="scale(0.015625)"/>
       <path id="ArialMT-73" d="M 197 991 
L 753 1078 
Q 800 744 1014 566 
Q 1228 388 1613 388 
Q 2000 388 2187 545 
Q 2375 703 2375 916 
Q 2375 1106 2209 1216 
Q 2094 1291 1634 1406 
Q 1016 1563 777 1677 
Q 538 1791 414 1992 
Q 291 2194 291 2438 
Q 291 2659 392 2848 
Q 494 3038 669 3163 
Q 800 3259 1026 3326 
Q 1253 3394 1513 3394 
Q 1903 3394 2198 3281 
Q 2494 3169 2634 2976 
Q 2775 2784 2828 2463 
L 2278 2388 
Q 2241 2644 2061 2787 
Q 1881 2931 1553 2931 
Q 1166 2931 1000 2803 
Q 834 2675 834 2503 
Q 834 2394 903 2306 
Q 972 2216 1119 2156 
Q 1203 2125 1616 2013 
Q 2213 1853 2448 1751 
Q 2684 1650 2818 1456 
Q 2953 1263 2953 975 
Q 2953 694 2789 445 
Q 2625 197 2315 61 
Q 2006 -75 1616 -75 
Q 969 -75 630 194 
Q 291 463 197 991 
z
" transform="scale(0.015625)"/>
       <path id="ArialMT-75" d="M 2597 0 
L 2597 488 
Q 2209 -75 1544 -75 
Q 1250 -75 995 37 
Q 741 150 617 320 
Q 494 491 444 738 
Q 409 903 409 1263 
L 409 3319 
L 972 3319 
L 972 1478 
Q 972 1038 1006 884 
Q 1059 663 1231 536 
Q 1403 409 1656 409 
Q 1909 409 2131 539 
Q 2353 669 2445 892 
Q 2538 1116 2538 1541 
L 2538 3319 
L 3100 3319 
L 3100 0 
L 2597 0 
z
" transform="scale(0.015625)"/>
       <path id="ArialMT-70" d="M 422 -1272 
L 422 3319 
L 934 3319 
L 934 2888 
Q 1116 3141 1344 3267 
Q 1572 3394 1897 3394 
Q 2322 3394 2647 3175 
Q 2972 2956 3137 2557 
Q 3303 2159 3303 1684 
Q 3303 1175 3120 767 
Q 2938 359 2589 142 
Q 2241 -75 1856 -75 
Q 1575 -75 1351 44 
Q 1128 163 984 344 
L 984 -1272 
L 422 -1272 
z
M 931 1641 
Q 931 1000 1190 694 
Q 1450 388 1819 388 
Q 2194 388 2461 705 
Q 2728 1022 2728 1688 
Q 2728 2322 2467 2637 
Q 2206 2953 1844 2953 
Q 1484 2953 1207 2617 
Q 931 2281 931 1641 
z
" transform="scale(0.015625)"/>
       <path id="ArialMT-74" d="M 1650 503 
L 1731 6 
Q 1494 -44 1306 -44 
Q 1000 -44 831 53 
Q 663 150 594 308 
Q 525 466 525 972 
L 525 2881 
L 113 2881 
L 113 3319 
L 525 3319 
L 525 4141 
L 1084 4478 
L 1084 3319 
L 1650 3319 
L 1650 2881 
L 1084 2881 
L 1084 941 
Q 1084 700 1114 631 
Q 1144 563 1211 522 
Q 1278 481 1403 481 
Q 1497 481 1650 503 
z
" transform="scale(0.015625)"/>
       <path id="ArialMT-47" d="M 2638 1797 
L 2638 2334 
L 4578 2338 
L 4578 638 
Q 4131 281 3656 101 
Q 3181 -78 2681 -78 
Q 2006 -78 1454 211 
Q 903 500 622 1047 
Q 341 1594 341 2269 
Q 341 2938 620 3517 
Q 900 4097 1425 4378 
Q 1950 4659 2634 4659 
Q 3131 4659 3532 4498 
Q 3934 4338 4162 4050 
Q 4391 3763 4509 3300 
L 3963 3150 
Q 3859 3500 3706 3700 
Q 3553 3900 3268 4020 
Q 2984 4141 2638 4141 
Q 2222 4141 1919 4014 
Q 1616 3888 1430 3681 
Q 1244 3475 1141 3228 
Q 966 2803 966 2306 
Q 966 1694 1177 1281 
Q 1388 869 1791 669 
Q 2194 469 2647 469 
Q 3041 469 3416 620 
Q 3791 772 3984 944 
L 3984 1797 
L 2638 1797 
z
" transform="scale(0.015625)"/>
       <path id="ArialMT-42" d="M 469 0 
L 469 4581 
L 2188 4581 
Q 2713 4581 3030 4442 
Q 3347 4303 3526 4014 
Q 3706 3725 3706 3409 
Q 3706 3116 3547 2856 
Q 3388 2597 3066 2438 
Q 3481 2316 3704 2022 
Q 3928 1728 3928 1328 
Q 3928 1006 3792 729 
Q 3656 453 3456 303 
Q 3256 153 2954 76 
Q 2653 0 2216 0 
L 469 0 
z
M 1075 2656 
L 2066 2656 
Q 2469 2656 2644 2709 
Q 2875 2778 2992 2937 
Q 3109 3097 3109 3338 
Q 3109 3566 3000 3739 
Q 2891 3913 2687 3977 
Q 2484 4041 1991 4041 
L 1075 4041 
L 1075 2656 
z
M 1075 541 
L 2216 541 
Q 2509 541 2628 563 
Q 2838 600 2978 687 
Q 3119 775 3209 942 
Q 3300 1109 3300 1328 
Q 3300 1584 3169 1773 
Q 3038 1963 2805 2039 
Q 2572 2116 2134 2116 
L 1075 2116 
L 1075 541 
z
" transform="scale(0.015625)"/>
      </defs>
      <use xlink:href="#ArialMT-4d"/>
      <use xlink:href="#ArialMT-65" transform="translate(83.300781 0)"/>
      <use xlink:href="#ArialMT-6d" transform="translate(138.916016 0)"/>
      <use xlink:href="#ArialMT-6f" transform="translate(222.216797 0)"/>
      <use xlink:href="#ArialMT-72" transform="translate(277.832031 0)"/>
      <use xlink:href="#ArialMT-79" transform="translate(311.132812 0)"/>
      <use xlink:href="#ArialMT-20" transform="translate(361.132812 0)"/>
      <use xlink:href="#ArialMT-63" transform="translate(388.916016 0)"/>
      <use xlink:href="#ArialMT-6f" transform="translate(438.916016 0)"/>
      <use xlink:href="#ArialMT-6e" transform="translate(494.53125 0)"/>
      <use xlink:href="#ArialMT-73" transform="translate(550.146484 0)"/>
      <use xlink:href="#ArialMT-75" transform="translate(600.146484 0)"/>
      <use xlink:href="#ArialMT-6d" transform="translate(655.761719 0)"/>
      <use xlink:href="#ArialMT-70" transform="translate(739.0625 0)"/>
      <use xlink:href="#ArialMT-74" transform="translate(794.677734 0)"/>
      <use xlink:href="#ArialMT-69" transform="translate(822.460938 0)"/>
      <use xlink:href="#ArialMT-6f" transform="translate(844.677734 0)"/>
      <use xlink:href="#ArialMT-6e" transform="translate(900.292969 0)"/>
      <use xlink:href="#ArialMT-20" transform="translate(955.908203 0)"/>
      <use xlink:href="#ArialMT-5b" transform="translate(983.691406 0)"/>
      <use xlink:href="#ArialMT-47" transform="translate(1011.474609 0)"/>
      <use xlink:href="#ArialMT-69" transform="translate(1089.257812 0)"/>
      <use xlink:href="#ArialMT-42" transform="translate(1111.474609 0)"/>
      <use xlink:href="#ArialMT-5d" transform="translate(1178.173828 0)"/>
     </g>
    </g>
   </g>
   <g id="FillBetweenPolyCollection_1"/>
   <g id="FillBetweenPolyCollection_2"/>
   <g id="line2d_16">
    <path d="M 81.621605 30.081818 
L 475.194332 30.081818 
L 475.194332 30.081818 
" clip-path="url(#pa5140d43dd)" style="fill: none; stroke: #0173b2; stroke-width: 3; stroke-linecap: round"/>
   </g>
   <g id="line2d_17">
    <path d="M 81.621605 249.820875 
L 81.707376 249.780832 
L 82.145189 232.910015 
L 82.373057 232.978808 
L 82.817272 229.983548 
L 83.057941 230.181854 
L 83.281969 231.677956 
L 83.504716 229.371446 
L 83.723623 231.909267 
L 83.94637 227.322816 
L 84.206242 233.081698 
L 84.645336 226.15584 
L 85.083149 223.950583 
L 85.302056 215.092732 
L 85.529924 212.343512 
L 85.848683 211.156624 
L 86.06887 204.56393 
L 86.289057 202.303028 
L 86.574532 194.87625 
L 86.794719 208.794741 
L 87.014906 197.455969 
L 87.236373 207.435407 
L 87.45656 197.493503 
L 87.676747 209.821348 
L 87.896934 214.291163 
L 88.114561 214.28167 
L 88.553655 209.309572 
L 88.773842 215.315478 
L 88.994029 212.249515 
L 89.215496 211.726392 
L 89.434403 212.185031 
L 89.65459 220.394775 
L 90.31131 215.070692 
L 90.531497 215.127374 
L 90.751684 222.739255 
L 90.973152 223.042196 
L 91.194619 219.961885 
L 91.416086 221.279649 
L 91.702841 215.655734 
L 91.923028 201.079971 
L 92.143215 197.51647 
L 92.363402 191.717054 
L 92.581029 198.724853 
L 92.801216 198.108605 
L 93.020122 195.05148 
L 93.24159 201.007631 
L 93.685804 188.360806 
L 94.128738 207.027066 
L 94.350205 202.315848 
L 94.569112 204.307961 
L 94.790579 208.051327 
L 95.008206 209.799963 
L 95.227113 206.590685 
L 95.4473 209.725441 
L 95.668767 202.144984 
L 95.888954 207.777518 
L 96.110421 201.85219 
L 96.328048 190.795519 
L 96.548235 193.577962 
L 96.768422 186.630773 
L 96.988609 201.766921 
L 97.207516 192.321899 
L 97.444345 198.469538 
L 97.664532 197.469172 
L 97.883439 191.176964 
L 98.104906 198.198674 
L 98.322532 198.424857 
L 98.542719 187.344455 
L 98.762906 201.329448 
L 98.983093 202.296536 
L 99.202 209.781032 
L 99.565565 194.370748 
L 99.820316 189.844688 
L 100.041783 189.801372 
L 100.26197 197.562896 
L 100.483437 186.887998 
L 100.703624 189.116604 
L 100.922531 186.467164 
L 101.149119 194.238399 
L 101.369306 206.846164 
L 101.589493 212.117656 
L 101.81096 201.467744 
L 102.031147 201.497967 
L 102.252614 187.665018 
L 102.472801 188.948303 
L 102.691708 187.294483 
L 102.911895 187.915314 
L 103.132082 201.257764 
L 103.352269 196.275083 
L 103.571176 194.913511 
L 103.790083 199.625929 
L 104.01027 194.453453 
L 104.233017 185.117595 
L 104.451924 198.139756 
L 104.670831 202.855338 
L 105.108644 182.728053 
L 105.330111 187.533323 
L 105.549018 183.863714 
L 105.769205 185.002812 
L 105.989392 184.189405 
L 106.208299 188.340512 
L 106.428486 196.144643 
L 106.649953 189.123914 
L 106.87014 190.236499 
L 107.090327 199.15687 
L 107.310514 195.15546 
L 107.529421 200.372617 
L 107.749608 186.383969 
L 108.189982 196.811626 
L 108.41529 188.711428 
L 108.856944 204.599718 
L 109.078411 197.476264 
L 109.296038 203.581131 
L 109.514945 214.075727 
L 109.951478 189.032808 
L 110.172945 195.599643 
L 110.393132 188.851796 
L 110.613319 191.060927 
L 110.856549 195.51192 
L 111.101059 188.386501 
L 111.321246 197.505778 
L 111.541433 197.359244 
L 111.7629 197.920174 
L 111.983087 195.185793 
L 112.204554 186.884888 
L 112.426021 201.132888 
L 112.644928 202.645739 
L 113.304209 183.06029 
L 113.525676 180.110746 
L 113.745863 169.97932 
L 113.96605 167.007408 
L 114.406424 177.270311 
L 114.626611 186.887289 
L 114.846798 179.769835 
L 115.068265 168.402149 
L 115.289732 173.082653 
L 115.509919 168.412132 
L 115.731387 181.528345 
L 116.173041 159.773917 
L 116.394508 174.755239 
L 116.614695 171.642414 
L 116.834882 161.915782 
L 117.055069 164.284375 
L 117.499283 163.045933 
L 117.71947 171.074174 
L 118.163685 159.609545 
L 118.383872 163.304358 
L 118.605339 158.273778 
L 118.825526 168.526642 
L 119.044433 192.887739 
L 119.26718 200.437864 
L 119.487367 194.267258 
L 119.706274 181.422618 
L 119.927741 183.948437 
L 120.147928 177.185697 
L 120.369395 182.772297 
L 120.589582 177.313191 
L 120.811049 183.57343 
L 121.036357 184.194369 
L 121.256544 181.061631 
L 121.476731 176.007647 
L 121.696918 179.896129 
L 121.917105 196.172084 
L 122.137292 192.233903 
L 122.389483 204.463059 
L 122.607109 202.185627 
L 122.849059 198.271723 
L 123.067966 186.613698 
L 123.50962 181.66675 
L 123.731087 191.540406 
L 123.949994 187.055535 
L 124.171461 193.957225 
L 124.391648 194.795019 
L 124.618236 197.948269 
L 125.05733 184.808926 
L 125.294159 186.461763 
L 125.529708 201.976028 
L 125.751175 206.308584 
L 125.970082 190.247355 
L 126.192829 192.207608 
L 126.631923 177.401297 
L 126.85339 178.551469 
L 127.072297 178.216123 
L 127.292484 182.886097 
L 127.516511 194.391043 
L 127.736698 224.270709 
L 127.958165 201.460761 
L 128.180913 196.357951 
L 128.4011 198.566972 
L 128.622567 197.25079 
L 128.842754 194.335833 
L 129.065501 201.872484 
L 129.288248 188.685241 
L 129.508435 189.027789 
L 129.727342 197.45777 
L 129.946249 190.680627 
L 130.167716 178.445033 
L 130.386623 183.753678 
L 130.825717 181.070414 
L 131.044624 193.621169 
L 131.263531 192.714255 
L 131.484998 192.631769 
L 131.705185 191.590269 
L 131.924092 187.888746 
L 132.142998 186.810858 
L 132.364466 186.706986 
L 132.582092 176.565522 
L 132.802279 174.646185 
L 133.019906 181.203582 
L 133.240093 176.464705 
L 133.46028 197.059085 
L 133.677907 192.567777 
L 133.898094 191.570793 
L 134.339748 186.451289 
L 134.559935 179.834046 
L 134.780122 200.333447 
L 134.999029 193.324502 
L 135.217935 192.666411 
L 135.438122 196.378463 
L 135.65959 182.304601 
L 135.878496 186.047204 
L 136.099964 178.463145 
L 136.32015 181.145263 
L 136.539057 195.459765 
L 136.760524 181.249626 
L 136.979431 198.064525 
L 137.638712 172.301323 
L 137.861459 206.524565 
L 138.080366 189.604703 
L 138.301833 202.205157 
L 138.523301 193.937858 
L 139.180021 184.749898 
L 139.401488 188.545855 
L 139.622955 174.716124 
L 139.843142 171.515356 
L 140.279676 204.113747 
L 140.499863 196.958596 
L 140.71877 182.359156 
L 140.938957 187.323943 
L 141.159144 196.411905 
L 141.380611 199.858059 
L 141.823545 180.045226 
L 142.043732 184.025359 
L 142.265199 181.543238 
L 142.486666 183.517457 
L 142.708134 178.384041 
L 142.929601 186.277642 
L 143.149788 173.811283 
L 143.368695 174.047176 
L 143.812909 179.80104 
L 144.031816 169.011741 
L 144.252003 182.527238 
L 145.131471 152.610584 
L 145.347817 162.951445 
L 145.571845 152.370762 
L 145.792032 148.614248 
L 146.013499 162.686801 
L 146.240087 194.163878 
L 146.67918 184.98721 
L 146.900648 193.243871 
L 147.122115 188.352241 
L 147.342302 188.215363 
L 147.561209 187.875434 
L 147.782676 178.817968 
L 147.999022 181.246298 
L 148.219209 175.278635 
L 148.436836 177.427756 
L 148.658303 184.606747 
L 148.87849 181.407016 
L 149.098677 204.658419 
L 149.318864 202.876396 
L 149.539051 192.26609 
L 149.981985 189.162321 
L 150.206013 188.684914 
L 150.42876 190.298909 
L 150.648947 194.137255 
L 150.869134 186.622426 
L 151.089321 183.702888 
L 151.527135 196.93912 
L 151.747322 191.596379 
L 151.967509 191.155197 
L 152.62807 199.868479 
L 152.846976 189.364281 
L 153.065883 191.131793 
L 153.302712 206.055396 
L 153.748207 190.796664 
L 153.970954 203.070555 
L 154.194982 207.790284 
L 154.415169 192.531443 
L 154.634076 205.868983 
L 154.854263 203.489861 
L 155.07957 198.838381 
L 155.298477 202.733299 
L 155.540427 189.054084 
L 155.760614 183.446863 
L 155.980801 183.222808 
L 156.202268 178.320976 
L 156.422455 181.673569 
L 156.642642 176.097826 
L 157.083016 160.334738 
L 157.52467 183.984171 
L 157.774301 206.221515 
L 157.995768 205.239915 
L 158.217235 217.281786 
L 158.437422 218.77347 
L 158.657609 212.431236 
L 158.877796 217.236233 
L 159.095422 211.442544 
L 159.31689 215.264251 
L 159.538357 221.724105 
L 159.981291 220.471042 
L 160.202758 213.667986 
L 160.424225 212.273355 
L 160.641852 206.006297 
L 160.858199 212.702863 
L 161.077105 206.167669 
L 161.297292 219.351911 
L 161.517479 202.867176 
L 161.960414 209.747972 
L 162.179321 207.272234 
L 162.622255 196.834048 
L 162.842442 201.535719 
L 163.062629 196.750252 
L 163.501723 200.714728 
L 163.72703 205.904607 
L 163.945937 204.205835 
L 164.167404 212.014003 
L 164.386311 211.203487 
L 164.607778 201.486456 
L 165.049432 215.239538 
L 165.268339 220.60181 
L 165.707433 212.882347 
L 165.92762 204.412869 
L 166.374395 199.898866 
L 166.595862 206.042794 
L 166.814769 215.763589 
L 167.036236 208.910179 
L 167.257703 209.498549 
L 167.698077 224.36858 
L 167.919544 220.796787 
L 168.139731 219.390645 
L 168.359918 221.168522 
L 168.581385 230.710869 
L 168.801572 217.295479 
L 169.243226 210.892417 
L 169.460853 200.078404 
L 169.68104 206.758331 
L 169.901227 196.012621 
L 170.122694 207.317515 
L 170.341601 210.834971 
L 170.561788 200.183313 
L 170.783255 206.208149 
L 171.002162 205.769421 
L 171.222349 201.096992 
L 171.443816 203.556963 
L 171.664003 195.464839 
L 171.88419 197.070433 
L 172.104377 196.756908 
L 172.324564 186.891162 
L 172.544751 184.18995 
L 172.764938 199.404165 
L 172.995366 187.679747 
L 173.233476 185.211156 
L 173.67385 198.495124 
L 173.896597 187.139821 
L 174.119344 187.191212 
L 174.340811 186.093684 
L 174.563559 205.896806 
L 174.782466 204.587007 
L 175.005213 201.211229 
L 175.2254 205.697464 
L 175.47247 198.532603 
L 175.728501 210.486149 
L 176.167595 147.392936 
L 176.387782 135.888045 
L 176.606689 133.791898 
L 176.826876 125.213092 
L 177.047063 143.685739 
L 177.26597 127.410166 
L 177.486157 130.401608 
L 177.705064 120.036197 
L 177.929091 120.90045 
L 178.199204 112.08886 
L 178.423232 118.849964 
L 178.640859 115.46142 
L 178.859765 162.015071 
L 179.083793 145.301698 
L 179.30398 156.001255 
L 179.526727 155.431379 
L 179.748194 147.685294 
L 180.187288 123.2835 
L 180.643024 163.020347 
L 180.861931 170.380186 
L 181.082118 161.156274 
L 181.302305 160.97548 
L 181.521212 150.240572 
L 181.741399 160.180458 
L 181.961586 163.446145 
L 182.183053 157.072597 
L 182.40324 159.660171 
L 182.624707 152.063129 
L 183.067641 129.047019 
L 183.289108 127.096641 
L 183.509295 146.362838 
L 183.726922 150.167687 
L 183.945829 142.10344 
L 184.164736 139.8349 
L 184.384923 158.842345 
L 184.60511 159.767535 
L 184.824016 159.026848 
L 185.044203 160.715474 
L 185.26439 154.575419 
L 185.484577 154.212631 
L 185.706045 188.195178 
L 185.947994 167.709089 
L 186.387088 159.88139 
L 186.607275 161.38644 
L 186.827462 158.66417 
L 187.484183 184.069439 
L 187.70565 163.485915 
L 187.927117 159.433388 
L 188.146024 169.330067 
L 188.366211 160.197915 
L 188.592798 172.129913 
L 188.815546 157.232005 
L 189.034453 177.749518 
L 189.25592 171.091577 
L 189.476107 170.903964 
L 189.697574 160.761245 
L 189.916481 160.166601 
L 190.136668 149.579262 
L 190.358135 152.694488 
L 190.578322 147.544216 
L 190.799789 160.177948 
L 191.021256 151.716762 
L 191.240163 151.852221 
L 191.900724 181.655239 
L 192.120911 165.610377 
L 192.341098 163.437525 
L 192.562565 159.954493 
L 192.785312 163.390663 
L 193.226967 148.072467 
L 193.447154 167.516948 
L 193.668621 155.957066 
L 193.890088 165.664331 
L 194.110275 168.477489 
L 194.772116 145.008304 
L 194.993583 177.786833 
L 195.21377 169.112503 
L 195.435237 192.873391 
L 195.875611 166.596995 
L 196.093238 168.495055 
L 196.312145 159.857604 
L 196.531052 174.064197 
L 196.751239 179.897329 
L 197.191613 163.125855 
L 197.4118 151.806505 
L 197.633267 151.403347 
L 197.852174 146.072281 
L 198.510174 160.352795 
L 198.729081 146.544723 
L 199.168175 154.43996 
L 199.604708 146.226506 
L 199.824895 158.359046 
L 200.045082 159.882972 
L 200.265269 154.960246 
L 200.484176 165.773331 
L 200.705643 160.127976 
L 200.927111 174.865221 
L 201.148578 182.174052 
L 201.588952 165.962035 
L 201.809139 169.557777 
L 202.028045 177.517116 
L 202.248232 171.044824 
L 202.689887 145.146654 
L 202.922875 154.674653 
L 203.143062 149.592465 
L 203.363249 161.706129 
L 203.803623 146.415156 
L 204.02509 161.140126 
L 204.251678 158.547587 
L 204.473145 145.206064 
L 204.693332 143.549244 
L 204.914799 148.289867 
L 205.136267 146.9583 
L 205.355173 146.483512 
L 205.576641 154.418956 
L 205.798108 155.982052 
L 206.017014 143.929761 
L 206.237201 169.742826 
L 206.678856 155.580804 
L 207.117949 166.748438 
L 207.338136 150.243682 
L 207.558323 147.67711 
L 208.001258 154.987851 
L 208.220165 142.658369 
L 208.441632 150.331514 
L 208.661819 163.283736 
L 208.880726 156.29454 
L 209.333901 164.921244 
L 209.554088 180.638997 
L 209.778116 173.639327 
L 209.998303 190.717779 
L 210.688307 159.213643 
L 210.909774 160.124103 
L 211.128681 172.83934 
L 211.347588 173.265956 
L 212.006869 192.054582 
L 212.227056 203.43487 
L 212.696873 178.682509 
L 212.91706 167.150887 
L 213.138528 162.522101 
L 213.357434 171.770235 
L 213.578901 190.049104 
L 213.800369 185.157965 
L 214.020556 189.590792 
L 214.262505 187.462075 
L 214.704159 171.588187 
L 214.923066 159.854658 
L 215.141973 155.214252 
L 215.36088 172.225001 
L 215.582347 165.607267 
L 216.041923 186.787781 
L 216.26083 173.256463 
L 216.482297 182.013716 
L 216.701204 175.392545 
L 217.142858 184.647553 
L 217.611396 170.409046 
L 218.05177 159.604853 
L 218.273237 166.423293 
L 218.490864 165.94305 
L 218.712331 170.070699 
L 218.931238 184.814817 
L 219.152705 190.321768 
L 219.374172 179.926461 
L 219.595639 189.593028 
L 219.815826 181.030371 
L 220.036013 177.140799 
L 220.25492 163.84532 
L 220.476387 177.272603 
L 220.697854 181.926811 
L 220.916761 183.149705 
L 221.136948 202.964174 
L 221.357135 195.773508 
L 221.579882 199.617092 
L 221.800069 199.708689 
L 222.018976 190.856074 
L 222.239163 193.673214 
L 222.45935 190.05325 
L 222.899724 166.161323 
L 223.342658 210.841517 
L 223.786873 212.855833 
L 224.228527 187.54898 
L 224.448714 172.998421 
L 224.670181 167.817761 
L 224.889088 179.808678 
L 225.333302 174.313675 
L 225.553489 187.705879 
L 225.774957 170.876523 
L 225.995144 169.969445 
L 226.216611 172.161936 
L 226.438078 172.576714 
L 226.659545 182.3004 
L 227.539013 161.546666 
L 227.979387 170.531357 
L 228.418481 203.57213 
L 228.638668 189.929193 
L 228.858855 192.249833 
L 229.079042 204.813626 
L 229.300509 190.315767 
L 229.519416 192.615293 
L 229.740883 192.151635 
L 229.96235 192.336629 
L 230.183817 192.279347 
L 230.404004 195.370514 
L 230.625471 178.793637 
L 230.843098 183.957439 
L 231.060725 169.470872 
L 231.280912 178.711423 
L 231.502379 175.08213 
L 231.723846 185.219666 
L 231.944033 203.575676 
L 232.16294 182.685664 
L 232.384407 186.138692 
L 232.826061 154.256111 
L 233.044968 144.615457 
L 233.265155 151.561773 
L 233.485342 167.090877 
L 233.706809 173.960544 
L 233.928276 144.653427 
L 234.148463 141.510487 
L 234.376331 167.98748 
L 235.036892 144.237285 
L 235.700013 171.343782 
L 236.136547 154.719006 
L 236.356734 157.812247 
L 236.575641 145.794053 
L 236.797108 148.679604 
L 237.016015 167.039596 
L 237.675295 190.263994 
L 237.894202 190.019645 
L 238.113109 200.833166 
L 238.332016 194.764468 
L 238.553483 179.157788 
L 238.77367 176.701635 
L 238.992577 171.467185 
L 239.214044 189.204655 
L 239.434231 189.404052 
L 239.873325 173.848325 
L 240.314979 143.89692 
L 240.536446 143.8344 
L 240.757913 144.280547 
L 240.9781 151.360358 
L 241.197007 150.457754 
L 241.417194 155.140385 
L 241.637381 150.178435 
L 241.856288 139.011509 
L 242.079035 144.853315 
L 242.297942 137.481255 
L 242.519409 138.649485 
L 242.738316 156.501247 
L 242.958503 145.60022 
L 243.17869 142.690774 
L 243.397597 175.208096 
L 243.617784 173.10202 
L 243.840531 188.89604 
L 244.060718 170.416574 
L 244.278345 197.282486 
L 244.719999 167.58405 
L 244.940186 158.603832 
L 245.159093 176.420188 
L 245.38056 173.928248 
L 245.599467 182.118516 
L 245.819654 184.255252 
L 246.039841 172.698698 
L 246.261308 185.110994 
L 246.701682 178.553979 
L 246.921869 178.15273 
L 247.140776 175.238374 
L 247.359683 169.604585 
L 247.58115 190.21555 
L 247.805177 188.497192 
L 248.026644 181.716503 
L 248.246831 197.156247 
L 248.467018 182.638693 
L 248.904832 173.800808 
L 249.126299 160.627204 
L 249.345206 180.374244 
L 249.565393 172.989365 
L 249.7843 181.721522 
L 250.004487 185.776886 
L 250.223394 175.86766 
L 250.44102 176.910033 
L 250.662487 166.999716 
L 250.882674 177.762502 
L 251.104142 182.372849 
L 251.324329 183.023466 
L 251.544516 178.854029 
L 251.764703 178.682236 
L 251.98489 179.388444 
L 252.206357 181.564678 
L 252.425264 171.340127 
L 252.645451 172.495319 
L 252.864357 165.936504 
L 253.084544 184.294749 
L 253.304731 173.225749 
L 253.524918 183.089859 
L 253.743825 184.055637 
L 253.965292 183.440917 
L 254.18676 189.32402 
L 254.409507 189.401051 
L 254.851161 178.471711 
L 255.072628 166.748111 
L 255.291535 167.820271 
L 255.511722 166.437587 
L 255.731909 152.830438 
L 255.952096 159.527658 
L 256.172283 158.976603 
L 256.612657 178.268768 
L 257.051751 156.703317 
L 257.270658 156.245005 
L 257.492125 150.596977 
L 257.711032 158.77988 
L 257.932499 180.080468 
L 258.151406 173.586082 
L 258.59306 144.772356 
L 258.814527 142.358483 
L 259.034714 136.309206 
L 259.256181 149.944614 
L 259.480208 149.768785 
L 259.701676 144.527788 
L 259.921863 148.027023 
L 260.140769 135.408839 
L 260.358396 136.077731 
L 260.578583 150.935815 
L 260.80005 146.736918 
L 261.239144 169.705238 
L 261.676958 149.170649 
L 261.897145 155.87698 
L 262.334958 157.116295 
L 262.557706 170.780671 
L 262.779173 160.201843 
L 263.00192 164.838758 
L 263.222107 172.136514 
L 263.441014 171.368387 
L 263.659921 180.701517 
L 263.882668 172.532361 
L 264.101575 175.812015 
L 264.323042 177.254709 
L 264.543229 170.502061 
L 264.764696 177.24167 
L 264.984883 176.843095 
L 265.20123 178.01438 
L 265.421417 177.093391 
L 265.640324 181.305053 
L 265.861791 182.577865 
L 266.304725 162.913584 
L 266.523632 163.943627 
L 266.742539 158.494014 
L 266.961446 155.900384 
L 267.180352 156.442601 
L 267.40182 154.819823 
L 267.623287 157.56997 
L 267.838353 166.7929 
L 268.0547 167.795012 
L 268.497634 152.610147 
L 268.717821 159.98237 
L 269.154354 161.744754 
L 269.375822 157.866637 
L 269.596009 148.500392 
L 269.816196 157.9704 
L 270.036382 156.636815 
L 270.25785 159.537587 
L 270.480597 180.452203 
L 270.918411 169.67376 
L 271.138598 180.662183 
L 271.358785 185.896088 
L 271.796598 182.29489 
L 272.016785 189.682661 
L 272.235692 181.739471 
L 272.455879 168.72653 
L 272.676066 173.535728 
L 272.896253 185.233305 
L 273.11772 182.427458 
L 273.550413 173.430165 
L 273.77188 189.065759 
L 273.992067 184.969861 
L 274.433722 153.194753 
L 275.098123 113.260473 
L 275.31959 117.891605 
L 275.541057 113.252726 
L 275.980151 115.925024 
L 276.200338 156.691806 
L 276.421805 162.99116 
L 276.641992 182.421239 
L 276.863459 169.513861 
L 277.083646 170.117725 
L 277.302553 161.63439 
L 277.52402 161.202864 
L 277.742927 156.948921 
L 277.965675 157.169431 
L 278.406049 143.774718 
L 278.847703 158.683591 
L 279.06917 157.310345 
L 279.289357 152.039452 
L 279.508264 149.961908 
L 279.949918 159.300548 
L 280.168825 151.797721 
L 280.829386 146.440142 
L 281.050853 150.757585 
L 281.26976 147.157479 
L 281.934161 176.614239 
L 282.154348 175.207878 
L 282.594722 155.292974 
L 282.813629 160.167801 
L 283.032536 160.299386 
L 283.251443 153.827858 
L 283.470349 150.879842 
L 283.685416 154.824133 
L 284.349817 180.660328 
L 284.571284 179.951556 
L 284.790191 172.864326 
L 285.010378 160.340684 
L 285.228005 156.104909 
L 285.448192 167.548371 
L 285.667099 170.402335 
L 285.886005 160.977826 
L 286.107473 156.566767 
L 286.326379 156.018876 
L 286.98694 127.445354 
L 287.209688 125.108184 
L 287.429875 113.654357 
L 287.648782 115.60228 
L 287.867688 134.678517 
L 288.087875 122.212977 
L 288.308062 143.185365 
L 288.52953 145.636554 
L 288.749717 139.114453 
L 288.968623 128.398366 
L 289.190091 124.001 
L 289.850651 102.44477 
L 290.070838 105.887977 
L 290.291025 103.031176 
L 290.512493 117.353534 
L 290.73396 113.306026 
L 290.954147 104.602837 
L 291.393241 99.256822 
L 291.613428 101.029026 
L 291.832334 90.766668 
L 292.052521 88.589234 
L 292.272708 95.168835 
L 292.719483 74.169933 
L 292.93967 75.232982 
L 294.050846 35.704315 
L 294.271033 32.263453 
L 294.511703 64.10479 
L 294.73701 71.112207 
L 294.957197 74.071571 
L 295.400132 70.536985 
L 295.624159 70.597158 
L 295.843066 77.622688 
L 296.2796 57.649628 
L 296.718693 46.128699 
L 296.9376 59.115617 
L 297.157787 50.961191 
L 297.379254 60.855415 
L 297.603282 54.377831 
L 297.824749 59.964976 
L 298.046216 53.586627 
L 298.266403 56.837475 
L 298.48531 57.423173 
L 298.704217 75.283772 
L 298.925684 82.285734 
L 299.371179 65.323429 
L 299.591366 70.472338 
L 299.811553 70.873859 
L 300.03174 71.72851 
L 300.253207 84.159518 
L 300.473394 70.994915 
L 300.694861 73.233887 
L 300.913768 78.753821 
L 301.136515 64.831729 
L 301.356702 82.094466 
L 302.021103 58.065934 
L 302.23873 65.499749 
L 302.681664 51.771489 
L 302.901851 56.721111 
L 303.122038 50.078445 
L 303.343506 68.046626 
L 303.782599 50.491368 
L 304.001506 78.060815 
L 304.222973 78.554806 
L 304.44316 68.931282 
L 304.664627 73.762247 
L 304.920659 92.00882 
L 305.156208 91.406211 
L 305.376395 78.396598 
L 305.597862 78.905864 
L 306.258423 54.48394 
L 306.47989 55.19964 
L 306.700077 46.483794 
L 306.920264 71.920487 
L 307.139171 70.388378 
L 307.359358 83.50279 
L 307.802292 61.039482 
L 308.021199 55.373233 
L 308.461573 100.818718 
L 308.68048 90.67589 
L 308.900667 106.343344 
L 309.123414 105.664576 
L 309.355122 93.880912 
L 309.575309 97.863719 
L 309.796777 117.991876 
L 310.018244 115.107361 
L 310.459898 98.375985 
L 310.687766 93.051575 
L 310.906673 82.758667 
L 311.12814 82.765923 
L 311.347047 113.499258 
L 311.568514 99.572147 
L 311.791261 99.244384 
L 312.011448 88.714655 
L 312.231635 93.590137 
L 312.451822 93.562096 
L 312.673289 102.747547 
L 312.892196 118.152376 
L 313.33257 97.967045 
L 313.552757 101.370155 
L 313.776785 90.024782 
L 313.994411 89.331394 
L 314.215878 86.31202 
L 314.656252 68.552019 
L 315.108148 104.026905 
L 315.328335 92.006147 
L 315.548522 91.224272 
L 315.769989 84.58848 
L 315.988896 74.165405 
L 316.210363 108.171301 
L 316.42927 103.82238 
L 316.648177 109.806627 
L 316.869644 112.431299 
L 317.089831 111.015555 
L 317.310018 100.01824 
L 317.534045 111.560991 
L 317.971859 101.625579 
L 318.409672 135.732292 
L 318.63114 125.390395 
L 318.851327 135.371905 
L 319.072794 156.638015 
L 319.513168 142.549751 
L 319.733355 143.534187 
L 319.954822 158.933451 
L 320.173729 145.291333 
L 320.392636 141.012132 
L 320.614103 164.258134 
L 320.83557 165.392977 
L 321.058317 188.749179 
L 321.277224 187.056953 
L 321.935225 155.932789 
L 322.155412 162.277696 
L 322.374318 147.089722 
L 322.595786 151.762534 
L 322.817253 145.757228 
L 323.03616 134.682609 
L 323.255066 130.485513 
L 323.475253 121.300498 
L 323.69544 126.297472 
L 323.914347 125.516034 
L 324.134534 125.72705 
L 324.353441 122.103868 
L 324.573628 113.009631 
L 324.793815 115.311395 
L 325.012722 124.018785 
L 325.231629 123.54547 
L 325.451816 135.214297 
L 325.672003 130.56549 
L 325.89091 132.112001 
L 326.332564 120.353759 
L 326.552751 117.567006 
L 326.772938 133.377338 
L 326.994405 139.912804 
L 327.215872 154.202811 
L 327.439899 176.661101 
L 327.661367 186.143001 
L 327.880273 173.134807 
L 328.321928 179.379334 
L 328.540834 177.765557 
L 328.775103 169.45025 
L 328.99401 176.505184 
L 329.214197 172.154135 
L 329.431824 172.175793 
L 329.652011 172.585061 
L 329.872198 175.883154 
L 330.096225 183.815161 
L 330.324093 180.601518 
L 330.765747 164.809353 
L 330.985934 174.338443 
L 331.654176 136.345867 
L 331.875643 137.757137 
L 332.314737 112.15318 
L 332.755111 104.767537 
L 332.974018 105.87172 
L 333.194205 99.797676 
L 333.414392 110.525328 
L 333.633299 102.620981 
L 333.852206 114.18239 
L 334.074953 110.763459 
L 334.2977 103.292928 
L 334.515327 131.035149 
L 334.739354 116.568058 
L 334.959541 114.099467 
L 335.181008 124.997275 
L 335.402476 117.104111 
L 335.622663 122.733154 
L 335.851811 145.812056 
L 336.071998 135.680302 
L 336.293465 140.087106 
L 336.513652 140.150444 
L 336.733839 140.677113 
L 337.176773 147.509737 
L 337.400801 158.101385 
L 337.623548 148.668639 
L 337.843735 144.509239 
L 338.286669 149.802281 
L 338.94979 160.716456 
L 339.168697 161.142199 
L 339.388884 157.837778 
L 339.611632 149.528418 
L 340.049445 124.139187 
L 340.269632 121.358435 
L 340.708726 104.129685 
L 340.962197 106.85441 
L 341.400011 126.839417 
L 341.621478 130.610279 
L 342.064412 161.537283 
L 342.280759 159.149268 
L 342.502226 168.033524 
L 342.9426 154.233144 
L 343.162787 150.65224 
L 343.382974 154.91382 
L 343.604441 166.149757 
L 343.828469 148.717083 
L 344.046095 155.206832 
L 344.266282 153.252308 
L 344.485189 165.002258 
L 344.705376 167.230045 
L 344.925563 177.243252 
L 345.587404 150.33697 
L 345.808871 150.147993 
L 346.027778 155.029912 
L 346.245405 153.078225 
L 346.466872 155.657016 
L 347.124873 140.839249 
L 347.34506 146.604296 
L 347.565247 160.013848 
L 347.785434 144.109409 
L 348.227088 134.980149 
L 348.448555 152.581179 
L 348.668742 143.594633 
L 348.891489 149.730487 
L 349.118077 152.509821 
L 349.778638 143.612691 
L 349.998825 146.909692 
L 350.44432 162.704095 
L 350.665787 159.068855 
L 350.884694 157.697137 
L 351.107441 150.545586 
L 351.327628 136.984209 
L 351.549095 139.864087 
L 351.769282 161.438812 
L 351.989469 162.415992 
L 352.209656 144.961496 
L 352.431123 151.483324 
L 352.65003 161.392986 
L 353.092964 134.008588 
L 353.314431 142.944343 
L 353.753525 148.31829 
L 353.974992 150.108878 
L 354.193899 156.163991 
L 354.414086 145.519916 
L 354.635553 145.143326 
L 354.85446 147.288464 
L 355.075927 140.017658 
L 355.296114 151.02512 
L 355.517581 151.448354 
L 355.739049 138.116379 
L 355.973317 137.618351 
L 356.413691 143.429551 
L 356.852785 133.294852 
L 357.072972 122.9595 
L 357.293159 131.046169 
L 357.514626 153.327266 
L 357.736093 138.350199 
L 357.95628 134.633019 
L 358.396654 147.676074 
L 358.839589 136.814599 
L 359.059776 144.696034 
L 359.279963 156.848323 
L 359.50015 141.341696 
L 359.720337 142.156958 
L 360.160711 133.997132 
L 360.380898 137.05944 
L 360.599804 149.935667 
L 361.041459 138.42243 
L 361.262926 125.553785 
L 361.481833 163.244893 
L 361.70202 146.805057 
L 362.365141 133.703628 
L 362.584048 138.461709 
L 362.805515 132.715428 
L 363.025702 118.871404 
L 363.247169 122.035893 
L 363.467356 127.881681 
L 363.687543 130.744428 
L 364.127917 128.631096 
L 364.348104 155.396518 
L 364.568291 156.450075 
L 364.789758 156.376372 
L 365.231412 141.586645 
L 365.452879 139.329125 
L 365.671786 135.623347 
L 365.890693 146.87194 
L 366.11088 148.759199 
L 366.558935 138.725643 
L 366.777842 154.747647 
L 366.996749 157.475154 
L 367.216936 152.112174 
L 367.437123 152.573705 
L 367.65859 158.922703 
L 368.096403 147.773836 
L 368.31659 156.024714 
L 368.536777 157.937067 
L 368.977151 129.472599 
L 369.198619 132.001855 
L 369.418806 132.544618 
L 369.637712 145.653357 
L 369.8643 130.160422 
L 370.085767 133.606794 
L 370.304674 143.538606 
L 370.524861 129.708275 
L 370.966515 158.095112 
L 371.186702 148.111364 
L 371.418411 147.762925 
L 371.637318 174.634838 
L 371.858785 176.515331 
L 372.081532 172.573714 
L 372.30812 179.565856 
L 372.745933 153.471999 
L 373.188868 157.885131 
L 373.409055 155.96885 
L 373.629242 163.319851 
L 374.51127 125.469771 
L 374.732737 125.482483 
L 374.952924 119.137194 
L 375.400979 151.307495 
L 375.623726 138.302355 
L 375.845193 149.06465 
L 376.06538 130.81404 
L 376.285567 138.011361 
L 376.507035 140.073413 
L 376.951249 146.583129 
L 377.172716 134.918175 
L 377.399304 134.800283 
L 377.620771 142.017462 
L 377.849919 135.893719 
L 378.070106 149.395959 
L 378.305655 155.899784 
L 378.525842 141.678297 
L 378.747309 138.311411 
L 378.972617 137.19468 
L 379.192804 142.331205 
L 379.436034 161.75381 
L 379.657501 146.718915 
L 379.876408 159.212497 
L 380.096595 152.459358 
L 380.316782 155.482933 
L 380.557451 151.74344 
L 380.778918 160.904996 
L 381.002946 147.792821 
L 381.223133 147.961776 
L 381.44716 138.045894 
L 381.667347 145.693563 
L 381.890094 133.425946 
L 382.111562 148.78784 
L 382.333029 148.025877 
L 382.553216 146.281715 
L 382.774683 146.176862 
L 382.99359 138.967702 
L 383.213777 147.776563 
L 383.433964 148.995475 
L 383.655431 143.323879 
L 383.874338 142.814395 
L 384.315992 126.776952 
L 384.536179 137.6968 
L 384.757646 142.147629 
L 384.980393 149.776859 
L 385.1993 149.365736 
L 385.639674 133.135825 
L 385.859861 132.82361 
L 386.081328 146.100758 
L 386.521702 124.389756 
L 386.740609 125.065959 
L 386.960796 132.734031 
L 387.180983 135.102788 
L 387.40245 135.301475 
L 387.842824 114.562525 
L 388.061731 123.836955 
L 388.284478 119.47134 
L 388.504665 125.813356 
L 388.726132 116.104236 
L 388.946319 128.546918 
L 389.166506 126.519673 
L 389.386693 122.617116 
L 389.608161 134.089165 
L 389.829628 137.5315 
L 390.051095 130.861939 
L 390.271282 130.297463 
L 390.491469 128.358814 
L 390.724457 134.627127 
L 390.942084 122.533321 
L 391.163551 118.942598 
L 391.386299 125.0365 
L 391.827953 142.557988 
L 392.272167 127.210878 
L 392.713821 140.708318 
L 392.935288 133.391795 
L 393.154195 131.894601 
L 393.375662 123.394027 
L 393.817317 133.212311 
L 394.038784 120.394348 
L 394.701905 101.119859 
L 394.923372 92.066429 
L 395.143559 113.335267 
L 395.363746 119.822998 
L 395.80028 138.650031 
L 396.015346 146.700967 
L 396.445479 141.267665 
L 396.661825 149.046865 
L 396.876892 149.053357 
L 397.091958 159.162307 
L 397.734597 159.138303 
L 397.949663 171.377715 
L 398.163449 173.532127 
L 398.807368 173.471408 
L 418.098053 173.367318 
L 420.243596 173.341296 
L 420.457382 173.464916 
L 423.885643 173.396232 
L 424.100709 171.82719 
L 424.318336 245.41429 
L 426.465159 245.356298 
L 449.39661 245.355044 
L 449.679525 250.182135 
L 450.756137 250.124089 
L 454.828316 250.096594 
L 455.255888 250.148966 
L 464.044166 250.106632 
L 464.689365 250.133909 
L 472.196205 250.030528 
L 474.122841 250.047768 
L 475.194332 250.096376 
L 475.194332 250.096376 
" clip-path="url(#pa5140d43dd)" style="fill: none; stroke: #029e73; stroke-width: 3; stroke-linecap: round"/>
   </g>
   <g id="patch_3">
    <path d="M 61.942969 258.9 
L 61.942969 7.2 
" style="fill: none; stroke: #cccccc; stroke-width: 2.5; stroke-linejoin: miter; stroke-linecap: square"/>
   </g>
   <g id="patch_4">
    <path d="M 61.942969 258.9 
L 494.872969 258.9 
" style="fill: none; stroke: #cccccc; stroke-width: 2.5; stroke-linejoin: miter; stroke-linecap: square"/>
   </g>
  </g>
 </g>
 <defs>
  <clipPath id="pa5140d43dd">
   <rect x="61.942969" y="7.2" width="432.93" height="251.7"/>
  </clipPath>
 </defs>
</svg>
