<?xml version="1.0" encoding="utf-8" standalone="no"?>
<!DOCTYPE svg PUBLIC "-//W3C//DTD SVG 1.1//EN"
  "http://www.w3.org/Graphics/SVG/1.1/DTD/svg11.dtd">
<svg xmlns:xlink="http://www.w3.org/1999/xlink" width="499.756875pt" height="315.389531pt" viewBox="0 0 499.756875 315.389531" xmlns="http://www.w3.org/2000/svg" version="1.1">
 <metadata>
  <rdf:RDF xmlns:dc="http://purl.org/dc/elements/1.1/" xmlns:cc="http://creativecommons.org/ns#" xmlns:rdf="http://www.w3.org/1999/02/22-rdf-syntax-ns#">
   <cc:Work>
    <dc:type rdf:resource="http://purl.org/dc/dcmitype/StillImage"/>
    <dc:date>2024-09-16T13:41:57.237674</dc:date>
    <dc:format>image/svg+xml</dc:format>
    <dc:creator>
     <cc:Agent>
      <dc:title>Matplotlib v3.8.4, https://matplotlib.org/</dc:title>
     </cc:Agent>
    </dc:creator>
   </cc:Work>
  </rdf:RDF>
 </metadata>
 <defs>
  <style type="text/css">*{stroke-linejoin: round; stroke-linecap: butt}</style>
 </defs>
 <g id="figure_1">
  <g id="patch_1">
   <path d="M 0 315.389531 
L 499.756875 315.389531 
L 499.756875 0 
L 0 0 
L 0 315.389531 
z
" style="fill: none"/>
  </g>
  <g id="axes_1">
   <g id="patch_2">
    <path d="M 65.116875 255.3 
L 492.556875 255.3 
L 492.556875 7.2 
L 65.116875 7.2 
z
" style="fill: #ffffff"/>
   </g>
   <g id="matplotlib.axis_1">
    <g id="xtick_1">
     <g id="line2d_1">
      <path d="M 84.545966 255.3 
L 84.545966 7.2 
" clip-path="url(#pae94d9622d)" style="fill: none; stroke: #cccccc; stroke-width: 2; stroke-linecap: round"/>
     </g>
     <g id="text_1">
      <!-- 0 -->
      <g style="fill: #262626" transform="translate(79.296903 283.337422) scale(0.165 -0.165)">
       <defs>
        <path id="DejaVuSans-30" d="M 2034 4250 
Q 1547 4250 1301 3770 
Q 1056 3291 1056 2328 
Q 1056 1369 1301 889 
Q 1547 409 2034 409 
Q 2525 409 2770 889 
Q 3016 1369 3016 2328 
Q 3016 3291 2770 3770 
Q 2525 4250 2034 4250 
z
M 2034 4750 
Q 2819 4750 3233 4129 
Q 3647 3509 3647 2328 
Q 3647 1150 3233 529 
Q 2819 -91 2034 -91 
Q 1250 -91 836 529 
Q 422 1150 422 2328 
Q 422 3509 836 4129 
Q 1250 4750 2034 4750 
z
" transform="scale(0.015625)"/>
       </defs>
       <use xlink:href="#DejaVuSans-30"/>
      </g>
     </g>
    </g>
    <g id="xtick_2">
     <g id="line2d_2">
      <path d="M 147.545816 255.3 
L 147.545816 7.2 
" clip-path="url(#pae94d9622d)" style="fill: none; stroke: #cccccc; stroke-width: 2; stroke-linecap: round"/>
     </g>
     <g id="text_2">
      <!-- 500 -->
      <g style="fill: #262626" transform="translate(131.798629 283.337422) scale(0.165 -0.165)">
       <defs>
        <path id="DejaVuSans-35" d="M 691 4666 
L 3169 4666 
L 3169 4134 
L 1269 4134 
L 1269 2991 
Q 1406 3038 1543 3061 
Q 1681 3084 1819 3084 
Q 2600 3084 3056 2656 
Q 3513 2228 3513 1497 
Q 3513 744 3044 326 
Q 2575 -91 1722 -91 
Q 1428 -91 1123 -41 
Q 819 9 494 109 
L 494 744 
Q 775 591 1075 516 
Q 1375 441 1709 441 
Q 2250 441 2565 725 
Q 2881 1009 2881 1497 
Q 2881 1984 2565 2268 
Q 2250 2553 1709 2553 
Q 1456 2553 1204 2497 
Q 953 2441 691 2322 
L 691 4666 
z
" transform="scale(0.015625)"/>
       </defs>
       <use xlink:href="#DejaVuSans-35"/>
       <use xlink:href="#DejaVuSans-30" x="63.623047"/>
       <use xlink:href="#DejaVuSans-30" x="127.246094"/>
      </g>
     </g>
    </g>
    <g id="xtick_3">
     <g id="line2d_3">
      <path d="M 210.545667 255.3 
L 210.545667 7.2 
" clip-path="url(#pae94d9622d)" style="fill: none; stroke: #cccccc; stroke-width: 2; stroke-linecap: round"/>
     </g>
     <g id="text_3">
      <!-- 1000 -->
      <g style="fill: #262626" transform="translate(189.549417 283.337422) scale(0.165 -0.165)">
       <defs>
        <path id="DejaVuSans-31" d="M 794 531 
L 1825 531 
L 1825 4091 
L 703 3866 
L 703 4441 
L 1819 4666 
L 2450 4666 
L 2450 531 
L 3481 531 
L 3481 0 
L 794 0 
L 794 531 
z
" transform="scale(0.015625)"/>
       </defs>
       <use xlink:href="#DejaVuSans-31"/>
       <use xlink:href="#DejaVuSans-30" x="63.623047"/>
       <use xlink:href="#DejaVuSans-30" x="127.246094"/>
       <use xlink:href="#DejaVuSans-30" x="190.869141"/>
      </g>
     </g>
    </g>
    <g id="xtick_4">
     <g id="line2d_4">
      <path d="M 273.545518 255.3 
L 273.545518 7.2 
" clip-path="url(#pae94d9622d)" style="fill: none; stroke: #cccccc; stroke-width: 2; stroke-linecap: round"/>
     </g>
     <g id="text_4">
      <!-- 1500 -->
      <g style="fill: #262626" transform="translate(252.549268 283.337422) scale(0.165 -0.165)">
       <use xlink:href="#DejaVuSans-31"/>
       <use xlink:href="#DejaVuSans-35" x="63.623047"/>
       <use xlink:href="#DejaVuSans-30" x="127.246094"/>
       <use xlink:href="#DejaVuSans-30" x="190.869141"/>
      </g>
     </g>
    </g>
    <g id="xtick_5">
     <g id="line2d_5">
      <path d="M 336.545368 255.3 
L 336.545368 7.2 
" clip-path="url(#pae94d9622d)" style="fill: none; stroke: #cccccc; stroke-width: 2; stroke-linecap: round"/>
     </g>
     <g id="text_5">
      <!-- 2000 -->
      <g style="fill: #262626" transform="translate(315.549118 283.337422) scale(0.165 -0.165)">
       <defs>
        <path id="DejaVuSans-32" d="M 1228 531 
L 3431 531 
L 3431 0 
L 469 0 
L 469 531 
Q 828 903 1448 1529 
Q 2069 2156 2228 2338 
Q 2531 2678 2651 2914 
Q 2772 3150 2772 3378 
Q 2772 3750 2511 3984 
Q 2250 4219 1831 4219 
Q 1534 4219 1204 4116 
Q 875 4013 500 3803 
L 500 4441 
Q 881 4594 1212 4672 
Q 1544 4750 1819 4750 
Q 2544 4750 2975 4387 
Q 3406 4025 3406 3419 
Q 3406 3131 3298 2873 
Q 3191 2616 2906 2266 
Q 2828 2175 2409 1742 
Q 1991 1309 1228 531 
z
" transform="scale(0.015625)"/>
       </defs>
       <use xlink:href="#DejaVuSans-32"/>
       <use xlink:href="#DejaVuSans-30" x="63.623047"/>
       <use xlink:href="#DejaVuSans-30" x="127.246094"/>
       <use xlink:href="#DejaVuSans-30" x="190.869141"/>
      </g>
     </g>
    </g>
    <g id="xtick_6">
     <g id="line2d_6">
      <path d="M 399.545219 255.3 
L 399.545219 7.2 
" clip-path="url(#pae94d9622d)" style="fill: none; stroke: #cccccc; stroke-width: 2; stroke-linecap: round"/>
     </g>
     <g id="text_6">
      <!-- 2500 -->
      <g style="fill: #262626" transform="translate(378.548969 283.337422) scale(0.165 -0.165)">
       <use xlink:href="#DejaVuSans-32"/>
       <use xlink:href="#DejaVuSans-35" x="63.623047"/>
       <use xlink:href="#DejaVuSans-30" x="127.246094"/>
       <use xlink:href="#DejaVuSans-30" x="190.869141"/>
      </g>
     </g>
    </g>
    <g id="xtick_7">
     <g id="line2d_7">
      <path d="M 462.545069 255.3 
L 462.545069 7.2 
" clip-path="url(#pae94d9622d)" style="fill: none; stroke: #cccccc; stroke-width: 2; stroke-linecap: round"/>
     </g>
     <g id="text_7">
      <!-- 3000 -->
      <g style="fill: #262626" transform="translate(441.548819 283.337422) scale(0.165 -0.165)">
       <defs>
        <path id="DejaVuSans-33" d="M 2597 2516 
Q 3050 2419 3304 2112 
Q 3559 1806 3559 1356 
Q 3559 666 3084 287 
Q 2609 -91 1734 -91 
Q 1441 -91 1130 -33 
Q 819 25 488 141 
L 488 750 
Q 750 597 1062 519 
Q 1375 441 1716 441 
Q 2309 441 2620 675 
Q 2931 909 2931 1356 
Q 2931 1769 2642 2001 
Q 2353 2234 1838 2234 
L 1294 2234 
L 1294 2753 
L 1863 2753 
Q 2328 2753 2575 2939 
Q 2822 3125 2822 3475 
Q 2822 3834 2567 4026 
Q 2313 4219 1838 4219 
Q 1578 4219 1281 4162 
Q 984 4106 628 3988 
L 628 4550 
Q 988 4650 1302 4700 
Q 1616 4750 1894 4750 
Q 2613 4750 3031 4423 
Q 3450 4097 3450 3541 
Q 3450 3153 3228 2886 
Q 3006 2619 2597 2516 
z
" transform="scale(0.015625)"/>
       </defs>
       <use xlink:href="#DejaVuSans-33"/>
       <use xlink:href="#DejaVuSans-30" x="63.623047"/>
       <use xlink:href="#DejaVuSans-30" x="127.246094"/>
       <use xlink:href="#DejaVuSans-30" x="190.869141"/>
      </g>
     </g>
    </g>
    <g id="text_8">
     <!-- Time [seconds] -->
     <g style="fill: #262626" transform="translate(210.145781 304.446094) scale(0.18 -0.18)">
      <defs>
       <path id="DejaVuSans-54" d="M -19 4666 
L 3928 4666 
L 3928 4134 
L 2272 4134 
L 2272 0 
L 1638 0 
L 1638 4134 
L -19 4134 
L -19 4666 
z
" transform="scale(0.015625)"/>
       <path id="DejaVuSans-69" d="M 603 3500 
L 1178 3500 
L 1178 0 
L 603 0 
L 603 3500 
z
M 603 4863 
L 1178 4863 
L 1178 4134 
L 603 4134 
L 603 4863 
z
" transform="scale(0.015625)"/>
       <path id="DejaVuSans-6d" d="M 3328 2828 
Q 3544 3216 3844 3400 
Q 4144 3584 4550 3584 
Q 5097 3584 5394 3201 
Q 5691 2819 5691 2113 
L 5691 0 
L 5113 0 
L 5113 2094 
Q 5113 2597 4934 2840 
Q 4756 3084 4391 3084 
Q 3944 3084 3684 2787 
Q 3425 2491 3425 1978 
L 3425 0 
L 2847 0 
L 2847 2094 
Q 2847 2600 2669 2842 
Q 2491 3084 2119 3084 
Q 1678 3084 1418 2786 
Q 1159 2488 1159 1978 
L 1159 0 
L 581 0 
L 581 3500 
L 1159 3500 
L 1159 2956 
Q 1356 3278 1631 3431 
Q 1906 3584 2284 3584 
Q 2666 3584 2933 3390 
Q 3200 3197 3328 2828 
z
" transform="scale(0.015625)"/>
       <path id="DejaVuSans-65" d="M 3597 1894 
L 3597 1613 
L 953 1613 
Q 991 1019 1311 708 
Q 1631 397 2203 397 
Q 2534 397 2845 478 
Q 3156 559 3463 722 
L 3463 178 
Q 3153 47 2828 -22 
Q 2503 -91 2169 -91 
Q 1331 -91 842 396 
Q 353 884 353 1716 
Q 353 2575 817 3079 
Q 1281 3584 2069 3584 
Q 2775 3584 3186 3129 
Q 3597 2675 3597 1894 
z
M 3022 2063 
Q 3016 2534 2758 2815 
Q 2500 3097 2075 3097 
Q 1594 3097 1305 2825 
Q 1016 2553 972 2059 
L 3022 2063 
z
" transform="scale(0.015625)"/>
       <path id="DejaVuSans-20" transform="scale(0.015625)"/>
       <path id="DejaVuSans-5b" d="M 550 4863 
L 1875 4863 
L 1875 4416 
L 1125 4416 
L 1125 -397 
L 1875 -397 
L 1875 -844 
L 550 -844 
L 550 4863 
z
" transform="scale(0.015625)"/>
       <path id="DejaVuSans-73" d="M 2834 3397 
L 2834 2853 
Q 2591 2978 2328 3040 
Q 2066 3103 1784 3103 
Q 1356 3103 1142 2972 
Q 928 2841 928 2578 
Q 928 2378 1081 2264 
Q 1234 2150 1697 2047 
L 1894 2003 
Q 2506 1872 2764 1633 
Q 3022 1394 3022 966 
Q 3022 478 2636 193 
Q 2250 -91 1575 -91 
Q 1294 -91 989 -36 
Q 684 19 347 128 
L 347 722 
Q 666 556 975 473 
Q 1284 391 1588 391 
Q 1994 391 2212 530 
Q 2431 669 2431 922 
Q 2431 1156 2273 1281 
Q 2116 1406 1581 1522 
L 1381 1569 
Q 847 1681 609 1914 
Q 372 2147 372 2553 
Q 372 3047 722 3315 
Q 1072 3584 1716 3584 
Q 2034 3584 2315 3537 
Q 2597 3491 2834 3397 
z
" transform="scale(0.015625)"/>
       <path id="DejaVuSans-63" d="M 3122 3366 
L 3122 2828 
Q 2878 2963 2633 3030 
Q 2388 3097 2138 3097 
Q 1578 3097 1268 2742 
Q 959 2388 959 1747 
Q 959 1106 1268 751 
Q 1578 397 2138 397 
Q 2388 397 2633 464 
Q 2878 531 3122 666 
L 3122 134 
Q 2881 22 2623 -34 
Q 2366 -91 2075 -91 
Q 1284 -91 818 406 
Q 353 903 353 1747 
Q 353 2603 823 3093 
Q 1294 3584 2113 3584 
Q 2378 3584 2631 3529 
Q 2884 3475 3122 3366 
z
" transform="scale(0.015625)"/>
       <path id="DejaVuSans-6f" d="M 1959 3097 
Q 1497 3097 1228 2736 
Q 959 2375 959 1747 
Q 959 1119 1226 758 
Q 1494 397 1959 397 
Q 2419 397 2687 759 
Q 2956 1122 2956 1747 
Q 2956 2369 2687 2733 
Q 2419 3097 1959 3097 
z
M 1959 3584 
Q 2709 3584 3137 3096 
Q 3566 2609 3566 1747 
Q 3566 888 3137 398 
Q 2709 -91 1959 -91 
Q 1206 -91 779 398 
Q 353 888 353 1747 
Q 353 2609 779 3096 
Q 1206 3584 1959 3584 
z
" transform="scale(0.015625)"/>
       <path id="DejaVuSans-6e" d="M 3513 2113 
L 3513 0 
L 2938 0 
L 2938 2094 
Q 2938 2591 2744 2837 
Q 2550 3084 2163 3084 
Q 1697 3084 1428 2787 
Q 1159 2491 1159 1978 
L 1159 0 
L 581 0 
L 581 3500 
L 1159 3500 
L 1159 2956 
Q 1366 3272 1645 3428 
Q 1925 3584 2291 3584 
Q 2894 3584 3203 3211 
Q 3513 2838 3513 2113 
z
" transform="scale(0.015625)"/>
       <path id="DejaVuSans-64" d="M 2906 2969 
L 2906 4863 
L 3481 4863 
L 3481 0 
L 2906 0 
L 2906 525 
Q 2725 213 2448 61 
Q 2172 -91 1784 -91 
Q 1150 -91 751 415 
Q 353 922 353 1747 
Q 353 2572 751 3078 
Q 1150 3584 1784 3584 
Q 2172 3584 2448 3432 
Q 2725 3281 2906 2969 
z
M 947 1747 
Q 947 1113 1208 752 
Q 1469 391 1925 391 
Q 2381 391 2643 752 
Q 2906 1113 2906 1747 
Q 2906 2381 2643 2742 
Q 2381 3103 1925 3103 
Q 1469 3103 1208 2742 
Q 947 2381 947 1747 
z
" transform="scale(0.015625)"/>
       <path id="DejaVuSans-5d" d="M 1947 4863 
L 1947 -844 
L 622 -844 
L 622 -397 
L 1369 -397 
L 1369 4416 
L 622 4416 
L 622 4863 
L 1947 4863 
z
" transform="scale(0.015625)"/>
      </defs>
      <use xlink:href="#DejaVuSans-54"/>
      <use xlink:href="#DejaVuSans-69" x="57.958984"/>
      <use xlink:href="#DejaVuSans-6d" x="85.742188"/>
      <use xlink:href="#DejaVuSans-65" x="183.154297"/>
      <use xlink:href="#DejaVuSans-20" x="244.677734"/>
      <use xlink:href="#DejaVuSans-5b" x="276.464844"/>
      <use xlink:href="#DejaVuSans-73" x="315.478516"/>
      <use xlink:href="#DejaVuSans-65" x="367.578125"/>
      <use xlink:href="#DejaVuSans-63" x="429.101562"/>
      <use xlink:href="#DejaVuSans-6f" x="484.082031"/>
      <use xlink:href="#DejaVuSans-6e" x="545.263672"/>
      <use xlink:href="#DejaVuSans-64" x="608.642578"/>
      <use xlink:href="#DejaVuSans-73" x="672.119141"/>
      <use xlink:href="#DejaVuSans-5d" x="724.21875"/>
     </g>
    </g>
   </g>
   <g id="matplotlib.axis_2">
    <g id="ytick_1">
     <g id="line2d_8">
      <path d="M 65.116875 255.3 
L 492.556875 255.3 
" clip-path="url(#pae94d9622d)" style="fill: none; stroke: #cccccc; stroke-width: 2; stroke-linecap: round"/>
     </g>
     <g id="text_9">
      <!-- 0 -->
      <g style="fill: #262626" transform="translate(39.11875 261.568711) scale(0.165 -0.165)">
       <use xlink:href="#DejaVuSans-30"/>
      </g>
     </g>
    </g>
    <g id="ytick_2">
     <g id="line2d_9">
      <path d="M 65.116875 227.106818 
L 492.556875 227.106818 
" clip-path="url(#pae94d9622d)" style="fill: none; stroke: #cccccc; stroke-width: 2; stroke-linecap: round"/>
     </g>
     <g id="text_10">
      <!-- 2 -->
      <g style="fill: #262626" transform="translate(39.11875 233.375529) scale(0.165 -0.165)">
       <use xlink:href="#DejaVuSans-32"/>
      </g>
     </g>
    </g>
    <g id="ytick_3">
     <g id="line2d_10">
      <path d="M 65.116875 198.913636 
L 492.556875 198.913636 
" clip-path="url(#pae94d9622d)" style="fill: none; stroke: #cccccc; stroke-width: 2; stroke-linecap: round"/>
     </g>
     <g id="text_11">
      <!-- 4 -->
      <g style="fill: #262626" transform="translate(39.11875 205.182347) scale(0.165 -0.165)">
       <defs>
        <path id="DejaVuSans-34" d="M 2419 4116 
L 825 1625 
L 2419 1625 
L 2419 4116 
z
M 2253 4666 
L 3047 4666 
L 3047 1625 
L 3713 1625 
L 3713 1100 
L 3047 1100 
L 3047 0 
L 2419 0 
L 2419 1100 
L 313 1100 
L 313 1709 
L 2253 4666 
z
" transform="scale(0.015625)"/>
       </defs>
       <use xlink:href="#DejaVuSans-34"/>
      </g>
     </g>
    </g>
    <g id="ytick_4">
     <g id="line2d_11">
      <path d="M 65.116875 170.720455 
L 492.556875 170.720455 
" clip-path="url(#pae94d9622d)" style="fill: none; stroke: #cccccc; stroke-width: 2; stroke-linecap: round"/>
     </g>
     <g id="text_12">
      <!-- 6 -->
      <g style="fill: #262626" transform="translate(39.11875 176.989165) scale(0.165 -0.165)">
       <defs>
        <path id="DejaVuSans-36" d="M 2113 2584 
Q 1688 2584 1439 2293 
Q 1191 2003 1191 1497 
Q 1191 994 1439 701 
Q 1688 409 2113 409 
Q 2538 409 2786 701 
Q 3034 994 3034 1497 
Q 3034 2003 2786 2293 
Q 2538 2584 2113 2584 
z
M 3366 4563 
L 3366 3988 
Q 3128 4100 2886 4159 
Q 2644 4219 2406 4219 
Q 1781 4219 1451 3797 
Q 1122 3375 1075 2522 
Q 1259 2794 1537 2939 
Q 1816 3084 2150 3084 
Q 2853 3084 3261 2657 
Q 3669 2231 3669 1497 
Q 3669 778 3244 343 
Q 2819 -91 2113 -91 
Q 1303 -91 875 529 
Q 447 1150 447 2328 
Q 447 3434 972 4092 
Q 1497 4750 2381 4750 
Q 2619 4750 2861 4703 
Q 3103 4656 3366 4563 
z
" transform="scale(0.015625)"/>
       </defs>
       <use xlink:href="#DejaVuSans-36"/>
      </g>
     </g>
    </g>
    <g id="ytick_5">
     <g id="line2d_12">
      <path d="M 65.116875 142.527273 
L 492.556875 142.527273 
" clip-path="url(#pae94d9622d)" style="fill: none; stroke: #cccccc; stroke-width: 2; stroke-linecap: round"/>
     </g>
     <g id="text_13">
      <!-- 8 -->
      <g style="fill: #262626" transform="translate(39.11875 148.795984) scale(0.165 -0.165)">
       <defs>
        <path id="DejaVuSans-38" d="M 2034 2216 
Q 1584 2216 1326 1975 
Q 1069 1734 1069 1313 
Q 1069 891 1326 650 
Q 1584 409 2034 409 
Q 2484 409 2743 651 
Q 3003 894 3003 1313 
Q 3003 1734 2745 1975 
Q 2488 2216 2034 2216 
z
M 1403 2484 
Q 997 2584 770 2862 
Q 544 3141 544 3541 
Q 544 4100 942 4425 
Q 1341 4750 2034 4750 
Q 2731 4750 3128 4425 
Q 3525 4100 3525 3541 
Q 3525 3141 3298 2862 
Q 3072 2584 2669 2484 
Q 3125 2378 3379 2068 
Q 3634 1759 3634 1313 
Q 3634 634 3220 271 
Q 2806 -91 2034 -91 
Q 1263 -91 848 271 
Q 434 634 434 1313 
Q 434 1759 690 2068 
Q 947 2378 1403 2484 
z
M 1172 3481 
Q 1172 3119 1398 2916 
Q 1625 2713 2034 2713 
Q 2441 2713 2670 2916 
Q 2900 3119 2900 3481 
Q 2900 3844 2670 4047 
Q 2441 4250 2034 4250 
Q 1625 4250 1398 4047 
Q 1172 3844 1172 3481 
z
" transform="scale(0.015625)"/>
       </defs>
       <use xlink:href="#DejaVuSans-38"/>
      </g>
     </g>
    </g>
    <g id="ytick_6">
     <g id="line2d_13">
      <path d="M 65.116875 114.334091 
L 492.556875 114.334091 
" clip-path="url(#pae94d9622d)" style="fill: none; stroke: #cccccc; stroke-width: 2; stroke-linecap: round"/>
     </g>
     <g id="text_14">
      <!-- 10 -->
      <g style="fill: #262626" transform="translate(28.620625 120.602802) scale(0.165 -0.165)">
       <use xlink:href="#DejaVuSans-31"/>
       <use xlink:href="#DejaVuSans-30" x="63.623047"/>
      </g>
     </g>
    </g>
    <g id="ytick_7">
     <g id="line2d_14">
      <path d="M 65.116875 86.140909 
L 492.556875 86.140909 
" clip-path="url(#pae94d9622d)" style="fill: none; stroke: #cccccc; stroke-width: 2; stroke-linecap: round"/>
     </g>
     <g id="text_15">
      <!-- 12 -->
      <g style="fill: #262626" transform="translate(28.620625 92.40962) scale(0.165 -0.165)">
       <use xlink:href="#DejaVuSans-31"/>
       <use xlink:href="#DejaVuSans-32" x="63.623047"/>
      </g>
     </g>
    </g>
    <g id="ytick_8">
     <g id="line2d_15">
      <path d="M 65.116875 57.947727 
L 492.556875 57.947727 
" clip-path="url(#pae94d9622d)" style="fill: none; stroke: #cccccc; stroke-width: 2; stroke-linecap: round"/>
     </g>
     <g id="text_16">
      <!-- 14 -->
      <g style="fill: #262626" transform="translate(28.620625 64.216438) scale(0.165 -0.165)">
       <use xlink:href="#DejaVuSans-31"/>
       <use xlink:href="#DejaVuSans-34" x="63.623047"/>
      </g>
     </g>
    </g>
    <g id="ytick_9">
     <g id="line2d_16">
      <path d="M 65.116875 29.754545 
L 492.556875 29.754545 
" clip-path="url(#pae94d9622d)" style="fill: none; stroke: #cccccc; stroke-width: 2; stroke-linecap: round"/>
     </g>
     <g id="text_17">
      <!-- 16 -->
      <g style="fill: #262626" transform="translate(28.620625 36.023256) scale(0.165 -0.165)">
       <use xlink:href="#DejaVuSans-31"/>
       <use xlink:href="#DejaVuSans-36" x="63.623047"/>
      </g>
     </g>
    </g>
    <g id="text_18">
     <!-- Memory consumption [GiB] -->
     <g style="fill: #262626" transform="translate(20.877188 254.51625) rotate(-90) scale(0.18 -0.18)">
      <defs>
       <path id="DejaVuSans-4d" d="M 628 4666 
L 1569 4666 
L 2759 1491 
L 3956 4666 
L 4897 4666 
L 4897 0 
L 4281 0 
L 4281 4097 
L 3078 897 
L 2444 897 
L 1241 4097 
L 1241 0 
L 628 0 
L 628 4666 
z
" transform="scale(0.015625)"/>
       <path id="DejaVuSans-72" d="M 2631 2963 
Q 2534 3019 2420 3045 
Q 2306 3072 2169 3072 
Q 1681 3072 1420 2755 
Q 1159 2438 1159 1844 
L 1159 0 
L 581 0 
L 581 3500 
L 1159 3500 
L 1159 2956 
Q 1341 3275 1631 3429 
Q 1922 3584 2338 3584 
Q 2397 3584 2469 3576 
Q 2541 3569 2628 3553 
L 2631 2963 
z
" transform="scale(0.015625)"/>
       <path id="DejaVuSans-79" d="M 2059 -325 
Q 1816 -950 1584 -1140 
Q 1353 -1331 966 -1331 
L 506 -1331 
L 506 -850 
L 844 -850 
Q 1081 -850 1212 -737 
Q 1344 -625 1503 -206 
L 1606 56 
L 191 3500 
L 800 3500 
L 1894 763 
L 2988 3500 
L 3597 3500 
L 2059 -325 
z
" transform="scale(0.015625)"/>
       <path id="DejaVuSans-75" d="M 544 1381 
L 544 3500 
L 1119 3500 
L 1119 1403 
Q 1119 906 1312 657 
Q 1506 409 1894 409 
Q 2359 409 2629 706 
Q 2900 1003 2900 1516 
L 2900 3500 
L 3475 3500 
L 3475 0 
L 2900 0 
L 2900 538 
Q 2691 219 2414 64 
Q 2138 -91 1772 -91 
Q 1169 -91 856 284 
Q 544 659 544 1381 
z
M 1991 3584 
L 1991 3584 
z
" transform="scale(0.015625)"/>
       <path id="DejaVuSans-70" d="M 1159 525 
L 1159 -1331 
L 581 -1331 
L 581 3500 
L 1159 3500 
L 1159 2969 
Q 1341 3281 1617 3432 
Q 1894 3584 2278 3584 
Q 2916 3584 3314 3078 
Q 3713 2572 3713 1747 
Q 3713 922 3314 415 
Q 2916 -91 2278 -91 
Q 1894 -91 1617 61 
Q 1341 213 1159 525 
z
M 3116 1747 
Q 3116 2381 2855 2742 
Q 2594 3103 2138 3103 
Q 1681 3103 1420 2742 
Q 1159 2381 1159 1747 
Q 1159 1113 1420 752 
Q 1681 391 2138 391 
Q 2594 391 2855 752 
Q 3116 1113 3116 1747 
z
" transform="scale(0.015625)"/>
       <path id="DejaVuSans-74" d="M 1172 4494 
L 1172 3500 
L 2356 3500 
L 2356 3053 
L 1172 3053 
L 1172 1153 
Q 1172 725 1289 603 
Q 1406 481 1766 481 
L 2356 481 
L 2356 0 
L 1766 0 
Q 1100 0 847 248 
Q 594 497 594 1153 
L 594 3053 
L 172 3053 
L 172 3500 
L 594 3500 
L 594 4494 
L 1172 4494 
z
" transform="scale(0.015625)"/>
       <path id="DejaVuSans-47" d="M 3809 666 
L 3809 1919 
L 2778 1919 
L 2778 2438 
L 4434 2438 
L 4434 434 
Q 4069 175 3628 42 
Q 3188 -91 2688 -91 
Q 1594 -91 976 548 
Q 359 1188 359 2328 
Q 359 3472 976 4111 
Q 1594 4750 2688 4750 
Q 3144 4750 3555 4637 
Q 3966 4525 4313 4306 
L 4313 3634 
Q 3963 3931 3569 4081 
Q 3175 4231 2741 4231 
Q 1884 4231 1454 3753 
Q 1025 3275 1025 2328 
Q 1025 1384 1454 906 
Q 1884 428 2741 428 
Q 3075 428 3337 486 
Q 3600 544 3809 666 
z
" transform="scale(0.015625)"/>
       <path id="DejaVuSans-42" d="M 1259 2228 
L 1259 519 
L 2272 519 
Q 2781 519 3026 730 
Q 3272 941 3272 1375 
Q 3272 1813 3026 2020 
Q 2781 2228 2272 2228 
L 1259 2228 
z
M 1259 4147 
L 1259 2741 
L 2194 2741 
Q 2656 2741 2882 2914 
Q 3109 3088 3109 3444 
Q 3109 3797 2882 3972 
Q 2656 4147 2194 4147 
L 1259 4147 
z
M 628 4666 
L 2241 4666 
Q 2963 4666 3353 4366 
Q 3744 4066 3744 3513 
Q 3744 3084 3544 2831 
Q 3344 2578 2956 2516 
Q 3422 2416 3680 2098 
Q 3938 1781 3938 1306 
Q 3938 681 3513 340 
Q 3088 0 2303 0 
L 628 0 
L 628 4666 
z
" transform="scale(0.015625)"/>
      </defs>
      <use xlink:href="#DejaVuSans-4d"/>
      <use xlink:href="#DejaVuSans-65" x="86.279297"/>
      <use xlink:href="#DejaVuSans-6d" x="147.802734"/>
      <use xlink:href="#DejaVuSans-6f" x="245.214844"/>
      <use xlink:href="#DejaVuSans-72" x="306.396484"/>
      <use xlink:href="#DejaVuSans-79" x="347.509766"/>
      <use xlink:href="#DejaVuSans-20" x="406.689453"/>
      <use xlink:href="#DejaVuSans-63" x="438.476562"/>
      <use xlink:href="#DejaVuSans-6f" x="493.457031"/>
      <use xlink:href="#DejaVuSans-6e" x="554.638672"/>
      <use xlink:href="#DejaVuSans-73" x="618.017578"/>
      <use xlink:href="#DejaVuSans-75" x="670.117188"/>
      <use xlink:href="#DejaVuSans-6d" x="733.496094"/>
      <use xlink:href="#DejaVuSans-70" x="830.908203"/>
      <use xlink:href="#DejaVuSans-74" x="894.384766"/>
      <use xlink:href="#DejaVuSans-69" x="933.59375"/>
      <use xlink:href="#DejaVuSans-6f" x="961.376953"/>
      <use xlink:href="#DejaVuSans-6e" x="1022.558594"/>
      <use xlink:href="#DejaVuSans-20" x="1085.9375"/>
      <use xlink:href="#DejaVuSans-5b" x="1117.724609"/>
      <use xlink:href="#DejaVuSans-47" x="1156.738281"/>
      <use xlink:href="#DejaVuSans-69" x="1234.228516"/>
      <use xlink:href="#DejaVuSans-42" x="1262.011719"/>
      <use xlink:href="#DejaVuSans-5d" x="1330.615234"/>
     </g>
    </g>
   </g>
   <g id="PolyCollection_1"/>
   <g id="PolyCollection_2"/>
   <g id="line2d_17">
    <path d="M 84.545966 29.754545 
L 473.127784 29.754545 
L 473.127784 29.754545 
" clip-path="url(#pae94d9622d)" style="fill: none; stroke: #0173b2; stroke-width: 3; stroke-linecap: round"/>
   </g>
   <g id="line2d_18">
    <path d="M 84.545966 246.352668 
L 84.630386 246.241516 
L 85.057525 227.339392 
L 85.323384 231.290776 
L 85.546404 229.066028 
L 85.766903 223.328211 
L 85.984882 233.018488 
L 86.202862 225.85119 
L 86.420841 226.992172 
L 86.660241 225.434494 
L 86.88578 228.669013 
L 87.317959 225.583502 
L 87.534679 226.236966 
L 87.968118 214.920234 
L 88.417937 209.591853 
L 88.647256 202.461176 
L 88.863976 199.98541 
L 89.080695 204.642958 
L 89.515394 197.853262 
L 89.732114 205.494257 
L 89.950093 206.760856 
L 90.383532 194.616054 
L 90.600252 207.821767 
L 90.818231 207.944588 
L 91.034951 204.907473 
L 91.25545 209.269585 
L 91.473429 215.833589 
L 91.909388 208.288743 
L 92.138708 208.989098 
L 92.582227 216.99963 
L 93.044646 209.802487 
L 93.528485 222.656463 
L 93.748984 218.062746 
L 93.965704 220.878956 
L 94.181163 213.659282 
L 94.400403 211.482609 
L 94.617122 213.615402 
L 95.053081 196.476481 
L 95.2698 190.682738 
L 95.48904 192.405879 
L 95.707019 196.344089 
L 95.923739 193.31219 
L 96.139198 201.270937 
L 96.572637 186.978716 
L 97.007336 212.26454 
L 97.227836 201.887136 
L 97.443295 204.702701 
L 97.661275 204.349619 
L 97.879254 207.997555 
L 98.098494 208.042134 
L 98.531933 196.635115 
L 98.751172 198.444833 
L 98.967892 194.66316 
L 99.185871 188.371576 
L 99.403851 191.868083 
L 99.87761 186.927469 
L 100.096849 189.957162 
L 100.346328 195.305816 
L 100.597068 192.299191 
L 100.812527 193.247231 
L 101.030507 193.254974 
L 101.245966 187.22683 
L 101.463946 198.628418 
L 101.681925 197.547986 
L 101.899905 187.337551 
L 102.116624 199.254404 
L 102.333344 195.592809 
L 102.550063 184.360395 
L 102.769303 188.25424 
L 102.984762 184.524783 
L 103.201482 188.917492 
L 103.416941 185.378986 
L 103.633661 186.005563 
L 103.84912 204.336713 
L 104.06836 198.154075 
L 104.285079 214.746059 
L 104.936498 183.822652 
L 105.153217 183.596854 
L 105.369937 186.210443 
L 105.586656 196.094684 
L 106.020095 182.56283 
L 106.238074 202.246455 
L 106.672773 186.610954 
L 106.885713 188.756115 
L 107.102432 184.97783 
L 107.317892 198.20387 
L 107.748811 184.013067 
L 107.96553 186.473937 
L 108.18225 181.50821 
L 108.400229 184.376957 
L 108.628289 175.297609 
L 108.846268 189.1413 
L 109.064248 191.939012 
L 109.296087 200.4704 
L 109.514067 193.404198 
L 109.766066 193.391346 
L 109.979006 195.497521 
L 110.195725 193.093652 
L 110.412445 196.11942 
L 110.629164 188.088831 
L 110.873603 189.322842 
L 111.089063 199.37147 
L 111.308302 192.136524 
L 111.525022 198.246137 
L 111.741741 198.889814 
L 111.958461 198.970476 
L 112.17644 200.441255 
L 113.062218 189.006273 
L 113.281458 187.611853 
L 113.498177 186.990761 
L 113.714897 197.708018 
L 113.931616 192.205086 
L 114.148336 202.203221 
L 114.366315 200.074407 
L 114.583035 191.489405 
L 114.799754 192.076996 
L 115.016474 194.573949 
L 115.233193 187.238929 
L 115.451173 194.013299 
L 115.667892 191.292108 
L 115.883352 178.470826 
L 116.098811 176.826142 
L 116.316791 165.545223 
L 116.53477 168.208607 
L 116.75149 160.070576 
L 116.968209 176.551355 
L 117.187448 181.511275 
L 117.406688 175.823306 
L 117.622147 164.239208 
L 117.840127 173.402659 
L 118.056846 170.577469 
L 118.271046 170.605647 
L 118.485245 174.953615 
L 118.701965 163.689958 
L 118.918684 160.536261 
L 119.135404 159.7368 
L 119.353383 160.230125 
L 119.568843 167.237444 
L 119.786822 163.755563 
L 120.002282 154.816942 
L 120.219001 157.039108 
L 120.435721 164.067561 
L 120.65244 152.095536 
L 120.87042 151.884311 
L 121.085879 153.479254 
L 121.302599 173.783488 
L 121.520578 168.246033 
L 121.737298 195.572106 
L 121.956537 193.704151 
L 122.174517 179.177527 
L 122.389976 179.73608 
L 122.820895 174.507451 
L 123.037615 183.052283 
L 123.254334 181.75912 
L 123.471054 182.917847 
L 123.687773 181.632751 
L 123.903233 175.749259 
L 124.121212 189.371615 
L 124.339192 192.333876 
L 124.555911 187.729619 
L 124.98809 201.992856 
L 125.207329 195.042268 
L 125.421529 184.019627 
L 125.636988 192.935287 
L 126.070427 179.783294 
L 126.287147 187.969452 
L 126.502606 188.444762 
L 126.719326 189.395276 
L 126.938565 192.573655 
L 127.155285 189.11366 
L 127.370744 177.396095 
L 127.586204 193.041491 
L 127.802923 192.169757 
L 128.019643 195.617814 
L 128.235102 193.615638 
L 128.668541 174.954583 
L 128.882741 177.792249 
L 129.09946 183.403805 
L 129.31618 183.226296 
L 129.532899 195.078459 
L 129.748359 215.051551 
L 129.966338 209.489091 
L 130.181798 195.977779 
L 130.397257 194.253831 
L 130.615237 191.50629 
L 130.833216 183.053627 
L 131.048676 197.512764 
L 131.265395 202.193649 
L 131.482115 193.5353 
L 131.915554 186.527173 
L 132.352772 176.70273 
L 132.570752 180.149227 
L 132.787471 177.794454 
L 133.004191 191.331524 
L 133.22343 195.932286 
L 133.43889 185.739112 
L 133.654349 181.343822 
L 133.869809 184.560757 
L 134.303248 179.69376 
L 134.519967 176.453056 
L 134.734167 169.566083 
L 134.950886 179.303198 
L 135.168866 175.079877 
L 135.603565 196.496485 
L 136.037004 183.67187 
L 136.253723 192.888557 
L 136.470443 188.439116 
L 136.687162 188.755846 
L 136.902622 187.519846 
L 137.119341 185.291818 
L 137.337321 180.233008 
L 137.55404 188.63394 
L 137.77202 177.327102 
L 137.987479 181.857635 
L 138.204199 181.366353 
L 138.423438 178.459372 
L 138.640158 194.820826 
L 138.855617 185.724217 
L 139.072337 189.351772 
L 139.505776 171.954358 
L 139.721235 194.444138 
L 139.939215 178.797989 
L 140.375173 199.131745 
L 141.025332 178.192921 
L 141.240791 187.865614 
L 141.457511 188.588716 
L 141.67297 176.644815 
L 141.89221 182.139788 
L 142.110189 177.124965 
L 142.326909 191.452247 
L 142.541108 191.257907 
L 142.757828 193.056655 
L 142.974547 185.018269 
L 143.195047 195.689119 
L 143.411766 196.161149 
L 143.628486 178.65296 
L 143.846465 186.230447 
L 144.063185 176.291034 
L 144.278644 173.191649 
L 144.496624 181.235252 
L 144.712083 177.305646 
L 144.928803 176.517101 
L 145.145522 168.880946 
L 145.363502 168.482801 
L 145.581481 171.551428 
L 145.798201 179.620734 
L 146.01618 178.754754 
L 146.2329 177.319305 
L 146.452139 170.206964 
L 146.666339 158.919217 
L 147.316497 151.572689 
L 147.533216 150.770055 
L 147.749936 142.696393 
L 148.183375 165.662666 
L 148.645794 192.305591 
L 148.861253 192.510094 
L 149.076713 181.369902 
L 149.510152 186.366066 
L 149.726871 179.32589 
L 149.943591 178.21599 
L 150.16157 178.072306 
L 150.597529 185.984161 
L 150.814249 179.061375 
L 151.029708 183.066909 
L 151.247688 207.641946 
L 151.465667 194.526466 
L 151.902886 184.116314 
L 152.119606 186.337028 
L 152.335065 193.940703 
L 152.553045 196.821765 
L 152.768504 190.476406 
L 152.986484 177.724171 
L 153.204463 180.972565 
L 153.422443 200.742605 
L 153.854621 182.400647 
L 154.071341 192.356515 
L 154.28554 192.377971 
L 154.50352 195.894913 
L 154.718979 190.944726 
L 154.935699 192.493424 
L 155.152418 188.514185 
L 155.367878 200.45287 
L 155.584597 187.253556 
L 155.821477 200.469809 
L 156.036936 205.976074 
L 156.254916 193.294821 
L 156.471635 195.874693 
L 156.689615 202.136218 
L 156.906334 190.934778 
L 157.124314 197.689789 
L 157.557753 182.393602 
L 157.774472 184.571781 
L 158.209171 175.865626 
L 158.428411 182.083486 
L 158.64513 164.340465 
L 158.86185 164.35122 
L 159.076049 167.803525 
L 159.723688 194.885517 
L 159.940407 213.905407 
L 160.157127 219.73991 
L 160.372586 204.86241 
L 160.807285 214.838336 
L 161.025264 210.471223 
L 161.241984 217.731174 
L 161.458703 217.339536 
L 161.675423 215.814284 
L 162.326841 200.674205 
L 162.542301 211.774549 
L 162.76028 206.104595 
L 162.97826 213.632825 
L 163.196239 208.569121 
L 163.414219 199.981216 
L 163.630938 200.744918 
L 163.847658 204.532613 
L 164.064377 200.890592 
L 164.281097 199.127281 
L 164.499076 201.37698 
L 164.715796 189.224058 
L 164.932515 199.687232 
L 165.150495 194.848251 
L 165.368474 205.077238 
L 165.583934 205.627187 
L 165.800653 205.283462 
L 166.017373 201.530828 
L 166.670051 207.94249 
L 166.885511 218.51004 
L 167.31895 209.101379 
L 167.535669 198.544853 
L 167.752389 200.312412 
L 167.969108 208.366984 
L 168.184567 204.158882 
L 168.401287 214.550214 
L 168.618006 210.087921 
L 168.833466 208.608592 
L 169.051445 217.864534 
L 169.486144 224.84459 
L 169.704124 214.993905 
L 170.138823 221.61405 
L 170.354282 217.144659 
L 170.572262 216.216247 
L 170.788981 207.544185 
L 171.006961 207.198094 
L 171.4404 196.018271 
L 171.659639 204.181682 
L 172.096858 201.175004 
L 172.312318 197.706513 
L 172.529037 198.872445 
L 172.745757 197.910962 
L 172.962476 199.31205 
L 173.180456 191.633789 
L 173.398435 197.053371 
L 173.830614 186.085579 
L 174.046074 187.008668 
L 174.261533 191.097069 
L 174.478253 190.586966 
L 174.693712 182.340258 
L 174.909172 178.667855 
L 175.125891 191.734347 
L 175.343871 184.259568 
L 175.56185 183.449083 
L 175.778569 181.352856 
L 175.994029 209.397836 
L 176.209488 205.813139 
L 176.427468 197.995925 
L 176.642927 200.837571 
L 176.859647 199.97272 
L 177.078886 203.413302 
L 177.512325 143.043667 
L 177.731565 134.196247 
L 177.949544 131.911326 
L 178.165004 126.70184 
L 178.381723 125.772568 
L 178.598443 139.124816 
L 179.248601 107.458626 
L 179.466581 112.969516 
L 179.68204 107.47051 
L 180.115479 147.020916 
L 180.332199 144.57677 
L 180.547658 143.846139 
L 180.764378 151.923243 
L 180.978577 135.222098 
L 181.195297 129.052043 
L 181.412016 152.402103 
L 181.628736 156.594718 
L 181.846715 156.031379 
L 182.063435 184.504671 
L 182.280154 162.446967 
L 182.496874 154.650457 
L 182.712333 152.277562 
L 182.930313 162.44003 
L 183.363751 141.087199 
L 183.581731 152.291543 
L 184.01517 127.847231 
L 184.230629 135.186983 
L 184.448609 156.590846 
L 184.665328 154.054692 
L 184.882048 156.140057 
L 185.098767 140.284404 
L 185.316747 153.996509 
L 185.533466 153.817817 
L 185.750186 151.668461 
L 185.968165 153.284162 
L 186.183625 158.483323 
L 186.400344 146.276197 
L 186.617064 173.855546 
L 186.835043 172.186663 
L 187.051763 159.023485 
L 187.483942 166.024351 
L 187.700661 161.896964 
L 187.917381 173.411209 
L 188.13788 172.070349 
L 188.35586 181.200299 
L 188.573839 177.81064 
L 188.790559 164.168979 
L 189.007278 159.517939 
L 189.438197 173.831401 
L 189.654917 175.822392 
L 189.872896 159.748684 
L 190.085836 162.61442 
L 190.332795 167.493194 
L 190.550774 166.175457 
L 190.767494 151.342052 
L 190.984213 146.269045 
L 191.200933 153.509583 
L 191.416392 176.965309 
L 191.668392 167.806698 
L 191.886371 166.838386 
L 192.32107 160.162154 
L 192.53779 164.403327 
L 192.753249 152.595905 
L 192.969969 154.819254 
L 193.189208 160.302236 
L 193.404668 147.685135 
L 193.651627 146.872929 
L 194.085066 182.153339 
L 194.515985 162.705675 
L 194.731445 161.441873 
L 194.946904 155.559833 
L 195.163623 154.5435 
L 195.382863 159.864137 
L 195.603362 154.246344 
L 195.820082 157.548458 
L 196.038061 158.157666 
L 196.503 149.106711 
L 196.72098 172.616372 
L 197.158199 151.084903 
L 197.374918 156.162212 
L 197.592898 158.40734 
L 198.031377 180.373896 
L 198.250616 173.65884 
L 198.466076 175.904666 
L 198.684055 167.999371 
L 198.899515 165.347549 
L 199.116234 166.181318 
L 199.332954 173.406854 
L 199.549673 157.232642 
L 199.765133 162.528112 
L 199.981852 159.873386 
L 200.415291 139.258069 
L 200.64335 156.208888 
L 201.293509 143.26855 
L 201.512748 151.11007 
L 201.728208 152.39366 
L 201.942407 156.93156 
L 202.374586 139.002533 
L 202.591306 139.810545 
L 203.023485 177.25725 
L 203.237684 164.085306 
L 203.454404 186.64666 
L 203.668603 182.440117 
L 204.102042 162.288441 
L 204.318762 160.606275 
L 204.536741 148.055909 
L 204.752201 158.749129 
L 205.18438 141.015787 
L 205.399839 139.925622 
L 205.616559 153.205113 
L 205.834538 150.467091 
L 206.049998 136.590007 
L 206.266717 152.427753 
L 206.482177 150.057547 
L 206.696376 146.051098 
L 206.914356 158.888673 
L 207.131075 145.934677 
L 207.779974 166.951742 
L 207.999213 156.413122 
L 208.215933 152.73061 
L 208.432652 141.720229 
L 208.648112 139.461013 
L 208.864831 144.926464 
L 209.08281 156.758729 
L 209.29953 150.134551 
L 209.517509 146.965206 
L 209.732969 158.334422 
L 209.949688 147.920666 
L 210.166408 155.226702 
L 210.384387 170.804557 
L 210.816566 178.414417 
L 211.033286 189.490725 
L 211.256305 174.604191 
L 211.493185 168.76802 
L 211.711164 166.446748 
L 211.927884 158.63674 
L 212.362583 172.171176 
L 212.802322 166.076405 
L 213.022821 202.822754 
L 213.267261 195.544789 
L 213.728419 167.166139 
L 213.990499 168.760223 
L 214.208478 166.331348 
L 214.425198 184.060926 
L 214.644437 174.525465 
L 214.861157 179.204253 
L 215.077876 179.768237 
L 215.304676 183.578894 
L 215.521395 176.579479 
L 215.954834 157.968004 
L 216.180374 148.819825 
L 216.409693 158.180681 
L 216.626413 174.200023 
L 216.843132 161.784092 
L 217.062372 172.905194 
L 217.281611 174.333491 
L 217.497071 171.502278 
L 217.933029 157.485703 
L 218.151009 152.519922 
L 218.367728 150.572542 
L 218.586968 146.001948 
L 218.803687 164.509047 
L 219.021667 161.696333 
L 219.238386 180.61916 
L 219.456366 188.625336 
L 219.889805 170.526383 
L 220.324504 174.718031 
L 220.542483 172.177736 
L 220.759203 163.31413 
L 221.197682 185.228257 
L 221.413141 174.879515 
L 221.627341 197.334986 
L 221.84406 196.88624 
L 222.281279 189.482551 
L 222.499259 179.37988 
L 222.714718 185.627907 
L 222.931438 180.528121 
L 223.146897 197.602513 
L 223.797056 164.729952 
L 224.016295 168.275771 
L 224.234275 196.735242 
L 224.452254 198.30588 
L 224.917193 217.997034 
L 225.373312 180.585982 
L 225.809271 164.321806 
L 226.02473 164.027445 
L 226.24649 183.671493 
L 226.463209 183.960153 
L 226.897908 165.19526 
L 227.113368 168.761406 
L 227.330087 154.685679 
L 227.546807 162.948681 
L 227.763526 186.892569 
L 228.412425 169.183695 
L 228.626624 154.597543 
L 228.842084 169.517955 
L 229.061323 170.8593 
L 229.494762 190.003731 
L 229.712742 186.785827 
L 229.929461 185.557033 
L 230.15122 197.83057 
L 230.806419 181.770036 
L 231.024398 189.529388 
L 231.242378 189.950387 
L 231.459097 196.968999 
L 231.902616 175.836266 
L 232.119336 170.287518 
L 232.336055 167.631932 
L 232.552775 171.906983 
L 232.770754 188.284569 
L 232.987474 190.389023 
L 233.202933 184.03861 
L 233.420913 182.514648 
L 233.636372 177.23133 
L 234.074851 149.247545 
L 234.50829 138.575889 
L 234.73005 173.356252 
L 234.945509 160.689357 
L 235.164749 138.352134 
L 235.381468 142.446127 
L 235.600708 162.792897 
L 236.252126 131.638798 
L 236.468846 154.266186 
L 236.680525 156.643384 
L 236.898504 150.155523 
L 237.116484 163.811219 
L 237.330683 150.435956 
L 237.546143 155.501327 
L 237.761602 148.740777 
L 237.978322 158.190092 
L 238.195041 152.807722 
L 238.413021 155.814884 
L 238.631 185.434642 
L 238.84646 184.425838 
L 239.061919 184.486226 
L 239.496618 192.835804 
L 239.712078 187.100353 
L 240.149297 160.585787 
L 240.583996 195.005594 
L 240.800715 182.626176 
L 241.016175 162.112384 
L 241.883053 128.186708 
L 242.099772 159.779174 
L 242.316492 141.585256 
L 242.533211 142.773128 
L 242.749931 151.016395 
L 242.96665 136.551934 
L 243.401349 132.773381 
L 243.619329 151.708469 
L 243.836048 142.651222 
L 244.054028 147.811774 
L 244.270747 144.116086 
L 244.488726 163.432218 
L 244.704186 167.090049 
L 244.919645 182.45227 
L 245.137625 171.223566 
L 245.356864 174.492663 
L 245.576104 186.56503 
L 246.445502 161.113904 
L 246.659701 170.78622 
L 246.873901 187.603841 
L 247.09188 179.78039 
L 247.30482 178.216851 
L 247.520279 171.411776 
L 247.735739 180.236234 
L 248.170438 169.537368 
L 248.388417 170.346455 
L 248.602617 175.971777 
L 248.820596 170.08979 
L 249.039836 171.912414 
L 249.255295 175.921444 
L 249.688734 188.969653 
L 249.906714 183.208067 
L 250.340153 159.661301 
L 250.556872 165.380943 
L 250.774852 174.917372 
L 250.991571 171.637682 
L 251.207031 164.175002 
L 251.45651 174.172007 
L 251.673229 172.939771 
L 251.913889 170.919634 
L 252.131868 170.259986 
L 252.347328 166.316883 
L 252.566567 179.760278 
L 252.783287 170.786597 
L 253.000006 169.910561 
L 253.216726 179.635522 
L 253.439745 180.862112 
L 253.655205 179.076485 
L 253.878224 179.318738 
L 254.094944 169.947181 
L 254.312923 173.388033 
L 254.532163 152.031652 
L 255.183581 191.452839 
L 255.428021 179.933969 
L 255.64222 178.676298 
L 255.8602 181.993253 
L 256.298678 165.978374 
L 256.515398 163.399631 
L 256.948837 157.119178 
L 257.165556 146.477151 
L 257.601515 171.344397 
L 257.816975 172.367667 
L 258.045034 167.984476 
L 258.261754 155.971636 
L 258.478473 159.47863 
L 258.913172 149.9087 
L 259.131152 171.674356 
L 259.346611 173.904964 
L 259.78131 143.130996 
L 259.99803 143.378734 
L 260.216009 135.203384 
L 260.650708 142.487211 
L 260.867428 136.667495 
L 261.304647 151.746541 
L 261.522626 135.941436 
L 261.740606 133.924848 
L 261.957325 160.948172 
L 262.175305 149.937576 
L 262.393284 145.580842 
L 262.611263 167.359404 
L 262.827983 149.418279 
L 263.045962 158.059528 
L 263.262682 142.428597 
L 263.698641 161.175153 
L 263.91662 166.832309 
L 264.1346 152.764541 
L 264.568039 168.178869 
L 264.787278 161.976873 
L 265.005258 175.76195 
L 265.224497 180.854799 
L 265.872136 163.660705 
L 266.521034 177.697768 
L 266.737754 180.903572 
L 267.172453 171.726463 
L 268.035551 150.989669 
L 268.25101 159.413671 
L 268.46899 146.638958 
L 268.686969 145.720171 
L 268.907469 159.924795 
L 269.125448 148.775838 
L 269.342168 160.797604 
L 269.556367 153.543084 
L 269.773087 156.287828 
L 270.206525 154.277963 
L 270.421985 148.922857 
L 270.638704 160.471786 
L 270.854164 156.241099 
L 271.073403 176.684554 
L 271.290123 170.212234 
L 271.505582 169.981812 
L 271.722302 173.486493 
L 271.939021 181.393294 
L 272.155741 177.877374 
L 272.37246 176.590449 
L 272.59044 184.729286 
L 273.025139 164.364502 
L 273.241858 170.123507 
L 273.676557 155.059087 
L 274.329236 184.701001 
L 274.762675 151.151852 
L 275.415353 130.466251 
L 275.850052 106.800376 
L 276.069292 123.960699 
L 276.323811 123.038848 
L 276.53927 142.232644 
L 276.75473 137.788688 
L 276.972709 146.779147 
L 277.189429 160.367787 
L 277.404888 156.578908 
L 277.620348 148.220888 
L 277.853447 161.527428 
L 278.286886 155.046773 
L 278.750565 142.250712 
L 278.989965 145.993344 
L 279.207944 156.93 
L 279.425924 157.071857 
L 279.642643 147.04092 
L 279.858103 149.009756 
L 280.076082 144.432278 
L 280.291542 157.459999 
L 280.530941 154.608674 
L 280.75018 141.850901 
L 280.9669 145.300947 
L 281.182359 142.877128 
L 281.639738 158.237359 
L 281.857718 156.010138 
L 282.074437 173.460251 
L 282.292417 166.322207 
L 282.516696 169.161056 
L 282.733416 165.135356 
L 282.951395 154.604641 
L 283.168115 153.830239 
L 283.383574 155.641355 
L 283.600294 147.294089 
L 283.817013 148.972221 
L 284.033733 155.540152 
L 284.251712 153.698492 
L 284.467172 161.029048 
L 284.683891 173.588503 
L 284.900611 178.931295 
L 285.11733 173.473157 
L 285.33279 161.026682 
L 285.564629 159.178139 
L 285.782609 160.593531 
L 285.999328 163.753842 
L 286.216047 160.017932 
L 286.431507 149.511738 
L 286.648226 154.556944 
L 287.516364 115.549872 
L 287.733084 107.877419 
L 287.947283 108.77104 
L 288.162743 139.07529 
L 288.380722 133.714968 
L 288.597442 149.966776 
L 288.814161 146.574106 
L 289.24886 125.010749 
L 289.46432 123.316807 
L 289.897759 104.125162 
L 290.331198 85.680333 
L 290.549177 106.863453 
L 290.765897 109.831575 
L 291.203116 104.143714 
L 291.419835 103.109958 
L 291.637815 92.856987 
L 291.854534 91.750529 
L 292.071254 93.015406 
L 292.504693 73.65819 
L 292.720152 84.311886 
L 293.152331 67.863964 
L 293.366531 67.050897 
L 294.233408 40.111031 
L 294.451388 60.899825 
L 294.666847 50.312755 
L 294.883567 57.705367 
L 295.101546 51.251277 
L 295.318266 61.749189 
L 295.534985 66.592956 
L 295.754225 77.540474 
L 295.970944 66.803052 
L 296.188924 67.979686 
L 296.840342 42.773286 
L 297.057062 37.867517 
L 297.273781 41.225717 
L 297.490501 57.939392 
L 297.92394 45.131447 
L 298.356119 70.424692 
L 298.572838 59.920811 
L 298.790818 76.517473 
L 299.007537 74.474053 
L 299.224257 77.233854 
L 299.658956 61.415896 
L 299.875675 63.189585 
L 300.092395 54.799999 
L 300.307854 54.463803 
L 300.523314 57.21215 
L 300.743813 54.451596 
L 300.960533 54.220904 
L 301.178512 59.653661 
L 301.82993 34.936122 
L 302.04539 31.980583 
L 302.286049 32.232569 
L 302.522929 40.916515 
L 302.750988 78.280246 
L 303.183167 65.058831 
L 303.398627 69.10276 
L 303.616606 76.736281 
L 303.833326 88.964809 
L 304.050045 78.654085 
L 304.270545 79.168166 
L 304.488524 71.237866 
L 304.706504 87.77215 
L 305.146243 66.805041 
L 305.368002 76.878352 
L 305.584722 71.340198 
L 305.810261 81.955016 
L 306.02824 82.365689 
L 306.462939 65.654703 
L 306.901418 71.206354 
L 307.118138 72.114278 
L 307.333597 81.092746 
L 307.547797 70.345375 
L 307.765776 111.179157 
L 308.200475 87.815546 
L 308.417195 89.295735 
L 308.635174 96.012244 
L 308.853154 90.499095 
L 309.072393 98.6902 
L 309.287853 100.725232 
L 309.505832 126.023855 
L 309.944311 118.297305 
L 310.159771 119.083484 
L 310.807409 85.776481 
L 311.024129 90.539211 
L 311.240848 99.470088 
L 311.457568 99.719332 
L 311.674287 119.400053 
L 312.110246 95.810107 
L 312.328226 97.48469 
L 312.544945 89.64473 
L 312.761665 105.346213 
L 312.978384 103.039083 
L 313.196363 114.499016 
L 313.624762 93.803414 
L 313.841482 94.166551 
L 314.056941 83.040664 
L 314.274921 93.58864 
L 314.70836 74.177004 
L 314.925079 77.08092 
L 315.141799 100.227014 
L 315.358518 105.350085 
L 315.802037 81.034078 
L 316.021277 84.031615 
L 316.237996 98.115569 
L 316.455976 120.620997 
L 316.672695 110.485362 
L 316.890675 123.796311 
L 317.109914 117.285436 
L 317.326634 117.709983 
L 317.544613 143.622708 
L 317.981832 126.060798 
L 318.199812 124.435579 
L 318.436691 129.677437 
L 318.655931 169.676912 
L 318.87265 161.25818 
L 319.09189 163.822082 
L 319.316169 160.359075 
L 319.534148 159.687865 
L 319.752128 166.49493 
L 319.970107 156.300842 
L 320.186827 160.027396 
L 320.406066 150.463219 
L 320.621526 161.762529 
L 320.839505 167.117151 
L 321.060005 186.88047 
L 321.277984 186.224048 
L 321.711423 167.888166 
L 321.928143 168.101703 
L 322.142342 166.503265 
L 322.359062 158.842212 
L 322.584601 156.225235 
L 323.02056 133.371565 
L 323.24358 135.825391 
L 323.459039 127.141068 
L 323.677019 129.682815 
L 324.112978 111.639357 
L 324.329697 133.306283 
L 324.546417 122.277889 
L 324.979856 132.499455 
L 325.196575 143.211819 
L 325.632534 126.438239 
L 325.849253 130.138659 
L 326.064713 130.656451 
L 326.281432 124.024475 
L 326.495632 122.333706 
L 326.714871 135.824907 
L 326.930331 137.669901 
L 327.14579 151.126578 
L 327.36377 187.820444 
L 327.580489 190.147577 
L 327.795949 181.678083 
L 328.229388 182.88967 
L 328.452407 175.360955 
L 328.669127 173.261394 
L 328.885846 180.162563 
L 329.103826 174.305367 
L 329.319285 177.309518 
L 329.536005 169.293071 
L 329.969444 186.645584 
L 330.187423 185.773904 
L 330.622122 173.940401 
L 330.838842 176.593944 
L 331.054301 167.914354 
L 331.489 141.13323 
L 331.70572 140.243643 
L 332.140419 113.997249 
L 332.358398 121.069958 
L 332.794357 99.3862 
L 333.227796 116.167093 
L 333.445775 107.465133 
L 333.659975 109.410415 
L 333.877954 112.459091 
L 334.094674 129.274131 
L 334.308873 134.924673 
L 334.525593 133.281171 
L 334.744832 133.506108 
L 335.175751 119.667204 
L 335.61171 127.66327 
L 335.82843 152.551434 
L 336.043889 145.11634 
L 336.260609 143.122661 
L 336.478588 147.867161 
L 336.695308 134.494801 
L 336.912027 145.063373 
L 337.128747 164.72194 
L 337.345466 151.025375 
L 337.562186 146.222315 
L 337.778905 154.270273 
L 337.994365 152.408932 
L 338.212344 145.629562 
L 338.430324 170.673402 
L 338.645783 165.693694 
L 338.861243 164.74318 
L 339.077962 171.691026 
L 339.511401 142.278513 
L 339.726861 130.694792 
L 340.378279 111.473571 
L 341.025917 124.42504 
L 341.242637 152.872627 
L 341.460616 147.943682 
L 341.683636 140.120177 
L 342.118335 165.933096 
L 342.333794 159.968621 
L 342.549254 159.59618 
L 342.767233 159.670926 
L 342.986473 165.227095 
L 343.203192 163.112154 
L 343.639151 154.571893 
L 344.07385 168.983601 
L 344.507289 173.863935 
L 344.725269 171.214478 
L 344.943248 162.492299 
L 345.162488 158.476171 
L 345.379207 143.687613 
L 345.597187 149.839116 
L 345.812646 159.127645 
L 346.247345 145.671613 
L 346.464065 147.536181 
L 346.683304 158.983369 
L 346.903804 161.65541 
L 347.120523 161.403048 
L 347.338502 146.932135 
L 347.552702 146.048355 
L 347.769421 157.770008 
L 347.989921 144.408403 
L 348.2079 139.647286 
L 348.42462 148.766159 
L 348.667799 137.686463 
L 348.884519 151.69551 
L 349.101238 145.787013 
L 349.535937 155.781275 
L 349.752657 157.826148 
L 349.969376 172.154506 
L 350.186096 171.325468 
L 350.404075 155.339789 
L 350.619535 149.974573 
L 350.837514 151.01946 
L 351.055494 163.422593 
L 351.269693 163.532884 
L 351.495233 155.952224 
L 351.929932 163.070641 
L 352.146651 156.1136 
L 352.364631 156.795242 
L 352.58009 142.317284 
L 353.014789 163.530518 
L 353.232769 149.009272 
L 353.448228 152.730502 
L 353.662427 146.20016 
L 353.909387 149.220712 
L 354.126106 148.092421 
L 354.345346 139.739294 
L 354.562065 150.362178 
L 354.780045 144.73777 
L 354.995504 133.547891 
L 355.226084 141.213461 
L 355.662043 160.169521 
L 356.101782 133.47051 
L 356.329841 139.928956 
L 356.7658 136.878129 
L 356.98504 138.726941 
L 357.205539 136.810588 
L 357.441159 142.232966 
L 357.660398 159.022248 
L 357.875857 159.687381 
L 358.091317 146.155581 
L 358.309296 150.681543 
L 358.533576 148.644629 
L 358.749035 144.640761 
L 358.965755 147.358618 
L 359.399194 137.049884 
L 359.617173 156.870526 
L 360.269852 133.339516 
L 360.484051 149.940265 
L 360.91623 136.177128 
L 361.350929 147.112655 
L 361.567649 144.229281 
L 361.784368 131.80652 
L 361.999828 135.590236 
L 362.445867 111.612201 
L 362.884346 157.662405 
L 363.101065 152.130758 
L 363.316525 150.786295 
L 363.535764 137.903227 
L 363.752484 136.344689 
L 363.970463 144.537891 
L 364.405162 167.005247 
L 364.624401 150.209781 
L 364.842381 146.71037 
L 365.0591 133.771215 
L 365.27708 139.571465 
L 365.492539 142.331266 
L 365.709259 156.340312 
L 365.925978 159.21519 
L 366.142698 168.951659 
L 366.359417 163.239545 
L 366.576137 148.335481 
L 366.791596 152.292565 
L 367.009576 154.093302 
L 367.233855 160.676074 
L 367.458135 161.11014 
L 367.677374 165.692027 
L 368.112073 151.126094 
L 368.340133 150.107234 
L 368.564412 137.140977 
L 368.778612 139.953692 
L 368.996591 133.2937 
L 369.214571 136.878935 
L 369.43129 138.022122 
L 369.64927 128.983588 
L 369.865989 136.642114 
L 370.082709 134.822071 
L 370.518668 177.394696 
L 370.735387 169.583345 
L 370.952106 168.412088 
L 371.167566 176.513498 
L 371.383025 175.963119 
L 371.601005 178.175229 
L 371.818984 163.594186 
L 372.042004 163.915595 
L 372.258723 167.387098 
L 372.702242 152.209591 
L 372.918962 167.072787 
L 373.57164 130.312081 
L 373.78836 131.500115 
L 374.005079 126.015197 
L 374.220539 138.187047 
L 374.438518 141.524061 
L 374.653978 134.681344 
L 374.879517 141.096125 
L 375.097497 136.408196 
L 375.315476 147.387334 
L 375.533456 147.16202 
L 375.966895 136.975406 
L 376.401594 150.332656 
L 376.835033 121.444012 
L 377.053012 150.686006 
L 377.272251 154.637336 
L 377.494011 148.414421 
L 377.71199 147.881357 
L 377.92745 154.364701 
L 378.363409 127.361489 
L 378.582648 141.266536 
L 378.798108 146.061422 
L 379.013567 144.622747 
L 379.227767 148.955659 
L 379.445746 165.629487 
L 379.659946 152.287456 
L 379.895565 169.652283 
L 380.550764 147.422878 
L 381.207222 141.667638 
L 381.426462 157.160208 
L 381.643181 143.072651 
L 381.858641 147.721809 
L 382.07536 147.121151 
L 382.29334 149.121176 
L 382.510059 145.987106 
L 382.725519 147.602592 
L 382.943498 145.660804 
L 383.161478 136.093832 
L 383.380717 135.139232 
L 383.597436 132.411857 
L 384.030875 148.193839 
L 384.253895 148.20411 
L 384.471874 147.000536 
L 384.688594 147.291615 
L 384.904053 134.887837 
L 385.336232 143.557426 
L 385.551692 132.073187 
L 385.769671 134.019276 
L 385.986391 132.582805 
L 386.20311 128.612062 
L 386.42109 136.863449 
L 386.637809 138.704786 
L 387.072508 113.723915 
L 387.287968 123.315516 
L 387.512247 124.032111 
L 387.726447 129.829511 
L 387.945686 130.724852 
L 388.161146 125.390233 
L 388.379125 135.786673 
L 388.597105 125.098078 
L 388.813824 144.576447 
L 389.031804 131.963111 
L 389.248523 128.739185 
L 389.463983 140.953731 
L 389.689522 138.44753 
L 390.121701 125.608126 
L 390.34094 134.113811 
L 390.55766 131.221672 
L 390.993619 141.530675 
L 391.209078 130.478727 
L 391.425798 128.636852 
L 391.642517 137.569612 
L 391.859237 134.162208 
L 392.077216 134.936234 
L 392.293936 132.266182 
L 392.510655 126.466793 
L 392.731155 131.737528 
L 392.947874 130.907684 
L 393.381313 109.678964 
L 393.596773 111.733677 
L 393.816012 101.738231 
L 394.032732 99.845701 
L 394.464911 127.487213 
L 394.68163 136.984763 
L 394.89457 140.957388 
L 395.106249 147.554303 
L 395.319189 144.088607 
L 395.532128 151.56387 
L 395.742548 151.553707 
L 395.955487 161.479515 
L 396.378846 161.496669 
L 396.803465 161.469943 
L 397.016405 174.151465 
L 397.228084 175.76652 
L 399.1332 175.62617 
L 406.736022 175.52459 
L 407.790639 175.543411 
L 410.745332 175.578257 
L 411.168691 175.625309 
L 420.885788 175.540454 
L 421.307887 175.570836 
L 422.152085 175.572127 
L 422.576704 175.60423 
L 422.788384 173.521715 
L 423.001323 236.296565 
L 423.213003 241.427271 
L 424.26636 241.437435 
L 429.124908 241.275305 
L 429.545747 241.326014 
L 431.872962 241.351234 
L 432.295061 241.40517 
L 438.208227 241.317572 
L 438.630326 241.375056 
L 445.17349 241.280521 
L 445.806009 241.302139 
L 446.655247 241.336823 
L 447.077346 241.384521 
L 447.708604 241.347632 
L 447.980764 246.705212 
L 449.885879 246.695156 
L 461.709691 246.544642 
L 462.13179 246.579272 
L 465.298163 246.528509 
L 465.720262 246.580617 
L 469.099574 246.516894 
L 469.311253 246.578573 
L 469.947552 246.438223 
L 471.216369 246.384072 
L 471.642248 246.428758 
L 473.127784 246.391546 
L 473.127784 246.391546 
" clip-path="url(#pae94d9622d)" style="fill: none; stroke: #029e73; stroke-width: 3; stroke-linecap: round"/>
   </g>
   <g id="patch_3">
    <path d="M 65.116875 255.3 
L 65.116875 7.2 
" style="fill: none; stroke: #cccccc; stroke-width: 2.5; stroke-linejoin: miter; stroke-linecap: square"/>
   </g>
   <g id="patch_4">
    <path d="M 65.116875 255.3 
L 492.556875 255.3 
" style="fill: none; stroke: #cccccc; stroke-width: 2.5; stroke-linejoin: miter; stroke-linecap: square"/>
   </g>
  </g>
 </g>
 <defs>
  <clipPath id="pae94d9622d">
   <rect x="65.116875" y="7.2" width="427.44" height="248.1"/>
  </clipPath>
 </defs>
</svg>
