<?xml version="1.0" encoding="utf-8" standalone="no"?>
<!DOCTYPE svg PUBLIC "-//W3C//DTD SVG 1.1//EN"
  "http://www.w3.org/Graphics/SVG/1.1/DTD/svg11.dtd">
<svg xmlns:xlink="http://www.w3.org/1999/xlink" width="622.727248pt" height="191.069531pt" viewBox="0 0 622.727248 191.069531" xmlns="http://www.w3.org/2000/svg" version="1.1">
 <metadata>
  <rdf:RDF xmlns:dc="http://purl.org/dc/elements/1.1/" xmlns:cc="http://creativecommons.org/ns#" xmlns:rdf="http://www.w3.org/1999/02/22-rdf-syntax-ns#">
   <cc:Work>
    <dc:type rdf:resource="http://purl.org/dc/dcmitype/StillImage"/>
    <dc:date>2024-09-10T13:33:11.164403</dc:date>
    <dc:format>image/svg+xml</dc:format>
    <dc:creator>
     <cc:Agent>
      <dc:title>Matplotlib v3.8.4, https://matplotlib.org/</dc:title>
     </cc:Agent>
    </dc:creator>
   </cc:Work>
  </rdf:RDF>
 </metadata>
 <defs>
  <style type="text/css">*{stroke-linejoin: round; stroke-linecap: butt}</style>
 </defs>
 <g id="figure_1">
  <g id="patch_1">
   <path d="M 0 191.069531 
L 622.727248 191.069531 
L 622.727248 0 
L 0 0 
z
" style="fill: #ffffff"/>
  </g>
  <g id="axes_1">
   <g id="patch_2">
    <path d="M 179.140625 130.98 
L 567.072105 130.98 
L 567.072105 7.2 
L 179.140625 7.2 
z
" style="fill: #ffffff"/>
   </g>
   <g id="matplotlib.axis_1">
    <g id="xtick_1">
     <g id="line2d_1">
      <path d="M 179.140625 130.98 
L 179.140625 7.2 
" clip-path="url(#p5c29114cd0)" style="fill: none; stroke: #cccccc; stroke-width: 2; stroke-linecap: round"/>
     </g>
     <g id="text_1">
      <!-- $\mathdefault{10^{-1}}$ -->
      <g style="fill: #262626" transform="translate(159.753125 159.017422) scale(0.165 -0.165)">
       <defs>
        <path id="DejaVuSans-31" d="M 794 531 
L 1825 531 
L 1825 4091 
L 703 3866 
L 703 4441 
L 1819 4666 
L 2450 4666 
L 2450 531 
L 3481 531 
L 3481 0 
L 794 0 
L 794 531 
z
" transform="scale(0.015625)"/>
        <path id="DejaVuSans-30" d="M 2034 4250 
Q 1547 4250 1301 3770 
Q 1056 3291 1056 2328 
Q 1056 1369 1301 889 
Q 1547 409 2034 409 
Q 2525 409 2770 889 
Q 3016 1369 3016 2328 
Q 3016 3291 2770 3770 
Q 2525 4250 2034 4250 
z
M 2034 4750 
Q 2819 4750 3233 4129 
Q 3647 3509 3647 2328 
Q 3647 1150 3233 529 
Q 2819 -91 2034 -91 
Q 1250 -91 836 529 
Q 422 1150 422 2328 
Q 422 3509 836 4129 
Q 1250 4750 2034 4750 
z
" transform="scale(0.015625)"/>
        <path id="DejaVuSans-2212" d="M 678 2272 
L 4684 2272 
L 4684 1741 
L 678 1741 
L 678 2272 
z
" transform="scale(0.015625)"/>
       </defs>
       <use xlink:href="#DejaVuSans-31" transform="translate(0 0.684375)"/>
       <use xlink:href="#DejaVuSans-30" transform="translate(63.623047 0.684375)"/>
       <use xlink:href="#DejaVuSans-2212" transform="translate(128.203125 38.965625) scale(0.7)"/>
       <use xlink:href="#DejaVuSans-31" transform="translate(186.855469 38.965625) scale(0.7)"/>
      </g>
     </g>
    </g>
    <g id="xtick_2">
     <g id="line2d_2">
      <path d="M 256.726921 130.98 
L 256.726921 7.2 
" clip-path="url(#p5c29114cd0)" style="fill: none; stroke: #cccccc; stroke-width: 2; stroke-linecap: round"/>
     </g>
     <g id="text_2">
      <!-- $\mathdefault{10^{0}}$ -->
      <g style="fill: #262626" transform="translate(242.206921 159.017422) scale(0.165 -0.165)">
       <use xlink:href="#DejaVuSans-31" transform="translate(0 0.765625)"/>
       <use xlink:href="#DejaVuSans-30" transform="translate(63.623047 0.765625)"/>
       <use xlink:href="#DejaVuSans-30" transform="translate(128.203125 39.046875) scale(0.7)"/>
      </g>
     </g>
    </g>
    <g id="xtick_3">
     <g id="line2d_3">
      <path d="M 334.313217 130.98 
L 334.313217 7.2 
" clip-path="url(#p5c29114cd0)" style="fill: none; stroke: #cccccc; stroke-width: 2; stroke-linecap: round"/>
     </g>
     <g id="text_3">
      <!-- $\mathdefault{10^{1}}$ -->
      <g style="fill: #262626" transform="translate(319.793217 159.017422) scale(0.165 -0.165)">
       <use xlink:href="#DejaVuSans-31" transform="translate(0 0.684375)"/>
       <use xlink:href="#DejaVuSans-30" transform="translate(63.623047 0.684375)"/>
       <use xlink:href="#DejaVuSans-31" transform="translate(128.203125 38.965625) scale(0.7)"/>
      </g>
     </g>
    </g>
    <g id="xtick_4">
     <g id="line2d_4">
      <path d="M 411.899513 130.98 
L 411.899513 7.2 
" clip-path="url(#p5c29114cd0)" style="fill: none; stroke: #cccccc; stroke-width: 2; stroke-linecap: round"/>
     </g>
     <g id="text_4">
      <!-- $\mathdefault{10^{2}}$ -->
      <g style="fill: #262626" transform="translate(397.379513 159.017422) scale(0.165 -0.165)">
       <defs>
        <path id="DejaVuSans-32" d="M 1228 531 
L 3431 531 
L 3431 0 
L 469 0 
L 469 531 
Q 828 903 1448 1529 
Q 2069 2156 2228 2338 
Q 2531 2678 2651 2914 
Q 2772 3150 2772 3378 
Q 2772 3750 2511 3984 
Q 2250 4219 1831 4219 
Q 1534 4219 1204 4116 
Q 875 4013 500 3803 
L 500 4441 
Q 881 4594 1212 4672 
Q 1544 4750 1819 4750 
Q 2544 4750 2975 4387 
Q 3406 4025 3406 3419 
Q 3406 3131 3298 2873 
Q 3191 2616 2906 2266 
Q 2828 2175 2409 1742 
Q 1991 1309 1228 531 
z
" transform="scale(0.015625)"/>
       </defs>
       <use xlink:href="#DejaVuSans-31" transform="translate(0 0.765625)"/>
       <use xlink:href="#DejaVuSans-30" transform="translate(63.623047 0.765625)"/>
       <use xlink:href="#DejaVuSans-32" transform="translate(128.203125 39.046875) scale(0.7)"/>
      </g>
     </g>
    </g>
    <g id="xtick_5">
     <g id="line2d_5">
      <path d="M 489.485809 130.98 
L 489.485809 7.2 
" clip-path="url(#p5c29114cd0)" style="fill: none; stroke: #cccccc; stroke-width: 2; stroke-linecap: round"/>
     </g>
     <g id="text_5">
      <!-- $\mathdefault{10^{3}}$ -->
      <g style="fill: #262626" transform="translate(474.965809 159.017422) scale(0.165 -0.165)">
       <defs>
        <path id="DejaVuSans-33" d="M 2597 2516 
Q 3050 2419 3304 2112 
Q 3559 1806 3559 1356 
Q 3559 666 3084 287 
Q 2609 -91 1734 -91 
Q 1441 -91 1130 -33 
Q 819 25 488 141 
L 488 750 
Q 750 597 1062 519 
Q 1375 441 1716 441 
Q 2309 441 2620 675 
Q 2931 909 2931 1356 
Q 2931 1769 2642 2001 
Q 2353 2234 1838 2234 
L 1294 2234 
L 1294 2753 
L 1863 2753 
Q 2328 2753 2575 2939 
Q 2822 3125 2822 3475 
Q 2822 3834 2567 4026 
Q 2313 4219 1838 4219 
Q 1578 4219 1281 4162 
Q 984 4106 628 3988 
L 628 4550 
Q 988 4650 1302 4700 
Q 1616 4750 1894 4750 
Q 2613 4750 3031 4423 
Q 3450 4097 3450 3541 
Q 3450 3153 3228 2886 
Q 3006 2619 2597 2516 
z
" transform="scale(0.015625)"/>
       </defs>
       <use xlink:href="#DejaVuSans-31" transform="translate(0 0.765625)"/>
       <use xlink:href="#DejaVuSans-30" transform="translate(63.623047 0.765625)"/>
       <use xlink:href="#DejaVuSans-33" transform="translate(128.203125 39.046875) scale(0.7)"/>
      </g>
     </g>
    </g>
    <g id="xtick_6">
     <g id="line2d_6">
      <path d="M 567.072105 130.98 
L 567.072105 7.2 
" clip-path="url(#p5c29114cd0)" style="fill: none; stroke: #cccccc; stroke-width: 2; stroke-linecap: round"/>
     </g>
     <g id="text_6">
      <!-- $\mathdefault{10^{4}}$ -->
      <g style="fill: #262626" transform="translate(552.552105 159.017422) scale(0.165 -0.165)">
       <defs>
        <path id="DejaVuSans-34" d="M 2419 4116 
L 825 1625 
L 2419 1625 
L 2419 4116 
z
M 2253 4666 
L 3047 4666 
L 3047 1625 
L 3713 1625 
L 3713 1100 
L 3047 1100 
L 3047 0 
L 2419 0 
L 2419 1100 
L 313 1100 
L 313 1709 
L 2253 4666 
z
" transform="scale(0.015625)"/>
       </defs>
       <use xlink:href="#DejaVuSans-31" transform="translate(0 0.684375)"/>
       <use xlink:href="#DejaVuSans-30" transform="translate(63.623047 0.684375)"/>
       <use xlink:href="#DejaVuSans-34" transform="translate(128.203125 38.965625) scale(0.7)"/>
      </g>
     </g>
    </g>
    <g id="xtick_7">
     <g id="line2d_7">
      <path d="M 202.496427 130.98 
L 202.496427 7.2 
" clip-path="url(#p5c29114cd0)" style="fill: none; stroke: #cccccc; stroke-linecap: round"/>
     </g>
    </g>
    <g id="xtick_8">
     <g id="line2d_8">
      <path d="M 216.158696 130.98 
L 216.158696 7.2 
" clip-path="url(#p5c29114cd0)" style="fill: none; stroke: #cccccc; stroke-linecap: round"/>
     </g>
    </g>
    <g id="xtick_9">
     <g id="line2d_9">
      <path d="M 225.85223 130.98 
L 225.85223 7.2 
" clip-path="url(#p5c29114cd0)" style="fill: none; stroke: #cccccc; stroke-linecap: round"/>
     </g>
    </g>
    <g id="xtick_10">
     <g id="line2d_10">
      <path d="M 233.371119 130.98 
L 233.371119 7.2 
" clip-path="url(#p5c29114cd0)" style="fill: none; stroke: #cccccc; stroke-linecap: round"/>
     </g>
    </g>
    <g id="xtick_11">
     <g id="line2d_11">
      <path d="M 239.514498 130.98 
L 239.514498 7.2 
" clip-path="url(#p5c29114cd0)" style="fill: none; stroke: #cccccc; stroke-linecap: round"/>
     </g>
    </g>
    <g id="xtick_12">
     <g id="line2d_12">
      <path d="M 244.708652 130.98 
L 244.708652 7.2 
" clip-path="url(#p5c29114cd0)" style="fill: none; stroke: #cccccc; stroke-linecap: round"/>
     </g>
    </g>
    <g id="xtick_13">
     <g id="line2d_13">
      <path d="M 249.208032 130.98 
L 249.208032 7.2 
" clip-path="url(#p5c29114cd0)" style="fill: none; stroke: #cccccc; stroke-linecap: round"/>
     </g>
    </g>
    <g id="xtick_14">
     <g id="line2d_14">
      <path d="M 253.176767 130.98 
L 253.176767 7.2 
" clip-path="url(#p5c29114cd0)" style="fill: none; stroke: #cccccc; stroke-linecap: round"/>
     </g>
    </g>
    <g id="xtick_15">
     <g id="line2d_15">
      <path d="M 280.082723 130.98 
L 280.082723 7.2 
" clip-path="url(#p5c29114cd0)" style="fill: none; stroke: #cccccc; stroke-linecap: round"/>
     </g>
    </g>
    <g id="xtick_16">
     <g id="line2d_16">
      <path d="M 293.744992 130.98 
L 293.744992 7.2 
" clip-path="url(#p5c29114cd0)" style="fill: none; stroke: #cccccc; stroke-linecap: round"/>
     </g>
    </g>
    <g id="xtick_17">
     <g id="line2d_17">
      <path d="M 303.438526 130.98 
L 303.438526 7.2 
" clip-path="url(#p5c29114cd0)" style="fill: none; stroke: #cccccc; stroke-linecap: round"/>
     </g>
    </g>
    <g id="xtick_18">
     <g id="line2d_18">
      <path d="M 310.957415 130.98 
L 310.957415 7.2 
" clip-path="url(#p5c29114cd0)" style="fill: none; stroke: #cccccc; stroke-linecap: round"/>
     </g>
    </g>
    <g id="xtick_19">
     <g id="line2d_19">
      <path d="M 317.100794 130.98 
L 317.100794 7.2 
" clip-path="url(#p5c29114cd0)" style="fill: none; stroke: #cccccc; stroke-linecap: round"/>
     </g>
    </g>
    <g id="xtick_20">
     <g id="line2d_20">
      <path d="M 322.294948 130.98 
L 322.294948 7.2 
" clip-path="url(#p5c29114cd0)" style="fill: none; stroke: #cccccc; stroke-linecap: round"/>
     </g>
    </g>
    <g id="xtick_21">
     <g id="line2d_21">
      <path d="M 326.794328 130.98 
L 326.794328 7.2 
" clip-path="url(#p5c29114cd0)" style="fill: none; stroke: #cccccc; stroke-linecap: round"/>
     </g>
    </g>
    <g id="xtick_22">
     <g id="line2d_22">
      <path d="M 330.763063 130.98 
L 330.763063 7.2 
" clip-path="url(#p5c29114cd0)" style="fill: none; stroke: #cccccc; stroke-linecap: round"/>
     </g>
    </g>
    <g id="xtick_23">
     <g id="line2d_23">
      <path d="M 357.669019 130.98 
L 357.669019 7.2 
" clip-path="url(#p5c29114cd0)" style="fill: none; stroke: #cccccc; stroke-linecap: round"/>
     </g>
    </g>
    <g id="xtick_24">
     <g id="line2d_24">
      <path d="M 371.331288 130.98 
L 371.331288 7.2 
" clip-path="url(#p5c29114cd0)" style="fill: none; stroke: #cccccc; stroke-linecap: round"/>
     </g>
    </g>
    <g id="xtick_25">
     <g id="line2d_25">
      <path d="M 381.024822 130.98 
L 381.024822 7.2 
" clip-path="url(#p5c29114cd0)" style="fill: none; stroke: #cccccc; stroke-linecap: round"/>
     </g>
    </g>
    <g id="xtick_26">
     <g id="line2d_26">
      <path d="M 388.543711 130.98 
L 388.543711 7.2 
" clip-path="url(#p5c29114cd0)" style="fill: none; stroke: #cccccc; stroke-linecap: round"/>
     </g>
    </g>
    <g id="xtick_27">
     <g id="line2d_27">
      <path d="M 394.68709 130.98 
L 394.68709 7.2 
" clip-path="url(#p5c29114cd0)" style="fill: none; stroke: #cccccc; stroke-linecap: round"/>
     </g>
    </g>
    <g id="xtick_28">
     <g id="line2d_28">
      <path d="M 399.881244 130.98 
L 399.881244 7.2 
" clip-path="url(#p5c29114cd0)" style="fill: none; stroke: #cccccc; stroke-linecap: round"/>
     </g>
    </g>
    <g id="xtick_29">
     <g id="line2d_29">
      <path d="M 404.380624 130.98 
L 404.380624 7.2 
" clip-path="url(#p5c29114cd0)" style="fill: none; stroke: #cccccc; stroke-linecap: round"/>
     </g>
    </g>
    <g id="xtick_30">
     <g id="line2d_30">
      <path d="M 408.349359 130.98 
L 408.349359 7.2 
" clip-path="url(#p5c29114cd0)" style="fill: none; stroke: #cccccc; stroke-linecap: round"/>
     </g>
    </g>
    <g id="xtick_31">
     <g id="line2d_31">
      <path d="M 435.255315 130.98 
L 435.255315 7.2 
" clip-path="url(#p5c29114cd0)" style="fill: none; stroke: #cccccc; stroke-linecap: round"/>
     </g>
    </g>
    <g id="xtick_32">
     <g id="line2d_32">
      <path d="M 448.917584 130.98 
L 448.917584 7.2 
" clip-path="url(#p5c29114cd0)" style="fill: none; stroke: #cccccc; stroke-linecap: round"/>
     </g>
    </g>
    <g id="xtick_33">
     <g id="line2d_33">
      <path d="M 458.611118 130.98 
L 458.611118 7.2 
" clip-path="url(#p5c29114cd0)" style="fill: none; stroke: #cccccc; stroke-linecap: round"/>
     </g>
    </g>
    <g id="xtick_34">
     <g id="line2d_34">
      <path d="M 466.130007 130.98 
L 466.130007 7.2 
" clip-path="url(#p5c29114cd0)" style="fill: none; stroke: #cccccc; stroke-linecap: round"/>
     </g>
    </g>
    <g id="xtick_35">
     <g id="line2d_35">
      <path d="M 472.273386 130.98 
L 472.273386 7.2 
" clip-path="url(#p5c29114cd0)" style="fill: none; stroke: #cccccc; stroke-linecap: round"/>
     </g>
    </g>
    <g id="xtick_36">
     <g id="line2d_36">
      <path d="M 477.46754 130.98 
L 477.46754 7.2 
" clip-path="url(#p5c29114cd0)" style="fill: none; stroke: #cccccc; stroke-linecap: round"/>
     </g>
    </g>
    <g id="xtick_37">
     <g id="line2d_37">
      <path d="M 481.96692 130.98 
L 481.96692 7.2 
" clip-path="url(#p5c29114cd0)" style="fill: none; stroke: #cccccc; stroke-linecap: round"/>
     </g>
    </g>
    <g id="xtick_38">
     <g id="line2d_38">
      <path d="M 485.935655 130.98 
L 485.935655 7.2 
" clip-path="url(#p5c29114cd0)" style="fill: none; stroke: #cccccc; stroke-linecap: round"/>
     </g>
    </g>
    <g id="xtick_39">
     <g id="line2d_39">
      <path d="M 512.841611 130.98 
L 512.841611 7.2 
" clip-path="url(#p5c29114cd0)" style="fill: none; stroke: #cccccc; stroke-linecap: round"/>
     </g>
    </g>
    <g id="xtick_40">
     <g id="line2d_40">
      <path d="M 526.50388 130.98 
L 526.50388 7.2 
" clip-path="url(#p5c29114cd0)" style="fill: none; stroke: #cccccc; stroke-linecap: round"/>
     </g>
    </g>
    <g id="xtick_41">
     <g id="line2d_41">
      <path d="M 536.197414 130.98 
L 536.197414 7.2 
" clip-path="url(#p5c29114cd0)" style="fill: none; stroke: #cccccc; stroke-linecap: round"/>
     </g>
    </g>
    <g id="xtick_42">
     <g id="line2d_42">
      <path d="M 543.716303 130.98 
L 543.716303 7.2 
" clip-path="url(#p5c29114cd0)" style="fill: none; stroke: #cccccc; stroke-linecap: round"/>
     </g>
    </g>
    <g id="xtick_43">
     <g id="line2d_43">
      <path d="M 549.859682 130.98 
L 549.859682 7.2 
" clip-path="url(#p5c29114cd0)" style="fill: none; stroke: #cccccc; stroke-linecap: round"/>
     </g>
    </g>
    <g id="xtick_44">
     <g id="line2d_44">
      <path d="M 555.053836 130.98 
L 555.053836 7.2 
" clip-path="url(#p5c29114cd0)" style="fill: none; stroke: #cccccc; stroke-linecap: round"/>
     </g>
    </g>
    <g id="xtick_45">
     <g id="line2d_45">
      <path d="M 559.553216 130.98 
L 559.553216 7.2 
" clip-path="url(#p5c29114cd0)" style="fill: none; stroke: #cccccc; stroke-linecap: round"/>
     </g>
    </g>
    <g id="xtick_46">
     <g id="line2d_46">
      <path d="M 563.521951 130.98 
L 563.521951 7.2 
" clip-path="url(#p5c29114cd0)" style="fill: none; stroke: #cccccc; stroke-linecap: round"/>
     </g>
    </g>
    <g id="text_7">
     <!-- Speed [GiB/s] - logarithmic -->
     <g style="fill: #262626" transform="translate(251.786365 180.126094) scale(0.18 -0.18)">
      <defs>
       <path id="DejaVuSans-53" d="M 3425 4513 
L 3425 3897 
Q 3066 4069 2747 4153 
Q 2428 4238 2131 4238 
Q 1616 4238 1336 4038 
Q 1056 3838 1056 3469 
Q 1056 3159 1242 3001 
Q 1428 2844 1947 2747 
L 2328 2669 
Q 3034 2534 3370 2195 
Q 3706 1856 3706 1288 
Q 3706 609 3251 259 
Q 2797 -91 1919 -91 
Q 1588 -91 1214 -16 
Q 841 59 441 206 
L 441 856 
Q 825 641 1194 531 
Q 1563 422 1919 422 
Q 2459 422 2753 634 
Q 3047 847 3047 1241 
Q 3047 1584 2836 1778 
Q 2625 1972 2144 2069 
L 1759 2144 
Q 1053 2284 737 2584 
Q 422 2884 422 3419 
Q 422 4038 858 4394 
Q 1294 4750 2059 4750 
Q 2388 4750 2728 4690 
Q 3069 4631 3425 4513 
z
" transform="scale(0.015625)"/>
       <path id="DejaVuSans-70" d="M 1159 525 
L 1159 -1331 
L 581 -1331 
L 581 3500 
L 1159 3500 
L 1159 2969 
Q 1341 3281 1617 3432 
Q 1894 3584 2278 3584 
Q 2916 3584 3314 3078 
Q 3713 2572 3713 1747 
Q 3713 922 3314 415 
Q 2916 -91 2278 -91 
Q 1894 -91 1617 61 
Q 1341 213 1159 525 
z
M 3116 1747 
Q 3116 2381 2855 2742 
Q 2594 3103 2138 3103 
Q 1681 3103 1420 2742 
Q 1159 2381 1159 1747 
Q 1159 1113 1420 752 
Q 1681 391 2138 391 
Q 2594 391 2855 752 
Q 3116 1113 3116 1747 
z
" transform="scale(0.015625)"/>
       <path id="DejaVuSans-65" d="M 3597 1894 
L 3597 1613 
L 953 1613 
Q 991 1019 1311 708 
Q 1631 397 2203 397 
Q 2534 397 2845 478 
Q 3156 559 3463 722 
L 3463 178 
Q 3153 47 2828 -22 
Q 2503 -91 2169 -91 
Q 1331 -91 842 396 
Q 353 884 353 1716 
Q 353 2575 817 3079 
Q 1281 3584 2069 3584 
Q 2775 3584 3186 3129 
Q 3597 2675 3597 1894 
z
M 3022 2063 
Q 3016 2534 2758 2815 
Q 2500 3097 2075 3097 
Q 1594 3097 1305 2825 
Q 1016 2553 972 2059 
L 3022 2063 
z
" transform="scale(0.015625)"/>
       <path id="DejaVuSans-64" d="M 2906 2969 
L 2906 4863 
L 3481 4863 
L 3481 0 
L 2906 0 
L 2906 525 
Q 2725 213 2448 61 
Q 2172 -91 1784 -91 
Q 1150 -91 751 415 
Q 353 922 353 1747 
Q 353 2572 751 3078 
Q 1150 3584 1784 3584 
Q 2172 3584 2448 3432 
Q 2725 3281 2906 2969 
z
M 947 1747 
Q 947 1113 1208 752 
Q 1469 391 1925 391 
Q 2381 391 2643 752 
Q 2906 1113 2906 1747 
Q 2906 2381 2643 2742 
Q 2381 3103 1925 3103 
Q 1469 3103 1208 2742 
Q 947 2381 947 1747 
z
" transform="scale(0.015625)"/>
       <path id="DejaVuSans-20" transform="scale(0.015625)"/>
       <path id="DejaVuSans-5b" d="M 550 4863 
L 1875 4863 
L 1875 4416 
L 1125 4416 
L 1125 -397 
L 1875 -397 
L 1875 -844 
L 550 -844 
L 550 4863 
z
" transform="scale(0.015625)"/>
       <path id="DejaVuSans-47" d="M 3809 666 
L 3809 1919 
L 2778 1919 
L 2778 2438 
L 4434 2438 
L 4434 434 
Q 4069 175 3628 42 
Q 3188 -91 2688 -91 
Q 1594 -91 976 548 
Q 359 1188 359 2328 
Q 359 3472 976 4111 
Q 1594 4750 2688 4750 
Q 3144 4750 3555 4637 
Q 3966 4525 4313 4306 
L 4313 3634 
Q 3963 3931 3569 4081 
Q 3175 4231 2741 4231 
Q 1884 4231 1454 3753 
Q 1025 3275 1025 2328 
Q 1025 1384 1454 906 
Q 1884 428 2741 428 
Q 3075 428 3337 486 
Q 3600 544 3809 666 
z
" transform="scale(0.015625)"/>
       <path id="DejaVuSans-69" d="M 603 3500 
L 1178 3500 
L 1178 0 
L 603 0 
L 603 3500 
z
M 603 4863 
L 1178 4863 
L 1178 4134 
L 603 4134 
L 603 4863 
z
" transform="scale(0.015625)"/>
       <path id="DejaVuSans-42" d="M 1259 2228 
L 1259 519 
L 2272 519 
Q 2781 519 3026 730 
Q 3272 941 3272 1375 
Q 3272 1813 3026 2020 
Q 2781 2228 2272 2228 
L 1259 2228 
z
M 1259 4147 
L 1259 2741 
L 2194 2741 
Q 2656 2741 2882 2914 
Q 3109 3088 3109 3444 
Q 3109 3797 2882 3972 
Q 2656 4147 2194 4147 
L 1259 4147 
z
M 628 4666 
L 2241 4666 
Q 2963 4666 3353 4366 
Q 3744 4066 3744 3513 
Q 3744 3084 3544 2831 
Q 3344 2578 2956 2516 
Q 3422 2416 3680 2098 
Q 3938 1781 3938 1306 
Q 3938 681 3513 340 
Q 3088 0 2303 0 
L 628 0 
L 628 4666 
z
" transform="scale(0.015625)"/>
       <path id="DejaVuSans-2f" d="M 1625 4666 
L 2156 4666 
L 531 -594 
L 0 -594 
L 1625 4666 
z
" transform="scale(0.015625)"/>
       <path id="DejaVuSans-73" d="M 2834 3397 
L 2834 2853 
Q 2591 2978 2328 3040 
Q 2066 3103 1784 3103 
Q 1356 3103 1142 2972 
Q 928 2841 928 2578 
Q 928 2378 1081 2264 
Q 1234 2150 1697 2047 
L 1894 2003 
Q 2506 1872 2764 1633 
Q 3022 1394 3022 966 
Q 3022 478 2636 193 
Q 2250 -91 1575 -91 
Q 1294 -91 989 -36 
Q 684 19 347 128 
L 347 722 
Q 666 556 975 473 
Q 1284 391 1588 391 
Q 1994 391 2212 530 
Q 2431 669 2431 922 
Q 2431 1156 2273 1281 
Q 2116 1406 1581 1522 
L 1381 1569 
Q 847 1681 609 1914 
Q 372 2147 372 2553 
Q 372 3047 722 3315 
Q 1072 3584 1716 3584 
Q 2034 3584 2315 3537 
Q 2597 3491 2834 3397 
z
" transform="scale(0.015625)"/>
       <path id="DejaVuSans-5d" d="M 1947 4863 
L 1947 -844 
L 622 -844 
L 622 -397 
L 1369 -397 
L 1369 4416 
L 622 4416 
L 622 4863 
L 1947 4863 
z
" transform="scale(0.015625)"/>
       <path id="DejaVuSans-2d" d="M 313 2009 
L 1997 2009 
L 1997 1497 
L 313 1497 
L 313 2009 
z
" transform="scale(0.015625)"/>
       <path id="DejaVuSans-6c" d="M 603 4863 
L 1178 4863 
L 1178 0 
L 603 0 
L 603 4863 
z
" transform="scale(0.015625)"/>
       <path id="DejaVuSans-6f" d="M 1959 3097 
Q 1497 3097 1228 2736 
Q 959 2375 959 1747 
Q 959 1119 1226 758 
Q 1494 397 1959 397 
Q 2419 397 2687 759 
Q 2956 1122 2956 1747 
Q 2956 2369 2687 2733 
Q 2419 3097 1959 3097 
z
M 1959 3584 
Q 2709 3584 3137 3096 
Q 3566 2609 3566 1747 
Q 3566 888 3137 398 
Q 2709 -91 1959 -91 
Q 1206 -91 779 398 
Q 353 888 353 1747 
Q 353 2609 779 3096 
Q 1206 3584 1959 3584 
z
" transform="scale(0.015625)"/>
       <path id="DejaVuSans-67" d="M 2906 1791 
Q 2906 2416 2648 2759 
Q 2391 3103 1925 3103 
Q 1463 3103 1205 2759 
Q 947 2416 947 1791 
Q 947 1169 1205 825 
Q 1463 481 1925 481 
Q 2391 481 2648 825 
Q 2906 1169 2906 1791 
z
M 3481 434 
Q 3481 -459 3084 -895 
Q 2688 -1331 1869 -1331 
Q 1566 -1331 1297 -1286 
Q 1028 -1241 775 -1147 
L 775 -588 
Q 1028 -725 1275 -790 
Q 1522 -856 1778 -856 
Q 2344 -856 2625 -561 
Q 2906 -266 2906 331 
L 2906 616 
Q 2728 306 2450 153 
Q 2172 0 1784 0 
Q 1141 0 747 490 
Q 353 981 353 1791 
Q 353 2603 747 3093 
Q 1141 3584 1784 3584 
Q 2172 3584 2450 3431 
Q 2728 3278 2906 2969 
L 2906 3500 
L 3481 3500 
L 3481 434 
z
" transform="scale(0.015625)"/>
       <path id="DejaVuSans-61" d="M 2194 1759 
Q 1497 1759 1228 1600 
Q 959 1441 959 1056 
Q 959 750 1161 570 
Q 1363 391 1709 391 
Q 2188 391 2477 730 
Q 2766 1069 2766 1631 
L 2766 1759 
L 2194 1759 
z
M 3341 1997 
L 3341 0 
L 2766 0 
L 2766 531 
Q 2569 213 2275 61 
Q 1981 -91 1556 -91 
Q 1019 -91 701 211 
Q 384 513 384 1019 
Q 384 1609 779 1909 
Q 1175 2209 1959 2209 
L 2766 2209 
L 2766 2266 
Q 2766 2663 2505 2880 
Q 2244 3097 1772 3097 
Q 1472 3097 1187 3025 
Q 903 2953 641 2809 
L 641 3341 
Q 956 3463 1253 3523 
Q 1550 3584 1831 3584 
Q 2591 3584 2966 3190 
Q 3341 2797 3341 1997 
z
" transform="scale(0.015625)"/>
       <path id="DejaVuSans-72" d="M 2631 2963 
Q 2534 3019 2420 3045 
Q 2306 3072 2169 3072 
Q 1681 3072 1420 2755 
Q 1159 2438 1159 1844 
L 1159 0 
L 581 0 
L 581 3500 
L 1159 3500 
L 1159 2956 
Q 1341 3275 1631 3429 
Q 1922 3584 2338 3584 
Q 2397 3584 2469 3576 
Q 2541 3569 2628 3553 
L 2631 2963 
z
" transform="scale(0.015625)"/>
       <path id="DejaVuSans-74" d="M 1172 4494 
L 1172 3500 
L 2356 3500 
L 2356 3053 
L 1172 3053 
L 1172 1153 
Q 1172 725 1289 603 
Q 1406 481 1766 481 
L 2356 481 
L 2356 0 
L 1766 0 
Q 1100 0 847 248 
Q 594 497 594 1153 
L 594 3053 
L 172 3053 
L 172 3500 
L 594 3500 
L 594 4494 
L 1172 4494 
z
" transform="scale(0.015625)"/>
       <path id="DejaVuSans-68" d="M 3513 2113 
L 3513 0 
L 2938 0 
L 2938 2094 
Q 2938 2591 2744 2837 
Q 2550 3084 2163 3084 
Q 1697 3084 1428 2787 
Q 1159 2491 1159 1978 
L 1159 0 
L 581 0 
L 581 4863 
L 1159 4863 
L 1159 2956 
Q 1366 3272 1645 3428 
Q 1925 3584 2291 3584 
Q 2894 3584 3203 3211 
Q 3513 2838 3513 2113 
z
" transform="scale(0.015625)"/>
       <path id="DejaVuSans-6d" d="M 3328 2828 
Q 3544 3216 3844 3400 
Q 4144 3584 4550 3584 
Q 5097 3584 5394 3201 
Q 5691 2819 5691 2113 
L 5691 0 
L 5113 0 
L 5113 2094 
Q 5113 2597 4934 2840 
Q 4756 3084 4391 3084 
Q 3944 3084 3684 2787 
Q 3425 2491 3425 1978 
L 3425 0 
L 2847 0 
L 2847 2094 
Q 2847 2600 2669 2842 
Q 2491 3084 2119 3084 
Q 1678 3084 1418 2786 
Q 1159 2488 1159 1978 
L 1159 0 
L 581 0 
L 581 3500 
L 1159 3500 
L 1159 2956 
Q 1356 3278 1631 3431 
Q 1906 3584 2284 3584 
Q 2666 3584 2933 3390 
Q 3200 3197 3328 2828 
z
" transform="scale(0.015625)"/>
       <path id="DejaVuSans-63" d="M 3122 3366 
L 3122 2828 
Q 2878 2963 2633 3030 
Q 2388 3097 2138 3097 
Q 1578 3097 1268 2742 
Q 959 2388 959 1747 
Q 959 1106 1268 751 
Q 1578 397 2138 397 
Q 2388 397 2633 464 
Q 2878 531 3122 666 
L 3122 134 
Q 2881 22 2623 -34 
Q 2366 -91 2075 -91 
Q 1284 -91 818 406 
Q 353 903 353 1747 
Q 353 2603 823 3093 
Q 1294 3584 2113 3584 
Q 2378 3584 2631 3529 
Q 2884 3475 3122 3366 
z
" transform="scale(0.015625)"/>
      </defs>
      <use xlink:href="#DejaVuSans-53"/>
      <use xlink:href="#DejaVuSans-70" x="63.476562"/>
      <use xlink:href="#DejaVuSans-65" x="126.953125"/>
      <use xlink:href="#DejaVuSans-65" x="188.476562"/>
      <use xlink:href="#DejaVuSans-64" x="250"/>
      <use xlink:href="#DejaVuSans-20" x="313.476562"/>
      <use xlink:href="#DejaVuSans-5b" x="345.263672"/>
      <use xlink:href="#DejaVuSans-47" x="384.277344"/>
      <use xlink:href="#DejaVuSans-69" x="461.767578"/>
      <use xlink:href="#DejaVuSans-42" x="489.550781"/>
      <use xlink:href="#DejaVuSans-2f" x="558.154297"/>
      <use xlink:href="#DejaVuSans-73" x="591.845703"/>
      <use xlink:href="#DejaVuSans-5d" x="643.945312"/>
      <use xlink:href="#DejaVuSans-20" x="682.958984"/>
      <use xlink:href="#DejaVuSans-2d" x="714.746094"/>
      <use xlink:href="#DejaVuSans-20" x="750.830078"/>
      <use xlink:href="#DejaVuSans-6c" x="782.617188"/>
      <use xlink:href="#DejaVuSans-6f" x="810.400391"/>
      <use xlink:href="#DejaVuSans-67" x="871.582031"/>
      <use xlink:href="#DejaVuSans-61" x="935.058594"/>
      <use xlink:href="#DejaVuSans-72" x="996.337891"/>
      <use xlink:href="#DejaVuSans-69" x="1037.451172"/>
      <use xlink:href="#DejaVuSans-74" x="1065.234375"/>
      <use xlink:href="#DejaVuSans-68" x="1104.443359"/>
      <use xlink:href="#DejaVuSans-6d" x="1167.822266"/>
      <use xlink:href="#DejaVuSans-69" x="1265.234375"/>
      <use xlink:href="#DejaVuSans-63" x="1293.017578"/>
     </g>
    </g>
   </g>
   <g id="matplotlib.axis_2">
    <g id="ytick_1">
     <g id="text_8">
      <!-- virtio-balloon -->
      <g style="fill: #262626" transform="translate(54.694219 28.941211) scale(0.165 -0.165)">
       <defs>
        <path id="DejaVuSans-76" d="M 191 3500 
L 800 3500 
L 1894 563 
L 2988 3500 
L 3597 3500 
L 2284 0 
L 1503 0 
L 191 3500 
z
" transform="scale(0.015625)"/>
        <path id="DejaVuSans-62" d="M 3116 1747 
Q 3116 2381 2855 2742 
Q 2594 3103 2138 3103 
Q 1681 3103 1420 2742 
Q 1159 2381 1159 1747 
Q 1159 1113 1420 752 
Q 1681 391 2138 391 
Q 2594 391 2855 752 
Q 3116 1113 3116 1747 
z
M 1159 2969 
Q 1341 3281 1617 3432 
Q 1894 3584 2278 3584 
Q 2916 3584 3314 3078 
Q 3713 2572 3713 1747 
Q 3713 922 3314 415 
Q 2916 -91 2278 -91 
Q 1894 -91 1617 61 
Q 1341 213 1159 525 
L 1159 0 
L 581 0 
L 581 4863 
L 1159 4863 
L 1159 2969 
z
" transform="scale(0.015625)"/>
        <path id="DejaVuSans-6e" d="M 3513 2113 
L 3513 0 
L 2938 0 
L 2938 2094 
Q 2938 2591 2744 2837 
Q 2550 3084 2163 3084 
Q 1697 3084 1428 2787 
Q 1159 2491 1159 1978 
L 1159 0 
L 581 0 
L 581 3500 
L 1159 3500 
L 1159 2956 
Q 1366 3272 1645 3428 
Q 1925 3584 2291 3584 
Q 2894 3584 3203 3211 
Q 3513 2838 3513 2113 
z
" transform="scale(0.015625)"/>
       </defs>
       <use xlink:href="#DejaVuSans-76"/>
       <use xlink:href="#DejaVuSans-69" x="59.179688"/>
       <use xlink:href="#DejaVuSans-72" x="86.962891"/>
       <use xlink:href="#DejaVuSans-74" x="128.076172"/>
       <use xlink:href="#DejaVuSans-69" x="167.285156"/>
       <use xlink:href="#DejaVuSans-6f" x="195.068359"/>
       <use xlink:href="#DejaVuSans-2d" x="258.125"/>
       <use xlink:href="#DejaVuSans-62" x="294.208984"/>
       <use xlink:href="#DejaVuSans-61" x="357.685547"/>
       <use xlink:href="#DejaVuSans-6c" x="418.964844"/>
       <use xlink:href="#DejaVuSans-6c" x="446.748047"/>
       <use xlink:href="#DejaVuSans-6f" x="474.53125"/>
       <use xlink:href="#DejaVuSans-6f" x="535.712891"/>
       <use xlink:href="#DejaVuSans-6e" x="596.894531"/>
      </g>
     </g>
    </g>
    <g id="ytick_2">
     <g id="text_9">
      <!-- virtio-balloon-huge -->
      <g style="fill: #262626" transform="translate(7.2 59.886211) scale(0.165 -0.165)">
       <defs>
        <path id="DejaVuSans-75" d="M 544 1381 
L 544 3500 
L 1119 3500 
L 1119 1403 
Q 1119 906 1312 657 
Q 1506 409 1894 409 
Q 2359 409 2629 706 
Q 2900 1003 2900 1516 
L 2900 3500 
L 3475 3500 
L 3475 0 
L 2900 0 
L 2900 538 
Q 2691 219 2414 64 
Q 2138 -91 1772 -91 
Q 1169 -91 856 284 
Q 544 659 544 1381 
z
M 1991 3584 
L 1991 3584 
z
" transform="scale(0.015625)"/>
       </defs>
       <use xlink:href="#DejaVuSans-76"/>
       <use xlink:href="#DejaVuSans-69" x="59.179688"/>
       <use xlink:href="#DejaVuSans-72" x="86.962891"/>
       <use xlink:href="#DejaVuSans-74" x="128.076172"/>
       <use xlink:href="#DejaVuSans-69" x="167.285156"/>
       <use xlink:href="#DejaVuSans-6f" x="195.068359"/>
       <use xlink:href="#DejaVuSans-2d" x="258.125"/>
       <use xlink:href="#DejaVuSans-62" x="294.208984"/>
       <use xlink:href="#DejaVuSans-61" x="357.685547"/>
       <use xlink:href="#DejaVuSans-6c" x="418.964844"/>
       <use xlink:href="#DejaVuSans-6c" x="446.748047"/>
       <use xlink:href="#DejaVuSans-6f" x="474.53125"/>
       <use xlink:href="#DejaVuSans-6f" x="535.712891"/>
       <use xlink:href="#DejaVuSans-6e" x="596.894531"/>
       <use xlink:href="#DejaVuSans-2d" x="660.273438"/>
       <use xlink:href="#DejaVuSans-68" x="696.357422"/>
       <use xlink:href="#DejaVuSans-75" x="759.736328"/>
       <use xlink:href="#DejaVuSans-67" x="823.115234"/>
       <use xlink:href="#DejaVuSans-65" x="886.591797"/>
      </g>
     </g>
    </g>
    <g id="ytick_3">
     <g id="text_10">
      <!-- virtio-mem -->
      <g style="fill: #262626" transform="translate(72.800391 90.831211) scale(0.165 -0.165)">
       <use xlink:href="#DejaVuSans-76"/>
       <use xlink:href="#DejaVuSans-69" x="59.179688"/>
       <use xlink:href="#DejaVuSans-72" x="86.962891"/>
       <use xlink:href="#DejaVuSans-74" x="128.076172"/>
       <use xlink:href="#DejaVuSans-69" x="167.285156"/>
       <use xlink:href="#DejaVuSans-6f" x="195.068359"/>
       <use xlink:href="#DejaVuSans-2d" x="258.125"/>
       <use xlink:href="#DejaVuSans-6d" x="294.208984"/>
       <use xlink:href="#DejaVuSans-65" x="391.621094"/>
       <use xlink:href="#DejaVuSans-6d" x="453.144531"/>
      </g>
     </g>
    </g>
    <g id="ytick_4">
     <g id="text_11">
      <!-- HyperAlloc -->
      <g style="fill: #262626" transform="translate(74.432344 121.776211) scale(0.165 -0.165)">
       <defs>
        <path id="DejaVuSans-48" d="M 628 4666 
L 1259 4666 
L 1259 2753 
L 3553 2753 
L 3553 4666 
L 4184 4666 
L 4184 0 
L 3553 0 
L 3553 2222 
L 1259 2222 
L 1259 0 
L 628 0 
L 628 4666 
z
" transform="scale(0.015625)"/>
        <path id="DejaVuSans-79" d="M 2059 -325 
Q 1816 -950 1584 -1140 
Q 1353 -1331 966 -1331 
L 506 -1331 
L 506 -850 
L 844 -850 
Q 1081 -850 1212 -737 
Q 1344 -625 1503 -206 
L 1606 56 
L 191 3500 
L 800 3500 
L 1894 763 
L 2988 3500 
L 3597 3500 
L 2059 -325 
z
" transform="scale(0.015625)"/>
        <path id="DejaVuSans-41" d="M 2188 4044 
L 1331 1722 
L 3047 1722 
L 2188 4044 
z
M 1831 4666 
L 2547 4666 
L 4325 0 
L 3669 0 
L 3244 1197 
L 1141 1197 
L 716 0 
L 50 0 
L 1831 4666 
z
" transform="scale(0.015625)"/>
       </defs>
       <use xlink:href="#DejaVuSans-48"/>
       <use xlink:href="#DejaVuSans-79" x="75.195312"/>
       <use xlink:href="#DejaVuSans-70" x="134.375"/>
       <use xlink:href="#DejaVuSans-65" x="197.851562"/>
       <use xlink:href="#DejaVuSans-72" x="259.375"/>
       <use xlink:href="#DejaVuSans-41" x="300.488281"/>
       <use xlink:href="#DejaVuSans-6c" x="368.896484"/>
       <use xlink:href="#DejaVuSans-6c" x="396.679688"/>
       <use xlink:href="#DejaVuSans-6f" x="424.462891"/>
       <use xlink:href="#DejaVuSans-63" x="485.644531"/>
      </g>
     </g>
    </g>
   </g>
   <g id="patch_3">
    <path d="M -77329.569079 10.2945 
L 255.050328 10.2945 
L 255.050328 35.0505 
L -77329.569079 35.0505 
z
" clip-path="url(#p5c29114cd0)" style="fill: #176d9c; stroke: #ffffff; stroke-width: 2; stroke-linejoin: miter"/>
   </g>
   <g id="patch_4">
    <path d="M -77329.569079 41.2395 
L 422.318757 41.2395 
L 422.318757 65.9955 
L -77329.569079 65.9955 
z
" clip-path="url(#p5c29114cd0)" style="fill: #158b6a; stroke: #ffffff; stroke-width: 2; stroke-linejoin: miter"/>
   </g>
   <g id="patch_5">
    <path d="M -77329.569079 72.1845 
L 376.040512 72.1845 
L 376.040512 96.9405 
L -77329.569079 96.9405 
z
" clip-path="url(#p5c29114cd0)" style="fill: #ba611b; stroke: #ffffff; stroke-width: 2; stroke-linejoin: miter"/>
   </g>
   <g id="patch_6">
    <path d="M -77329.569079 103.1295 
L 453.612003 103.1295 
L 453.612003 127.8855 
L -77329.569079 127.8855 
z
" clip-path="url(#p5c29114cd0)" style="fill: #c282b5; stroke: #ffffff; stroke-width: 2; stroke-linejoin: miter"/>
   </g>
   <g id="line2d_47">
    <path d="M 254.901089 22.6725 
L 255.217442 22.6725 
" clip-path="url(#p5c29114cd0)" style="fill: none; stroke: #424242; stroke-width: 4.5; stroke-linecap: round"/>
   </g>
   <g id="line2d_48">
    <path d="M 421.811338 53.6175 
L 422.879431 53.6175 
" clip-path="url(#p5c29114cd0)" style="fill: none; stroke: #424242; stroke-width: 4.5; stroke-linecap: round"/>
   </g>
   <g id="line2d_49">
    <path d="M 375.903342 84.5625 
L 376.201773 84.5625 
" clip-path="url(#p5c29114cd0)" style="fill: none; stroke: #424242; stroke-width: 4.5; stroke-linecap: round"/>
   </g>
   <g id="line2d_50">
    <path d="M 452.418241 115.5075 
L 454.913584 115.5075 
" clip-path="url(#p5c29114cd0)" style="fill: none; stroke: #424242; stroke-width: 4.5; stroke-linecap: round"/>
   </g>
   <g id="patch_7">
    <path d="M 179.140625 130.98 
L 179.140625 7.2 
" style="fill: none; stroke: #cccccc; stroke-width: 2.5; stroke-linejoin: miter; stroke-linecap: square"/>
   </g>
   <g id="patch_8">
    <path d="M 179.140625 130.98 
L 567.072105 130.98 
" style="fill: none; stroke: #cccccc; stroke-width: 2.5; stroke-linejoin: miter; stroke-linecap: square"/>
   </g>
   <g id="text_12">
    <path d="M 266.368453 25.801875 
L 266.368453 24.72375 
Q 266.814703 24.935625 267.270328 25.04625 
Q 267.727828 25.156875 268.168453 25.156875 
Q 269.340328 25.156875 269.957203 24.369375 
Q 270.575953 23.581875 270.664078 21.975 
Q 270.324703 22.479375 269.801578 22.749375 
Q 269.280328 23.019375 268.648453 23.019375 
Q 267.335953 23.019375 266.570953 22.22625 
Q 265.805953 21.43125 265.805953 20.053125 
Q 265.805953 18.706875 266.602828 17.893125 
Q 267.399703 17.0775 268.723453 17.0775 
Q 270.242203 17.0775 271.040953 18.241875 
Q 271.841578 19.404375 271.841578 21.61875 
Q 271.841578 23.686875 270.859078 24.920625 
Q 269.878453 26.154375 268.220953 26.154375 
Q 267.774703 26.154375 267.317203 26.06625 
Q 266.861578 25.978125 266.368453 25.801875 
z
M 268.723453 22.093125 
Q 269.520328 22.093125 269.985328 21.549375 
Q 270.452203 21.00375 270.452203 20.053125 
Q 270.452203 19.11 269.985328 18.5625 
Q 269.520328 18.015 268.723453 18.015 
Q 267.926578 18.015 267.461578 18.5625 
Q 266.996578 19.11 266.996578 20.053125 
Q 266.996578 21.00375 267.461578 21.549375 
Q 267.926578 22.093125 268.723453 22.093125 
z
M 273.669468 17.235 
L 279.294468 17.235 
L 279.294468 17.739375 
L 276.118218 25.98375 
L 274.882593 25.98375 
L 277.871343 18.2325 
L 273.669468 18.2325 
L 273.669468 17.235 
z
M 284.855484 18.26625 
L 281.866734 22.936875 
L 284.855484 22.936875 
L 284.855484 18.26625 
z
M 284.544234 17.235 
L 286.032984 17.235 
L 286.032984 22.936875 
L 287.281734 22.936875 
L 287.281734 23.92125 
L 286.032984 23.92125 
L 286.032984 25.98375 
L 284.855484 25.98375 
L 284.855484 23.92125 
L 280.906734 23.92125 
L 280.906734 22.779375 
L 284.544234 17.235 
z
M 289.237125 24.495 
L 290.474625 24.495 
L 290.474625 25.98375 
L 289.237125 25.98375 
L 289.237125 24.495 
z
M 296.638453 21.26625 
Q 297.487828 21.448125 297.964078 22.02375 
Q 298.442203 22.5975 298.442203 23.44125 
Q 298.442203 24.735 297.551578 25.445625 
Q 296.660953 26.154375 295.020328 26.154375 
Q 294.470953 26.154375 293.887828 26.045625 
Q 293.304703 25.936875 292.684078 25.719375 
L 292.684078 24.5775 
Q 293.175328 24.864375 293.760328 25.010625 
Q 294.347203 25.156875 294.986578 25.156875 
Q 296.098453 25.156875 296.681578 24.718125 
Q 297.264703 24.279375 297.264703 23.44125 
Q 297.264703 22.666875 296.722828 22.231875 
Q 296.180953 21.795 295.215328 21.795 
L 294.195328 21.795 
L 294.195328 20.821875 
L 295.262203 20.821875 
Q 296.134078 20.821875 296.597203 20.473125 
Q 297.060328 20.124375 297.060328 19.468125 
Q 297.060328 18.795 296.582203 18.435 
Q 296.105953 18.073125 295.215328 18.073125 
Q 294.727828 18.073125 294.170953 18.18 
Q 293.614078 18.285 292.946578 18.50625 
L 292.946578 17.4525 
Q 293.621578 17.265 294.210328 17.17125 
Q 294.799078 17.0775 295.320328 17.0775 
Q 296.668453 17.0775 297.452203 17.690625 
Q 298.237828 18.301875 298.237828 19.344375 
Q 298.237828 20.071875 297.821578 20.5725 
Q 297.405328 21.073125 296.638453 21.26625 
z
M 304.395797 17.235 
L 306.160172 17.235 
L 308.391422 23.188125 
L 310.635797 17.235 
L 312.400172 17.235 
L 312.400172 25.98375 
L 311.245172 25.98375 
L 311.245172 18.301875 
L 308.989547 24.301875 
L 307.800797 24.301875 
L 305.545172 18.301875 
L 305.545172 25.98375 
L 304.395797 25.98375 
L 304.395797 17.235 
z
M 314.702437 19.42125 
L 315.780562 19.42125 
L 315.780562 25.98375 
L 314.702437 25.98375 
L 314.702437 19.42125 
z
M 314.702437 16.865625 
L 315.780562 16.865625 
L 315.780562 18.2325 
L 314.702437 18.2325 
L 314.702437 16.865625 
z
M 319.266422 21.80625 
L 319.266422 25.010625 
L 321.165797 25.010625 
Q 322.120172 25.010625 322.579547 24.615 
Q 323.040797 24.219375 323.040797 23.405625 
Q 323.040797 22.584375 322.579547 22.19625 
Q 322.120172 21.80625 321.165797 21.80625 
L 319.266422 21.80625 
z
M 319.266422 18.208125 
L 319.266422 20.844375 
L 321.019547 20.844375 
Q 321.885797 20.844375 322.309547 20.52 
Q 322.735172 20.19375 322.735172 19.52625 
Q 322.735172 18.864375 322.309547 18.53625 
Q 321.885797 18.208125 321.019547 18.208125 
L 319.266422 18.208125 
z
M 318.083297 17.235 
L 321.107672 17.235 
Q 322.461422 17.235 323.192672 17.7975 
Q 323.925797 18.36 323.925797 19.396875 
Q 323.925797 20.20125 323.550797 20.675625 
Q 323.175797 21.15 322.448297 21.26625 
Q 323.322047 21.45375 323.805797 22.05 
Q 324.289547 22.644375 324.289547 23.535 
Q 324.289547 24.706875 323.492672 25.34625 
Q 322.695797 25.98375 321.223922 25.98375 
L 318.083297 25.98375 
L 318.083297 17.235 
z
M 328.185093 17.235 
L 329.180718 17.235 
L 326.133843 27.0975 
L 325.138218 27.0975 
L 328.185093 17.235 
z
M 334.494937 19.614375 
L 334.494937 20.634375 
Q 334.039312 20.4 333.546187 20.28375 
Q 333.054937 20.165625 332.526187 20.165625 
Q 331.723687 20.165625 331.322437 20.41125 
Q 330.921187 20.656875 330.921187 21.15 
Q 330.921187 21.525 331.208062 21.73875 
Q 331.494937 21.9525 332.363062 22.145625 
L 332.732437 22.228125 
Q 333.879937 22.47375 334.363687 22.921875 
Q 334.847437 23.37 334.847437 24.1725 
Q 334.847437 25.0875 334.123687 25.621875 
Q 333.399937 26.154375 332.134312 26.154375 
Q 331.607437 26.154375 331.035562 26.05125 
Q 330.463687 25.948125 329.831812 25.74375 
L 329.831812 24.63 
Q 330.429937 24.94125 331.009312 25.096875 
Q 331.588687 25.250625 332.158687 25.250625 
Q 332.919937 25.250625 333.328687 24.99 
Q 333.739312 24.729375 333.739312 24.255 
Q 333.739312 23.81625 333.443062 23.581875 
Q 333.148687 23.3475 332.145562 23.13 
L 331.770562 23.041875 
Q 330.769312 22.831875 330.323062 22.395 
Q 329.878687 21.958125 329.878687 21.196875 
Q 329.878687 20.270625 330.534937 19.768125 
Q 331.191187 19.26375 332.398687 19.26375 
Q 332.994937 19.26375 333.521812 19.351875 
Q 334.050562 19.438125 334.494937 19.614375 
z
" style="fill: #262626; stroke: #ffffff; stroke-width: 5"/>
    <path d="M 266.368453 25.801875 
L 266.368453 24.72375 
Q 266.814703 24.935625 267.270328 25.04625 
Q 267.727828 25.156875 268.168453 25.156875 
Q 269.340328 25.156875 269.957203 24.369375 
Q 270.575953 23.581875 270.664078 21.975 
Q 270.324703 22.479375 269.801578 22.749375 
Q 269.280328 23.019375 268.648453 23.019375 
Q 267.335953 23.019375 266.570953 22.22625 
Q 265.805953 21.43125 265.805953 20.053125 
Q 265.805953 18.706875 266.602828 17.893125 
Q 267.399703 17.0775 268.723453 17.0775 
Q 270.242203 17.0775 271.040953 18.241875 
Q 271.841578 19.404375 271.841578 21.61875 
Q 271.841578 23.686875 270.859078 24.920625 
Q 269.878453 26.154375 268.220953 26.154375 
Q 267.774703 26.154375 267.317203 26.06625 
Q 266.861578 25.978125 266.368453 25.801875 
z
M 268.723453 22.093125 
Q 269.520328 22.093125 269.985328 21.549375 
Q 270.452203 21.00375 270.452203 20.053125 
Q 270.452203 19.11 269.985328 18.5625 
Q 269.520328 18.015 268.723453 18.015 
Q 267.926578 18.015 267.461578 18.5625 
Q 266.996578 19.11 266.996578 20.053125 
Q 266.996578 21.00375 267.461578 21.549375 
Q 267.926578 22.093125 268.723453 22.093125 
z
M 273.669468 17.235 
L 279.294468 17.235 
L 279.294468 17.739375 
L 276.118218 25.98375 
L 274.882593 25.98375 
L 277.871343 18.2325 
L 273.669468 18.2325 
L 273.669468 17.235 
z
M 284.855484 18.26625 
L 281.866734 22.936875 
L 284.855484 22.936875 
L 284.855484 18.26625 
z
M 284.544234 17.235 
L 286.032984 17.235 
L 286.032984 22.936875 
L 287.281734 22.936875 
L 287.281734 23.92125 
L 286.032984 23.92125 
L 286.032984 25.98375 
L 284.855484 25.98375 
L 284.855484 23.92125 
L 280.906734 23.92125 
L 280.906734 22.779375 
L 284.544234 17.235 
z
M 289.237125 24.495 
L 290.474625 24.495 
L 290.474625 25.98375 
L 289.237125 25.98375 
L 289.237125 24.495 
z
M 296.638453 21.26625 
Q 297.487828 21.448125 297.964078 22.02375 
Q 298.442203 22.5975 298.442203 23.44125 
Q 298.442203 24.735 297.551578 25.445625 
Q 296.660953 26.154375 295.020328 26.154375 
Q 294.470953 26.154375 293.887828 26.045625 
Q 293.304703 25.936875 292.684078 25.719375 
L 292.684078 24.5775 
Q 293.175328 24.864375 293.760328 25.010625 
Q 294.347203 25.156875 294.986578 25.156875 
Q 296.098453 25.156875 296.681578 24.718125 
Q 297.264703 24.279375 297.264703 23.44125 
Q 297.264703 22.666875 296.722828 22.231875 
Q 296.180953 21.795 295.215328 21.795 
L 294.195328 21.795 
L 294.195328 20.821875 
L 295.262203 20.821875 
Q 296.134078 20.821875 296.597203 20.473125 
Q 297.060328 20.124375 297.060328 19.468125 
Q 297.060328 18.795 296.582203 18.435 
Q 296.105953 18.073125 295.215328 18.073125 
Q 294.727828 18.073125 294.170953 18.18 
Q 293.614078 18.285 292.946578 18.50625 
L 292.946578 17.4525 
Q 293.621578 17.265 294.210328 17.17125 
Q 294.799078 17.0775 295.320328 17.0775 
Q 296.668453 17.0775 297.452203 17.690625 
Q 298.237828 18.301875 298.237828 19.344375 
Q 298.237828 20.071875 297.821578 20.5725 
Q 297.405328 21.073125 296.638453 21.26625 
z
M 304.395797 17.235 
L 306.160172 17.235 
L 308.391422 23.188125 
L 310.635797 17.235 
L 312.400172 17.235 
L 312.400172 25.98375 
L 311.245172 25.98375 
L 311.245172 18.301875 
L 308.989547 24.301875 
L 307.800797 24.301875 
L 305.545172 18.301875 
L 305.545172 25.98375 
L 304.395797 25.98375 
L 304.395797 17.235 
z
M 314.702437 19.42125 
L 315.780562 19.42125 
L 315.780562 25.98375 
L 314.702437 25.98375 
L 314.702437 19.42125 
z
M 314.702437 16.865625 
L 315.780562 16.865625 
L 315.780562 18.2325 
L 314.702437 18.2325 
L 314.702437 16.865625 
z
M 319.266422 21.80625 
L 319.266422 25.010625 
L 321.165797 25.010625 
Q 322.120172 25.010625 322.579547 24.615 
Q 323.040797 24.219375 323.040797 23.405625 
Q 323.040797 22.584375 322.579547 22.19625 
Q 322.120172 21.80625 321.165797 21.80625 
L 319.266422 21.80625 
z
M 319.266422 18.208125 
L 319.266422 20.844375 
L 321.019547 20.844375 
Q 321.885797 20.844375 322.309547 20.52 
Q 322.735172 20.19375 322.735172 19.52625 
Q 322.735172 18.864375 322.309547 18.53625 
Q 321.885797 18.208125 321.019547 18.208125 
L 319.266422 18.208125 
z
M 318.083297 17.235 
L 321.107672 17.235 
Q 322.461422 17.235 323.192672 17.7975 
Q 323.925797 18.36 323.925797 19.396875 
Q 323.925797 20.20125 323.550797 20.675625 
Q 323.175797 21.15 322.448297 21.26625 
Q 323.322047 21.45375 323.805797 22.05 
Q 324.289547 22.644375 324.289547 23.535 
Q 324.289547 24.706875 323.492672 25.34625 
Q 322.695797 25.98375 321.223922 25.98375 
L 318.083297 25.98375 
L 318.083297 17.235 
z
M 328.185093 17.235 
L 329.180718 17.235 
L 326.133843 27.0975 
L 325.138218 27.0975 
L 328.185093 17.235 
z
M 334.494937 19.614375 
L 334.494937 20.634375 
Q 334.039312 20.4 333.546187 20.28375 
Q 333.054937 20.165625 332.526187 20.165625 
Q 331.723687 20.165625 331.322437 20.41125 
Q 330.921187 20.656875 330.921187 21.15 
Q 330.921187 21.525 331.208062 21.73875 
Q 331.494937 21.9525 332.363062 22.145625 
L 332.732437 22.228125 
Q 333.879937 22.47375 334.363687 22.921875 
Q 334.847437 23.37 334.847437 24.1725 
Q 334.847437 25.0875 334.123687 25.621875 
Q 333.399937 26.154375 332.134312 26.154375 
Q 331.607437 26.154375 331.035562 26.05125 
Q 330.463687 25.948125 329.831812 25.74375 
L 329.831812 24.63 
Q 330.429937 24.94125 331.009312 25.096875 
Q 331.588687 25.250625 332.158687 25.250625 
Q 332.919937 25.250625 333.328687 24.99 
Q 333.739312 24.729375 333.739312 24.255 
Q 333.739312 23.81625 333.443062 23.581875 
Q 333.148687 23.3475 332.145562 23.13 
L 331.770562 23.041875 
Q 330.769312 22.831875 330.323062 22.395 
Q 329.878687 21.958125 329.878687 21.196875 
Q 329.878687 20.270625 330.534937 19.768125 
Q 331.191187 19.26375 332.398687 19.26375 
Q 332.994937 19.26375 333.521812 19.351875 
Q 334.050562 19.438125 334.494937 19.614375 
z
" style="fill: #262626"/>
   </g>
   <g id="text_13">
    <path d="M 433.807507 55.933125 
L 435.740632 55.933125 
L 435.740632 49.258125 
L 433.636882 49.68 
L 433.636882 48.601875 
L 435.729382 48.18 
L 436.912507 48.18 
L 436.912507 55.933125 
L 438.845632 55.933125 
L 438.845632 56.92875 
L 433.807507 56.92875 
L 433.807507 55.933125 
z
M 444.822898 52.21125 
Q 445.672273 52.393125 446.148523 52.96875 
Q 446.626648 53.5425 446.626648 54.38625 
Q 446.626648 55.68 445.736023 56.390625 
Q 444.845398 57.099375 443.204773 57.099375 
Q 442.655398 57.099375 442.072273 56.990625 
Q 441.489148 56.881875 440.868523 56.664375 
L 440.868523 55.5225 
Q 441.359773 55.809375 441.944773 55.955625 
Q 442.531648 56.101875 443.171023 56.101875 
Q 444.282898 56.101875 444.866023 55.663125 
Q 445.449148 55.224375 445.449148 54.38625 
Q 445.449148 53.611875 444.907273 53.176875 
Q 444.365398 52.74 443.399773 52.74 
L 442.379773 52.74 
L 442.379773 51.766875 
L 443.446648 51.766875 
Q 444.318523 51.766875 444.781648 51.418125 
Q 445.244773 51.069375 445.244773 50.413125 
Q 445.244773 49.74 444.766648 49.38 
Q 444.290398 49.018125 443.399773 49.018125 
Q 442.912273 49.018125 442.355398 49.125 
Q 441.798523 49.23 441.131023 49.45125 
L 441.131023 48.3975 
Q 441.806023 48.21 442.394773 48.11625 
Q 442.983523 48.0225 443.504773 48.0225 
Q 444.852898 48.0225 445.636648 48.635625 
Q 446.422273 49.246875 446.422273 50.289375 
Q 446.422273 51.016875 446.006023 51.5175 
Q 445.589773 52.018125 444.822898 52.21125 
z
M 451.550164 52.08375 
Q 450.753289 52.08375 450.286414 52.629375 
Q 449.821414 53.173125 449.821414 54.121875 
Q 449.821414 55.065 450.286414 55.614375 
Q 450.753289 56.161875 451.550164 56.161875 
Q 452.347039 56.161875 452.812039 55.614375 
Q 453.277039 55.065 453.277039 54.121875 
Q 453.277039 53.173125 452.812039 52.629375 
Q 452.347039 52.08375 451.550164 52.08375 
z
M 453.899539 48.373125 
L 453.899539 49.45125 
Q 453.453289 49.24125 452.999539 49.130625 
Q 452.545789 49.018125 452.099539 49.018125 
Q 450.927664 49.018125 450.308914 49.809375 
Q 449.692039 50.600625 449.603914 52.2 
Q 449.948914 51.69 450.470164 51.418125 
Q 450.993289 51.14625 451.619539 51.14625 
Q 452.937664 51.14625 453.702664 51.946875 
Q 454.467664 52.745625 454.467664 54.121875 
Q 454.467664 55.47 453.670789 56.285625 
Q 452.873914 57.099375 451.550164 57.099375 
Q 450.031414 57.099375 449.228914 55.936875 
Q 448.426414 54.7725 448.426414 52.56375 
Q 448.426414 50.49 449.410789 49.25625 
Q 450.395164 48.0225 452.052664 48.0225 
Q 452.498914 48.0225 452.952664 48.110625 
Q 453.406414 48.19875 453.899539 48.373125 
z
M 456.505554 55.44 
L 457.743054 55.44 
L 457.743054 56.92875 
L 456.505554 56.92875 
L 456.505554 55.44 
z
M 461.340007 55.933125 
L 465.470632 55.933125 
L 465.470632 56.92875 
L 459.916882 56.92875 
L 459.916882 55.933125 
Q 460.590007 55.235625 461.752507 54.061875 
Q 462.916882 52.88625 463.215007 52.545 
Q 463.783132 51.9075 464.008132 51.465 
Q 464.235007 51.0225 464.235007 50.595 
Q 464.235007 49.8975 463.745632 49.45875 
Q 463.256257 49.018125 462.470632 49.018125 
Q 461.913757 49.018125 461.295007 49.21125 
Q 460.678132 49.404375 459.975007 49.798125 
L 459.975007 48.601875 
Q 460.689382 48.315 461.310007 48.16875 
Q 461.932507 48.0225 462.448132 48.0225 
Q 463.807507 48.0225 464.615632 48.703125 
Q 465.423757 49.381875 465.423757 50.518125 
Q 465.423757 51.058125 465.221257 51.541875 
Q 465.020632 52.02375 464.486257 52.68 
Q 464.340007 52.850625 463.554382 53.6625 
Q 462.770632 54.474375 461.340007 55.933125 
z
M 477.628601 55.68 
L 477.628601 53.330625 
L 475.695476 53.330625 
L 475.695476 52.3575 
L 478.800476 52.3575 
L 478.800476 56.115 
Q 478.116101 56.600625 477.289226 56.85 
Q 476.464226 57.099375 475.526726 57.099375 
Q 473.475476 57.099375 472.316726 55.90125 
Q 471.159851 54.70125 471.159851 52.56375 
Q 471.159851 50.41875 472.316726 49.220625 
Q 473.475476 48.0225 475.526726 48.0225 
Q 476.381726 48.0225 477.152351 48.234375 
Q 477.922976 48.444375 478.573601 48.855 
L 478.573601 50.115 
Q 477.917351 49.558125 477.178601 49.276875 
Q 476.439851 48.995625 475.626101 48.995625 
Q 474.019226 48.995625 473.212976 49.891875 
Q 472.408601 50.788125 472.408601 52.56375 
Q 472.408601 54.33375 473.212976 55.23 
Q 474.019226 56.12625 475.626101 56.12625 
Q 476.252351 56.12625 476.743601 56.0175 
Q 477.236726 55.90875 477.628601 55.68 
z
M 480.916179 50.36625 
L 481.994304 50.36625 
L 481.994304 56.92875 
L 480.916179 56.92875 
L 480.916179 50.36625 
z
M 480.916179 47.810625 
L 481.994304 47.810625 
L 481.994304 49.1775 
L 480.916179 49.1775 
L 480.916179 47.810625 
z
M 485.480164 52.75125 
L 485.480164 55.955625 
L 487.379539 55.955625 
Q 488.333914 55.955625 488.793289 55.56 
Q 489.254539 55.164375 489.254539 54.350625 
Q 489.254539 53.529375 488.793289 53.14125 
Q 488.333914 52.75125 487.379539 52.75125 
L 485.480164 52.75125 
z
M 485.480164 49.153125 
L 485.480164 51.789375 
L 487.233289 51.789375 
Q 488.099539 51.789375 488.523289 51.465 
Q 488.948914 51.13875 488.948914 50.47125 
Q 488.948914 49.809375 488.523289 49.48125 
Q 488.099539 49.153125 487.233289 49.153125 
L 485.480164 49.153125 
z
M 484.297039 48.18 
L 487.321414 48.18 
Q 488.675164 48.18 489.406414 48.7425 
Q 490.139539 49.305 490.139539 50.341875 
Q 490.139539 51.14625 489.764539 51.620625 
Q 489.389539 52.095 488.662039 52.21125 
Q 489.535789 52.39875 490.019539 52.995 
Q 490.503289 53.589375 490.503289 54.48 
Q 490.503289 55.651875 489.706414 56.29125 
Q 488.909539 56.92875 487.437664 56.92875 
L 484.297039 56.92875 
L 484.297039 48.18 
z
M 494.398836 48.18 
L 495.394461 48.18 
L 492.347586 58.0425 
L 491.351961 58.0425 
L 494.398836 48.18 
z
M 500.708679 50.559375 
L 500.708679 51.579375 
Q 500.253054 51.345 499.759929 51.22875 
Q 499.268679 51.110625 498.739929 51.110625 
Q 497.937429 51.110625 497.536179 51.35625 
Q 497.134929 51.601875 497.134929 52.095 
Q 497.134929 52.47 497.421804 52.68375 
Q 497.708679 52.8975 498.576804 53.090625 
L 498.946179 53.173125 
Q 500.093679 53.41875 500.577429 53.866875 
Q 501.061179 54.315 501.061179 55.1175 
Q 501.061179 56.0325 500.337429 56.566875 
Q 499.613679 57.099375 498.348054 57.099375 
Q 497.821179 57.099375 497.249304 56.99625 
Q 496.677429 56.893125 496.045554 56.68875 
L 496.045554 55.575 
Q 496.643679 55.88625 497.223054 56.041875 
Q 497.802429 56.195625 498.372429 56.195625 
Q 499.133679 56.195625 499.542429 55.935 
Q 499.953054 55.674375 499.953054 55.2 
Q 499.953054 54.76125 499.656804 54.526875 
Q 499.362429 54.2925 498.359304 54.075 
L 497.984304 53.986875 
Q 496.983054 53.776875 496.536804 53.34 
Q 496.092429 52.903125 496.092429 52.141875 
Q 496.092429 51.215625 496.748679 50.713125 
Q 497.404929 50.20875 498.612429 50.20875 
Q 499.208679 50.20875 499.735554 50.296875 
Q 500.264304 50.383125 500.708679 50.559375 
z
" style="fill: #262626; stroke: #ffffff; stroke-width: 5"/>
    <path d="M 433.807507 55.933125 
L 435.740632 55.933125 
L 435.740632 49.258125 
L 433.636882 49.68 
L 433.636882 48.601875 
L 435.729382 48.18 
L 436.912507 48.18 
L 436.912507 55.933125 
L 438.845632 55.933125 
L 438.845632 56.92875 
L 433.807507 56.92875 
L 433.807507 55.933125 
z
M 444.822898 52.21125 
Q 445.672273 52.393125 446.148523 52.96875 
Q 446.626648 53.5425 446.626648 54.38625 
Q 446.626648 55.68 445.736023 56.390625 
Q 444.845398 57.099375 443.204773 57.099375 
Q 442.655398 57.099375 442.072273 56.990625 
Q 441.489148 56.881875 440.868523 56.664375 
L 440.868523 55.5225 
Q 441.359773 55.809375 441.944773 55.955625 
Q 442.531648 56.101875 443.171023 56.101875 
Q 444.282898 56.101875 444.866023 55.663125 
Q 445.449148 55.224375 445.449148 54.38625 
Q 445.449148 53.611875 444.907273 53.176875 
Q 444.365398 52.74 443.399773 52.74 
L 442.379773 52.74 
L 442.379773 51.766875 
L 443.446648 51.766875 
Q 444.318523 51.766875 444.781648 51.418125 
Q 445.244773 51.069375 445.244773 50.413125 
Q 445.244773 49.74 444.766648 49.38 
Q 444.290398 49.018125 443.399773 49.018125 
Q 442.912273 49.018125 442.355398 49.125 
Q 441.798523 49.23 441.131023 49.45125 
L 441.131023 48.3975 
Q 441.806023 48.21 442.394773 48.11625 
Q 442.983523 48.0225 443.504773 48.0225 
Q 444.852898 48.0225 445.636648 48.635625 
Q 446.422273 49.246875 446.422273 50.289375 
Q 446.422273 51.016875 446.006023 51.5175 
Q 445.589773 52.018125 444.822898 52.21125 
z
M 451.550164 52.08375 
Q 450.753289 52.08375 450.286414 52.629375 
Q 449.821414 53.173125 449.821414 54.121875 
Q 449.821414 55.065 450.286414 55.614375 
Q 450.753289 56.161875 451.550164 56.161875 
Q 452.347039 56.161875 452.812039 55.614375 
Q 453.277039 55.065 453.277039 54.121875 
Q 453.277039 53.173125 452.812039 52.629375 
Q 452.347039 52.08375 451.550164 52.08375 
z
M 453.899539 48.373125 
L 453.899539 49.45125 
Q 453.453289 49.24125 452.999539 49.130625 
Q 452.545789 49.018125 452.099539 49.018125 
Q 450.927664 49.018125 450.308914 49.809375 
Q 449.692039 50.600625 449.603914 52.2 
Q 449.948914 51.69 450.470164 51.418125 
Q 450.993289 51.14625 451.619539 51.14625 
Q 452.937664 51.14625 453.702664 51.946875 
Q 454.467664 52.745625 454.467664 54.121875 
Q 454.467664 55.47 453.670789 56.285625 
Q 452.873914 57.099375 451.550164 57.099375 
Q 450.031414 57.099375 449.228914 55.936875 
Q 448.426414 54.7725 448.426414 52.56375 
Q 448.426414 50.49 449.410789 49.25625 
Q 450.395164 48.0225 452.052664 48.0225 
Q 452.498914 48.0225 452.952664 48.110625 
Q 453.406414 48.19875 453.899539 48.373125 
z
M 456.505554 55.44 
L 457.743054 55.44 
L 457.743054 56.92875 
L 456.505554 56.92875 
L 456.505554 55.44 
z
M 461.340007 55.933125 
L 465.470632 55.933125 
L 465.470632 56.92875 
L 459.916882 56.92875 
L 459.916882 55.933125 
Q 460.590007 55.235625 461.752507 54.061875 
Q 462.916882 52.88625 463.215007 52.545 
Q 463.783132 51.9075 464.008132 51.465 
Q 464.235007 51.0225 464.235007 50.595 
Q 464.235007 49.8975 463.745632 49.45875 
Q 463.256257 49.018125 462.470632 49.018125 
Q 461.913757 49.018125 461.295007 49.21125 
Q 460.678132 49.404375 459.975007 49.798125 
L 459.975007 48.601875 
Q 460.689382 48.315 461.310007 48.16875 
Q 461.932507 48.0225 462.448132 48.0225 
Q 463.807507 48.0225 464.615632 48.703125 
Q 465.423757 49.381875 465.423757 50.518125 
Q 465.423757 51.058125 465.221257 51.541875 
Q 465.020632 52.02375 464.486257 52.68 
Q 464.340007 52.850625 463.554382 53.6625 
Q 462.770632 54.474375 461.340007 55.933125 
z
M 477.628601 55.68 
L 477.628601 53.330625 
L 475.695476 53.330625 
L 475.695476 52.3575 
L 478.800476 52.3575 
L 478.800476 56.115 
Q 478.116101 56.600625 477.289226 56.85 
Q 476.464226 57.099375 475.526726 57.099375 
Q 473.475476 57.099375 472.316726 55.90125 
Q 471.159851 54.70125 471.159851 52.56375 
Q 471.159851 50.41875 472.316726 49.220625 
Q 473.475476 48.0225 475.526726 48.0225 
Q 476.381726 48.0225 477.152351 48.234375 
Q 477.922976 48.444375 478.573601 48.855 
L 478.573601 50.115 
Q 477.917351 49.558125 477.178601 49.276875 
Q 476.439851 48.995625 475.626101 48.995625 
Q 474.019226 48.995625 473.212976 49.891875 
Q 472.408601 50.788125 472.408601 52.56375 
Q 472.408601 54.33375 473.212976 55.23 
Q 474.019226 56.12625 475.626101 56.12625 
Q 476.252351 56.12625 476.743601 56.0175 
Q 477.236726 55.90875 477.628601 55.68 
z
M 480.916179 50.36625 
L 481.994304 50.36625 
L 481.994304 56.92875 
L 480.916179 56.92875 
L 480.916179 50.36625 
z
M 480.916179 47.810625 
L 481.994304 47.810625 
L 481.994304 49.1775 
L 480.916179 49.1775 
L 480.916179 47.810625 
z
M 485.480164 52.75125 
L 485.480164 55.955625 
L 487.379539 55.955625 
Q 488.333914 55.955625 488.793289 55.56 
Q 489.254539 55.164375 489.254539 54.350625 
Q 489.254539 53.529375 488.793289 53.14125 
Q 488.333914 52.75125 487.379539 52.75125 
L 485.480164 52.75125 
z
M 485.480164 49.153125 
L 485.480164 51.789375 
L 487.233289 51.789375 
Q 488.099539 51.789375 488.523289 51.465 
Q 488.948914 51.13875 488.948914 50.47125 
Q 488.948914 49.809375 488.523289 49.48125 
Q 488.099539 49.153125 487.233289 49.153125 
L 485.480164 49.153125 
z
M 484.297039 48.18 
L 487.321414 48.18 
Q 488.675164 48.18 489.406414 48.7425 
Q 490.139539 49.305 490.139539 50.341875 
Q 490.139539 51.14625 489.764539 51.620625 
Q 489.389539 52.095 488.662039 52.21125 
Q 489.535789 52.39875 490.019539 52.995 
Q 490.503289 53.589375 490.503289 54.48 
Q 490.503289 55.651875 489.706414 56.29125 
Q 488.909539 56.92875 487.437664 56.92875 
L 484.297039 56.92875 
L 484.297039 48.18 
z
M 494.398836 48.18 
L 495.394461 48.18 
L 492.347586 58.0425 
L 491.351961 58.0425 
L 494.398836 48.18 
z
M 500.708679 50.559375 
L 500.708679 51.579375 
Q 500.253054 51.345 499.759929 51.22875 
Q 499.268679 51.110625 498.739929 51.110625 
Q 497.937429 51.110625 497.536179 51.35625 
Q 497.134929 51.601875 497.134929 52.095 
Q 497.134929 52.47 497.421804 52.68375 
Q 497.708679 52.8975 498.576804 53.090625 
L 498.946179 53.173125 
Q 500.093679 53.41875 500.577429 53.866875 
Q 501.061179 54.315 501.061179 55.1175 
Q 501.061179 56.0325 500.337429 56.566875 
Q 499.613679 57.099375 498.348054 57.099375 
Q 497.821179 57.099375 497.249304 56.99625 
Q 496.677429 56.893125 496.045554 56.68875 
L 496.045554 55.575 
Q 496.643679 55.88625 497.223054 56.041875 
Q 497.802429 56.195625 498.372429 56.195625 
Q 499.133679 56.195625 499.542429 55.935 
Q 499.953054 55.674375 499.953054 55.2 
Q 499.953054 54.76125 499.656804 54.526875 
Q 499.362429 54.2925 498.359304 54.075 
L 497.984304 53.986875 
Q 496.983054 53.776875 496.536804 53.34 
Q 496.092429 52.903125 496.092429 52.141875 
Q 496.092429 51.215625 496.748679 50.713125 
Q 497.404929 50.20875 498.612429 50.20875 
Q 499.208679 50.20875 499.735554 50.296875 
Q 500.264304 50.383125 500.708679 50.559375 
z
" style="fill: #262626"/>
   </g>
   <g id="text_14">
    <path d="M 390.909887 83.15625 
Q 391.759262 83.338125 392.235512 83.91375 
Q 392.713637 84.4875 392.713637 85.33125 
Q 392.713637 86.625 391.823012 87.335625 
Q 390.932387 88.044375 389.291762 88.044375 
Q 388.742387 88.044375 388.159262 87.935625 
Q 387.576137 87.826875 386.955512 87.609375 
L 386.955512 86.4675 
Q 387.446762 86.754375 388.031762 86.900625 
Q 388.618637 87.046875 389.258012 87.046875 
Q 390.369887 87.046875 390.953012 86.608125 
Q 391.536137 86.169375 391.536137 85.33125 
Q 391.536137 84.556875 390.994262 84.121875 
Q 390.452387 83.685 389.486762 83.685 
L 388.466762 83.685 
L 388.466762 82.711875 
L 389.533637 82.711875 
Q 390.405512 82.711875 390.868637 82.363125 
Q 391.331762 82.014375 391.331762 81.358125 
Q 391.331762 80.685 390.853637 80.325 
Q 390.377387 79.963125 389.486762 79.963125 
Q 388.999262 79.963125 388.442387 80.07 
Q 387.885512 80.175 387.218012 80.39625 
L 387.218012 79.3425 
Q 387.893012 79.155 388.481762 79.06125 
Q 389.070512 78.9675 389.591762 78.9675 
Q 390.939887 78.9675 391.723637 79.580625 
Q 392.509262 80.191875 392.509262 81.234375 
Q 392.509262 81.961875 392.093012 82.4625 
Q 391.676762 82.963125 390.909887 83.15625 
z
M 398.210903 80.15625 
L 395.222153 84.826875 
L 398.210903 84.826875 
L 398.210903 80.15625 
z
M 397.899653 79.125 
L 399.388403 79.125 
L 399.388403 84.826875 
L 400.637153 84.826875 
L 400.637153 85.81125 
L 399.388403 85.81125 
L 399.388403 87.87375 
L 398.210903 87.87375 
L 398.210903 85.81125 
L 394.262153 85.81125 
L 394.262153 84.669375 
L 397.899653 79.125 
z
M 402.592544 86.385 
L 403.830044 86.385 
L 403.830044 87.87375 
L 402.592544 87.87375 
L 402.592544 86.385 
z
M 406.420122 79.125 
L 411.066372 79.125 
L 411.066372 80.1225 
L 407.503872 80.1225 
L 407.503872 82.265625 
Q 407.760747 82.1775 408.017622 82.134375 
Q 408.276372 82.09125 408.535122 82.09125 
Q 409.999497 82.09125 410.854497 82.89375 
Q 411.711372 83.69625 411.711372 85.066875 
Q 411.711372 86.47875 410.831997 87.2625 
Q 409.952622 88.044375 408.353247 88.044375 
Q 407.801997 88.044375 407.230122 87.950625 
Q 406.660122 87.856875 406.050747 87.669375 
L 406.050747 86.47875 
Q 406.577622 86.765625 407.140122 86.90625 
Q 407.702622 87.046875 408.328872 87.046875 
Q 409.343247 87.046875 409.933872 86.514375 
Q 410.526372 85.981875 410.526372 85.066875 
Q 410.526372 84.15375 409.933872 83.62125 
Q 409.343247 83.086875 408.328872 83.086875 
Q 407.854497 83.086875 407.381997 83.191875 
Q 406.911372 83.296875 406.420122 83.52 
L 406.420122 79.125 
z
M 423.715591 86.625 
L 423.715591 84.275625 
L 421.782466 84.275625 
L 421.782466 83.3025 
L 424.887466 83.3025 
L 424.887466 87.06 
Q 424.203091 87.545625 423.376216 87.795 
Q 422.551216 88.044375 421.613716 88.044375 
Q 419.562466 88.044375 418.403716 86.84625 
Q 417.246841 85.64625 417.246841 83.50875 
Q 417.246841 81.36375 418.403716 80.165625 
Q 419.562466 78.9675 421.613716 78.9675 
Q 422.468716 78.9675 423.239341 79.179375 
Q 424.009966 79.389375 424.660591 79.8 
L 424.660591 81.06 
Q 424.004341 80.503125 423.265591 80.221875 
Q 422.526841 79.940625 421.713091 79.940625 
Q 420.106216 79.940625 419.299966 80.836875 
Q 418.495591 81.733125 418.495591 83.50875 
Q 418.495591 85.27875 419.299966 86.175 
Q 420.106216 87.07125 421.713091 87.07125 
Q 422.339341 87.07125 422.830591 86.9625 
Q 423.323716 86.85375 423.715591 86.625 
z
M 427.003169 81.31125 
L 428.081294 81.31125 
L 428.081294 87.87375 
L 427.003169 87.87375 
L 427.003169 81.31125 
z
M 427.003169 78.755625 
L 428.081294 78.755625 
L 428.081294 80.1225 
L 427.003169 80.1225 
L 427.003169 78.755625 
z
M 431.567153 83.69625 
L 431.567153 86.900625 
L 433.466528 86.900625 
Q 434.420903 86.900625 434.880278 86.505 
Q 435.341528 86.109375 435.341528 85.295625 
Q 435.341528 84.474375 434.880278 84.08625 
Q 434.420903 83.69625 433.466528 83.69625 
L 431.567153 83.69625 
z
M 431.567153 80.098125 
L 431.567153 82.734375 
L 433.320278 82.734375 
Q 434.186528 82.734375 434.610278 82.41 
Q 435.035903 82.08375 435.035903 81.41625 
Q 435.035903 80.754375 434.610278 80.42625 
Q 434.186528 80.098125 433.320278 80.098125 
L 431.567153 80.098125 
z
M 430.384028 79.125 
L 433.408403 79.125 
Q 434.762153 79.125 435.493403 79.6875 
Q 436.226528 80.25 436.226528 81.286875 
Q 436.226528 82.09125 435.851528 82.565625 
Q 435.476528 83.04 434.749028 83.15625 
Q 435.622778 83.34375 436.106528 83.94 
Q 436.590278 84.534375 436.590278 85.425 
Q 436.590278 86.596875 435.793403 87.23625 
Q 434.996528 87.87375 433.524653 87.87375 
L 430.384028 87.87375 
L 430.384028 79.125 
z
M 440.485825 79.125 
L 441.48145 79.125 
L 438.434575 88.9875 
L 437.43895 88.9875 
L 440.485825 79.125 
z
M 446.795669 81.504375 
L 446.795669 82.524375 
Q 446.340044 82.29 445.846919 82.17375 
Q 445.355669 82.055625 444.826919 82.055625 
Q 444.024419 82.055625 443.623169 82.30125 
Q 443.221919 82.546875 443.221919 83.04 
Q 443.221919 83.415 443.508794 83.62875 
Q 443.795669 83.8425 444.663794 84.035625 
L 445.033169 84.118125 
Q 446.180669 84.36375 446.664419 84.811875 
Q 447.148169 85.26 447.148169 86.0625 
Q 447.148169 86.9775 446.424419 87.511875 
Q 445.700669 88.044375 444.435044 88.044375 
Q 443.908169 88.044375 443.336294 87.94125 
Q 442.764419 87.838125 442.132544 87.63375 
L 442.132544 86.52 
Q 442.730669 86.83125 443.310044 86.986875 
Q 443.889419 87.140625 444.459419 87.140625 
Q 445.220669 87.140625 445.629419 86.88 
Q 446.040044 86.619375 446.040044 86.145 
Q 446.040044 85.70625 445.743794 85.471875 
Q 445.449419 85.2375 444.446294 85.02 
L 444.071294 84.931875 
Q 443.070044 84.721875 442.623794 84.285 
Q 442.179419 83.848125 442.179419 83.086875 
Q 442.179419 82.160625 442.835669 81.658125 
Q 443.491919 81.15375 444.699419 81.15375 
Q 445.295669 81.15375 445.822544 81.241875 
Q 446.351294 81.328125 446.795669 81.504375 
z
" style="fill: #262626; stroke: #ffffff; stroke-width: 5"/>
    <path d="M 390.909887 83.15625 
Q 391.759262 83.338125 392.235512 83.91375 
Q 392.713637 84.4875 392.713637 85.33125 
Q 392.713637 86.625 391.823012 87.335625 
Q 390.932387 88.044375 389.291762 88.044375 
Q 388.742387 88.044375 388.159262 87.935625 
Q 387.576137 87.826875 386.955512 87.609375 
L 386.955512 86.4675 
Q 387.446762 86.754375 388.031762 86.900625 
Q 388.618637 87.046875 389.258012 87.046875 
Q 390.369887 87.046875 390.953012 86.608125 
Q 391.536137 86.169375 391.536137 85.33125 
Q 391.536137 84.556875 390.994262 84.121875 
Q 390.452387 83.685 389.486762 83.685 
L 388.466762 83.685 
L 388.466762 82.711875 
L 389.533637 82.711875 
Q 390.405512 82.711875 390.868637 82.363125 
Q 391.331762 82.014375 391.331762 81.358125 
Q 391.331762 80.685 390.853637 80.325 
Q 390.377387 79.963125 389.486762 79.963125 
Q 388.999262 79.963125 388.442387 80.07 
Q 387.885512 80.175 387.218012 80.39625 
L 387.218012 79.3425 
Q 387.893012 79.155 388.481762 79.06125 
Q 389.070512 78.9675 389.591762 78.9675 
Q 390.939887 78.9675 391.723637 79.580625 
Q 392.509262 80.191875 392.509262 81.234375 
Q 392.509262 81.961875 392.093012 82.4625 
Q 391.676762 82.963125 390.909887 83.15625 
z
M 398.210903 80.15625 
L 395.222153 84.826875 
L 398.210903 84.826875 
L 398.210903 80.15625 
z
M 397.899653 79.125 
L 399.388403 79.125 
L 399.388403 84.826875 
L 400.637153 84.826875 
L 400.637153 85.81125 
L 399.388403 85.81125 
L 399.388403 87.87375 
L 398.210903 87.87375 
L 398.210903 85.81125 
L 394.262153 85.81125 
L 394.262153 84.669375 
L 397.899653 79.125 
z
M 402.592544 86.385 
L 403.830044 86.385 
L 403.830044 87.87375 
L 402.592544 87.87375 
L 402.592544 86.385 
z
M 406.420122 79.125 
L 411.066372 79.125 
L 411.066372 80.1225 
L 407.503872 80.1225 
L 407.503872 82.265625 
Q 407.760747 82.1775 408.017622 82.134375 
Q 408.276372 82.09125 408.535122 82.09125 
Q 409.999497 82.09125 410.854497 82.89375 
Q 411.711372 83.69625 411.711372 85.066875 
Q 411.711372 86.47875 410.831997 87.2625 
Q 409.952622 88.044375 408.353247 88.044375 
Q 407.801997 88.044375 407.230122 87.950625 
Q 406.660122 87.856875 406.050747 87.669375 
L 406.050747 86.47875 
Q 406.577622 86.765625 407.140122 86.90625 
Q 407.702622 87.046875 408.328872 87.046875 
Q 409.343247 87.046875 409.933872 86.514375 
Q 410.526372 85.981875 410.526372 85.066875 
Q 410.526372 84.15375 409.933872 83.62125 
Q 409.343247 83.086875 408.328872 83.086875 
Q 407.854497 83.086875 407.381997 83.191875 
Q 406.911372 83.296875 406.420122 83.52 
L 406.420122 79.125 
z
M 423.715591 86.625 
L 423.715591 84.275625 
L 421.782466 84.275625 
L 421.782466 83.3025 
L 424.887466 83.3025 
L 424.887466 87.06 
Q 424.203091 87.545625 423.376216 87.795 
Q 422.551216 88.044375 421.613716 88.044375 
Q 419.562466 88.044375 418.403716 86.84625 
Q 417.246841 85.64625 417.246841 83.50875 
Q 417.246841 81.36375 418.403716 80.165625 
Q 419.562466 78.9675 421.613716 78.9675 
Q 422.468716 78.9675 423.239341 79.179375 
Q 424.009966 79.389375 424.660591 79.8 
L 424.660591 81.06 
Q 424.004341 80.503125 423.265591 80.221875 
Q 422.526841 79.940625 421.713091 79.940625 
Q 420.106216 79.940625 419.299966 80.836875 
Q 418.495591 81.733125 418.495591 83.50875 
Q 418.495591 85.27875 419.299966 86.175 
Q 420.106216 87.07125 421.713091 87.07125 
Q 422.339341 87.07125 422.830591 86.9625 
Q 423.323716 86.85375 423.715591 86.625 
z
M 427.003169 81.31125 
L 428.081294 81.31125 
L 428.081294 87.87375 
L 427.003169 87.87375 
L 427.003169 81.31125 
z
M 427.003169 78.755625 
L 428.081294 78.755625 
L 428.081294 80.1225 
L 427.003169 80.1225 
L 427.003169 78.755625 
z
M 431.567153 83.69625 
L 431.567153 86.900625 
L 433.466528 86.900625 
Q 434.420903 86.900625 434.880278 86.505 
Q 435.341528 86.109375 435.341528 85.295625 
Q 435.341528 84.474375 434.880278 84.08625 
Q 434.420903 83.69625 433.466528 83.69625 
L 431.567153 83.69625 
z
M 431.567153 80.098125 
L 431.567153 82.734375 
L 433.320278 82.734375 
Q 434.186528 82.734375 434.610278 82.41 
Q 435.035903 82.08375 435.035903 81.41625 
Q 435.035903 80.754375 434.610278 80.42625 
Q 434.186528 80.098125 433.320278 80.098125 
L 431.567153 80.098125 
z
M 430.384028 79.125 
L 433.408403 79.125 
Q 434.762153 79.125 435.493403 79.6875 
Q 436.226528 80.25 436.226528 81.286875 
Q 436.226528 82.09125 435.851528 82.565625 
Q 435.476528 83.04 434.749028 83.15625 
Q 435.622778 83.34375 436.106528 83.94 
Q 436.590278 84.534375 436.590278 85.425 
Q 436.590278 86.596875 435.793403 87.23625 
Q 434.996528 87.87375 433.524653 87.87375 
L 430.384028 87.87375 
L 430.384028 79.125 
z
M 440.485825 79.125 
L 441.48145 79.125 
L 438.434575 88.9875 
L 437.43895 88.9875 
L 440.485825 79.125 
z
M 446.795669 81.504375 
L 446.795669 82.524375 
Q 446.340044 82.29 445.846919 82.17375 
Q 445.355669 82.055625 444.826919 82.055625 
Q 444.024419 82.055625 443.623169 82.30125 
Q 443.221919 82.546875 443.221919 83.04 
Q 443.221919 83.415 443.508794 83.62875 
Q 443.795669 83.8425 444.663794 84.035625 
L 445.033169 84.118125 
Q 446.180669 84.36375 446.664419 84.811875 
Q 447.148169 85.26 447.148169 86.0625 
Q 447.148169 86.9775 446.424419 87.511875 
Q 445.700669 88.044375 444.435044 88.044375 
Q 443.908169 88.044375 443.336294 87.94125 
Q 442.764419 87.838125 442.132544 87.63375 
L 442.132544 86.52 
Q 442.730669 86.83125 443.310044 86.986875 
Q 443.889419 87.140625 444.459419 87.140625 
Q 445.220669 87.140625 445.629419 86.88 
Q 446.040044 86.619375 446.040044 86.145 
Q 446.040044 85.70625 445.743794 85.471875 
Q 445.449419 85.2375 444.446294 85.02 
L 444.071294 84.931875 
Q 443.070044 84.721875 442.623794 84.285 
Q 442.179419 83.848125 442.179419 83.086875 
Q 442.179419 82.160625 442.835669 81.658125 
Q 443.491919 81.15375 444.699419 81.15375 
Q 445.295669 81.15375 445.822544 81.241875 
Q 446.351294 81.328125 446.795669 81.504375 
z
" style="fill: #262626"/>
   </g>
   <g id="text_15">
    <path d="M 468.481378 114.10125 
Q 469.330753 114.283125 469.807003 114.85875 
Q 470.285128 115.4325 470.285128 116.27625 
Q 470.285128 117.57 469.394503 118.280625 
Q 468.503878 118.989375 466.863253 118.989375 
Q 466.313878 118.989375 465.730753 118.880625 
Q 465.147628 118.771875 464.527003 118.554375 
L 464.527003 117.4125 
Q 465.018253 117.699375 465.603253 117.845625 
Q 466.190128 117.991875 466.829503 117.991875 
Q 467.941378 117.991875 468.524503 117.553125 
Q 469.107628 117.114375 469.107628 116.27625 
Q 469.107628 115.501875 468.565753 115.066875 
Q 468.023878 114.63 467.058253 114.63 
L 466.038253 114.63 
L 466.038253 113.656875 
L 467.105128 113.656875 
Q 467.977003 113.656875 468.440128 113.308125 
Q 468.903253 112.959375 468.903253 112.303125 
Q 468.903253 111.63 468.425128 111.27 
Q 467.948878 110.908125 467.058253 110.908125 
Q 466.570753 110.908125 466.013878 111.015 
Q 465.457003 111.12 464.789503 111.34125 
L 464.789503 110.2875 
Q 465.464503 110.1 466.053253 110.00625 
Q 466.642003 109.9125 467.163253 109.9125 
Q 468.511378 109.9125 469.295128 110.525625 
Q 470.080753 111.136875 470.080753 112.179375 
Q 470.080753 112.906875 469.664503 113.4075 
Q 469.248253 113.908125 468.481378 114.10125 
z
M 475.782393 111.10125 
L 472.793643 115.771875 
L 475.782393 115.771875 
L 475.782393 111.10125 
z
M 475.471143 110.07 
L 476.959893 110.07 
L 476.959893 115.771875 
L 478.208643 115.771875 
L 478.208643 116.75625 
L 476.959893 116.75625 
L 476.959893 118.81875 
L 475.782393 118.81875 
L 475.782393 116.75625 
L 471.833643 116.75625 
L 471.833643 115.614375 
L 475.471143 110.07 
z
M 483.417159 111.10125 
L 480.428409 115.771875 
L 483.417159 115.771875 
L 483.417159 111.10125 
z
M 483.105909 110.07 
L 484.594659 110.07 
L 484.594659 115.771875 
L 485.843409 115.771875 
L 485.843409 116.75625 
L 484.594659 116.75625 
L 484.594659 118.81875 
L 483.417159 118.81875 
L 483.417159 116.75625 
L 479.468409 116.75625 
L 479.468409 115.614375 
L 483.105909 110.07 
z
M 487.7988 117.33 
L 489.0363 117.33 
L 489.0363 118.81875 
L 487.7988 118.81875 
L 487.7988 117.33 
z
M 494.144503 114.66375 
Q 493.300753 114.66375 492.817003 115.115625 
Q 492.335128 115.5675 492.335128 116.356875 
Q 492.335128 117.148125 492.817003 117.6 
Q 493.300753 118.051875 494.144503 118.051875 
Q 494.988253 118.051875 495.473878 117.598125 
Q 495.961378 117.1425 495.961378 116.356875 
Q 495.961378 115.5675 495.477628 115.115625 
Q 494.995753 114.66375 494.144503 114.66375 
z
M 492.961378 114.16125 
Q 492.200128 113.97375 491.774503 113.4525 
Q 491.350753 112.929375 491.350753 112.179375 
Q 491.350753 111.13125 492.097003 110.521875 
Q 492.845128 109.9125 494.144503 109.9125 
Q 495.451378 109.9125 496.195753 110.521875 
Q 496.940128 111.13125 496.940128 112.179375 
Q 496.940128 112.929375 496.514503 113.4525 
Q 496.090753 113.97375 495.335128 114.16125 
Q 496.190128 114.36 496.666378 114.94125 
Q 497.144503 115.520625 497.144503 116.356875 
Q 497.144503 117.63 496.368253 118.310625 
Q 495.592003 118.989375 494.144503 118.989375 
Q 492.698878 118.989375 491.920753 118.310625 
Q 491.144503 117.63 491.144503 116.356875 
Q 491.144503 115.520625 491.624503 114.94125 
Q 492.106378 114.36 492.961378 114.16125 
z
M 492.528253 112.291875 
Q 492.528253 112.970625 492.952003 113.35125 
Q 493.377628 113.731875 494.144503 113.731875 
Q 494.907628 113.731875 495.337003 113.35125 
Q 495.768253 112.970625 495.768253 112.291875 
Q 495.768253 111.61125 495.337003 111.230625 
Q 494.907628 110.85 494.144503 110.85 
Q 493.377628 110.85 492.952003 111.230625 
Q 492.528253 111.61125 492.528253 112.291875 
z
M 508.921847 117.57 
L 508.921847 115.220625 
L 506.988722 115.220625 
L 506.988722 114.2475 
L 510.093722 114.2475 
L 510.093722 118.005 
Q 509.409347 118.490625 508.582472 118.74 
Q 507.757472 118.989375 506.819972 118.989375 
Q 504.768722 118.989375 503.609972 117.79125 
Q 502.453097 116.59125 502.453097 114.45375 
Q 502.453097 112.30875 503.609972 111.110625 
Q 504.768722 109.9125 506.819972 109.9125 
Q 507.674972 109.9125 508.445597 110.124375 
Q 509.216222 110.334375 509.866847 110.745 
L 509.866847 112.005 
Q 509.210597 111.448125 508.471847 111.166875 
Q 507.733097 110.885625 506.919347 110.885625 
Q 505.312472 110.885625 504.506222 111.781875 
Q 503.701847 112.678125 503.701847 114.45375 
Q 503.701847 116.22375 504.506222 117.12 
Q 505.312472 118.01625 506.919347 118.01625 
Q 507.545597 118.01625 508.036847 117.9075 
Q 508.529972 117.79875 508.921847 117.57 
z
M 512.209425 112.25625 
L 513.28755 112.25625 
L 513.28755 118.81875 
L 512.209425 118.81875 
L 512.209425 112.25625 
z
M 512.209425 109.700625 
L 513.28755 109.700625 
L 513.28755 111.0675 
L 512.209425 111.0675 
L 512.209425 109.700625 
z
M 516.773409 114.64125 
L 516.773409 117.845625 
L 518.672784 117.845625 
Q 519.627159 117.845625 520.086534 117.45 
Q 520.547784 117.054375 520.547784 116.240625 
Q 520.547784 115.419375 520.086534 115.03125 
Q 519.627159 114.64125 518.672784 114.64125 
L 516.773409 114.64125 
z
M 516.773409 111.043125 
L 516.773409 113.679375 
L 518.526534 113.679375 
Q 519.392784 113.679375 519.816534 113.355 
Q 520.242159 113.02875 520.242159 112.36125 
Q 520.242159 111.699375 519.816534 111.37125 
Q 519.392784 111.043125 518.526534 111.043125 
L 516.773409 111.043125 
z
M 515.590284 110.07 
L 518.614659 110.07 
Q 519.968409 110.07 520.699659 110.6325 
Q 521.432784 111.195 521.432784 112.231875 
Q 521.432784 113.03625 521.057784 113.510625 
Q 520.682784 113.985 519.955284 114.10125 
Q 520.829034 114.28875 521.312784 114.885 
Q 521.796534 115.479375 521.796534 116.37 
Q 521.796534 117.541875 520.999659 118.18125 
Q 520.202784 118.81875 518.730909 118.81875 
L 515.590284 118.81875 
L 515.590284 110.07 
z
M 525.692081 110.07 
L 526.687706 110.07 
L 523.640831 119.9325 
L 522.645206 119.9325 
L 525.692081 110.07 
z
M 532.001925 112.449375 
L 532.001925 113.469375 
Q 531.5463 113.235 531.053175 113.11875 
Q 530.561925 113.000625 530.033175 113.000625 
Q 529.230675 113.000625 528.829425 113.24625 
Q 528.428175 113.491875 528.428175 113.985 
Q 528.428175 114.36 528.71505 114.57375 
Q 529.001925 114.7875 529.87005 114.980625 
L 530.239425 115.063125 
Q 531.386925 115.30875 531.870675 115.756875 
Q 532.354425 116.205 532.354425 117.0075 
Q 532.354425 117.9225 531.630675 118.456875 
Q 530.906925 118.989375 529.6413 118.989375 
Q 529.114425 118.989375 528.54255 118.88625 
Q 527.970675 118.783125 527.3388 118.57875 
L 527.3388 117.465 
Q 527.936925 117.77625 528.5163 117.931875 
Q 529.095675 118.085625 529.665675 118.085625 
Q 530.426925 118.085625 530.835675 117.825 
Q 531.2463 117.564375 531.2463 117.09 
Q 531.2463 116.65125 530.95005 116.416875 
Q 530.655675 116.1825 529.65255 115.965 
L 529.27755 115.876875 
Q 528.2763 115.666875 527.83005 115.23 
Q 527.385675 114.793125 527.385675 114.031875 
Q 527.385675 113.105625 528.041925 112.603125 
Q 528.698175 112.09875 529.905675 112.09875 
Q 530.501925 112.09875 531.0288 112.186875 
Q 531.55755 112.273125 532.001925 112.449375 
z
" style="fill: #262626; stroke: #ffffff; stroke-width: 5"/>
    <path d="M 468.481378 114.10125 
Q 469.330753 114.283125 469.807003 114.85875 
Q 470.285128 115.4325 470.285128 116.27625 
Q 470.285128 117.57 469.394503 118.280625 
Q 468.503878 118.989375 466.863253 118.989375 
Q 466.313878 118.989375 465.730753 118.880625 
Q 465.147628 118.771875 464.527003 118.554375 
L 464.527003 117.4125 
Q 465.018253 117.699375 465.603253 117.845625 
Q 466.190128 117.991875 466.829503 117.991875 
Q 467.941378 117.991875 468.524503 117.553125 
Q 469.107628 117.114375 469.107628 116.27625 
Q 469.107628 115.501875 468.565753 115.066875 
Q 468.023878 114.63 467.058253 114.63 
L 466.038253 114.63 
L 466.038253 113.656875 
L 467.105128 113.656875 
Q 467.977003 113.656875 468.440128 113.308125 
Q 468.903253 112.959375 468.903253 112.303125 
Q 468.903253 111.63 468.425128 111.27 
Q 467.948878 110.908125 467.058253 110.908125 
Q 466.570753 110.908125 466.013878 111.015 
Q 465.457003 111.12 464.789503 111.34125 
L 464.789503 110.2875 
Q 465.464503 110.1 466.053253 110.00625 
Q 466.642003 109.9125 467.163253 109.9125 
Q 468.511378 109.9125 469.295128 110.525625 
Q 470.080753 111.136875 470.080753 112.179375 
Q 470.080753 112.906875 469.664503 113.4075 
Q 469.248253 113.908125 468.481378 114.10125 
z
M 475.782393 111.10125 
L 472.793643 115.771875 
L 475.782393 115.771875 
L 475.782393 111.10125 
z
M 475.471143 110.07 
L 476.959893 110.07 
L 476.959893 115.771875 
L 478.208643 115.771875 
L 478.208643 116.75625 
L 476.959893 116.75625 
L 476.959893 118.81875 
L 475.782393 118.81875 
L 475.782393 116.75625 
L 471.833643 116.75625 
L 471.833643 115.614375 
L 475.471143 110.07 
z
M 483.417159 111.10125 
L 480.428409 115.771875 
L 483.417159 115.771875 
L 483.417159 111.10125 
z
M 483.105909 110.07 
L 484.594659 110.07 
L 484.594659 115.771875 
L 485.843409 115.771875 
L 485.843409 116.75625 
L 484.594659 116.75625 
L 484.594659 118.81875 
L 483.417159 118.81875 
L 483.417159 116.75625 
L 479.468409 116.75625 
L 479.468409 115.614375 
L 483.105909 110.07 
z
M 487.7988 117.33 
L 489.0363 117.33 
L 489.0363 118.81875 
L 487.7988 118.81875 
L 487.7988 117.33 
z
M 494.144503 114.66375 
Q 493.300753 114.66375 492.817003 115.115625 
Q 492.335128 115.5675 492.335128 116.356875 
Q 492.335128 117.148125 492.817003 117.6 
Q 493.300753 118.051875 494.144503 118.051875 
Q 494.988253 118.051875 495.473878 117.598125 
Q 495.961378 117.1425 495.961378 116.356875 
Q 495.961378 115.5675 495.477628 115.115625 
Q 494.995753 114.66375 494.144503 114.66375 
z
M 492.961378 114.16125 
Q 492.200128 113.97375 491.774503 113.4525 
Q 491.350753 112.929375 491.350753 112.179375 
Q 491.350753 111.13125 492.097003 110.521875 
Q 492.845128 109.9125 494.144503 109.9125 
Q 495.451378 109.9125 496.195753 110.521875 
Q 496.940128 111.13125 496.940128 112.179375 
Q 496.940128 112.929375 496.514503 113.4525 
Q 496.090753 113.97375 495.335128 114.16125 
Q 496.190128 114.36 496.666378 114.94125 
Q 497.144503 115.520625 497.144503 116.356875 
Q 497.144503 117.63 496.368253 118.310625 
Q 495.592003 118.989375 494.144503 118.989375 
Q 492.698878 118.989375 491.920753 118.310625 
Q 491.144503 117.63 491.144503 116.356875 
Q 491.144503 115.520625 491.624503 114.94125 
Q 492.106378 114.36 492.961378 114.16125 
z
M 492.528253 112.291875 
Q 492.528253 112.970625 492.952003 113.35125 
Q 493.377628 113.731875 494.144503 113.731875 
Q 494.907628 113.731875 495.337003 113.35125 
Q 495.768253 112.970625 495.768253 112.291875 
Q 495.768253 111.61125 495.337003 111.230625 
Q 494.907628 110.85 494.144503 110.85 
Q 493.377628 110.85 492.952003 111.230625 
Q 492.528253 111.61125 492.528253 112.291875 
z
M 508.921847 117.57 
L 508.921847 115.220625 
L 506.988722 115.220625 
L 506.988722 114.2475 
L 510.093722 114.2475 
L 510.093722 118.005 
Q 509.409347 118.490625 508.582472 118.74 
Q 507.757472 118.989375 506.819972 118.989375 
Q 504.768722 118.989375 503.609972 117.79125 
Q 502.453097 116.59125 502.453097 114.45375 
Q 502.453097 112.30875 503.609972 111.110625 
Q 504.768722 109.9125 506.819972 109.9125 
Q 507.674972 109.9125 508.445597 110.124375 
Q 509.216222 110.334375 509.866847 110.745 
L 509.866847 112.005 
Q 509.210597 111.448125 508.471847 111.166875 
Q 507.733097 110.885625 506.919347 110.885625 
Q 505.312472 110.885625 504.506222 111.781875 
Q 503.701847 112.678125 503.701847 114.45375 
Q 503.701847 116.22375 504.506222 117.12 
Q 505.312472 118.01625 506.919347 118.01625 
Q 507.545597 118.01625 508.036847 117.9075 
Q 508.529972 117.79875 508.921847 117.57 
z
M 512.209425 112.25625 
L 513.28755 112.25625 
L 513.28755 118.81875 
L 512.209425 118.81875 
L 512.209425 112.25625 
z
M 512.209425 109.700625 
L 513.28755 109.700625 
L 513.28755 111.0675 
L 512.209425 111.0675 
L 512.209425 109.700625 
z
M 516.773409 114.64125 
L 516.773409 117.845625 
L 518.672784 117.845625 
Q 519.627159 117.845625 520.086534 117.45 
Q 520.547784 117.054375 520.547784 116.240625 
Q 520.547784 115.419375 520.086534 115.03125 
Q 519.627159 114.64125 518.672784 114.64125 
L 516.773409 114.64125 
z
M 516.773409 111.043125 
L 516.773409 113.679375 
L 518.526534 113.679375 
Q 519.392784 113.679375 519.816534 113.355 
Q 520.242159 113.02875 520.242159 112.36125 
Q 520.242159 111.699375 519.816534 111.37125 
Q 519.392784 111.043125 518.526534 111.043125 
L 516.773409 111.043125 
z
M 515.590284 110.07 
L 518.614659 110.07 
Q 519.968409 110.07 520.699659 110.6325 
Q 521.432784 111.195 521.432784 112.231875 
Q 521.432784 113.03625 521.057784 113.510625 
Q 520.682784 113.985 519.955284 114.10125 
Q 520.829034 114.28875 521.312784 114.885 
Q 521.796534 115.479375 521.796534 116.37 
Q 521.796534 117.541875 520.999659 118.18125 
Q 520.202784 118.81875 518.730909 118.81875 
L 515.590284 118.81875 
L 515.590284 110.07 
z
M 525.692081 110.07 
L 526.687706 110.07 
L 523.640831 119.9325 
L 522.645206 119.9325 
L 525.692081 110.07 
z
M 532.001925 112.449375 
L 532.001925 113.469375 
Q 531.5463 113.235 531.053175 113.11875 
Q 530.561925 113.000625 530.033175 113.000625 
Q 529.230675 113.000625 528.829425 113.24625 
Q 528.428175 113.491875 528.428175 113.985 
Q 528.428175 114.36 528.71505 114.57375 
Q 529.001925 114.7875 529.87005 114.980625 
L 530.239425 115.063125 
Q 531.386925 115.30875 531.870675 115.756875 
Q 532.354425 116.205 532.354425 117.0075 
Q 532.354425 117.9225 531.630675 118.456875 
Q 530.906925 118.989375 529.6413 118.989375 
Q 529.114425 118.989375 528.54255 118.88625 
Q 527.970675 118.783125 527.3388 118.57875 
L 527.3388 117.465 
Q 527.936925 117.77625 528.5163 117.931875 
Q 529.095675 118.085625 529.665675 118.085625 
Q 530.426925 118.085625 530.835675 117.825 
Q 531.2463 117.564375 531.2463 117.09 
Q 531.2463 116.65125 530.95005 116.416875 
Q 530.655675 116.1825 529.65255 115.965 
L 529.27755 115.876875 
Q 528.2763 115.666875 527.83005 115.23 
Q 527.385675 114.793125 527.385675 114.031875 
Q 527.385675 113.105625 528.041925 112.603125 
Q 528.698175 112.09875 529.905675 112.09875 
Q 530.501925 112.09875 531.0288 112.186875 
Q 531.55755 112.273125 532.001925 112.449375 
z
" style="fill: #262626"/>
   </g>
   <g id="text_16">
    <!-- Reclaim -->
    <g style="fill: #262626" transform="translate(601.850061 33.4725) rotate(-270) scale(0.18 -0.18)">
     <defs>
      <path id="DejaVuSans-52" d="M 2841 2188 
Q 3044 2119 3236 1894 
Q 3428 1669 3622 1275 
L 4263 0 
L 3584 0 
L 2988 1197 
Q 2756 1666 2539 1819 
Q 2322 1972 1947 1972 
L 1259 1972 
L 1259 0 
L 628 0 
L 628 4666 
L 2053 4666 
Q 2853 4666 3247 4331 
Q 3641 3997 3641 3322 
Q 3641 2881 3436 2590 
Q 3231 2300 2841 2188 
z
M 1259 4147 
L 1259 2491 
L 2053 2491 
Q 2509 2491 2742 2702 
Q 2975 2913 2975 3322 
Q 2975 3731 2742 3939 
Q 2509 4147 2053 4147 
L 1259 4147 
z
" transform="scale(0.015625)"/>
     </defs>
     <use xlink:href="#DejaVuSans-52"/>
     <use xlink:href="#DejaVuSans-65" x="64.982422"/>
     <use xlink:href="#DejaVuSans-63" x="126.505859"/>
     <use xlink:href="#DejaVuSans-6c" x="181.486328"/>
     <use xlink:href="#DejaVuSans-61" x="209.269531"/>
     <use xlink:href="#DejaVuSans-69" x="270.548828"/>
     <use xlink:href="#DejaVuSans-6d" x="298.332031"/>
    </g>
   </g>
  </g>
 </g>
 <defs>
  <clipPath id="p5c29114cd0">
   <rect x="179.140625" y="7.2" width="387.93148" height="123.78"/>
  </clipPath>
 </defs>
</svg>
