<?xml version="1.0" encoding="utf-8" standalone="no"?>
<!DOCTYPE svg PUBLIC "-//W3C//DTD SVG 1.1//EN"
  "http://www.w3.org/Graphics/SVG/1.1/DTD/svg11.dtd">
<svg xmlns:xlink="http://www.w3.org/1999/xlink" width="694.665585pt" height="191.069531pt" viewBox="0 0 694.665585 191.069531" xmlns="http://www.w3.org/2000/svg" version="1.1">
 <metadata>
  <rdf:RDF xmlns:dc="http://purl.org/dc/elements/1.1/" xmlns:cc="http://creativecommons.org/ns#" xmlns:rdf="http://www.w3.org/1999/02/22-rdf-syntax-ns#">
   <cc:Work>
    <dc:type rdf:resource="http://purl.org/dc/dcmitype/StillImage"/>
    <dc:date>2024-09-12T12:32:20.033011</dc:date>
    <dc:format>image/svg+xml</dc:format>
    <dc:creator>
     <cc:Agent>
      <dc:title>Matplotlib v3.9.2, https://matplotlib.org/</dc:title>
     </cc:Agent>
    </dc:creator>
   </cc:Work>
  </rdf:RDF>
 </metadata>
 <defs>
  <style type="text/css">*{stroke-linejoin: round; stroke-linecap: butt}</style>
 </defs>
 <g id="figure_1">
  <g id="patch_1">
   <path d="M 0 191.069531 
L 694.665585 191.069531 
L 694.665585 0 
L 0 0 
L 0 191.069531 
z
" style="fill: none"/>
  </g>
  <g id="axes_1">
   <g id="patch_2">
    <path d="M 179.140625 130.98 
L 672.945585 130.98 
L 672.945585 7.2 
L 179.140625 7.2 
z
" style="fill: #ffffff"/>
   </g>
   <g id="matplotlib.axis_1">
    <g id="xtick_1">
     <g id="line2d_1">
      <path d="M 179.140625 130.98 
L 179.140625 7.2 
" clip-path="url(#pf990d21f8f)" style="fill: none; stroke: #cccccc; stroke-width: 2; stroke-linecap: round"/>
     </g>
     <g id="text_1">
      <!-- $\mathdefault{10^{-1}}$ -->
      <g style="fill: #262626" transform="translate(159.753125 159.017422) scale(0.165 -0.165)">
       <defs>
        <path id="DejaVuSans-31" d="M 794 531 
L 1825 531 
L 1825 4091 
L 703 3866 
L 703 4441 
L 1819 4666 
L 2450 4666 
L 2450 531 
L 3481 531 
L 3481 0 
L 794 0 
L 794 531 
z
" transform="scale(0.015625)"/>
        <path id="DejaVuSans-30" d="M 2034 4250 
Q 1547 4250 1301 3770 
Q 1056 3291 1056 2328 
Q 1056 1369 1301 889 
Q 1547 409 2034 409 
Q 2525 409 2770 889 
Q 3016 1369 3016 2328 
Q 3016 3291 2770 3770 
Q 2525 4250 2034 4250 
z
M 2034 4750 
Q 2819 4750 3233 4129 
Q 3647 3509 3647 2328 
Q 3647 1150 3233 529 
Q 2819 -91 2034 -91 
Q 1250 -91 836 529 
Q 422 1150 422 2328 
Q 422 3509 836 4129 
Q 1250 4750 2034 4750 
z
" transform="scale(0.015625)"/>
        <path id="DejaVuSans-2212" d="M 678 2272 
L 4684 2272 
L 4684 1741 
L 678 1741 
L 678 2272 
z
" transform="scale(0.015625)"/>
       </defs>
       <use xlink:href="#DejaVuSans-31" transform="translate(0 0.684375)"/>
       <use xlink:href="#DejaVuSans-30" transform="translate(63.623047 0.684375)"/>
       <use xlink:href="#DejaVuSans-2212" transform="translate(128.203125 38.965625) scale(0.7)"/>
       <use xlink:href="#DejaVuSans-31" transform="translate(186.855469 38.965625) scale(0.7)"/>
      </g>
     </g>
    </g>
    <g id="xtick_2">
     <g id="line2d_2">
      <path d="M 277.901617 130.98 
L 277.901617 7.2 
" clip-path="url(#pf990d21f8f)" style="fill: none; stroke: #cccccc; stroke-width: 2; stroke-linecap: round"/>
     </g>
     <g id="text_2">
      <!-- $\mathdefault{10^{0}}$ -->
      <g style="fill: #262626" transform="translate(263.381617 159.017422) scale(0.165 -0.165)">
       <use xlink:href="#DejaVuSans-31" transform="translate(0 0.765625)"/>
       <use xlink:href="#DejaVuSans-30" transform="translate(63.623047 0.765625)"/>
       <use xlink:href="#DejaVuSans-30" transform="translate(128.203125 39.046875) scale(0.7)"/>
      </g>
     </g>
    </g>
    <g id="xtick_3">
     <g id="line2d_3">
      <path d="M 376.662609 130.98 
L 376.662609 7.2 
" clip-path="url(#pf990d21f8f)" style="fill: none; stroke: #cccccc; stroke-width: 2; stroke-linecap: round"/>
     </g>
     <g id="text_3">
      <!-- $\mathdefault{10^{1}}$ -->
      <g style="fill: #262626" transform="translate(362.142609 159.017422) scale(0.165 -0.165)">
       <use xlink:href="#DejaVuSans-31" transform="translate(0 0.684375)"/>
       <use xlink:href="#DejaVuSans-30" transform="translate(63.623047 0.684375)"/>
       <use xlink:href="#DejaVuSans-31" transform="translate(128.203125 38.965625) scale(0.7)"/>
      </g>
     </g>
    </g>
    <g id="xtick_4">
     <g id="line2d_4">
      <path d="M 475.423601 130.98 
L 475.423601 7.2 
" clip-path="url(#pf990d21f8f)" style="fill: none; stroke: #cccccc; stroke-width: 2; stroke-linecap: round"/>
     </g>
     <g id="text_4">
      <!-- $\mathdefault{10^{2}}$ -->
      <g style="fill: #262626" transform="translate(460.903601 159.017422) scale(0.165 -0.165)">
       <defs>
        <path id="DejaVuSans-32" d="M 1228 531 
L 3431 531 
L 3431 0 
L 469 0 
L 469 531 
Q 828 903 1448 1529 
Q 2069 2156 2228 2338 
Q 2531 2678 2651 2914 
Q 2772 3150 2772 3378 
Q 2772 3750 2511 3984 
Q 2250 4219 1831 4219 
Q 1534 4219 1204 4116 
Q 875 4013 500 3803 
L 500 4441 
Q 881 4594 1212 4672 
Q 1544 4750 1819 4750 
Q 2544 4750 2975 4387 
Q 3406 4025 3406 3419 
Q 3406 3131 3298 2873 
Q 3191 2616 2906 2266 
Q 2828 2175 2409 1742 
Q 1991 1309 1228 531 
z
" transform="scale(0.015625)"/>
       </defs>
       <use xlink:href="#DejaVuSans-31" transform="translate(0 0.765625)"/>
       <use xlink:href="#DejaVuSans-30" transform="translate(63.623047 0.765625)"/>
       <use xlink:href="#DejaVuSans-32" transform="translate(128.203125 39.046875) scale(0.7)"/>
      </g>
     </g>
    </g>
    <g id="xtick_5">
     <g id="line2d_5">
      <path d="M 574.184593 130.98 
L 574.184593 7.2 
" clip-path="url(#pf990d21f8f)" style="fill: none; stroke: #cccccc; stroke-width: 2; stroke-linecap: round"/>
     </g>
     <g id="text_5">
      <!-- $\mathdefault{10^{3}}$ -->
      <g style="fill: #262626" transform="translate(559.664593 159.017422) scale(0.165 -0.165)">
       <defs>
        <path id="DejaVuSans-33" d="M 2597 2516 
Q 3050 2419 3304 2112 
Q 3559 1806 3559 1356 
Q 3559 666 3084 287 
Q 2609 -91 1734 -91 
Q 1441 -91 1130 -33 
Q 819 25 488 141 
L 488 750 
Q 750 597 1062 519 
Q 1375 441 1716 441 
Q 2309 441 2620 675 
Q 2931 909 2931 1356 
Q 2931 1769 2642 2001 
Q 2353 2234 1838 2234 
L 1294 2234 
L 1294 2753 
L 1863 2753 
Q 2328 2753 2575 2939 
Q 2822 3125 2822 3475 
Q 2822 3834 2567 4026 
Q 2313 4219 1838 4219 
Q 1578 4219 1281 4162 
Q 984 4106 628 3988 
L 628 4550 
Q 988 4650 1302 4700 
Q 1616 4750 1894 4750 
Q 2613 4750 3031 4423 
Q 3450 4097 3450 3541 
Q 3450 3153 3228 2886 
Q 3006 2619 2597 2516 
z
" transform="scale(0.015625)"/>
       </defs>
       <use xlink:href="#DejaVuSans-31" transform="translate(0 0.765625)"/>
       <use xlink:href="#DejaVuSans-30" transform="translate(63.623047 0.765625)"/>
       <use xlink:href="#DejaVuSans-33" transform="translate(128.203125 39.046875) scale(0.7)"/>
      </g>
     </g>
    </g>
    <g id="xtick_6">
     <g id="line2d_6">
      <path d="M 672.945585 130.98 
L 672.945585 7.2 
" clip-path="url(#pf990d21f8f)" style="fill: none; stroke: #cccccc; stroke-width: 2; stroke-linecap: round"/>
     </g>
     <g id="text_6">
      <!-- $\mathdefault{10^{4}}$ -->
      <g style="fill: #262626" transform="translate(658.425585 159.017422) scale(0.165 -0.165)">
       <defs>
        <path id="DejaVuSans-34" d="M 2419 4116 
L 825 1625 
L 2419 1625 
L 2419 4116 
z
M 2253 4666 
L 3047 4666 
L 3047 1625 
L 3713 1625 
L 3713 1100 
L 3047 1100 
L 3047 0 
L 2419 0 
L 2419 1100 
L 313 1100 
L 313 1709 
L 2253 4666 
z
" transform="scale(0.015625)"/>
       </defs>
       <use xlink:href="#DejaVuSans-31" transform="translate(0 0.684375)"/>
       <use xlink:href="#DejaVuSans-30" transform="translate(63.623047 0.684375)"/>
       <use xlink:href="#DejaVuSans-34" transform="translate(128.203125 38.965625) scale(0.7)"/>
      </g>
     </g>
    </g>
    <g id="xtick_7">
     <g id="line2d_7">
      <path d="M 208.870646 130.98 
L 208.870646 7.2 
" clip-path="url(#pf990d21f8f)" style="fill: none; stroke: #cccccc; stroke-linecap: round"/>
     </g>
    </g>
    <g id="xtick_8">
     <g id="line2d_8">
      <path d="M 226.261593 130.98 
L 226.261593 7.2 
" clip-path="url(#pf990d21f8f)" style="fill: none; stroke: #cccccc; stroke-linecap: round"/>
     </g>
    </g>
    <g id="xtick_9">
     <g id="line2d_9">
      <path d="M 238.600667 130.98 
L 238.600667 7.2 
" clip-path="url(#pf990d21f8f)" style="fill: none; stroke: #cccccc; stroke-linecap: round"/>
     </g>
    </g>
    <g id="xtick_10">
     <g id="line2d_10">
      <path d="M 248.171596 130.98 
L 248.171596 7.2 
" clip-path="url(#pf990d21f8f)" style="fill: none; stroke: #cccccc; stroke-linecap: round"/>
     </g>
    </g>
    <g id="xtick_11">
     <g id="line2d_11">
      <path d="M 255.991614 130.98 
L 255.991614 7.2 
" clip-path="url(#pf990d21f8f)" style="fill: none; stroke: #cccccc; stroke-linecap: round"/>
     </g>
    </g>
    <g id="xtick_12">
     <g id="line2d_12">
      <path d="M 262.603346 130.98 
L 262.603346 7.2 
" clip-path="url(#pf990d21f8f)" style="fill: none; stroke: #cccccc; stroke-linecap: round"/>
     </g>
    </g>
    <g id="xtick_13">
     <g id="line2d_13">
      <path d="M 268.330688 130.98 
L 268.330688 7.2 
" clip-path="url(#pf990d21f8f)" style="fill: none; stroke: #cccccc; stroke-linecap: round"/>
     </g>
    </g>
    <g id="xtick_14">
     <g id="line2d_14">
      <path d="M 273.382562 130.98 
L 273.382562 7.2 
" clip-path="url(#pf990d21f8f)" style="fill: none; stroke: #cccccc; stroke-linecap: round"/>
     </g>
    </g>
    <g id="xtick_15">
     <g id="line2d_15">
      <path d="M 307.631638 130.98 
L 307.631638 7.2 
" clip-path="url(#pf990d21f8f)" style="fill: none; stroke: #cccccc; stroke-linecap: round"/>
     </g>
    </g>
    <g id="xtick_16">
     <g id="line2d_16">
      <path d="M 325.022585 130.98 
L 325.022585 7.2 
" clip-path="url(#pf990d21f8f)" style="fill: none; stroke: #cccccc; stroke-linecap: round"/>
     </g>
    </g>
    <g id="xtick_17">
     <g id="line2d_17">
      <path d="M 337.361659 130.98 
L 337.361659 7.2 
" clip-path="url(#pf990d21f8f)" style="fill: none; stroke: #cccccc; stroke-linecap: round"/>
     </g>
    </g>
    <g id="xtick_18">
     <g id="line2d_18">
      <path d="M 346.932588 130.98 
L 346.932588 7.2 
" clip-path="url(#pf990d21f8f)" style="fill: none; stroke: #cccccc; stroke-linecap: round"/>
     </g>
    </g>
    <g id="xtick_19">
     <g id="line2d_19">
      <path d="M 354.752606 130.98 
L 354.752606 7.2 
" clip-path="url(#pf990d21f8f)" style="fill: none; stroke: #cccccc; stroke-linecap: round"/>
     </g>
    </g>
    <g id="xtick_20">
     <g id="line2d_20">
      <path d="M 361.364338 130.98 
L 361.364338 7.2 
" clip-path="url(#pf990d21f8f)" style="fill: none; stroke: #cccccc; stroke-linecap: round"/>
     </g>
    </g>
    <g id="xtick_21">
     <g id="line2d_21">
      <path d="M 367.09168 130.98 
L 367.09168 7.2 
" clip-path="url(#pf990d21f8f)" style="fill: none; stroke: #cccccc; stroke-linecap: round"/>
     </g>
    </g>
    <g id="xtick_22">
     <g id="line2d_22">
      <path d="M 372.143554 130.98 
L 372.143554 7.2 
" clip-path="url(#pf990d21f8f)" style="fill: none; stroke: #cccccc; stroke-linecap: round"/>
     </g>
    </g>
    <g id="xtick_23">
     <g id="line2d_23">
      <path d="M 406.39263 130.98 
L 406.39263 7.2 
" clip-path="url(#pf990d21f8f)" style="fill: none; stroke: #cccccc; stroke-linecap: round"/>
     </g>
    </g>
    <g id="xtick_24">
     <g id="line2d_24">
      <path d="M 423.783577 130.98 
L 423.783577 7.2 
" clip-path="url(#pf990d21f8f)" style="fill: none; stroke: #cccccc; stroke-linecap: round"/>
     </g>
    </g>
    <g id="xtick_25">
     <g id="line2d_25">
      <path d="M 436.122651 130.98 
L 436.122651 7.2 
" clip-path="url(#pf990d21f8f)" style="fill: none; stroke: #cccccc; stroke-linecap: round"/>
     </g>
    </g>
    <g id="xtick_26">
     <g id="line2d_26">
      <path d="M 445.69358 130.98 
L 445.69358 7.2 
" clip-path="url(#pf990d21f8f)" style="fill: none; stroke: #cccccc; stroke-linecap: round"/>
     </g>
    </g>
    <g id="xtick_27">
     <g id="line2d_27">
      <path d="M 453.513598 130.98 
L 453.513598 7.2 
" clip-path="url(#pf990d21f8f)" style="fill: none; stroke: #cccccc; stroke-linecap: round"/>
     </g>
    </g>
    <g id="xtick_28">
     <g id="line2d_28">
      <path d="M 460.12533 130.98 
L 460.12533 7.2 
" clip-path="url(#pf990d21f8f)" style="fill: none; stroke: #cccccc; stroke-linecap: round"/>
     </g>
    </g>
    <g id="xtick_29">
     <g id="line2d_29">
      <path d="M 465.852672 130.98 
L 465.852672 7.2 
" clip-path="url(#pf990d21f8f)" style="fill: none; stroke: #cccccc; stroke-linecap: round"/>
     </g>
    </g>
    <g id="xtick_30">
     <g id="line2d_30">
      <path d="M 470.904546 130.98 
L 470.904546 7.2 
" clip-path="url(#pf990d21f8f)" style="fill: none; stroke: #cccccc; stroke-linecap: round"/>
     </g>
    </g>
    <g id="xtick_31">
     <g id="line2d_31">
      <path d="M 505.153622 130.98 
L 505.153622 7.2 
" clip-path="url(#pf990d21f8f)" style="fill: none; stroke: #cccccc; stroke-linecap: round"/>
     </g>
    </g>
    <g id="xtick_32">
     <g id="line2d_32">
      <path d="M 522.544569 130.98 
L 522.544569 7.2 
" clip-path="url(#pf990d21f8f)" style="fill: none; stroke: #cccccc; stroke-linecap: round"/>
     </g>
    </g>
    <g id="xtick_33">
     <g id="line2d_33">
      <path d="M 534.883643 130.98 
L 534.883643 7.2 
" clip-path="url(#pf990d21f8f)" style="fill: none; stroke: #cccccc; stroke-linecap: round"/>
     </g>
    </g>
    <g id="xtick_34">
     <g id="line2d_34">
      <path d="M 544.454572 130.98 
L 544.454572 7.2 
" clip-path="url(#pf990d21f8f)" style="fill: none; stroke: #cccccc; stroke-linecap: round"/>
     </g>
    </g>
    <g id="xtick_35">
     <g id="line2d_35">
      <path d="M 552.27459 130.98 
L 552.27459 7.2 
" clip-path="url(#pf990d21f8f)" style="fill: none; stroke: #cccccc; stroke-linecap: round"/>
     </g>
    </g>
    <g id="xtick_36">
     <g id="line2d_36">
      <path d="M 558.886322 130.98 
L 558.886322 7.2 
" clip-path="url(#pf990d21f8f)" style="fill: none; stroke: #cccccc; stroke-linecap: round"/>
     </g>
    </g>
    <g id="xtick_37">
     <g id="line2d_37">
      <path d="M 564.613664 130.98 
L 564.613664 7.2 
" clip-path="url(#pf990d21f8f)" style="fill: none; stroke: #cccccc; stroke-linecap: round"/>
     </g>
    </g>
    <g id="xtick_38">
     <g id="line2d_38">
      <path d="M 569.665538 130.98 
L 569.665538 7.2 
" clip-path="url(#pf990d21f8f)" style="fill: none; stroke: #cccccc; stroke-linecap: round"/>
     </g>
    </g>
    <g id="xtick_39">
     <g id="line2d_39">
      <path d="M 603.914614 130.98 
L 603.914614 7.2 
" clip-path="url(#pf990d21f8f)" style="fill: none; stroke: #cccccc; stroke-linecap: round"/>
     </g>
    </g>
    <g id="xtick_40">
     <g id="line2d_40">
      <path d="M 621.305561 130.98 
L 621.305561 7.2 
" clip-path="url(#pf990d21f8f)" style="fill: none; stroke: #cccccc; stroke-linecap: round"/>
     </g>
    </g>
    <g id="xtick_41">
     <g id="line2d_41">
      <path d="M 633.644635 130.98 
L 633.644635 7.2 
" clip-path="url(#pf990d21f8f)" style="fill: none; stroke: #cccccc; stroke-linecap: round"/>
     </g>
    </g>
    <g id="xtick_42">
     <g id="line2d_42">
      <path d="M 643.215564 130.98 
L 643.215564 7.2 
" clip-path="url(#pf990d21f8f)" style="fill: none; stroke: #cccccc; stroke-linecap: round"/>
     </g>
    </g>
    <g id="xtick_43">
     <g id="line2d_43">
      <path d="M 651.035582 130.98 
L 651.035582 7.2 
" clip-path="url(#pf990d21f8f)" style="fill: none; stroke: #cccccc; stroke-linecap: round"/>
     </g>
    </g>
    <g id="xtick_44">
     <g id="line2d_44">
      <path d="M 657.647314 130.98 
L 657.647314 7.2 
" clip-path="url(#pf990d21f8f)" style="fill: none; stroke: #cccccc; stroke-linecap: round"/>
     </g>
    </g>
    <g id="xtick_45">
     <g id="line2d_45">
      <path d="M 663.374656 130.98 
L 663.374656 7.2 
" clip-path="url(#pf990d21f8f)" style="fill: none; stroke: #cccccc; stroke-linecap: round"/>
     </g>
    </g>
    <g id="xtick_46">
     <g id="line2d_46">
      <path d="M 668.42653 130.98 
L 668.42653 7.2 
" clip-path="url(#pf990d21f8f)" style="fill: none; stroke: #cccccc; stroke-linecap: round"/>
     </g>
    </g>
    <g id="text_7">
     <!-- Speed [GiB/s] - logarithmic -->
     <g style="fill: #262626" transform="translate(304.723105 180.126094) scale(0.18 -0.18)">
      <defs>
       <path id="DejaVuSans-53" d="M 3425 4513 
L 3425 3897 
Q 3066 4069 2747 4153 
Q 2428 4238 2131 4238 
Q 1616 4238 1336 4038 
Q 1056 3838 1056 3469 
Q 1056 3159 1242 3001 
Q 1428 2844 1947 2747 
L 2328 2669 
Q 3034 2534 3370 2195 
Q 3706 1856 3706 1288 
Q 3706 609 3251 259 
Q 2797 -91 1919 -91 
Q 1588 -91 1214 -16 
Q 841 59 441 206 
L 441 856 
Q 825 641 1194 531 
Q 1563 422 1919 422 
Q 2459 422 2753 634 
Q 3047 847 3047 1241 
Q 3047 1584 2836 1778 
Q 2625 1972 2144 2069 
L 1759 2144 
Q 1053 2284 737 2584 
Q 422 2884 422 3419 
Q 422 4038 858 4394 
Q 1294 4750 2059 4750 
Q 2388 4750 2728 4690 
Q 3069 4631 3425 4513 
z
" transform="scale(0.015625)"/>
       <path id="DejaVuSans-70" d="M 1159 525 
L 1159 -1331 
L 581 -1331 
L 581 3500 
L 1159 3500 
L 1159 2969 
Q 1341 3281 1617 3432 
Q 1894 3584 2278 3584 
Q 2916 3584 3314 3078 
Q 3713 2572 3713 1747 
Q 3713 922 3314 415 
Q 2916 -91 2278 -91 
Q 1894 -91 1617 61 
Q 1341 213 1159 525 
z
M 3116 1747 
Q 3116 2381 2855 2742 
Q 2594 3103 2138 3103 
Q 1681 3103 1420 2742 
Q 1159 2381 1159 1747 
Q 1159 1113 1420 752 
Q 1681 391 2138 391 
Q 2594 391 2855 752 
Q 3116 1113 3116 1747 
z
" transform="scale(0.015625)"/>
       <path id="DejaVuSans-65" d="M 3597 1894 
L 3597 1613 
L 953 1613 
Q 991 1019 1311 708 
Q 1631 397 2203 397 
Q 2534 397 2845 478 
Q 3156 559 3463 722 
L 3463 178 
Q 3153 47 2828 -22 
Q 2503 -91 2169 -91 
Q 1331 -91 842 396 
Q 353 884 353 1716 
Q 353 2575 817 3079 
Q 1281 3584 2069 3584 
Q 2775 3584 3186 3129 
Q 3597 2675 3597 1894 
z
M 3022 2063 
Q 3016 2534 2758 2815 
Q 2500 3097 2075 3097 
Q 1594 3097 1305 2825 
Q 1016 2553 972 2059 
L 3022 2063 
z
" transform="scale(0.015625)"/>
       <path id="DejaVuSans-64" d="M 2906 2969 
L 2906 4863 
L 3481 4863 
L 3481 0 
L 2906 0 
L 2906 525 
Q 2725 213 2448 61 
Q 2172 -91 1784 -91 
Q 1150 -91 751 415 
Q 353 922 353 1747 
Q 353 2572 751 3078 
Q 1150 3584 1784 3584 
Q 2172 3584 2448 3432 
Q 2725 3281 2906 2969 
z
M 947 1747 
Q 947 1113 1208 752 
Q 1469 391 1925 391 
Q 2381 391 2643 752 
Q 2906 1113 2906 1747 
Q 2906 2381 2643 2742 
Q 2381 3103 1925 3103 
Q 1469 3103 1208 2742 
Q 947 2381 947 1747 
z
" transform="scale(0.015625)"/>
       <path id="DejaVuSans-20" transform="scale(0.015625)"/>
       <path id="DejaVuSans-5b" d="M 550 4863 
L 1875 4863 
L 1875 4416 
L 1125 4416 
L 1125 -397 
L 1875 -397 
L 1875 -844 
L 550 -844 
L 550 4863 
z
" transform="scale(0.015625)"/>
       <path id="DejaVuSans-47" d="M 3809 666 
L 3809 1919 
L 2778 1919 
L 2778 2438 
L 4434 2438 
L 4434 434 
Q 4069 175 3628 42 
Q 3188 -91 2688 -91 
Q 1594 -91 976 548 
Q 359 1188 359 2328 
Q 359 3472 976 4111 
Q 1594 4750 2688 4750 
Q 3144 4750 3555 4637 
Q 3966 4525 4313 4306 
L 4313 3634 
Q 3963 3931 3569 4081 
Q 3175 4231 2741 4231 
Q 1884 4231 1454 3753 
Q 1025 3275 1025 2328 
Q 1025 1384 1454 906 
Q 1884 428 2741 428 
Q 3075 428 3337 486 
Q 3600 544 3809 666 
z
" transform="scale(0.015625)"/>
       <path id="DejaVuSans-69" d="M 603 3500 
L 1178 3500 
L 1178 0 
L 603 0 
L 603 3500 
z
M 603 4863 
L 1178 4863 
L 1178 4134 
L 603 4134 
L 603 4863 
z
" transform="scale(0.015625)"/>
       <path id="DejaVuSans-42" d="M 1259 2228 
L 1259 519 
L 2272 519 
Q 2781 519 3026 730 
Q 3272 941 3272 1375 
Q 3272 1813 3026 2020 
Q 2781 2228 2272 2228 
L 1259 2228 
z
M 1259 4147 
L 1259 2741 
L 2194 2741 
Q 2656 2741 2882 2914 
Q 3109 3088 3109 3444 
Q 3109 3797 2882 3972 
Q 2656 4147 2194 4147 
L 1259 4147 
z
M 628 4666 
L 2241 4666 
Q 2963 4666 3353 4366 
Q 3744 4066 3744 3513 
Q 3744 3084 3544 2831 
Q 3344 2578 2956 2516 
Q 3422 2416 3680 2098 
Q 3938 1781 3938 1306 
Q 3938 681 3513 340 
Q 3088 0 2303 0 
L 628 0 
L 628 4666 
z
" transform="scale(0.015625)"/>
       <path id="DejaVuSans-2f" d="M 1625 4666 
L 2156 4666 
L 531 -594 
L 0 -594 
L 1625 4666 
z
" transform="scale(0.015625)"/>
       <path id="DejaVuSans-73" d="M 2834 3397 
L 2834 2853 
Q 2591 2978 2328 3040 
Q 2066 3103 1784 3103 
Q 1356 3103 1142 2972 
Q 928 2841 928 2578 
Q 928 2378 1081 2264 
Q 1234 2150 1697 2047 
L 1894 2003 
Q 2506 1872 2764 1633 
Q 3022 1394 3022 966 
Q 3022 478 2636 193 
Q 2250 -91 1575 -91 
Q 1294 -91 989 -36 
Q 684 19 347 128 
L 347 722 
Q 666 556 975 473 
Q 1284 391 1588 391 
Q 1994 391 2212 530 
Q 2431 669 2431 922 
Q 2431 1156 2273 1281 
Q 2116 1406 1581 1522 
L 1381 1569 
Q 847 1681 609 1914 
Q 372 2147 372 2553 
Q 372 3047 722 3315 
Q 1072 3584 1716 3584 
Q 2034 3584 2315 3537 
Q 2597 3491 2834 3397 
z
" transform="scale(0.015625)"/>
       <path id="DejaVuSans-5d" d="M 1947 4863 
L 1947 -844 
L 622 -844 
L 622 -397 
L 1369 -397 
L 1369 4416 
L 622 4416 
L 622 4863 
L 1947 4863 
z
" transform="scale(0.015625)"/>
       <path id="DejaVuSans-2d" d="M 313 2009 
L 1997 2009 
L 1997 1497 
L 313 1497 
L 313 2009 
z
" transform="scale(0.015625)"/>
       <path id="DejaVuSans-6c" d="M 603 4863 
L 1178 4863 
L 1178 0 
L 603 0 
L 603 4863 
z
" transform="scale(0.015625)"/>
       <path id="DejaVuSans-6f" d="M 1959 3097 
Q 1497 3097 1228 2736 
Q 959 2375 959 1747 
Q 959 1119 1226 758 
Q 1494 397 1959 397 
Q 2419 397 2687 759 
Q 2956 1122 2956 1747 
Q 2956 2369 2687 2733 
Q 2419 3097 1959 3097 
z
M 1959 3584 
Q 2709 3584 3137 3096 
Q 3566 2609 3566 1747 
Q 3566 888 3137 398 
Q 2709 -91 1959 -91 
Q 1206 -91 779 398 
Q 353 888 353 1747 
Q 353 2609 779 3096 
Q 1206 3584 1959 3584 
z
" transform="scale(0.015625)"/>
       <path id="DejaVuSans-67" d="M 2906 1791 
Q 2906 2416 2648 2759 
Q 2391 3103 1925 3103 
Q 1463 3103 1205 2759 
Q 947 2416 947 1791 
Q 947 1169 1205 825 
Q 1463 481 1925 481 
Q 2391 481 2648 825 
Q 2906 1169 2906 1791 
z
M 3481 434 
Q 3481 -459 3084 -895 
Q 2688 -1331 1869 -1331 
Q 1566 -1331 1297 -1286 
Q 1028 -1241 775 -1147 
L 775 -588 
Q 1028 -725 1275 -790 
Q 1522 -856 1778 -856 
Q 2344 -856 2625 -561 
Q 2906 -266 2906 331 
L 2906 616 
Q 2728 306 2450 153 
Q 2172 0 1784 0 
Q 1141 0 747 490 
Q 353 981 353 1791 
Q 353 2603 747 3093 
Q 1141 3584 1784 3584 
Q 2172 3584 2450 3431 
Q 2728 3278 2906 2969 
L 2906 3500 
L 3481 3500 
L 3481 434 
z
" transform="scale(0.015625)"/>
       <path id="DejaVuSans-61" d="M 2194 1759 
Q 1497 1759 1228 1600 
Q 959 1441 959 1056 
Q 959 750 1161 570 
Q 1363 391 1709 391 
Q 2188 391 2477 730 
Q 2766 1069 2766 1631 
L 2766 1759 
L 2194 1759 
z
M 3341 1997 
L 3341 0 
L 2766 0 
L 2766 531 
Q 2569 213 2275 61 
Q 1981 -91 1556 -91 
Q 1019 -91 701 211 
Q 384 513 384 1019 
Q 384 1609 779 1909 
Q 1175 2209 1959 2209 
L 2766 2209 
L 2766 2266 
Q 2766 2663 2505 2880 
Q 2244 3097 1772 3097 
Q 1472 3097 1187 3025 
Q 903 2953 641 2809 
L 641 3341 
Q 956 3463 1253 3523 
Q 1550 3584 1831 3584 
Q 2591 3584 2966 3190 
Q 3341 2797 3341 1997 
z
" transform="scale(0.015625)"/>
       <path id="DejaVuSans-72" d="M 2631 2963 
Q 2534 3019 2420 3045 
Q 2306 3072 2169 3072 
Q 1681 3072 1420 2755 
Q 1159 2438 1159 1844 
L 1159 0 
L 581 0 
L 581 3500 
L 1159 3500 
L 1159 2956 
Q 1341 3275 1631 3429 
Q 1922 3584 2338 3584 
Q 2397 3584 2469 3576 
Q 2541 3569 2628 3553 
L 2631 2963 
z
" transform="scale(0.015625)"/>
       <path id="DejaVuSans-74" d="M 1172 4494 
L 1172 3500 
L 2356 3500 
L 2356 3053 
L 1172 3053 
L 1172 1153 
Q 1172 725 1289 603 
Q 1406 481 1766 481 
L 2356 481 
L 2356 0 
L 1766 0 
Q 1100 0 847 248 
Q 594 497 594 1153 
L 594 3053 
L 172 3053 
L 172 3500 
L 594 3500 
L 594 4494 
L 1172 4494 
z
" transform="scale(0.015625)"/>
       <path id="DejaVuSans-68" d="M 3513 2113 
L 3513 0 
L 2938 0 
L 2938 2094 
Q 2938 2591 2744 2837 
Q 2550 3084 2163 3084 
Q 1697 3084 1428 2787 
Q 1159 2491 1159 1978 
L 1159 0 
L 581 0 
L 581 4863 
L 1159 4863 
L 1159 2956 
Q 1366 3272 1645 3428 
Q 1925 3584 2291 3584 
Q 2894 3584 3203 3211 
Q 3513 2838 3513 2113 
z
" transform="scale(0.015625)"/>
       <path id="DejaVuSans-6d" d="M 3328 2828 
Q 3544 3216 3844 3400 
Q 4144 3584 4550 3584 
Q 5097 3584 5394 3201 
Q 5691 2819 5691 2113 
L 5691 0 
L 5113 0 
L 5113 2094 
Q 5113 2597 4934 2840 
Q 4756 3084 4391 3084 
Q 3944 3084 3684 2787 
Q 3425 2491 3425 1978 
L 3425 0 
L 2847 0 
L 2847 2094 
Q 2847 2600 2669 2842 
Q 2491 3084 2119 3084 
Q 1678 3084 1418 2786 
Q 1159 2488 1159 1978 
L 1159 0 
L 581 0 
L 581 3500 
L 1159 3500 
L 1159 2956 
Q 1356 3278 1631 3431 
Q 1906 3584 2284 3584 
Q 2666 3584 2933 3390 
Q 3200 3197 3328 2828 
z
" transform="scale(0.015625)"/>
       <path id="DejaVuSans-63" d="M 3122 3366 
L 3122 2828 
Q 2878 2963 2633 3030 
Q 2388 3097 2138 3097 
Q 1578 3097 1268 2742 
Q 959 2388 959 1747 
Q 959 1106 1268 751 
Q 1578 397 2138 397 
Q 2388 397 2633 464 
Q 2878 531 3122 666 
L 3122 134 
Q 2881 22 2623 -34 
Q 2366 -91 2075 -91 
Q 1284 -91 818 406 
Q 353 903 353 1747 
Q 353 2603 823 3093 
Q 1294 3584 2113 3584 
Q 2378 3584 2631 3529 
Q 2884 3475 3122 3366 
z
" transform="scale(0.015625)"/>
      </defs>
      <use xlink:href="#DejaVuSans-53"/>
      <use xlink:href="#DejaVuSans-70" x="63.476562"/>
      <use xlink:href="#DejaVuSans-65" x="126.953125"/>
      <use xlink:href="#DejaVuSans-65" x="188.476562"/>
      <use xlink:href="#DejaVuSans-64" x="250"/>
      <use xlink:href="#DejaVuSans-20" x="313.476562"/>
      <use xlink:href="#DejaVuSans-5b" x="345.263672"/>
      <use xlink:href="#DejaVuSans-47" x="384.277344"/>
      <use xlink:href="#DejaVuSans-69" x="461.767578"/>
      <use xlink:href="#DejaVuSans-42" x="489.550781"/>
      <use xlink:href="#DejaVuSans-2f" x="558.154297"/>
      <use xlink:href="#DejaVuSans-73" x="591.845703"/>
      <use xlink:href="#DejaVuSans-5d" x="643.945312"/>
      <use xlink:href="#DejaVuSans-20" x="682.958984"/>
      <use xlink:href="#DejaVuSans-2d" x="714.746094"/>
      <use xlink:href="#DejaVuSans-20" x="750.830078"/>
      <use xlink:href="#DejaVuSans-6c" x="782.617188"/>
      <use xlink:href="#DejaVuSans-6f" x="810.400391"/>
      <use xlink:href="#DejaVuSans-67" x="871.582031"/>
      <use xlink:href="#DejaVuSans-61" x="935.058594"/>
      <use xlink:href="#DejaVuSans-72" x="996.337891"/>
      <use xlink:href="#DejaVuSans-69" x="1037.451172"/>
      <use xlink:href="#DejaVuSans-74" x="1065.234375"/>
      <use xlink:href="#DejaVuSans-68" x="1104.443359"/>
      <use xlink:href="#DejaVuSans-6d" x="1167.822266"/>
      <use xlink:href="#DejaVuSans-69" x="1265.234375"/>
      <use xlink:href="#DejaVuSans-63" x="1293.017578"/>
     </g>
    </g>
   </g>
   <g id="matplotlib.axis_2">
    <g id="ytick_1">
     <g id="text_8">
      <!-- virtio-balloon -->
      <g style="fill: #262626" transform="translate(54.694219 28.941211) scale(0.165 -0.165)">
       <defs>
        <path id="DejaVuSans-76" d="M 191 3500 
L 800 3500 
L 1894 563 
L 2988 3500 
L 3597 3500 
L 2284 0 
L 1503 0 
L 191 3500 
z
" transform="scale(0.015625)"/>
        <path id="DejaVuSans-62" d="M 3116 1747 
Q 3116 2381 2855 2742 
Q 2594 3103 2138 3103 
Q 1681 3103 1420 2742 
Q 1159 2381 1159 1747 
Q 1159 1113 1420 752 
Q 1681 391 2138 391 
Q 2594 391 2855 752 
Q 3116 1113 3116 1747 
z
M 1159 2969 
Q 1341 3281 1617 3432 
Q 1894 3584 2278 3584 
Q 2916 3584 3314 3078 
Q 3713 2572 3713 1747 
Q 3713 922 3314 415 
Q 2916 -91 2278 -91 
Q 1894 -91 1617 61 
Q 1341 213 1159 525 
L 1159 0 
L 581 0 
L 581 4863 
L 1159 4863 
L 1159 2969 
z
" transform="scale(0.015625)"/>
        <path id="DejaVuSans-6e" d="M 3513 2113 
L 3513 0 
L 2938 0 
L 2938 2094 
Q 2938 2591 2744 2837 
Q 2550 3084 2163 3084 
Q 1697 3084 1428 2787 
Q 1159 2491 1159 1978 
L 1159 0 
L 581 0 
L 581 3500 
L 1159 3500 
L 1159 2956 
Q 1366 3272 1645 3428 
Q 1925 3584 2291 3584 
Q 2894 3584 3203 3211 
Q 3513 2838 3513 2113 
z
" transform="scale(0.015625)"/>
       </defs>
       <use xlink:href="#DejaVuSans-76"/>
       <use xlink:href="#DejaVuSans-69" x="59.179688"/>
       <use xlink:href="#DejaVuSans-72" x="86.962891"/>
       <use xlink:href="#DejaVuSans-74" x="128.076172"/>
       <use xlink:href="#DejaVuSans-69" x="167.285156"/>
       <use xlink:href="#DejaVuSans-6f" x="195.068359"/>
       <use xlink:href="#DejaVuSans-2d" x="258.125"/>
       <use xlink:href="#DejaVuSans-62" x="294.208984"/>
       <use xlink:href="#DejaVuSans-61" x="357.685547"/>
       <use xlink:href="#DejaVuSans-6c" x="418.964844"/>
       <use xlink:href="#DejaVuSans-6c" x="446.748047"/>
       <use xlink:href="#DejaVuSans-6f" x="474.53125"/>
       <use xlink:href="#DejaVuSans-6f" x="535.712891"/>
       <use xlink:href="#DejaVuSans-6e" x="596.894531"/>
      </g>
     </g>
    </g>
    <g id="ytick_2">
     <g id="text_9">
      <!-- virtio-balloon-huge -->
      <g style="fill: #262626" transform="translate(7.2 59.886211) scale(0.165 -0.165)">
       <defs>
        <path id="DejaVuSans-75" d="M 544 1381 
L 544 3500 
L 1119 3500 
L 1119 1403 
Q 1119 906 1312 657 
Q 1506 409 1894 409 
Q 2359 409 2629 706 
Q 2900 1003 2900 1516 
L 2900 3500 
L 3475 3500 
L 3475 0 
L 2900 0 
L 2900 538 
Q 2691 219 2414 64 
Q 2138 -91 1772 -91 
Q 1169 -91 856 284 
Q 544 659 544 1381 
z
M 1991 3584 
L 1991 3584 
z
" transform="scale(0.015625)"/>
       </defs>
       <use xlink:href="#DejaVuSans-76"/>
       <use xlink:href="#DejaVuSans-69" x="59.179688"/>
       <use xlink:href="#DejaVuSans-72" x="86.962891"/>
       <use xlink:href="#DejaVuSans-74" x="128.076172"/>
       <use xlink:href="#DejaVuSans-69" x="167.285156"/>
       <use xlink:href="#DejaVuSans-6f" x="195.068359"/>
       <use xlink:href="#DejaVuSans-2d" x="258.125"/>
       <use xlink:href="#DejaVuSans-62" x="294.208984"/>
       <use xlink:href="#DejaVuSans-61" x="357.685547"/>
       <use xlink:href="#DejaVuSans-6c" x="418.964844"/>
       <use xlink:href="#DejaVuSans-6c" x="446.748047"/>
       <use xlink:href="#DejaVuSans-6f" x="474.53125"/>
       <use xlink:href="#DejaVuSans-6f" x="535.712891"/>
       <use xlink:href="#DejaVuSans-6e" x="596.894531"/>
       <use xlink:href="#DejaVuSans-2d" x="660.273438"/>
       <use xlink:href="#DejaVuSans-68" x="696.357422"/>
       <use xlink:href="#DejaVuSans-75" x="759.736328"/>
       <use xlink:href="#DejaVuSans-67" x="823.115234"/>
       <use xlink:href="#DejaVuSans-65" x="886.591797"/>
      </g>
     </g>
    </g>
    <g id="ytick_3">
     <g id="text_10">
      <!-- virtio-mem -->
      <g style="fill: #262626" transform="translate(72.800391 90.831211) scale(0.165 -0.165)">
       <use xlink:href="#DejaVuSans-76"/>
       <use xlink:href="#DejaVuSans-69" x="59.179688"/>
       <use xlink:href="#DejaVuSans-72" x="86.962891"/>
       <use xlink:href="#DejaVuSans-74" x="128.076172"/>
       <use xlink:href="#DejaVuSans-69" x="167.285156"/>
       <use xlink:href="#DejaVuSans-6f" x="195.068359"/>
       <use xlink:href="#DejaVuSans-2d" x="258.125"/>
       <use xlink:href="#DejaVuSans-6d" x="294.208984"/>
       <use xlink:href="#DejaVuSans-65" x="391.621094"/>
       <use xlink:href="#DejaVuSans-6d" x="453.144531"/>
      </g>
     </g>
    </g>
    <g id="ytick_4">
     <g id="text_11">
      <!-- HyperAlloc -->
      <g style="fill: #262626" transform="translate(74.432344 121.776211) scale(0.165 -0.165)">
       <defs>
        <path id="DejaVuSans-48" d="M 628 4666 
L 1259 4666 
L 1259 2753 
L 3553 2753 
L 3553 4666 
L 4184 4666 
L 4184 0 
L 3553 0 
L 3553 2222 
L 1259 2222 
L 1259 0 
L 628 0 
L 628 4666 
z
" transform="scale(0.015625)"/>
        <path id="DejaVuSans-79" d="M 2059 -325 
Q 1816 -950 1584 -1140 
Q 1353 -1331 966 -1331 
L 506 -1331 
L 506 -850 
L 844 -850 
Q 1081 -850 1212 -737 
Q 1344 -625 1503 -206 
L 1606 56 
L 191 3500 
L 800 3500 
L 1894 763 
L 2988 3500 
L 3597 3500 
L 2059 -325 
z
" transform="scale(0.015625)"/>
        <path id="DejaVuSans-41" d="M 2188 4044 
L 1331 1722 
L 3047 1722 
L 2188 4044 
z
M 1831 4666 
L 2547 4666 
L 4325 0 
L 3669 0 
L 3244 1197 
L 1141 1197 
L 716 0 
L 50 0 
L 1831 4666 
z
" transform="scale(0.015625)"/>
       </defs>
       <use xlink:href="#DejaVuSans-48"/>
       <use xlink:href="#DejaVuSans-79" x="75.195312"/>
       <use xlink:href="#DejaVuSans-70" x="134.375"/>
       <use xlink:href="#DejaVuSans-65" x="197.851562"/>
       <use xlink:href="#DejaVuSans-72" x="259.375"/>
       <use xlink:href="#DejaVuSans-41" x="300.488281"/>
       <use xlink:href="#DejaVuSans-6c" x="368.896484"/>
       <use xlink:href="#DejaVuSans-6c" x="396.679688"/>
       <use xlink:href="#DejaVuSans-6f" x="424.462891"/>
       <use xlink:href="#DejaVuSans-63" x="485.644531"/>
      </g>
     </g>
    </g>
   </g>
   <g id="patch_3">
    <path d="M -98483.090383 10.2945 
L 275.767451 10.2945 
L 275.767451 35.0505 
L -98483.090383 35.0505 
z
" clip-path="url(#pf990d21f8f)" style="fill: #176d9c; stroke: #ffffff; stroke-width: 2; stroke-linejoin: miter"/>
   </g>
   <g id="patch_4">
    <path d="M -98483.090383 41.2395 
L 488.686445 41.2395 
L 488.686445 65.9955 
L -98483.090383 65.9955 
z
" clip-path="url(#pf990d21f8f)" style="fill: #158b6a; stroke: #ffffff; stroke-width: 2; stroke-linejoin: miter"/>
   </g>
   <g id="patch_5">
    <path d="M -98483.090383 72.1845 
L 429.778034 72.1845 
L 429.778034 96.9405 
L -98483.090383 96.9405 
z
" clip-path="url(#pf990d21f8f)" style="fill: #ba611b; stroke: #ffffff; stroke-width: 2; stroke-linejoin: miter"/>
   </g>
   <g id="patch_6">
    <path d="M -98483.090383 103.1295 
L 528.52018 103.1295 
L 528.52018 127.8855 
L -98483.090383 127.8855 
z
" clip-path="url(#pf990d21f8f)" style="fill: #c282b5; stroke: #ffffff; stroke-width: 2; stroke-linejoin: miter"/>
   </g>
   <g id="line2d_47">
    <path d="M 275.572056 22.6725 
L 275.997279 22.6725 
" clip-path="url(#pf990d21f8f)" style="fill: none; stroke: #424242; stroke-width: 4.5; stroke-linecap: round"/>
   </g>
   <g id="line2d_48">
    <path d="M 488.051767 53.6175 
L 489.401314 53.6175 
" clip-path="url(#pf990d21f8f)" style="fill: none; stroke: #424242; stroke-width: 4.5; stroke-linecap: round"/>
   </g>
   <g id="line2d_49">
    <path d="M 429.600614 84.5625 
L 429.985193 84.5625 
" clip-path="url(#pf990d21f8f)" style="fill: none; stroke: #424242; stroke-width: 4.5; stroke-linecap: round"/>
   </g>
   <g id="line2d_50">
    <path d="M 526.909785 115.5075 
L 530.162965 115.5075 
" clip-path="url(#pf990d21f8f)" style="fill: none; stroke: #424242; stroke-width: 4.5; stroke-linecap: round"/>
   </g>
   <g id="patch_7">
    <path d="M 179.140625 130.98 
L 179.140625 7.2 
" style="fill: none; stroke: #cccccc; stroke-width: 2.5; stroke-linejoin: miter; stroke-linecap: square"/>
   </g>
   <g id="patch_8">
    <path d="M 179.140625 130.98 
L 672.945585 130.98 
" style="fill: none; stroke: #cccccc; stroke-width: 2.5; stroke-linejoin: miter; stroke-linecap: square"/>
   </g>
   <g id="text_12">
    <path d="M 287.085576 25.801875 
L 287.085576 24.72375 
Q 287.531826 24.935625 287.987451 25.04625 
Q 288.444951 25.156875 288.885576 25.156875 
Q 290.057451 25.156875 290.674326 24.369375 
Q 291.293076 23.581875 291.381201 21.975 
Q 291.041826 22.479375 290.518701 22.749375 
Q 289.997451 23.019375 289.365576 23.019375 
Q 288.053076 23.019375 287.288076 22.22625 
Q 286.523076 21.43125 286.523076 20.053125 
Q 286.523076 18.706875 287.319951 17.893125 
Q 288.116826 17.0775 289.440576 17.0775 
Q 290.959326 17.0775 291.758076 18.241875 
Q 292.558701 19.404375 292.558701 21.61875 
Q 292.558701 23.686875 291.576201 24.920625 
Q 290.595576 26.154375 288.938076 26.154375 
Q 288.491826 26.154375 288.034326 26.06625 
Q 287.578701 25.978125 287.085576 25.801875 
z
M 289.440576 22.093125 
Q 290.237451 22.093125 290.702451 21.549375 
Q 291.169326 21.00375 291.169326 20.053125 
Q 291.169326 19.11 290.702451 18.5625 
Q 290.237451 18.015 289.440576 18.015 
Q 288.643701 18.015 288.178701 18.5625 
Q 287.713701 19.11 287.713701 20.053125 
Q 287.713701 21.00375 288.178701 21.549375 
Q 288.643701 22.093125 289.440576 22.093125 
z
M 294.386592 17.235 
L 300.011592 17.235 
L 300.011592 17.739375 
L 296.835342 25.98375 
L 295.599717 25.98375 
L 298.588467 18.2325 
L 294.386592 18.2325 
L 294.386592 17.235 
z
M 305.572608 18.26625 
L 302.583858 22.936875 
L 305.572608 22.936875 
L 305.572608 18.26625 
z
M 305.261358 17.235 
L 306.750108 17.235 
L 306.750108 22.936875 
L 307.998858 22.936875 
L 307.998858 23.92125 
L 306.750108 23.92125 
L 306.750108 25.98375 
L 305.572608 25.98375 
L 305.572608 23.92125 
L 301.623858 23.92125 
L 301.623858 22.779375 
L 305.261358 17.235 
z
M 309.954248 24.495 
L 311.191748 24.495 
L 311.191748 25.98375 
L 309.954248 25.98375 
L 309.954248 24.495 
z
M 317.355576 21.26625 
Q 318.204951 21.448125 318.681201 22.02375 
Q 319.159326 22.5975 319.159326 23.44125 
Q 319.159326 24.735 318.268701 25.445625 
Q 317.378076 26.154375 315.737451 26.154375 
Q 315.188076 26.154375 314.604951 26.045625 
Q 314.021826 25.936875 313.401201 25.719375 
L 313.401201 24.5775 
Q 313.892451 24.864375 314.477451 25.010625 
Q 315.064326 25.156875 315.703701 25.156875 
Q 316.815576 25.156875 317.398701 24.718125 
Q 317.981826 24.279375 317.981826 23.44125 
Q 317.981826 22.666875 317.439951 22.231875 
Q 316.898076 21.795 315.932451 21.795 
L 314.912451 21.795 
L 314.912451 20.821875 
L 315.979326 20.821875 
Q 316.851201 20.821875 317.314326 20.473125 
Q 317.777451 20.124375 317.777451 19.468125 
Q 317.777451 18.795 317.299326 18.435 
Q 316.823076 18.073125 315.932451 18.073125 
Q 315.444951 18.073125 314.888076 18.18 
Q 314.331201 18.285 313.663701 18.50625 
L 313.663701 17.4525 
Q 314.338701 17.265 314.927451 17.17125 
Q 315.516201 17.0775 316.037451 17.0775 
Q 317.385576 17.0775 318.169326 17.690625 
Q 318.954951 18.301875 318.954951 19.344375 
Q 318.954951 20.071875 318.538701 20.5725 
Q 318.122451 21.073125 317.355576 21.26625 
z
M 325.11292 17.235 
L 326.877295 17.235 
L 329.108545 23.188125 
L 331.35292 17.235 
L 333.117295 17.235 
L 333.117295 25.98375 
L 331.962295 25.98375 
L 331.962295 18.301875 
L 329.70667 24.301875 
L 328.51792 24.301875 
L 326.262295 18.301875 
L 326.262295 25.98375 
L 325.11292 25.98375 
L 325.11292 17.235 
z
M 335.419561 19.42125 
L 336.497686 19.42125 
L 336.497686 25.98375 
L 335.419561 25.98375 
L 335.419561 19.42125 
z
M 335.419561 16.865625 
L 336.497686 16.865625 
L 336.497686 18.2325 
L 335.419561 18.2325 
L 335.419561 16.865625 
z
M 339.983545 21.80625 
L 339.983545 25.010625 
L 341.88292 25.010625 
Q 342.837295 25.010625 343.29667 24.615 
Q 343.75792 24.219375 343.75792 23.405625 
Q 343.75792 22.584375 343.29667 22.19625 
Q 342.837295 21.80625 341.88292 21.80625 
L 339.983545 21.80625 
z
M 339.983545 18.208125 
L 339.983545 20.844375 
L 341.73667 20.844375 
Q 342.60292 20.844375 343.02667 20.52 
Q 343.452295 20.19375 343.452295 19.52625 
Q 343.452295 18.864375 343.02667 18.53625 
Q 342.60292 18.208125 341.73667 18.208125 
L 339.983545 18.208125 
z
M 338.80042 17.235 
L 341.824795 17.235 
Q 343.178545 17.235 343.909795 17.7975 
Q 344.64292 18.36 344.64292 19.396875 
Q 344.64292 20.20125 344.26792 20.675625 
Q 343.89292 21.15 343.16542 21.26625 
Q 344.03917 21.45375 344.52292 22.05 
Q 345.00667 22.644375 345.00667 23.535 
Q 345.00667 24.706875 344.209795 25.34625 
Q 343.41292 25.98375 341.941045 25.98375 
L 338.80042 25.98375 
L 338.80042 17.235 
z
M 348.902217 17.235 
L 349.897842 17.235 
L 346.850967 27.0975 
L 345.855342 27.0975 
L 348.902217 17.235 
z
M 355.212061 19.614375 
L 355.212061 20.634375 
Q 354.756436 20.4 354.263311 20.28375 
Q 353.772061 20.165625 353.243311 20.165625 
Q 352.440811 20.165625 352.039561 20.41125 
Q 351.638311 20.656875 351.638311 21.15 
Q 351.638311 21.525 351.925186 21.73875 
Q 352.212061 21.9525 353.080186 22.145625 
L 353.449561 22.228125 
Q 354.597061 22.47375 355.080811 22.921875 
Q 355.564561 23.37 355.564561 24.1725 
Q 355.564561 25.0875 354.840811 25.621875 
Q 354.117061 26.154375 352.851436 26.154375 
Q 352.324561 26.154375 351.752686 26.05125 
Q 351.180811 25.948125 350.548936 25.74375 
L 350.548936 24.63 
Q 351.147061 24.94125 351.726436 25.096875 
Q 352.305811 25.250625 352.875811 25.250625 
Q 353.637061 25.250625 354.045811 24.99 
Q 354.456436 24.729375 354.456436 24.255 
Q 354.456436 23.81625 354.160186 23.581875 
Q 353.865811 23.3475 352.862686 23.13 
L 352.487686 23.041875 
Q 351.486436 22.831875 351.040186 22.395 
Q 350.595811 21.958125 350.595811 21.196875 
Q 350.595811 20.270625 351.252061 19.768125 
Q 351.908311 19.26375 353.115811 19.26375 
Q 353.712061 19.26375 354.238936 19.351875 
Q 354.767686 19.438125 355.212061 19.614375 
z
" style="fill: #262626; stroke: #ffffff; stroke-width: 5"/>
    <path d="M 287.085576 25.801875 
L 287.085576 24.72375 
Q 287.531826 24.935625 287.987451 25.04625 
Q 288.444951 25.156875 288.885576 25.156875 
Q 290.057451 25.156875 290.674326 24.369375 
Q 291.293076 23.581875 291.381201 21.975 
Q 291.041826 22.479375 290.518701 22.749375 
Q 289.997451 23.019375 289.365576 23.019375 
Q 288.053076 23.019375 287.288076 22.22625 
Q 286.523076 21.43125 286.523076 20.053125 
Q 286.523076 18.706875 287.319951 17.893125 
Q 288.116826 17.0775 289.440576 17.0775 
Q 290.959326 17.0775 291.758076 18.241875 
Q 292.558701 19.404375 292.558701 21.61875 
Q 292.558701 23.686875 291.576201 24.920625 
Q 290.595576 26.154375 288.938076 26.154375 
Q 288.491826 26.154375 288.034326 26.06625 
Q 287.578701 25.978125 287.085576 25.801875 
z
M 289.440576 22.093125 
Q 290.237451 22.093125 290.702451 21.549375 
Q 291.169326 21.00375 291.169326 20.053125 
Q 291.169326 19.11 290.702451 18.5625 
Q 290.237451 18.015 289.440576 18.015 
Q 288.643701 18.015 288.178701 18.5625 
Q 287.713701 19.11 287.713701 20.053125 
Q 287.713701 21.00375 288.178701 21.549375 
Q 288.643701 22.093125 289.440576 22.093125 
z
M 294.386592 17.235 
L 300.011592 17.235 
L 300.011592 17.739375 
L 296.835342 25.98375 
L 295.599717 25.98375 
L 298.588467 18.2325 
L 294.386592 18.2325 
L 294.386592 17.235 
z
M 305.572608 18.26625 
L 302.583858 22.936875 
L 305.572608 22.936875 
L 305.572608 18.26625 
z
M 305.261358 17.235 
L 306.750108 17.235 
L 306.750108 22.936875 
L 307.998858 22.936875 
L 307.998858 23.92125 
L 306.750108 23.92125 
L 306.750108 25.98375 
L 305.572608 25.98375 
L 305.572608 23.92125 
L 301.623858 23.92125 
L 301.623858 22.779375 
L 305.261358 17.235 
z
M 309.954248 24.495 
L 311.191748 24.495 
L 311.191748 25.98375 
L 309.954248 25.98375 
L 309.954248 24.495 
z
M 317.355576 21.26625 
Q 318.204951 21.448125 318.681201 22.02375 
Q 319.159326 22.5975 319.159326 23.44125 
Q 319.159326 24.735 318.268701 25.445625 
Q 317.378076 26.154375 315.737451 26.154375 
Q 315.188076 26.154375 314.604951 26.045625 
Q 314.021826 25.936875 313.401201 25.719375 
L 313.401201 24.5775 
Q 313.892451 24.864375 314.477451 25.010625 
Q 315.064326 25.156875 315.703701 25.156875 
Q 316.815576 25.156875 317.398701 24.718125 
Q 317.981826 24.279375 317.981826 23.44125 
Q 317.981826 22.666875 317.439951 22.231875 
Q 316.898076 21.795 315.932451 21.795 
L 314.912451 21.795 
L 314.912451 20.821875 
L 315.979326 20.821875 
Q 316.851201 20.821875 317.314326 20.473125 
Q 317.777451 20.124375 317.777451 19.468125 
Q 317.777451 18.795 317.299326 18.435 
Q 316.823076 18.073125 315.932451 18.073125 
Q 315.444951 18.073125 314.888076 18.18 
Q 314.331201 18.285 313.663701 18.50625 
L 313.663701 17.4525 
Q 314.338701 17.265 314.927451 17.17125 
Q 315.516201 17.0775 316.037451 17.0775 
Q 317.385576 17.0775 318.169326 17.690625 
Q 318.954951 18.301875 318.954951 19.344375 
Q 318.954951 20.071875 318.538701 20.5725 
Q 318.122451 21.073125 317.355576 21.26625 
z
M 325.11292 17.235 
L 326.877295 17.235 
L 329.108545 23.188125 
L 331.35292 17.235 
L 333.117295 17.235 
L 333.117295 25.98375 
L 331.962295 25.98375 
L 331.962295 18.301875 
L 329.70667 24.301875 
L 328.51792 24.301875 
L 326.262295 18.301875 
L 326.262295 25.98375 
L 325.11292 25.98375 
L 325.11292 17.235 
z
M 335.419561 19.42125 
L 336.497686 19.42125 
L 336.497686 25.98375 
L 335.419561 25.98375 
L 335.419561 19.42125 
z
M 335.419561 16.865625 
L 336.497686 16.865625 
L 336.497686 18.2325 
L 335.419561 18.2325 
L 335.419561 16.865625 
z
M 339.983545 21.80625 
L 339.983545 25.010625 
L 341.88292 25.010625 
Q 342.837295 25.010625 343.29667 24.615 
Q 343.75792 24.219375 343.75792 23.405625 
Q 343.75792 22.584375 343.29667 22.19625 
Q 342.837295 21.80625 341.88292 21.80625 
L 339.983545 21.80625 
z
M 339.983545 18.208125 
L 339.983545 20.844375 
L 341.73667 20.844375 
Q 342.60292 20.844375 343.02667 20.52 
Q 343.452295 20.19375 343.452295 19.52625 
Q 343.452295 18.864375 343.02667 18.53625 
Q 342.60292 18.208125 341.73667 18.208125 
L 339.983545 18.208125 
z
M 338.80042 17.235 
L 341.824795 17.235 
Q 343.178545 17.235 343.909795 17.7975 
Q 344.64292 18.36 344.64292 19.396875 
Q 344.64292 20.20125 344.26792 20.675625 
Q 343.89292 21.15 343.16542 21.26625 
Q 344.03917 21.45375 344.52292 22.05 
Q 345.00667 22.644375 345.00667 23.535 
Q 345.00667 24.706875 344.209795 25.34625 
Q 343.41292 25.98375 341.941045 25.98375 
L 338.80042 25.98375 
L 338.80042 17.235 
z
M 348.902217 17.235 
L 349.897842 17.235 
L 346.850967 27.0975 
L 345.855342 27.0975 
L 348.902217 17.235 
z
M 355.212061 19.614375 
L 355.212061 20.634375 
Q 354.756436 20.4 354.263311 20.28375 
Q 353.772061 20.165625 353.243311 20.165625 
Q 352.440811 20.165625 352.039561 20.41125 
Q 351.638311 20.656875 351.638311 21.15 
Q 351.638311 21.525 351.925186 21.73875 
Q 352.212061 21.9525 353.080186 22.145625 
L 353.449561 22.228125 
Q 354.597061 22.47375 355.080811 22.921875 
Q 355.564561 23.37 355.564561 24.1725 
Q 355.564561 25.0875 354.840811 25.621875 
Q 354.117061 26.154375 352.851436 26.154375 
Q 352.324561 26.154375 351.752686 26.05125 
Q 351.180811 25.948125 350.548936 25.74375 
L 350.548936 24.63 
Q 351.147061 24.94125 351.726436 25.096875 
Q 352.305811 25.250625 352.875811 25.250625 
Q 353.637061 25.250625 354.045811 24.99 
Q 354.456436 24.729375 354.456436 24.255 
Q 354.456436 23.81625 354.160186 23.581875 
Q 353.865811 23.3475 352.862686 23.13 
L 352.487686 23.041875 
Q 351.486436 22.831875 351.040186 22.395 
Q 350.595811 21.958125 350.595811 21.196875 
Q 350.595811 20.270625 351.252061 19.768125 
Q 351.908311 19.26375 353.115811 19.26375 
Q 353.712061 19.26375 354.238936 19.351875 
Q 354.767686 19.438125 355.212061 19.614375 
z
" style="fill: #262626"/>
   </g>
   <g id="text_13">
    <path d="M 500.175195 55.933125 
L 502.10832 55.933125 
L 502.10832 49.258125 
L 500.00457 49.68 
L 500.00457 48.601875 
L 502.09707 48.18 
L 503.280195 48.18 
L 503.280195 55.933125 
L 505.21332 55.933125 
L 505.21332 56.92875 
L 500.175195 56.92875 
L 500.175195 55.933125 
z
M 511.190585 52.21125 
Q 512.03996 52.393125 512.51621 52.96875 
Q 512.994335 53.5425 512.994335 54.38625 
Q 512.994335 55.68 512.10371 56.390625 
Q 511.213085 57.099375 509.57246 57.099375 
Q 509.023085 57.099375 508.43996 56.990625 
Q 507.856835 56.881875 507.23621 56.664375 
L 507.23621 55.5225 
Q 507.72746 55.809375 508.31246 55.955625 
Q 508.899335 56.101875 509.53871 56.101875 
Q 510.650585 56.101875 511.23371 55.663125 
Q 511.816835 55.224375 511.816835 54.38625 
Q 511.816835 53.611875 511.27496 53.176875 
Q 510.733085 52.74 509.76746 52.74 
L 508.74746 52.74 
L 508.74746 51.766875 
L 509.814335 51.766875 
Q 510.68621 51.766875 511.149335 51.418125 
Q 511.61246 51.069375 511.61246 50.413125 
Q 511.61246 49.74 511.134335 49.38 
Q 510.658085 49.018125 509.76746 49.018125 
Q 509.27996 49.018125 508.723085 49.125 
Q 508.16621 49.23 507.49871 49.45125 
L 507.49871 48.3975 
Q 508.17371 48.21 508.76246 48.11625 
Q 509.35121 48.0225 509.87246 48.0225 
Q 511.220585 48.0225 512.004335 48.635625 
Q 512.78996 49.246875 512.78996 50.289375 
Q 512.78996 51.016875 512.37371 51.5175 
Q 511.95746 52.018125 511.190585 52.21125 
z
M 517.917851 52.08375 
Q 517.120976 52.08375 516.654101 52.629375 
Q 516.189101 53.173125 516.189101 54.121875 
Q 516.189101 55.065 516.654101 55.614375 
Q 517.120976 56.161875 517.917851 56.161875 
Q 518.714726 56.161875 519.179726 55.614375 
Q 519.644726 55.065 519.644726 54.121875 
Q 519.644726 53.173125 519.179726 52.629375 
Q 518.714726 52.08375 517.917851 52.08375 
z
M 520.267226 48.373125 
L 520.267226 49.45125 
Q 519.820976 49.24125 519.367226 49.130625 
Q 518.913476 49.018125 518.467226 49.018125 
Q 517.295351 49.018125 516.676601 49.809375 
Q 516.059726 50.600625 515.971601 52.2 
Q 516.316601 51.69 516.837851 51.418125 
Q 517.360976 51.14625 517.987226 51.14625 
Q 519.305351 51.14625 520.070351 51.946875 
Q 520.835351 52.745625 520.835351 54.121875 
Q 520.835351 55.47 520.038476 56.285625 
Q 519.241601 57.099375 517.917851 57.099375 
Q 516.399101 57.099375 515.596601 55.936875 
Q 514.794101 54.7725 514.794101 52.56375 
Q 514.794101 50.49 515.778476 49.25625 
Q 516.762851 48.0225 518.420351 48.0225 
Q 518.866601 48.0225 519.320351 48.110625 
Q 519.774101 48.19875 520.267226 48.373125 
z
M 522.873242 55.44 
L 524.110742 55.44 
L 524.110742 56.92875 
L 522.873242 56.92875 
L 522.873242 55.44 
z
M 527.707695 55.933125 
L 531.83832 55.933125 
L 531.83832 56.92875 
L 526.28457 56.92875 
L 526.28457 55.933125 
Q 526.957695 55.235625 528.120195 54.061875 
Q 529.28457 52.88625 529.582695 52.545 
Q 530.15082 51.9075 530.37582 51.465 
Q 530.602695 51.0225 530.602695 50.595 
Q 530.602695 49.8975 530.11332 49.45875 
Q 529.623945 49.018125 528.83832 49.018125 
Q 528.281445 49.018125 527.662695 49.21125 
Q 527.04582 49.404375 526.342695 49.798125 
L 526.342695 48.601875 
Q 527.05707 48.315 527.677695 48.16875 
Q 528.300195 48.0225 528.81582 48.0225 
Q 530.175195 48.0225 530.98332 48.703125 
Q 531.791445 49.381875 531.791445 50.518125 
Q 531.791445 51.058125 531.588945 51.541875 
Q 531.38832 52.02375 530.853945 52.68 
Q 530.707695 52.850625 529.92207 53.6625 
Q 529.13832 54.474375 527.707695 55.933125 
z
M 543.996288 55.68 
L 543.996288 53.330625 
L 542.063163 53.330625 
L 542.063163 52.3575 
L 545.168163 52.3575 
L 545.168163 56.115 
Q 544.483788 56.600625 543.656913 56.85 
Q 542.831913 57.099375 541.894413 57.099375 
Q 539.843163 57.099375 538.684413 55.90125 
Q 537.527538 54.70125 537.527538 52.56375 
Q 537.527538 50.41875 538.684413 49.220625 
Q 539.843163 48.0225 541.894413 48.0225 
Q 542.749413 48.0225 543.520038 48.234375 
Q 544.290663 48.444375 544.941288 48.855 
L 544.941288 50.115 
Q 544.285038 49.558125 543.546288 49.276875 
Q 542.807538 48.995625 541.993788 48.995625 
Q 540.386913 48.995625 539.580663 49.891875 
Q 538.776288 50.788125 538.776288 52.56375 
Q 538.776288 54.33375 539.580663 55.23 
Q 540.386913 56.12625 541.993788 56.12625 
Q 542.620038 56.12625 543.111288 56.0175 
Q 543.604413 55.90875 543.996288 55.68 
z
M 547.283867 50.36625 
L 548.361992 50.36625 
L 548.361992 56.92875 
L 547.283867 56.92875 
L 547.283867 50.36625 
z
M 547.283867 47.810625 
L 548.361992 47.810625 
L 548.361992 49.1775 
L 547.283867 49.1775 
L 547.283867 47.810625 
z
M 551.847851 52.75125 
L 551.847851 55.955625 
L 553.747226 55.955625 
Q 554.701601 55.955625 555.160976 55.56 
Q 555.622226 55.164375 555.622226 54.350625 
Q 555.622226 53.529375 555.160976 53.14125 
Q 554.701601 52.75125 553.747226 52.75125 
L 551.847851 52.75125 
z
M 551.847851 49.153125 
L 551.847851 51.789375 
L 553.600976 51.789375 
Q 554.467226 51.789375 554.890976 51.465 
Q 555.316601 51.13875 555.316601 50.47125 
Q 555.316601 49.809375 554.890976 49.48125 
Q 554.467226 49.153125 553.600976 49.153125 
L 551.847851 49.153125 
z
M 550.664726 48.18 
L 553.689101 48.18 
Q 555.042851 48.18 555.774101 48.7425 
Q 556.507226 49.305 556.507226 50.341875 
Q 556.507226 51.14625 556.132226 51.620625 
Q 555.757226 52.095 555.029726 52.21125 
Q 555.903476 52.39875 556.387226 52.995 
Q 556.870976 53.589375 556.870976 54.48 
Q 556.870976 55.651875 556.074101 56.29125 
Q 555.277226 56.92875 553.805351 56.92875 
L 550.664726 56.92875 
L 550.664726 48.18 
z
M 560.766523 48.18 
L 561.762148 48.18 
L 558.715273 58.0425 
L 557.719648 58.0425 
L 560.766523 48.18 
z
M 567.076367 50.559375 
L 567.076367 51.579375 
Q 566.620742 51.345 566.127617 51.22875 
Q 565.636367 51.110625 565.107617 51.110625 
Q 564.305117 51.110625 563.903867 51.35625 
Q 563.502617 51.601875 563.502617 52.095 
Q 563.502617 52.47 563.789492 52.68375 
Q 564.076367 52.8975 564.944492 53.090625 
L 565.313867 53.173125 
Q 566.461367 53.41875 566.945117 53.866875 
Q 567.428867 54.315 567.428867 55.1175 
Q 567.428867 56.0325 566.705117 56.566875 
Q 565.981367 57.099375 564.715742 57.099375 
Q 564.188867 57.099375 563.616992 56.99625 
Q 563.045117 56.893125 562.413242 56.68875 
L 562.413242 55.575 
Q 563.011367 55.88625 563.590742 56.041875 
Q 564.170117 56.195625 564.740117 56.195625 
Q 565.501367 56.195625 565.910117 55.935 
Q 566.320742 55.674375 566.320742 55.2 
Q 566.320742 54.76125 566.024492 54.526875 
Q 565.730117 54.2925 564.726992 54.075 
L 564.351992 53.986875 
Q 563.350742 53.776875 562.904492 53.34 
Q 562.460117 52.903125 562.460117 52.141875 
Q 562.460117 51.215625 563.116367 50.713125 
Q 563.772617 50.20875 564.980117 50.20875 
Q 565.576367 50.20875 566.103242 50.296875 
Q 566.631992 50.383125 567.076367 50.559375 
z
" style="fill: #262626; stroke: #ffffff; stroke-width: 5"/>
    <path d="M 500.175195 55.933125 
L 502.10832 55.933125 
L 502.10832 49.258125 
L 500.00457 49.68 
L 500.00457 48.601875 
L 502.09707 48.18 
L 503.280195 48.18 
L 503.280195 55.933125 
L 505.21332 55.933125 
L 505.21332 56.92875 
L 500.175195 56.92875 
L 500.175195 55.933125 
z
M 511.190585 52.21125 
Q 512.03996 52.393125 512.51621 52.96875 
Q 512.994335 53.5425 512.994335 54.38625 
Q 512.994335 55.68 512.10371 56.390625 
Q 511.213085 57.099375 509.57246 57.099375 
Q 509.023085 57.099375 508.43996 56.990625 
Q 507.856835 56.881875 507.23621 56.664375 
L 507.23621 55.5225 
Q 507.72746 55.809375 508.31246 55.955625 
Q 508.899335 56.101875 509.53871 56.101875 
Q 510.650585 56.101875 511.23371 55.663125 
Q 511.816835 55.224375 511.816835 54.38625 
Q 511.816835 53.611875 511.27496 53.176875 
Q 510.733085 52.74 509.76746 52.74 
L 508.74746 52.74 
L 508.74746 51.766875 
L 509.814335 51.766875 
Q 510.68621 51.766875 511.149335 51.418125 
Q 511.61246 51.069375 511.61246 50.413125 
Q 511.61246 49.74 511.134335 49.38 
Q 510.658085 49.018125 509.76746 49.018125 
Q 509.27996 49.018125 508.723085 49.125 
Q 508.16621 49.23 507.49871 49.45125 
L 507.49871 48.3975 
Q 508.17371 48.21 508.76246 48.11625 
Q 509.35121 48.0225 509.87246 48.0225 
Q 511.220585 48.0225 512.004335 48.635625 
Q 512.78996 49.246875 512.78996 50.289375 
Q 512.78996 51.016875 512.37371 51.5175 
Q 511.95746 52.018125 511.190585 52.21125 
z
M 517.917851 52.08375 
Q 517.120976 52.08375 516.654101 52.629375 
Q 516.189101 53.173125 516.189101 54.121875 
Q 516.189101 55.065 516.654101 55.614375 
Q 517.120976 56.161875 517.917851 56.161875 
Q 518.714726 56.161875 519.179726 55.614375 
Q 519.644726 55.065 519.644726 54.121875 
Q 519.644726 53.173125 519.179726 52.629375 
Q 518.714726 52.08375 517.917851 52.08375 
z
M 520.267226 48.373125 
L 520.267226 49.45125 
Q 519.820976 49.24125 519.367226 49.130625 
Q 518.913476 49.018125 518.467226 49.018125 
Q 517.295351 49.018125 516.676601 49.809375 
Q 516.059726 50.600625 515.971601 52.2 
Q 516.316601 51.69 516.837851 51.418125 
Q 517.360976 51.14625 517.987226 51.14625 
Q 519.305351 51.14625 520.070351 51.946875 
Q 520.835351 52.745625 520.835351 54.121875 
Q 520.835351 55.47 520.038476 56.285625 
Q 519.241601 57.099375 517.917851 57.099375 
Q 516.399101 57.099375 515.596601 55.936875 
Q 514.794101 54.7725 514.794101 52.56375 
Q 514.794101 50.49 515.778476 49.25625 
Q 516.762851 48.0225 518.420351 48.0225 
Q 518.866601 48.0225 519.320351 48.110625 
Q 519.774101 48.19875 520.267226 48.373125 
z
M 522.873242 55.44 
L 524.110742 55.44 
L 524.110742 56.92875 
L 522.873242 56.92875 
L 522.873242 55.44 
z
M 527.707695 55.933125 
L 531.83832 55.933125 
L 531.83832 56.92875 
L 526.28457 56.92875 
L 526.28457 55.933125 
Q 526.957695 55.235625 528.120195 54.061875 
Q 529.28457 52.88625 529.582695 52.545 
Q 530.15082 51.9075 530.37582 51.465 
Q 530.602695 51.0225 530.602695 50.595 
Q 530.602695 49.8975 530.11332 49.45875 
Q 529.623945 49.018125 528.83832 49.018125 
Q 528.281445 49.018125 527.662695 49.21125 
Q 527.04582 49.404375 526.342695 49.798125 
L 526.342695 48.601875 
Q 527.05707 48.315 527.677695 48.16875 
Q 528.300195 48.0225 528.81582 48.0225 
Q 530.175195 48.0225 530.98332 48.703125 
Q 531.791445 49.381875 531.791445 50.518125 
Q 531.791445 51.058125 531.588945 51.541875 
Q 531.38832 52.02375 530.853945 52.68 
Q 530.707695 52.850625 529.92207 53.6625 
Q 529.13832 54.474375 527.707695 55.933125 
z
M 543.996288 55.68 
L 543.996288 53.330625 
L 542.063163 53.330625 
L 542.063163 52.3575 
L 545.168163 52.3575 
L 545.168163 56.115 
Q 544.483788 56.600625 543.656913 56.85 
Q 542.831913 57.099375 541.894413 57.099375 
Q 539.843163 57.099375 538.684413 55.90125 
Q 537.527538 54.70125 537.527538 52.56375 
Q 537.527538 50.41875 538.684413 49.220625 
Q 539.843163 48.0225 541.894413 48.0225 
Q 542.749413 48.0225 543.520038 48.234375 
Q 544.290663 48.444375 544.941288 48.855 
L 544.941288 50.115 
Q 544.285038 49.558125 543.546288 49.276875 
Q 542.807538 48.995625 541.993788 48.995625 
Q 540.386913 48.995625 539.580663 49.891875 
Q 538.776288 50.788125 538.776288 52.56375 
Q 538.776288 54.33375 539.580663 55.23 
Q 540.386913 56.12625 541.993788 56.12625 
Q 542.620038 56.12625 543.111288 56.0175 
Q 543.604413 55.90875 543.996288 55.68 
z
M 547.283867 50.36625 
L 548.361992 50.36625 
L 548.361992 56.92875 
L 547.283867 56.92875 
L 547.283867 50.36625 
z
M 547.283867 47.810625 
L 548.361992 47.810625 
L 548.361992 49.1775 
L 547.283867 49.1775 
L 547.283867 47.810625 
z
M 551.847851 52.75125 
L 551.847851 55.955625 
L 553.747226 55.955625 
Q 554.701601 55.955625 555.160976 55.56 
Q 555.622226 55.164375 555.622226 54.350625 
Q 555.622226 53.529375 555.160976 53.14125 
Q 554.701601 52.75125 553.747226 52.75125 
L 551.847851 52.75125 
z
M 551.847851 49.153125 
L 551.847851 51.789375 
L 553.600976 51.789375 
Q 554.467226 51.789375 554.890976 51.465 
Q 555.316601 51.13875 555.316601 50.47125 
Q 555.316601 49.809375 554.890976 49.48125 
Q 554.467226 49.153125 553.600976 49.153125 
L 551.847851 49.153125 
z
M 550.664726 48.18 
L 553.689101 48.18 
Q 555.042851 48.18 555.774101 48.7425 
Q 556.507226 49.305 556.507226 50.341875 
Q 556.507226 51.14625 556.132226 51.620625 
Q 555.757226 52.095 555.029726 52.21125 
Q 555.903476 52.39875 556.387226 52.995 
Q 556.870976 53.589375 556.870976 54.48 
Q 556.870976 55.651875 556.074101 56.29125 
Q 555.277226 56.92875 553.805351 56.92875 
L 550.664726 56.92875 
L 550.664726 48.18 
z
M 560.766523 48.18 
L 561.762148 48.18 
L 558.715273 58.0425 
L 557.719648 58.0425 
L 560.766523 48.18 
z
M 567.076367 50.559375 
L 567.076367 51.579375 
Q 566.620742 51.345 566.127617 51.22875 
Q 565.636367 51.110625 565.107617 51.110625 
Q 564.305117 51.110625 563.903867 51.35625 
Q 563.502617 51.601875 563.502617 52.095 
Q 563.502617 52.47 563.789492 52.68375 
Q 564.076367 52.8975 564.944492 53.090625 
L 565.313867 53.173125 
Q 566.461367 53.41875 566.945117 53.866875 
Q 567.428867 54.315 567.428867 55.1175 
Q 567.428867 56.0325 566.705117 56.566875 
Q 565.981367 57.099375 564.715742 57.099375 
Q 564.188867 57.099375 563.616992 56.99625 
Q 563.045117 56.893125 562.413242 56.68875 
L 562.413242 55.575 
Q 563.011367 55.88625 563.590742 56.041875 
Q 564.170117 56.195625 564.740117 56.195625 
Q 565.501367 56.195625 565.910117 55.935 
Q 566.320742 55.674375 566.320742 55.2 
Q 566.320742 54.76125 566.024492 54.526875 
Q 565.730117 54.2925 564.726992 54.075 
L 564.351992 53.986875 
Q 563.350742 53.776875 562.904492 53.34 
Q 562.460117 52.903125 562.460117 52.141875 
Q 562.460117 51.215625 563.116367 50.713125 
Q 563.772617 50.20875 564.980117 50.20875 
Q 565.576367 50.20875 566.103242 50.296875 
Q 566.631992 50.383125 567.076367 50.559375 
z
" style="fill: #262626"/>
   </g>
   <g id="text_14">
    <path d="M 444.647409 83.15625 
Q 445.496784 83.338125 445.973034 83.91375 
Q 446.451159 84.4875 446.451159 85.33125 
Q 446.451159 86.625 445.560534 87.335625 
Q 444.669909 88.044375 443.029284 88.044375 
Q 442.479909 88.044375 441.896784 87.935625 
Q 441.313659 87.826875 440.693034 87.609375 
L 440.693034 86.4675 
Q 441.184284 86.754375 441.769284 86.900625 
Q 442.356159 87.046875 442.995534 87.046875 
Q 444.107409 87.046875 444.690534 86.608125 
Q 445.273659 86.169375 445.273659 85.33125 
Q 445.273659 84.556875 444.731784 84.121875 
Q 444.189909 83.685 443.224284 83.685 
L 442.204284 83.685 
L 442.204284 82.711875 
L 443.271159 82.711875 
Q 444.143034 82.711875 444.606159 82.363125 
Q 445.069284 82.014375 445.069284 81.358125 
Q 445.069284 80.685 444.591159 80.325 
Q 444.114909 79.963125 443.224284 79.963125 
Q 442.736784 79.963125 442.179909 80.07 
Q 441.623034 80.175 440.955534 80.39625 
L 440.955534 79.3425 
Q 441.630534 79.155 442.219284 79.06125 
Q 442.808034 78.9675 443.329284 78.9675 
Q 444.677409 78.9675 445.461159 79.580625 
Q 446.246784 80.191875 446.246784 81.234375 
Q 446.246784 81.961875 445.830534 82.4625 
Q 445.414284 82.963125 444.647409 83.15625 
z
M 451.948425 80.15625 
L 448.959675 84.826875 
L 451.948425 84.826875 
L 451.948425 80.15625 
z
M 451.637175 79.125 
L 453.125925 79.125 
L 453.125925 84.826875 
L 454.374675 84.826875 
L 454.374675 85.81125 
L 453.125925 85.81125 
L 453.125925 87.87375 
L 451.948425 87.87375 
L 451.948425 85.81125 
L 447.999675 85.81125 
L 447.999675 84.669375 
L 451.637175 79.125 
z
M 456.330065 86.385 
L 457.567565 86.385 
L 457.567565 87.87375 
L 456.330065 87.87375 
L 456.330065 86.385 
z
M 460.157643 79.125 
L 464.803893 79.125 
L 464.803893 80.1225 
L 461.241393 80.1225 
L 461.241393 82.265625 
Q 461.498268 82.1775 461.755143 82.134375 
Q 462.013893 82.09125 462.272643 82.09125 
Q 463.737018 82.09125 464.592018 82.89375 
Q 465.448893 83.69625 465.448893 85.066875 
Q 465.448893 86.47875 464.569518 87.2625 
Q 463.690143 88.044375 462.090768 88.044375 
Q 461.539518 88.044375 460.967643 87.950625 
Q 460.397643 87.856875 459.788268 87.669375 
L 459.788268 86.47875 
Q 460.315143 86.765625 460.877643 86.90625 
Q 461.440143 87.046875 462.066393 87.046875 
Q 463.080768 87.046875 463.671393 86.514375 
Q 464.263893 85.981875 464.263893 85.066875 
Q 464.263893 84.15375 463.671393 83.62125 
Q 463.080768 83.086875 462.066393 83.086875 
Q 461.592018 83.086875 461.119518 83.191875 
Q 460.648893 83.296875 460.157643 83.52 
L 460.157643 79.125 
z
M 477.453112 86.625 
L 477.453112 84.275625 
L 475.519987 84.275625 
L 475.519987 83.3025 
L 478.624987 83.3025 
L 478.624987 87.06 
Q 477.940612 87.545625 477.113737 87.795 
Q 476.288737 88.044375 475.351237 88.044375 
Q 473.299987 88.044375 472.141237 86.84625 
Q 470.984362 85.64625 470.984362 83.50875 
Q 470.984362 81.36375 472.141237 80.165625 
Q 473.299987 78.9675 475.351237 78.9675 
Q 476.206237 78.9675 476.976862 79.179375 
Q 477.747487 79.389375 478.398112 79.8 
L 478.398112 81.06 
Q 477.741862 80.503125 477.003112 80.221875 
Q 476.264362 79.940625 475.450612 79.940625 
Q 473.843737 79.940625 473.037487 80.836875 
Q 472.233112 81.733125 472.233112 83.50875 
Q 472.233112 85.27875 473.037487 86.175 
Q 473.843737 87.07125 475.450612 87.07125 
Q 476.076862 87.07125 476.568112 86.9625 
Q 477.061237 86.85375 477.453112 86.625 
z
M 480.74069 81.31125 
L 481.818815 81.31125 
L 481.818815 87.87375 
L 480.74069 87.87375 
L 480.74069 81.31125 
z
M 480.74069 78.755625 
L 481.818815 78.755625 
L 481.818815 80.1225 
L 480.74069 80.1225 
L 480.74069 78.755625 
z
M 485.304675 83.69625 
L 485.304675 86.900625 
L 487.20405 86.900625 
Q 488.158425 86.900625 488.6178 86.505 
Q 489.07905 86.109375 489.07905 85.295625 
Q 489.07905 84.474375 488.6178 84.08625 
Q 488.158425 83.69625 487.20405 83.69625 
L 485.304675 83.69625 
z
M 485.304675 80.098125 
L 485.304675 82.734375 
L 487.0578 82.734375 
Q 487.92405 82.734375 488.3478 82.41 
Q 488.773425 82.08375 488.773425 81.41625 
Q 488.773425 80.754375 488.3478 80.42625 
Q 487.92405 80.098125 487.0578 80.098125 
L 485.304675 80.098125 
z
M 484.12155 79.125 
L 487.145925 79.125 
Q 488.499675 79.125 489.230925 79.6875 
Q 489.96405 80.25 489.96405 81.286875 
Q 489.96405 82.09125 489.58905 82.565625 
Q 489.21405 83.04 488.48655 83.15625 
Q 489.3603 83.34375 489.84405 83.94 
Q 490.3278 84.534375 490.3278 85.425 
Q 490.3278 86.596875 489.530925 87.23625 
Q 488.73405 87.87375 487.262175 87.87375 
L 484.12155 87.87375 
L 484.12155 79.125 
z
M 494.223346 79.125 
L 495.218971 79.125 
L 492.172096 88.9875 
L 491.176471 88.9875 
L 494.223346 79.125 
z
M 500.53319 81.504375 
L 500.53319 82.524375 
Q 500.077565 82.29 499.58444 82.17375 
Q 499.09319 82.055625 498.56444 82.055625 
Q 497.76194 82.055625 497.36069 82.30125 
Q 496.95944 82.546875 496.95944 83.04 
Q 496.95944 83.415 497.246315 83.62875 
Q 497.53319 83.8425 498.401315 84.035625 
L 498.77069 84.118125 
Q 499.91819 84.36375 500.40194 84.811875 
Q 500.88569 85.26 500.88569 86.0625 
Q 500.88569 86.9775 500.16194 87.511875 
Q 499.43819 88.044375 498.172565 88.044375 
Q 497.64569 88.044375 497.073815 87.94125 
Q 496.50194 87.838125 495.870065 87.63375 
L 495.870065 86.52 
Q 496.46819 86.83125 497.047565 86.986875 
Q 497.62694 87.140625 498.19694 87.140625 
Q 498.95819 87.140625 499.36694 86.88 
Q 499.777565 86.619375 499.777565 86.145 
Q 499.777565 85.70625 499.481315 85.471875 
Q 499.18694 85.2375 498.183815 85.02 
L 497.808815 84.931875 
Q 496.807565 84.721875 496.361315 84.285 
Q 495.91694 83.848125 495.91694 83.086875 
Q 495.91694 82.160625 496.57319 81.658125 
Q 497.22944 81.15375 498.43694 81.15375 
Q 499.03319 81.15375 499.560065 81.241875 
Q 500.088815 81.328125 500.53319 81.504375 
z
" style="fill: #262626; stroke: #ffffff; stroke-width: 5"/>
    <path d="M 444.647409 83.15625 
Q 445.496784 83.338125 445.973034 83.91375 
Q 446.451159 84.4875 446.451159 85.33125 
Q 446.451159 86.625 445.560534 87.335625 
Q 444.669909 88.044375 443.029284 88.044375 
Q 442.479909 88.044375 441.896784 87.935625 
Q 441.313659 87.826875 440.693034 87.609375 
L 440.693034 86.4675 
Q 441.184284 86.754375 441.769284 86.900625 
Q 442.356159 87.046875 442.995534 87.046875 
Q 444.107409 87.046875 444.690534 86.608125 
Q 445.273659 86.169375 445.273659 85.33125 
Q 445.273659 84.556875 444.731784 84.121875 
Q 444.189909 83.685 443.224284 83.685 
L 442.204284 83.685 
L 442.204284 82.711875 
L 443.271159 82.711875 
Q 444.143034 82.711875 444.606159 82.363125 
Q 445.069284 82.014375 445.069284 81.358125 
Q 445.069284 80.685 444.591159 80.325 
Q 444.114909 79.963125 443.224284 79.963125 
Q 442.736784 79.963125 442.179909 80.07 
Q 441.623034 80.175 440.955534 80.39625 
L 440.955534 79.3425 
Q 441.630534 79.155 442.219284 79.06125 
Q 442.808034 78.9675 443.329284 78.9675 
Q 444.677409 78.9675 445.461159 79.580625 
Q 446.246784 80.191875 446.246784 81.234375 
Q 446.246784 81.961875 445.830534 82.4625 
Q 445.414284 82.963125 444.647409 83.15625 
z
M 451.948425 80.15625 
L 448.959675 84.826875 
L 451.948425 84.826875 
L 451.948425 80.15625 
z
M 451.637175 79.125 
L 453.125925 79.125 
L 453.125925 84.826875 
L 454.374675 84.826875 
L 454.374675 85.81125 
L 453.125925 85.81125 
L 453.125925 87.87375 
L 451.948425 87.87375 
L 451.948425 85.81125 
L 447.999675 85.81125 
L 447.999675 84.669375 
L 451.637175 79.125 
z
M 456.330065 86.385 
L 457.567565 86.385 
L 457.567565 87.87375 
L 456.330065 87.87375 
L 456.330065 86.385 
z
M 460.157643 79.125 
L 464.803893 79.125 
L 464.803893 80.1225 
L 461.241393 80.1225 
L 461.241393 82.265625 
Q 461.498268 82.1775 461.755143 82.134375 
Q 462.013893 82.09125 462.272643 82.09125 
Q 463.737018 82.09125 464.592018 82.89375 
Q 465.448893 83.69625 465.448893 85.066875 
Q 465.448893 86.47875 464.569518 87.2625 
Q 463.690143 88.044375 462.090768 88.044375 
Q 461.539518 88.044375 460.967643 87.950625 
Q 460.397643 87.856875 459.788268 87.669375 
L 459.788268 86.47875 
Q 460.315143 86.765625 460.877643 86.90625 
Q 461.440143 87.046875 462.066393 87.046875 
Q 463.080768 87.046875 463.671393 86.514375 
Q 464.263893 85.981875 464.263893 85.066875 
Q 464.263893 84.15375 463.671393 83.62125 
Q 463.080768 83.086875 462.066393 83.086875 
Q 461.592018 83.086875 461.119518 83.191875 
Q 460.648893 83.296875 460.157643 83.52 
L 460.157643 79.125 
z
M 477.453112 86.625 
L 477.453112 84.275625 
L 475.519987 84.275625 
L 475.519987 83.3025 
L 478.624987 83.3025 
L 478.624987 87.06 
Q 477.940612 87.545625 477.113737 87.795 
Q 476.288737 88.044375 475.351237 88.044375 
Q 473.299987 88.044375 472.141237 86.84625 
Q 470.984362 85.64625 470.984362 83.50875 
Q 470.984362 81.36375 472.141237 80.165625 
Q 473.299987 78.9675 475.351237 78.9675 
Q 476.206237 78.9675 476.976862 79.179375 
Q 477.747487 79.389375 478.398112 79.8 
L 478.398112 81.06 
Q 477.741862 80.503125 477.003112 80.221875 
Q 476.264362 79.940625 475.450612 79.940625 
Q 473.843737 79.940625 473.037487 80.836875 
Q 472.233112 81.733125 472.233112 83.50875 
Q 472.233112 85.27875 473.037487 86.175 
Q 473.843737 87.07125 475.450612 87.07125 
Q 476.076862 87.07125 476.568112 86.9625 
Q 477.061237 86.85375 477.453112 86.625 
z
M 480.74069 81.31125 
L 481.818815 81.31125 
L 481.818815 87.87375 
L 480.74069 87.87375 
L 480.74069 81.31125 
z
M 480.74069 78.755625 
L 481.818815 78.755625 
L 481.818815 80.1225 
L 480.74069 80.1225 
L 480.74069 78.755625 
z
M 485.304675 83.69625 
L 485.304675 86.900625 
L 487.20405 86.900625 
Q 488.158425 86.900625 488.6178 86.505 
Q 489.07905 86.109375 489.07905 85.295625 
Q 489.07905 84.474375 488.6178 84.08625 
Q 488.158425 83.69625 487.20405 83.69625 
L 485.304675 83.69625 
z
M 485.304675 80.098125 
L 485.304675 82.734375 
L 487.0578 82.734375 
Q 487.92405 82.734375 488.3478 82.41 
Q 488.773425 82.08375 488.773425 81.41625 
Q 488.773425 80.754375 488.3478 80.42625 
Q 487.92405 80.098125 487.0578 80.098125 
L 485.304675 80.098125 
z
M 484.12155 79.125 
L 487.145925 79.125 
Q 488.499675 79.125 489.230925 79.6875 
Q 489.96405 80.25 489.96405 81.286875 
Q 489.96405 82.09125 489.58905 82.565625 
Q 489.21405 83.04 488.48655 83.15625 
Q 489.3603 83.34375 489.84405 83.94 
Q 490.3278 84.534375 490.3278 85.425 
Q 490.3278 86.596875 489.530925 87.23625 
Q 488.73405 87.87375 487.262175 87.87375 
L 484.12155 87.87375 
L 484.12155 79.125 
z
M 494.223346 79.125 
L 495.218971 79.125 
L 492.172096 88.9875 
L 491.176471 88.9875 
L 494.223346 79.125 
z
M 500.53319 81.504375 
L 500.53319 82.524375 
Q 500.077565 82.29 499.58444 82.17375 
Q 499.09319 82.055625 498.56444 82.055625 
Q 497.76194 82.055625 497.36069 82.30125 
Q 496.95944 82.546875 496.95944 83.04 
Q 496.95944 83.415 497.246315 83.62875 
Q 497.53319 83.8425 498.401315 84.035625 
L 498.77069 84.118125 
Q 499.91819 84.36375 500.40194 84.811875 
Q 500.88569 85.26 500.88569 86.0625 
Q 500.88569 86.9775 500.16194 87.511875 
Q 499.43819 88.044375 498.172565 88.044375 
Q 497.64569 88.044375 497.073815 87.94125 
Q 496.50194 87.838125 495.870065 87.63375 
L 495.870065 86.52 
Q 496.46819 86.83125 497.047565 86.986875 
Q 497.62694 87.140625 498.19694 87.140625 
Q 498.95819 87.140625 499.36694 86.88 
Q 499.777565 86.619375 499.777565 86.145 
Q 499.777565 85.70625 499.481315 85.471875 
Q 499.18694 85.2375 498.183815 85.02 
L 497.808815 84.931875 
Q 496.807565 84.721875 496.361315 84.285 
Q 495.91694 83.848125 495.91694 83.086875 
Q 495.91694 82.160625 496.57319 81.658125 
Q 497.22944 81.15375 498.43694 81.15375 
Q 499.03319 81.15375 499.560065 81.241875 
Q 500.088815 81.328125 500.53319 81.504375 
z
" style="fill: #262626"/>
   </g>
   <g id="text_15">
    <path d="M 543.389555 114.10125 
Q 544.23893 114.283125 544.71518 114.85875 
Q 545.193305 115.4325 545.193305 116.27625 
Q 545.193305 117.57 544.30268 118.280625 
Q 543.412055 118.989375 541.77143 118.989375 
Q 541.222055 118.989375 540.63893 118.880625 
Q 540.055805 118.771875 539.43518 118.554375 
L 539.43518 117.4125 
Q 539.92643 117.699375 540.51143 117.845625 
Q 541.098305 117.991875 541.73768 117.991875 
Q 542.849555 117.991875 543.43268 117.553125 
Q 544.015805 117.114375 544.015805 116.27625 
Q 544.015805 115.501875 543.47393 115.066875 
Q 542.932055 114.63 541.96643 114.63 
L 540.94643 114.63 
L 540.94643 113.656875 
L 542.013305 113.656875 
Q 542.88518 113.656875 543.348305 113.308125 
Q 543.81143 112.959375 543.81143 112.303125 
Q 543.81143 111.63 543.333305 111.27 
Q 542.857055 110.908125 541.96643 110.908125 
Q 541.47893 110.908125 540.922055 111.015 
Q 540.36518 111.12 539.69768 111.34125 
L 539.69768 110.2875 
Q 540.37268 110.1 540.96143 110.00625 
Q 541.55018 109.9125 542.07143 109.9125 
Q 543.419555 109.9125 544.203305 110.525625 
Q 544.98893 111.136875 544.98893 112.179375 
Q 544.98893 112.906875 544.57268 113.4075 
Q 544.15643 113.908125 543.389555 114.10125 
z
M 550.69057 111.10125 
L 547.70182 115.771875 
L 550.69057 115.771875 
L 550.69057 111.10125 
z
M 550.37932 110.07 
L 551.86807 110.07 
L 551.86807 115.771875 
L 553.11682 115.771875 
L 553.11682 116.75625 
L 551.86807 116.75625 
L 551.86807 118.81875 
L 550.69057 118.81875 
L 550.69057 116.75625 
L 546.74182 116.75625 
L 546.74182 115.614375 
L 550.37932 110.07 
z
M 558.325336 111.10125 
L 555.336586 115.771875 
L 558.325336 115.771875 
L 558.325336 111.10125 
z
M 558.014086 110.07 
L 559.502836 110.07 
L 559.502836 115.771875 
L 560.751586 115.771875 
L 560.751586 116.75625 
L 559.502836 116.75625 
L 559.502836 118.81875 
L 558.325336 118.81875 
L 558.325336 116.75625 
L 554.376586 116.75625 
L 554.376586 115.614375 
L 558.014086 110.07 
z
M 562.706977 117.33 
L 563.944477 117.33 
L 563.944477 118.81875 
L 562.706977 118.81875 
L 562.706977 117.33 
z
M 569.05268 114.66375 
Q 568.20893 114.66375 567.72518 115.115625 
Q 567.243305 115.5675 567.243305 116.356875 
Q 567.243305 117.148125 567.72518 117.6 
Q 568.20893 118.051875 569.05268 118.051875 
Q 569.89643 118.051875 570.382055 117.598125 
Q 570.869555 117.1425 570.869555 116.356875 
Q 570.869555 115.5675 570.385805 115.115625 
Q 569.90393 114.66375 569.05268 114.66375 
z
M 567.869555 114.16125 
Q 567.108305 113.97375 566.68268 113.4525 
Q 566.25893 112.929375 566.25893 112.179375 
Q 566.25893 111.13125 567.00518 110.521875 
Q 567.753305 109.9125 569.05268 109.9125 
Q 570.359555 109.9125 571.10393 110.521875 
Q 571.848305 111.13125 571.848305 112.179375 
Q 571.848305 112.929375 571.42268 113.4525 
Q 570.99893 113.97375 570.243305 114.16125 
Q 571.098305 114.36 571.574555 114.94125 
Q 572.05268 115.520625 572.05268 116.356875 
Q 572.05268 117.63 571.27643 118.310625 
Q 570.50018 118.989375 569.05268 118.989375 
Q 567.607055 118.989375 566.82893 118.310625 
Q 566.05268 117.63 566.05268 116.356875 
Q 566.05268 115.520625 566.53268 114.94125 
Q 567.014555 114.36 567.869555 114.16125 
z
M 567.43643 112.291875 
Q 567.43643 112.970625 567.86018 113.35125 
Q 568.285805 113.731875 569.05268 113.731875 
Q 569.815805 113.731875 570.24518 113.35125 
Q 570.67643 112.970625 570.67643 112.291875 
Q 570.67643 111.61125 570.24518 111.230625 
Q 569.815805 110.85 569.05268 110.85 
Q 568.285805 110.85 567.86018 111.230625 
Q 567.43643 111.61125 567.43643 112.291875 
z
M 583.830023 117.57 
L 583.830023 115.220625 
L 581.896898 115.220625 
L 581.896898 114.2475 
L 585.001898 114.2475 
L 585.001898 118.005 
Q 584.317523 118.490625 583.490648 118.74 
Q 582.665648 118.989375 581.728148 118.989375 
Q 579.676898 118.989375 578.518148 117.79125 
Q 577.361273 116.59125 577.361273 114.45375 
Q 577.361273 112.30875 578.518148 111.110625 
Q 579.676898 109.9125 581.728148 109.9125 
Q 582.583148 109.9125 583.353773 110.124375 
Q 584.124398 110.334375 584.775023 110.745 
L 584.775023 112.005 
Q 584.118773 111.448125 583.380023 111.166875 
Q 582.641273 110.885625 581.827523 110.885625 
Q 580.220648 110.885625 579.414398 111.781875 
Q 578.610023 112.678125 578.610023 114.45375 
Q 578.610023 116.22375 579.414398 117.12 
Q 580.220648 118.01625 581.827523 118.01625 
Q 582.453773 118.01625 582.945023 117.9075 
Q 583.438148 117.79875 583.830023 117.57 
z
M 587.117602 112.25625 
L 588.195727 112.25625 
L 588.195727 118.81875 
L 587.117602 118.81875 
L 587.117602 112.25625 
z
M 587.117602 109.700625 
L 588.195727 109.700625 
L 588.195727 111.0675 
L 587.117602 111.0675 
L 587.117602 109.700625 
z
M 591.681586 114.64125 
L 591.681586 117.845625 
L 593.580961 117.845625 
Q 594.535336 117.845625 594.994711 117.45 
Q 595.455961 117.054375 595.455961 116.240625 
Q 595.455961 115.419375 594.994711 115.03125 
Q 594.535336 114.64125 593.580961 114.64125 
L 591.681586 114.64125 
z
M 591.681586 111.043125 
L 591.681586 113.679375 
L 593.434711 113.679375 
Q 594.300961 113.679375 594.724711 113.355 
Q 595.150336 113.02875 595.150336 112.36125 
Q 595.150336 111.699375 594.724711 111.37125 
Q 594.300961 111.043125 593.434711 111.043125 
L 591.681586 111.043125 
z
M 590.498461 110.07 
L 593.522836 110.07 
Q 594.876586 110.07 595.607836 110.6325 
Q 596.340961 111.195 596.340961 112.231875 
Q 596.340961 113.03625 595.965961 113.510625 
Q 595.590961 113.985 594.863461 114.10125 
Q 595.737211 114.28875 596.220961 114.885 
Q 596.704711 115.479375 596.704711 116.37 
Q 596.704711 117.541875 595.907836 118.18125 
Q 595.110961 118.81875 593.639086 118.81875 
L 590.498461 118.81875 
L 590.498461 110.07 
z
M 600.600258 110.07 
L 601.595883 110.07 
L 598.549008 119.9325 
L 597.553383 119.9325 
L 600.600258 110.07 
z
M 606.910102 112.449375 
L 606.910102 113.469375 
Q 606.454477 113.235 605.961352 113.11875 
Q 605.470102 113.000625 604.941352 113.000625 
Q 604.138852 113.000625 603.737602 113.24625 
Q 603.336352 113.491875 603.336352 113.985 
Q 603.336352 114.36 603.623227 114.57375 
Q 603.910102 114.7875 604.778227 114.980625 
L 605.147602 115.063125 
Q 606.295102 115.30875 606.778852 115.756875 
Q 607.262602 116.205 607.262602 117.0075 
Q 607.262602 117.9225 606.538852 118.456875 
Q 605.815102 118.989375 604.549477 118.989375 
Q 604.022602 118.989375 603.450727 118.88625 
Q 602.878852 118.783125 602.246977 118.57875 
L 602.246977 117.465 
Q 602.845102 117.77625 603.424477 117.931875 
Q 604.003852 118.085625 604.573852 118.085625 
Q 605.335102 118.085625 605.743852 117.825 
Q 606.154477 117.564375 606.154477 117.09 
Q 606.154477 116.65125 605.858227 116.416875 
Q 605.563852 116.1825 604.560727 115.965 
L 604.185727 115.876875 
Q 603.184477 115.666875 602.738227 115.23 
Q 602.293852 114.793125 602.293852 114.031875 
Q 602.293852 113.105625 602.950102 112.603125 
Q 603.606352 112.09875 604.813852 112.09875 
Q 605.410102 112.09875 605.936977 112.186875 
Q 606.465727 112.273125 606.910102 112.449375 
z
" style="fill: #262626; stroke: #ffffff; stroke-width: 5"/>
    <path d="M 543.389555 114.10125 
Q 544.23893 114.283125 544.71518 114.85875 
Q 545.193305 115.4325 545.193305 116.27625 
Q 545.193305 117.57 544.30268 118.280625 
Q 543.412055 118.989375 541.77143 118.989375 
Q 541.222055 118.989375 540.63893 118.880625 
Q 540.055805 118.771875 539.43518 118.554375 
L 539.43518 117.4125 
Q 539.92643 117.699375 540.51143 117.845625 
Q 541.098305 117.991875 541.73768 117.991875 
Q 542.849555 117.991875 543.43268 117.553125 
Q 544.015805 117.114375 544.015805 116.27625 
Q 544.015805 115.501875 543.47393 115.066875 
Q 542.932055 114.63 541.96643 114.63 
L 540.94643 114.63 
L 540.94643 113.656875 
L 542.013305 113.656875 
Q 542.88518 113.656875 543.348305 113.308125 
Q 543.81143 112.959375 543.81143 112.303125 
Q 543.81143 111.63 543.333305 111.27 
Q 542.857055 110.908125 541.96643 110.908125 
Q 541.47893 110.908125 540.922055 111.015 
Q 540.36518 111.12 539.69768 111.34125 
L 539.69768 110.2875 
Q 540.37268 110.1 540.96143 110.00625 
Q 541.55018 109.9125 542.07143 109.9125 
Q 543.419555 109.9125 544.203305 110.525625 
Q 544.98893 111.136875 544.98893 112.179375 
Q 544.98893 112.906875 544.57268 113.4075 
Q 544.15643 113.908125 543.389555 114.10125 
z
M 550.69057 111.10125 
L 547.70182 115.771875 
L 550.69057 115.771875 
L 550.69057 111.10125 
z
M 550.37932 110.07 
L 551.86807 110.07 
L 551.86807 115.771875 
L 553.11682 115.771875 
L 553.11682 116.75625 
L 551.86807 116.75625 
L 551.86807 118.81875 
L 550.69057 118.81875 
L 550.69057 116.75625 
L 546.74182 116.75625 
L 546.74182 115.614375 
L 550.37932 110.07 
z
M 558.325336 111.10125 
L 555.336586 115.771875 
L 558.325336 115.771875 
L 558.325336 111.10125 
z
M 558.014086 110.07 
L 559.502836 110.07 
L 559.502836 115.771875 
L 560.751586 115.771875 
L 560.751586 116.75625 
L 559.502836 116.75625 
L 559.502836 118.81875 
L 558.325336 118.81875 
L 558.325336 116.75625 
L 554.376586 116.75625 
L 554.376586 115.614375 
L 558.014086 110.07 
z
M 562.706977 117.33 
L 563.944477 117.33 
L 563.944477 118.81875 
L 562.706977 118.81875 
L 562.706977 117.33 
z
M 569.05268 114.66375 
Q 568.20893 114.66375 567.72518 115.115625 
Q 567.243305 115.5675 567.243305 116.356875 
Q 567.243305 117.148125 567.72518 117.6 
Q 568.20893 118.051875 569.05268 118.051875 
Q 569.89643 118.051875 570.382055 117.598125 
Q 570.869555 117.1425 570.869555 116.356875 
Q 570.869555 115.5675 570.385805 115.115625 
Q 569.90393 114.66375 569.05268 114.66375 
z
M 567.869555 114.16125 
Q 567.108305 113.97375 566.68268 113.4525 
Q 566.25893 112.929375 566.25893 112.179375 
Q 566.25893 111.13125 567.00518 110.521875 
Q 567.753305 109.9125 569.05268 109.9125 
Q 570.359555 109.9125 571.10393 110.521875 
Q 571.848305 111.13125 571.848305 112.179375 
Q 571.848305 112.929375 571.42268 113.4525 
Q 570.99893 113.97375 570.243305 114.16125 
Q 571.098305 114.36 571.574555 114.94125 
Q 572.05268 115.520625 572.05268 116.356875 
Q 572.05268 117.63 571.27643 118.310625 
Q 570.50018 118.989375 569.05268 118.989375 
Q 567.607055 118.989375 566.82893 118.310625 
Q 566.05268 117.63 566.05268 116.356875 
Q 566.05268 115.520625 566.53268 114.94125 
Q 567.014555 114.36 567.869555 114.16125 
z
M 567.43643 112.291875 
Q 567.43643 112.970625 567.86018 113.35125 
Q 568.285805 113.731875 569.05268 113.731875 
Q 569.815805 113.731875 570.24518 113.35125 
Q 570.67643 112.970625 570.67643 112.291875 
Q 570.67643 111.61125 570.24518 111.230625 
Q 569.815805 110.85 569.05268 110.85 
Q 568.285805 110.85 567.86018 111.230625 
Q 567.43643 111.61125 567.43643 112.291875 
z
M 583.830023 117.57 
L 583.830023 115.220625 
L 581.896898 115.220625 
L 581.896898 114.2475 
L 585.001898 114.2475 
L 585.001898 118.005 
Q 584.317523 118.490625 583.490648 118.74 
Q 582.665648 118.989375 581.728148 118.989375 
Q 579.676898 118.989375 578.518148 117.79125 
Q 577.361273 116.59125 577.361273 114.45375 
Q 577.361273 112.30875 578.518148 111.110625 
Q 579.676898 109.9125 581.728148 109.9125 
Q 582.583148 109.9125 583.353773 110.124375 
Q 584.124398 110.334375 584.775023 110.745 
L 584.775023 112.005 
Q 584.118773 111.448125 583.380023 111.166875 
Q 582.641273 110.885625 581.827523 110.885625 
Q 580.220648 110.885625 579.414398 111.781875 
Q 578.610023 112.678125 578.610023 114.45375 
Q 578.610023 116.22375 579.414398 117.12 
Q 580.220648 118.01625 581.827523 118.01625 
Q 582.453773 118.01625 582.945023 117.9075 
Q 583.438148 117.79875 583.830023 117.57 
z
M 587.117602 112.25625 
L 588.195727 112.25625 
L 588.195727 118.81875 
L 587.117602 118.81875 
L 587.117602 112.25625 
z
M 587.117602 109.700625 
L 588.195727 109.700625 
L 588.195727 111.0675 
L 587.117602 111.0675 
L 587.117602 109.700625 
z
M 591.681586 114.64125 
L 591.681586 117.845625 
L 593.580961 117.845625 
Q 594.535336 117.845625 594.994711 117.45 
Q 595.455961 117.054375 595.455961 116.240625 
Q 595.455961 115.419375 594.994711 115.03125 
Q 594.535336 114.64125 593.580961 114.64125 
L 591.681586 114.64125 
z
M 591.681586 111.043125 
L 591.681586 113.679375 
L 593.434711 113.679375 
Q 594.300961 113.679375 594.724711 113.355 
Q 595.150336 113.02875 595.150336 112.36125 
Q 595.150336 111.699375 594.724711 111.37125 
Q 594.300961 111.043125 593.434711 111.043125 
L 591.681586 111.043125 
z
M 590.498461 110.07 
L 593.522836 110.07 
Q 594.876586 110.07 595.607836 110.6325 
Q 596.340961 111.195 596.340961 112.231875 
Q 596.340961 113.03625 595.965961 113.510625 
Q 595.590961 113.985 594.863461 114.10125 
Q 595.737211 114.28875 596.220961 114.885 
Q 596.704711 115.479375 596.704711 116.37 
Q 596.704711 117.541875 595.907836 118.18125 
Q 595.110961 118.81875 593.639086 118.81875 
L 590.498461 118.81875 
L 590.498461 110.07 
z
M 600.600258 110.07 
L 601.595883 110.07 
L 598.549008 119.9325 
L 597.553383 119.9325 
L 600.600258 110.07 
z
M 606.910102 112.449375 
L 606.910102 113.469375 
Q 606.454477 113.235 605.961352 113.11875 
Q 605.470102 113.000625 604.941352 113.000625 
Q 604.138852 113.000625 603.737602 113.24625 
Q 603.336352 113.491875 603.336352 113.985 
Q 603.336352 114.36 603.623227 114.57375 
Q 603.910102 114.7875 604.778227 114.980625 
L 605.147602 115.063125 
Q 606.295102 115.30875 606.778852 115.756875 
Q 607.262602 116.205 607.262602 117.0075 
Q 607.262602 117.9225 606.538852 118.456875 
Q 605.815102 118.989375 604.549477 118.989375 
Q 604.022602 118.989375 603.450727 118.88625 
Q 602.878852 118.783125 602.246977 118.57875 
L 602.246977 117.465 
Q 602.845102 117.77625 603.424477 117.931875 
Q 604.003852 118.085625 604.573852 118.085625 
Q 605.335102 118.085625 605.743852 117.825 
Q 606.154477 117.564375 606.154477 117.09 
Q 606.154477 116.65125 605.858227 116.416875 
Q 605.563852 116.1825 604.560727 115.965 
L 604.185727 115.876875 
Q 603.184477 115.666875 602.738227 115.23 
Q 602.293852 114.793125 602.293852 114.031875 
Q 602.293852 113.105625 602.950102 112.603125 
Q 603.606352 112.09875 604.813852 112.09875 
Q 605.410102 112.09875 605.936977 112.186875 
Q 606.465727 112.273125 606.910102 112.449375 
z
" style="fill: #262626"/>
   </g>
  </g>
 </g>
 <defs>
  <clipPath id="pf990d21f8f">
   <rect x="179.140625" y="7.2" width="493.80496" height="123.78"/>
  </clipPath>
 </defs>
</svg>
